<svg xmlns="http://www.w3.org/2000/svg" style="display:none"><symbol id="shape-close" viewBox="0 0 595.28 841.89"><path class="left" d="M72.4 705.178l509.473-509.474c40.222-40.222-18.77-99.213-58.992-58.992L13.408 646.186c-40.22 40.222 18.77 99.213 58.992 58.992z"/><path class="right" d="M13.407 195.704L522.88 705.178c37.54 37.54 96.533-21.45 58.993-58.992L72.4 136.712c-40.223-40.22-99.214 18.77-58.993 58.992z"/></symbol><symbol id="shape-facebook-logo-button" viewBox="0 0 49.652 49.652"><path d="M24.826 0C11.137 0 0 11.137 0 24.826c0 13.688 11.137 24.826 24.826 24.826 13.688 0 24.826-11.138 24.826-24.826C49.652 11.137 38.516 0 24.826 0zM31 25.7h-4.039v14.396h-5.985V25.7h-2.845v-5.088h2.845v-3.291c0-2.357 1.12-6.04 6.04-6.04l4.435.017v4.939h-3.219c-.524 0-1.269.262-1.269 1.386v2.99h4.56L31 25.7z" fill="#FFF"/></symbol><symbol id="shape-mathevies-logo-white" viewBox="0 0 284 107"><g fill="#fff" fill-rule="nonzero"><path d="M158.63 53.676c0-4.536-.028-8.877.013-13.218.017-1.838-.147-3.777.391-5.474.347-1.096 1.79-2.51 2.793-2.551 1.054-.044 2.551 1.16 3.156 2.218.654 1.144.651 2.747.672 4.154.072 4.764.027 9.53.027 14.339h2.237c0-3.899-.02-7.654.009-11.409.015-1.925-.114-3.894.244-5.762.383-1.996 1.733-3.617 3.901-3.67 2.145-.053 3.02 1.673 3.181 3.551.478 5.574.834 11.159 1.247 16.739.011.151.127.294.266.596l2.444.22c-.588-6.465-.809-12.756-1.829-18.915-.858-5.188-4.821-6.287-8.856-2.974-.304.25-.675.42-1.076.665-2.806-3.123-5.832-2.974-8.351-.945l-2.622-1.54v23.976h2.153zM282.17 31.003c-1.202-.585-2.055-1.094-2.972-1.43-2.952-1.08-5.872-.077-7.422 2.481-1.455 2.401-1.044 5.095 1.222 7.283 1.083 1.046 2.411 1.849 3.435 2.943 1.183 1.265 2.664 2.597 3.063 4.145.347 1.345-.282 3.313-1.184 4.447-.428.539-2.529-.096-3.804-.446-.742-.204-1.35-.898-2.198-1.499l-1.897 2.143c1.134.716 1.941 1.309 2.819 1.764 3.108 1.61 6.495 1.167 8.29-1.035 1.878-2.302 1.822-5.517-.462-8.295-1.37-1.667-3.141-3.001-4.699-4.519-2.2-2.142-2.881-4.709-1.579-6.211 1.901-2.194 3.752-.61 5.635.307l1.753-2.078zM216.589 53.11c0-5.948.219-11.803-.073-17.633-.214-4.293-3.428-5.987-7.24-4.287-.342.152-.679.316-.648.302l-1.687-1.75c-.486.533-1.365 1.044-1.397 1.603-.387 6.857-.64 13.721-.954 20.583-.075 1.641.646 2.06 2.193 1.628.051-.741.113-1.402.139-2.064.199-4.936.432-9.872.566-14.81.065-2.415 1.514-3.443 3.589-3.753 2.191-.327 2.812 1.359 3.313 3.008.167.552.237 1.155.236 1.735-.011 4.598-.024 9.197-.098 13.794-.02 1.284.087 2.233 2.061 1.644zM125.451 51.194c7.067.577 9.238-.696 9.518-5.967.279-5.265.417-10.546.283-15.814-.148-5.79-2.65-7.316-9.801-6.104v27.885zm-2.814-30.883c4.079-.464 7.989-.732 11.44.828 1.543.698 3.247 2.595 3.298 3.989.283 7.696.272 15.411-.068 23.105-.113 2.562-2.446 4.454-5.525 4.953-2.958.481-6.008.549-9.145.808V20.311z"/><path d="M216.589 53.11c-1.974.589-2.081-.36-2.061-1.644.074-4.597.087-9.196.098-13.794a6.035 6.035 0 0 0-.236-1.735c-.501-1.649-1.122-3.335-3.313-3.008-2.075.31-3.524 1.338-3.589 3.753-.134 4.938-.367 9.874-.566 14.81-.026.662-.088 1.323-.139 2.064-1.547.432-2.268.013-2.193-1.628.314-6.862.567-13.726.954-20.583.032-.559.911-1.07 1.397-1.603l1.687 1.75c-.031.014.306-.15.648-.302 3.812-1.7 7.026-.006 7.24 4.287.292 5.83.073 11.685.073 17.633zM199.893 29.745c-1.985-.577-2.635.283-2.655 2.396-.062 6.524-.299 13.047-.447 19.571-.015.635.114 1.273.178 1.931h2.924V29.745zM198.859 23.413c-.701.993-1.393 1.562-1.445 2.184-.039.46.755.99 1.179 1.488.589-.581 1.334-1.084 1.684-1.784.124-.25-.71-.978-1.418-1.888z"/><path d="M199.893 29.745v23.898h-2.924c-.064-.658-.193-1.296-.178-1.931.148-6.524.385-13.047.447-19.571.02-2.113.67-2.973 2.655-2.396zM198.859 23.413c.708.91 1.542 1.638 1.418 1.888-.35.7-1.095 1.203-1.684 1.784-.424-.498-1.218-1.028-1.179-1.488.052-.622.744-1.191 1.445-2.184zM250.321 42.068h.16c0-2.089-.095-4.184.03-6.266.098-1.62-.768-2.267-2.095-2.598-2.277-.568-4.383.392-4.698 2.905-.469 3.746-.306 7.581-.238 11.375.015.814.584 2.051 1.227 2.33 1.26.544 2.809.871 4.124.639.631-.112 1.311-1.664 1.424-2.628.223-1.896.066-3.836.066-5.757zm-.05-19.618c-.081-1.93.602-2.636 2.58-2.131v33.758c-1.166-.415-2.09-.801-3.048-1.058-.427-.114-.932-.015-1.386.069-3.278.605-5.412-.458-6.482-3.632-1.736-5.146-1.576-10.403-.137-15.572.829-2.981 2.745-3.921 5.767-3.345.81.155 1.618.322 2.737.545 0-2.982.088-5.812-.031-8.634zM183.64 44.919c.219 1.327.13 2.54.635 3.405.645 1.105 1.745 2.644 2.697 2.679 1.022.038 2.75-1.28 3.02-2.309.566-2.157.62-4.538.385-6.774-.099-.941-1.484-2.474-2.245-2.451-1.198.037-2.675.914-3.453 1.895-.747.943-.755 2.471-1.039 3.555zm-1.775 3.96a14.183 14.183 0 0 1-.582-5.183c.41-5.171 3.717-7.182 9.783-5.897-.099-1.309.109-2.665-.37-3.704-.456-.989-1.523-1.923-2.539-2.315-.41-.158-1.375 1.224-2.134 1.848-.558.457-1.194.821-1.794 1.226-.149-.766-.598-1.627-.393-2.282.696-2.218 3-3.705 5.208-3.59 2.526.132 3.573 1.99 3.787 4.013.403 3.816.423 7.675.525 11.519.063 2.348.064 4.705-.081 7.047-.047.758-.645 1.481-.992 2.22l-2.203-1.194c-4.183 2.116-6.722 1.116-8.215-3.708zM258.285 39.205c1.755 0 2.831.009 3.906-.002 4.118-.042 4.965-1.306 3.153-5.019-.417-.853-1.474-1.965-2.218-1.95-1.056.02-2.517.716-3.044 1.585-.865 1.425-1.12 3.222-1.797 5.386zm.289 2.598c.182 2.136.288 3.946.504 5.742.23 1.924 1.079 3.435 3.272 3.42 2.102-.013 3.091-1.383 3.452-3.317.045-.24.159-.466.24-.694 3.046.586 3.41 1.371 1.701 3.87-1.435 2.098-3.52 3.087-6.027 2.931-2.387-.148-3.816-1.757-4.473-3.85-1.719-5.496-1.826-11.042.312-16.461 1.162-2.944 3.589-4.325 6.32-3.817 2.848.53 3.521 2.827 3.858 5.21.303 2.137.386 4.305.607 6.966h-9.766zM222.297 39.119c2.298 0 4.118.048 5.935-.015 1.503-.052 2.043-.982 1.793-2.385-.146-.816-.21-1.752-.661-2.384-.623-.872-1.56-2.074-2.392-2.098-1.014-.029-2.475.774-2.995 1.657-.844 1.436-1.081 3.229-1.68 5.225zm.245 2.684c.177 2.121.275 3.998.507 5.859.226 1.814 1.033 3.231 3.116 3.294 1.995.061 3.027-1.132 3.514-2.931.103-.381.209-.761.305-1.109 2.746.087 3.485 1.004 1.758 3.788-1.348 2.173-3.448 3.152-5.951 3.056-2.516-.096-3.965-1.778-4.642-3.968-1.674-5.417-1.749-10.886.284-16.235 1.125-2.959 3.502-4.326 6.258-3.957 2.24.301 3.608 2.057 4.006 5.355.257 2.131.359 4.281.565 6.848h-9.72zM151.732 41.574c-.477-2.108-.897-5.003-1.872-7.7-.334-.924-2.098-1.925-3.133-1.85-1.03.075-2.377 1.27-2.85 2.305-.836 1.83-1.514 3.907-1.533 5.887-.027 2.982.346 6.018.98 8.939.419 1.93 2.307 2.964 4.189 2.466 1.226-.325 2.714-1.524 3.115-2.666.717-2.042.701-4.338 1.104-7.381zm.925 8.09c-.573 2.105-1.775 3.961-4.336 4.144-2.897.207-5.576-.554-6.717-3.37-2.527-6.241-2.388-12.591.877-18.515 2.006-3.639 7.524-3.028 9.312 1.075 1.248 2.866 1.611 6.111 2.252 8.707-.516 3.089-.74 5.581-1.388 7.959zM136.812 82.009c0 3.303.087 6.976-.032 10.642-.074 2.267.999 2.947 3.209 2.873 3.109-.104 2.343-2.378 2.338-3.901-.033-9.214-.226-18.428-.378-27.641-.013-.776-.118-1.55-.177-2.278-4.129-.634-4.418-.458-5.641 2.998-1.209 3.413-2.458 6.813-3.835 10.624-1.47-4.117-2.718-7.808-4.123-11.443-.543-1.406-1.013-3.586-3.208-2.775-.984.363-1.829 2.286-1.873 3.529-.325 9.208-.362 18.425-.658 27.635-.077 2.372 1.001 3.142 3.209 3.215 2.392.079 2.391-1.523 2.402-3.069.027-3.84.009-7.681.009-11.763 1.996 1.848.919 5.9 4.46 5.512 1.555-.169 2.829-2.655 4.298-4.158zM273.146 60.359c-1.917.046-4.568 1.356-6.022 4.51-1.557 3.377-1.461 6.766.821 9.755 1.271 1.666 3.139 2.865 4.53 4.456 1.846 2.11 3.741 4.253 5.129 6.661.898 1.559.62 3.608-1.506 4.424-2.099.805-3.564-.264-3.96-2.277-.512-2.605-2.393-1.988-3.918-1.849-1.83.166-1.877 1.705-1.53 3.046.301 1.163.754 2.391 1.485 3.32 2.82 3.585 7.826 4.219 11.672 1.622 3.297-2.227 4.788-7.675 2.554-11.136-1.65-2.555-4.009-4.661-6.117-6.906-1.451-1.547-3.155-2.876-4.488-4.512-1.396-1.714-.73-4.87 1.194-5.77 2.299-1.076 3.413.334 4.022 2.382.075.25.21.648.374.678 1.35.254 2.732.645 4.062.525.441-.04 1.172-1.511 1.064-2.221-.634-4.187-3.755-6.739-9.366-6.708zM177.315 60.947c-3.915 0-7.873-.045-11.829.02-1.706.028-2.122 1.159-2.138 2.625-.017 1.626.886 2.043 2.352 1.975.759-.035 1.521-.006 2.573-.006v29.766h5.108c0-2.903-.044-5.763.009-8.621.119-6.348.254-12.696.484-19.04.023-.655.573-1.647 1.141-1.871 3.043-1.2 3.317-1.616 2.3-4.848zM244.363 78.021l.438-.001c0-4.797.049-9.596-.05-14.392-.016-.774-.584-2.118-1.079-2.206-3.149-.564-4.839-.24-4.647 3.182.284 5.055.451 10.121.452 15.183.002 4.273-.369 8.544-.434 12.819-.02 1.365.178 2.98 2.273 2.765 1.752-.181 3.179-.558 3.096-2.944-.166-4.797-.049-9.603-.049-14.406zM192.066 82.3l-5.133-.319c-.249 3.736-.536 7.214-.691 10.698-.092 2.06-.998 2.958-3.011 2.764-2.17-.21-1.745-1.785-1.712-3.215.216-9.371.458-18.742.575-28.115.025-1.981.55-3.063 2.622-3.174 2.405-.128 2.442 1.39 2.418 3.176-.055 4.229-.017 8.458-.017 13.064l5.331.486c.25-4.833.403-9.483.811-14.11.074-.836 1.097-2.096 1.859-2.25 1.508-.305 2.761.482 2.833 2.358.011.27.021.542.011.812-.292 7.655-.584 15.311-.883 22.966-.074 1.891-.295 3.786-.227 5.671.065 1.776-.63 2.383-2.305 2.397-1.73.014-2.448-.868-2.467-2.451-.043-3.498-.014-6.997-.014-10.758zM207.961 66.56l-.727 10.406c1.858-.157 3.405-.242 4.938-.428 2.338-.284 2.473 1.254 2.743 2.856.31 1.836-.708 2.234-2.256 2.308-1.653.079-3.303.23-5.096.36l.488 7.724c1.637.132 3.117.313 4.601.361 4.767.152 4.922.295 4.621 5.201-4.167 0-8.371.101-12.557-.118-.566-.03-1.416-1.635-1.493-2.561-.271-3.24-.299-6.501-.351-9.756-.101-6.339-.081-12.681-.271-19.017-.065-2.175.819-2.905 2.926-2.881 2.743.031 5.493-.008 8.232-.163 2.721-.153 2.911 1.626 3.062 3.478.183 2.242-1.548 1.814-2.898 1.893-1.931.112-3.862.219-5.962.337zM254.864 66.674l-.71 10.356c1.981-.156 3.621-.288 5.26-.414 2.292-.177 2.126 1.517 2.402 2.905.324 1.63-.556 2.143-2.051 2.212-1.67.078-3.338.218-5.256.348l.411 7.694c1.603.138 3.151.343 4.707.392 4.678.149 4.885.347 4.542 5.209-4.099 0-8.236.132-12.345-.135-.657-.042-1.634-1.844-1.704-2.88-.297-4.425-.342-8.867-.417-13.304-.085-5.121-.063-10.244-.178-15.364-.036-1.57.486-2.469 2.181-2.505 3.098-.064 6.197-.063 9.293-.169 2.71-.092 2.538 1.874 2.718 3.494.224 2.015-1.372 1.761-2.686 1.822-2.012.094-4.021.219-6.167.339zM219.28 61.519c.77-.149 1.388-.201 1.96-.391 1.996-.666 2.623.166 2.891 2.111.791 5.744 1.78 11.462 3.336 17.196.633-3.45 1.253-6.901 1.902-10.347.473-2.513.999-5.015 1.474-7.527.466-2.468 2.452-1.642 3.825-1.514.435.04 1.145 1.796 1.005 2.648a1777.5 1777.5 0 0 1-5.357 30.76c-.131.718-1.099 1.872-1.56 1.818-.92-.108-2.378-.771-2.535-1.453-2.416-10.465-4.663-20.969-6.927-31.468-.109-.503-.014-1.05-.014-1.833zM153.646 81.479c2.606.04 3.039-2.766 1.298-6.679l-1.298 6.679zm3.044 5.081c-4.363-.378-4.359-.377-5.082 3.695-.155.869-.386 1.726-.517 2.598-.275 1.835-1.078 2.912-3.162 2.593-2.397-.368-1.812-2.202-1.561-3.507.732-3.806 1.761-7.554 2.598-11.341 1.276-5.776 2.47-11.57 3.739-17.347.315-1.433.79-2.582 2.762-2.537 1.999.046 2.255 1.246 2.51 2.68 1.701 9.566 3.417 19.129 5.094 28.699.241 1.374.566 3.003-1.475 3.293-1.839.262-3.286-.234-3.609-2.476-.3-2.084-.834-4.134-1.297-6.35zM13.971 24.391c-1.961-2.415-4.808-3.552-7.269-3.166-.882 2.33-.352 5.349 1.61 7.763 1.961 2.415 4.808 3.552 7.269 3.166.881-2.33.352-5.349-1.61-7.763zM27.427 28.285c-1.096-2.911-3.436-4.891-5.893-5.304-1.574 1.931-2.027 4.963-.93 7.874 1.096 2.911 3.437 4.891 5.893 5.303 1.574-1.93 2.027-4.962.93-7.873zM42.037 23.038c-1.097-2.911-3.437-4.891-5.894-5.304-1.574 1.931-2.026 4.963-.93 7.874 1.097 2.911 3.437 4.891 5.893 5.303 1.574-1.93 2.027-4.962.931-7.873zM78.713 63.799c.358-3.734-1.126-7.119-3.567-8.87-2.728 1.256-4.827 4.298-5.185 8.032-.357 3.734 1.127 7.119 3.567 8.869 2.729-1.255 4.828-4.298 5.185-8.031zM72.284 87.112c.296-3.096-.934-5.904-2.958-7.355-2.263 1.041-4.004 3.564-4.3 6.661-.297 3.096.934 5.904 2.958 7.355 2.263-1.041 4.004-3.564 4.3-6.661zM48.913 51.14c-1.008-2.943-3.287-4.993-5.73-5.48-1.632 1.882-2.176 4.899-1.169 7.842 1.008 2.943 3.287 4.993 5.73 5.48 1.632-1.882 2.176-4.899 1.169-7.842zM82.005 84.713c-1.522-3.015-4.278-4.879-6.978-5.039-1.474 2.267-1.61 5.592-.088 8.607 1.522 3.014 4.279 4.879 6.978 5.038 1.474-2.267 1.61-5.592.088-8.606zM92.476 88.155c-1.495-2.959-4.227-4.776-6.915-4.913-1.485 2.244-1.645 5.522-.151 8.481 1.494 2.959 4.227 4.776 6.915 4.913 1.485-2.244 1.645-5.522.151-8.481zM94.422 72.862c2.778-1.399 4.498-3.936 4.648-6.423-2.087-1.36-5.15-1.488-7.928-.089-2.778 1.399-4.498 3.936-4.648 6.423 2.087 1.36 5.149 1.488 7.928.089zM86.863 54.318c2.851 1.245 5.902.95 7.912-.522-.285-2.474-2.141-4.914-4.992-6.16-2.85-1.246-5.901-.95-7.911.521.285 2.475 2.141 4.915 4.991 6.161zM55.536 38.773c1.655 2.635 4.342 4.109 6.832 4.024 1.158-2.206.998-5.267-.657-7.901-1.654-2.635-4.342-4.109-6.831-4.024-1.158 2.206-.998 5.267.656 7.901zM56.327 28.878c2.415 1.961 5.435 2.489 7.764 1.606.384-2.461-.754-5.307-3.17-7.267-2.415-1.961-5.435-2.489-7.764-1.606-.385 2.461.754 5.307 3.17 7.267zM51.901 19.91c3.785.39 7.231-1.089 9.024-3.552-1.253-2.778-4.323-4.93-8.109-5.32-3.785-.391-7.23 1.089-9.024 3.552 1.253 2.777 4.324 4.929 8.109 5.32zM60.565 57.009c-1.24-3.621-4.044-6.143-7.05-6.743-2.007 2.316-2.678 6.027-1.438 9.648 1.24 3.621 4.044 6.143 7.049 6.743 2.008-2.316 2.678-6.027 1.439-9.648zM72.388 6.581c-1.008-2.943-3.287-4.992-5.73-5.48C65.027 2.984 64.482 6 65.489 8.943c1.008 2.943 3.287 4.993 5.73 5.48 1.632-1.882 2.177-4.898 1.169-7.842zM31.742 45.556c-3.053.599-5.393 2.579-6.207 4.933 1.643 1.872 4.558 2.821 7.61 2.222 3.053-.598 5.393-2.578 6.207-4.932-1.643-1.872-4.558-2.821-7.61-2.223zM39.763 94.854c.48-3.074-.581-5.95-2.515-7.519-2.321.904-4.209 3.319-4.69 6.393-.48 3.073.581 5.949 2.515 7.518 2.321-.904 4.209-3.319 4.69-6.392zM30.855 91.771c1.934-2.437 2.429-5.462 1.52-7.781-2.465-.358-5.298.812-7.232 3.249-1.933 2.437-2.428 5.462-1.52 7.781 2.465.358 5.299-.812 7.232-3.249zM41.232 78.876c-.751-3.019-2.846-5.256-5.238-5.951-1.787 1.735-2.589 4.694-1.837 7.712.751 3.019 2.846 5.257 5.239 5.952 1.787-1.736 2.588-4.695 1.836-7.713zM31.431 78.48c1.05-2.928.548-5.952-1.056-7.858-2.45.453-4.758 2.469-5.808 5.398-1.049 2.928-.548 5.952 1.056 7.857 2.45-.452 4.758-2.468 5.808-5.397zM76.118 52.39c2.778-1.399 4.498-3.936 4.648-6.423-2.087-1.36-5.15-1.488-7.928-.089-2.778 1.399-4.498 3.936-4.648 6.423 2.087 1.36 5.149 1.488 7.928.089zM49.193 92.761c2.778-1.399 4.498-3.936 4.648-6.423-2.087-1.36-5.15-1.488-7.928-.089-2.779 1.399-4.499 3.936-4.648 6.423 2.087 1.36 5.149 1.488 7.928.089zM99.99 37.509c2.631-2.229 3.826-5.409 3.343-8.128-2.602-.924-5.936-.268-8.567 1.961-2.631 2.228-3.826 5.409-3.343 8.127 2.602.924 5.936.268 8.567-1.96zM79.197 31.115c.638-2.858-.184-5.624-1.905-7.216-2.235.709-4.155 2.863-4.793 5.72-.638 2.858.184 5.624 1.905 7.215 2.235-.708 4.155-2.862 4.793-5.719zM52.251 31.472c.735-3.489-.306-6.844-2.425-8.758-2.711.896-5.017 3.546-5.752 7.034-.736 3.489.305 6.844 2.424 8.758 2.711-.896 5.018-3.546 5.753-7.034zM65.88 99.68c.295-3.078-.928-5.868-2.939-7.31-2.249 1.035-3.979 3.542-4.273 6.619-.295 3.077.928 5.867 2.939 7.309 2.249-1.034 3.979-3.542 4.273-6.618zM99.277 75.881c-2.005-1.62-4.508-2.053-6.436-1.317-.315 2.04.634 4.396 2.638 6.016 2.005 1.62 4.507 2.053 6.436 1.317.315-2.04-.633-4.396-2.638-6.016zM46.45 60.095c-3.034-.817-6.038-.065-7.825 1.706.655 2.43 2.875 4.589 5.909 5.406 3.034.818 6.038.066 7.825-1.706-.656-2.429-2.875-4.588-5.909-5.406zM92.518 57.294c-2.389-1.306-5.071-1.284-6.936-.156.057 2.179 1.486 4.448 3.875 5.754 2.388 1.306 5.07 1.285 6.935.157-.057-2.179-1.486-4.449-3.874-5.755zM102.657 25.078c1.109-1.867 1.168-4.007.322-5.526-1.74-.016-3.591 1.059-4.7 2.926-1.109 1.868-1.168 4.007-.322 5.527 1.739.016 3.59-1.059 4.7-2.927zM87.884 27.036c1.428-2.405 1.504-5.16.414-7.117-2.239-.021-4.623 1.364-6.051 3.769-1.429 2.405-1.504 5.16-.415 7.117 2.24.02 4.623-1.364 6.052-3.769zM36.878 60.426c2.231-1.87 3.254-4.549 2.858-6.846-2.192-.792-5.009-.253-7.241 1.616-2.231 1.87-3.254 4.549-2.858 6.846 2.192.792 5.01.254 7.241-1.616zM23.906 47.461c-.428-2.541-2.015-4.524-3.947-5.251-1.587 1.319-2.439 3.712-2.011 6.254.428 2.541 2.015 4.524 3.947 5.251 1.587-1.319 2.438-3.712 2.011-6.254z"/><path d="M69.543 44.06c-.919 0-1.869-.033-2.851-.101l.331-4.769c22.073 1.538 24.744-17.578 24.848-18.393l4.743.584c-.028.235-3.044 22.679-27.071 22.679z"/><path d="M79.441 41.455c.248.166 6.185 4.067 16.029 5.786l.822-4.709c-8.789-1.534-14.153-5.022-14.205-5.057l-2.646 3.98z"/><path d="M83.656 74.82c3.415-10.318.216-17.721.067-18.054l-4.364 1.952c.029.064 2.626 6.075-.275 14.711-4.886-1.11-9.083-.902-11.985-.44.446-1.943.637-3.236.691-3.643.254-1.224 1.977-10.479-2.176-18.425 5.384-10.685 6.219-19.66 4.816-26.953 5.781-8.518 11.384-6.166 12.011-5.865l2.158-4.264c-2.991-1.54-9.668-2.212-15.79 4.469C64.109 6.144 53.586.1 53.406 0l-2.324 4.176c1.028.573 24.142 13.874 11.357 42.302-3.815-4.011-9.302-6.283-16.363-6.779-2.869-2.045-14.06-10.769-16.879-24.225l-4.679.98c2.22 10.594 8.819 18.435 13.769 23.032-23.946-1.19-34.608-12.693-34.72-12.816L0 29.849c.528.596 13.225 14.523 42.303 14.523l.502-.001c7.857-.056 13.542 2.066 16.942 6.267 4.505 5.567 3.966 13.518 3.556 16.547-1.645.548-4.936 1.459-9.327 1.751-8.537.565-16.961-1.345-25.049-5.684l-2.259 4.212c9.209 4.941 17.704 6.373 24.457 6.373 4.674 0 8.503-.687 11.166-1.369-1.452 5.928-5.379 17.847-15.158 29.126l3.611 3.131c8.393-9.681 12.736-19.659 14.934-26.566 3.984-1.072 18.206-3.397 31.826 12.82l3.66-3.074C95.25 80.864 89.177 76.932 83.656 74.82z"/></g><path d="M51.944 83.207c3.313-.871 5.746-3.21 6.477-5.854-1.936-1.943-5.206-2.782-8.518-1.911-3.313.871-5.747 3.209-6.477 5.853 1.936 1.943 5.205 2.783 8.518 1.912z" fill="#50a554" fill-rule="nonzero"/></symbol><symbol id="shape-mathevies-logo" viewBox="0 0 284 107"><path d="M158.63 53.676c0-4.536-.028-8.877.013-13.218.017-1.838-.147-3.777.391-5.474.347-1.096 1.79-2.51 2.793-2.551 1.054-.044 2.551 1.16 3.156 2.218.654 1.144.651 2.747.672 4.154.072 4.764.027 9.53.027 14.339h2.237c0-3.899-.02-7.654.009-11.409.015-1.925-.114-3.894.244-5.762.383-1.996 1.733-3.617 3.901-3.67 2.145-.053 3.02 1.673 3.181 3.551.478 5.574.834 11.159 1.247 16.739.011.151.127.294.266.596l2.444.22c-.588-6.465-.809-12.756-1.829-18.915-.858-5.188-4.821-6.287-8.856-2.974-.304.25-.675.42-1.076.665-2.806-3.123-5.832-2.974-8.351-.945l-2.622-1.54v23.976h2.153zM282.17 31.003c-1.202-.585-2.055-1.094-2.972-1.43-2.952-1.08-5.872-.077-7.422 2.481-1.455 2.401-1.044 5.095 1.222 7.283 1.083 1.046 2.411 1.849 3.435 2.943 1.183 1.265 2.664 2.597 3.063 4.145.347 1.345-.282 3.313-1.184 4.447-.428.539-2.529-.096-3.804-.446-.742-.204-1.35-.898-2.198-1.499l-1.897 2.143c1.134.716 1.941 1.309 2.819 1.764 3.108 1.61 6.495 1.167 8.29-1.035 1.878-2.302 1.822-5.517-.462-8.295-1.37-1.667-3.141-3.001-4.699-4.519-2.2-2.142-2.881-4.709-1.579-6.211 1.901-2.194 3.752-.61 5.635.307l1.753-2.078zM216.589 53.11c0-5.948.219-11.803-.073-17.633-.214-4.293-3.428-5.987-7.24-4.287-.342.152-.679.316-.648.302l-1.687-1.75c-.486.533-1.365 1.044-1.397 1.603-.387 6.857-.64 13.721-.954 20.583-.075 1.641.646 2.06 2.193 1.628.051-.741.113-1.402.139-2.064.199-4.936.432-9.872.566-14.81.065-2.415 1.514-3.443 3.589-3.753 2.191-.327 2.812 1.359 3.313 3.008.167.552.237 1.155.236 1.735-.011 4.598-.024 9.197-.098 13.794-.02 1.284.087 2.233 2.061 1.644zM125.451 51.194c7.067.577 9.238-.696 9.518-5.967.279-5.265.417-10.546.283-15.814-.148-5.79-2.65-7.316-9.801-6.104v27.885zm-2.814-30.883c4.079-.464 7.989-.732 11.44.828 1.543.698 3.247 2.595 3.298 3.989.283 7.696.272 15.411-.068 23.105-.113 2.562-2.446 4.454-5.525 4.953-2.958.481-6.008.549-9.145.808V20.311z" fill="#443c3a" fill-rule="nonzero"/><path d="M216.589 53.11c-1.974.589-2.081-.36-2.061-1.644.074-4.597.087-9.196.098-13.794a6.035 6.035 0 0 0-.236-1.735c-.501-1.649-1.122-3.335-3.313-3.008-2.075.31-3.524 1.338-3.589 3.753-.134 4.938-.367 9.874-.566 14.81-.026.662-.088 1.323-.139 2.064-1.547.432-2.268.013-2.193-1.628.314-6.862.567-13.726.954-20.583.032-.559.911-1.07 1.397-1.603l1.687 1.75c-.031.014.306-.15.648-.302 3.812-1.7 7.026-.006 7.24 4.287.292 5.83.073 11.685.073 17.633zM199.893 29.745c-1.985-.577-2.635.283-2.655 2.396-.062 6.524-.299 13.047-.447 19.571-.015.635.114 1.273.178 1.931h2.924V29.745zM198.859 23.413c-.701.993-1.393 1.562-1.445 2.184-.039.46.755.99 1.179 1.488.589-.581 1.334-1.084 1.684-1.784.124-.25-.71-.978-1.418-1.888z" fill="#443c3a" fill-rule="nonzero"/><path d="M199.893 29.745v23.898h-2.924c-.064-.658-.193-1.296-.178-1.931.148-6.524.385-13.047.447-19.571.02-2.113.67-2.973 2.655-2.396zM198.859 23.413c.708.91 1.542 1.638 1.418 1.888-.35.7-1.095 1.203-1.684 1.784-.424-.498-1.218-1.028-1.179-1.488.052-.622.744-1.191 1.445-2.184zM250.321 42.068h.16c0-2.089-.095-4.184.03-6.266.098-1.62-.768-2.267-2.095-2.598-2.277-.568-4.383.392-4.698 2.905-.469 3.746-.306 7.581-.238 11.375.015.814.584 2.051 1.227 2.33 1.26.544 2.809.871 4.124.639.631-.112 1.311-1.664 1.424-2.628.223-1.896.066-3.836.066-5.757zm-.05-19.618c-.081-1.93.602-2.636 2.58-2.131v33.758c-1.166-.415-2.09-.801-3.048-1.058-.427-.114-.932-.015-1.386.069-3.278.605-5.412-.458-6.482-3.632-1.736-5.146-1.576-10.403-.137-15.572.829-2.981 2.745-3.921 5.767-3.345.81.155 1.618.322 2.737.545 0-2.982.088-5.812-.031-8.634zM183.64 44.919c.219 1.327.13 2.54.635 3.405.645 1.105 1.745 2.644 2.697 2.679 1.022.038 2.75-1.28 3.02-2.309.566-2.157.62-4.538.385-6.774-.099-.941-1.484-2.474-2.245-2.451-1.198.037-2.675.914-3.453 1.895-.747.943-.755 2.471-1.039 3.555zm-1.775 3.96a14.183 14.183 0 0 1-.582-5.183c.41-5.171 3.717-7.182 9.783-5.897-.099-1.309.109-2.665-.37-3.704-.456-.989-1.523-1.923-2.539-2.315-.41-.158-1.375 1.224-2.134 1.848-.558.457-1.194.821-1.794 1.226-.149-.766-.598-1.627-.393-2.282.696-2.218 3-3.705 5.208-3.59 2.526.132 3.573 1.99 3.787 4.013.403 3.816.423 7.675.525 11.519.063 2.348.064 4.705-.081 7.047-.047.758-.645 1.481-.992 2.22l-2.203-1.194c-4.183 2.116-6.722 1.116-8.215-3.708zM258.285 39.205c1.755 0 2.831.009 3.906-.002 4.118-.042 4.965-1.306 3.153-5.019-.417-.853-1.474-1.965-2.218-1.95-1.056.02-2.517.716-3.044 1.585-.865 1.425-1.12 3.222-1.797 5.386zm.289 2.598c.182 2.136.288 3.946.504 5.742.23 1.924 1.079 3.435 3.272 3.42 2.102-.013 3.091-1.383 3.452-3.317.045-.24.159-.466.24-.694 3.046.586 3.41 1.371 1.701 3.87-1.435 2.098-3.52 3.087-6.027 2.931-2.387-.148-3.816-1.757-4.473-3.85-1.719-5.496-1.826-11.042.312-16.461 1.162-2.944 3.589-4.325 6.32-3.817 2.848.53 3.521 2.827 3.858 5.21.303 2.137.386 4.305.607 6.966h-9.766zM222.297 39.119c2.298 0 4.118.048 5.935-.015 1.503-.052 2.043-.982 1.793-2.385-.146-.816-.21-1.752-.661-2.384-.623-.872-1.56-2.074-2.392-2.098-1.014-.029-2.475.774-2.995 1.657-.844 1.436-1.081 3.229-1.68 5.225zm.245 2.684c.177 2.121.275 3.998.507 5.859.226 1.814 1.033 3.231 3.116 3.294 1.995.061 3.027-1.132 3.514-2.931.103-.381.209-.761.305-1.109 2.746.087 3.485 1.004 1.758 3.788-1.348 2.173-3.448 3.152-5.951 3.056-2.516-.096-3.965-1.778-4.642-3.968-1.674-5.417-1.749-10.886.284-16.235 1.125-2.959 3.502-4.326 6.258-3.957 2.24.301 3.608 2.057 4.006 5.355.257 2.131.359 4.281.565 6.848h-9.72zM151.732 41.574c-.477-2.108-.897-5.003-1.872-7.7-.334-.924-2.098-1.925-3.133-1.85-1.03.075-2.377 1.27-2.85 2.305-.836 1.83-1.514 3.907-1.533 5.887-.027 2.982.346 6.018.98 8.939.419 1.93 2.307 2.964 4.189 2.466 1.226-.325 2.714-1.524 3.115-2.666.717-2.042.701-4.338 1.104-7.381zm.925 8.09c-.573 2.105-1.775 3.961-4.336 4.144-2.897.207-5.576-.554-6.717-3.37-2.527-6.241-2.388-12.591.877-18.515 2.006-3.639 7.524-3.028 9.312 1.075 1.248 2.866 1.611 6.111 2.252 8.707-.516 3.089-.74 5.581-1.388 7.959zM136.812 82.009c0 3.303.087 6.976-.032 10.642-.074 2.267.999 2.947 3.209 2.873 3.109-.104 2.343-2.378 2.338-3.901-.033-9.214-.226-18.428-.378-27.641-.013-.776-.118-1.55-.177-2.278-4.129-.634-4.418-.458-5.641 2.998-1.209 3.413-2.458 6.813-3.835 10.624-1.47-4.117-2.718-7.808-4.123-11.443-.543-1.406-1.013-3.586-3.208-2.775-.984.363-1.829 2.286-1.873 3.529-.325 9.208-.362 18.425-.658 27.635-.077 2.372 1.001 3.142 3.209 3.215 2.392.079 2.391-1.523 2.402-3.069.027-3.84.009-7.681.009-11.763 1.996 1.848.919 5.9 4.46 5.512 1.555-.169 2.829-2.655 4.298-4.158zM273.146 60.359c-1.917.046-4.568 1.356-6.022 4.51-1.557 3.377-1.461 6.766.821 9.755 1.271 1.666 3.139 2.865 4.53 4.456 1.846 2.11 3.741 4.253 5.129 6.661.898 1.559.62 3.608-1.506 4.424-2.099.805-3.564-.264-3.96-2.277-.512-2.605-2.393-1.988-3.918-1.849-1.83.166-1.877 1.705-1.53 3.046.301 1.163.754 2.391 1.485 3.32 2.82 3.585 7.826 4.219 11.672 1.622 3.297-2.227 4.788-7.675 2.554-11.136-1.65-2.555-4.009-4.661-6.117-6.906-1.451-1.547-3.155-2.876-4.488-4.512-1.396-1.714-.73-4.87 1.194-5.77 2.299-1.076 3.413.334 4.022 2.382.075.25.21.648.374.678 1.35.254 2.732.645 4.062.525.441-.04 1.172-1.511 1.064-2.221-.634-4.187-3.755-6.739-9.366-6.708zM177.315 60.947c-3.915 0-7.873-.045-11.829.02-1.706.028-2.122 1.159-2.138 2.625-.017 1.626.886 2.043 2.352 1.975.759-.035 1.521-.006 2.573-.006v29.766h5.108c0-2.903-.044-5.763.009-8.621.119-6.348.254-12.696.484-19.04.023-.655.573-1.647 1.141-1.871 3.043-1.2 3.317-1.616 2.3-4.848zM244.363 78.021l.438-.001c0-4.797.049-9.596-.05-14.392-.016-.774-.584-2.118-1.079-2.206-3.149-.564-4.839-.24-4.647 3.182.284 5.055.451 10.121.452 15.183.002 4.273-.369 8.544-.434 12.819-.02 1.365.178 2.98 2.273 2.765 1.752-.181 3.179-.558 3.096-2.944-.166-4.797-.049-9.603-.049-14.406zM192.066 82.3l-5.133-.319c-.249 3.736-.536 7.214-.691 10.698-.092 2.06-.998 2.958-3.011 2.764-2.17-.21-1.745-1.785-1.712-3.215.216-9.371.458-18.742.575-28.115.025-1.981.55-3.063 2.622-3.174 2.405-.128 2.442 1.39 2.418 3.176-.055 4.229-.017 8.458-.017 13.064l5.331.486c.25-4.833.403-9.483.811-14.11.074-.836 1.097-2.096 1.859-2.25 1.508-.305 2.761.482 2.833 2.358.011.27.021.542.011.812-.292 7.655-.584 15.311-.883 22.966-.074 1.891-.295 3.786-.227 5.671.065 1.776-.63 2.383-2.305 2.397-1.73.014-2.448-.868-2.467-2.451-.043-3.498-.014-6.997-.014-10.758zM207.961 66.56l-.727 10.406c1.858-.157 3.405-.242 4.938-.428 2.338-.284 2.473 1.254 2.743 2.856.31 1.836-.708 2.234-2.256 2.308-1.653.079-3.303.23-5.096.36l.488 7.724c1.637.132 3.117.313 4.601.361 4.767.152 4.922.295 4.621 5.201-4.167 0-8.371.101-12.557-.118-.566-.03-1.416-1.635-1.493-2.561-.271-3.24-.299-6.501-.351-9.756-.101-6.339-.081-12.681-.271-19.017-.065-2.175.819-2.905 2.926-2.881 2.743.031 5.493-.008 8.232-.163 2.721-.153 2.911 1.626 3.062 3.478.183 2.242-1.548 1.814-2.898 1.893-1.931.112-3.862.219-5.962.337zM254.864 66.674l-.71 10.356c1.981-.156 3.621-.288 5.26-.414 2.292-.177 2.126 1.517 2.402 2.905.324 1.63-.556 2.143-2.051 2.212-1.67.078-3.338.218-5.256.348l.411 7.694c1.603.138 3.151.343 4.707.392 4.678.149 4.885.347 4.542 5.209-4.099 0-8.236.132-12.345-.135-.657-.042-1.634-1.844-1.704-2.88-.297-4.425-.342-8.867-.417-13.304-.085-5.121-.063-10.244-.178-15.364-.036-1.57.486-2.469 2.181-2.505 3.098-.064 6.197-.063 9.293-.169 2.71-.092 2.538 1.874 2.718 3.494.224 2.015-1.372 1.761-2.686 1.822-2.012.094-4.021.219-6.167.339zM219.28 61.519c.77-.149 1.388-.201 1.96-.391 1.996-.666 2.623.166 2.891 2.111.791 5.744 1.78 11.462 3.336 17.196.633-3.45 1.253-6.901 1.902-10.347.473-2.513.999-5.015 1.474-7.527.466-2.468 2.452-1.642 3.825-1.514.435.04 1.145 1.796 1.005 2.648a1777.5 1777.5 0 0 1-5.357 30.76c-.131.718-1.099 1.872-1.56 1.818-.92-.108-2.378-.771-2.535-1.453-2.416-10.465-4.663-20.969-6.927-31.468-.109-.503-.014-1.05-.014-1.833zM153.646 81.479c2.606.04 3.039-2.766 1.298-6.679l-1.298 6.679zm3.044 5.081c-4.363-.378-4.359-.377-5.082 3.695-.155.869-.386 1.726-.517 2.598-.275 1.835-1.078 2.912-3.162 2.593-2.397-.368-1.812-2.202-1.561-3.507.732-3.806 1.761-7.554 2.598-11.341 1.276-5.776 2.47-11.57 3.739-17.347.315-1.433.79-2.582 2.762-2.537 1.999.046 2.255 1.246 2.51 2.68 1.701 9.566 3.417 19.129 5.094 28.699.241 1.374.566 3.003-1.475 3.293-1.839.262-3.286-.234-3.609-2.476-.3-2.084-.834-4.134-1.297-6.35zM13.971 24.391c-1.961-2.415-4.808-3.552-7.269-3.166-.882 2.33-.352 5.349 1.61 7.763 1.961 2.415 4.808 3.552 7.269 3.166.881-2.33.352-5.349-1.61-7.763zM27.427 28.285c-1.096-2.911-3.436-4.891-5.893-5.304-1.574 1.931-2.027 4.963-.93 7.874 1.096 2.911 3.437 4.891 5.893 5.303 1.574-1.93 2.027-4.962.93-7.873zM42.037 23.038c-1.097-2.911-3.437-4.891-5.894-5.304-1.574 1.931-2.026 4.963-.93 7.874 1.097 2.911 3.437 4.891 5.893 5.303 1.574-1.93 2.027-4.962.931-7.873zM78.713 63.799c.358-3.734-1.126-7.119-3.567-8.87-2.728 1.256-4.827 4.298-5.185 8.032-.357 3.734 1.127 7.119 3.567 8.869 2.729-1.255 4.828-4.298 5.185-8.031zM72.284 87.112c.296-3.096-.934-5.904-2.958-7.355-2.263 1.041-4.004 3.564-4.3 6.661-.297 3.096.934 5.904 2.958 7.355 2.263-1.041 4.004-3.564 4.3-6.661zM48.913 51.14c-1.008-2.943-3.287-4.993-5.73-5.48-1.632 1.882-2.176 4.899-1.169 7.842 1.008 2.943 3.287 4.993 5.73 5.48 1.632-1.882 2.176-4.899 1.169-7.842zM82.005 84.713c-1.522-3.015-4.278-4.879-6.978-5.039-1.474 2.267-1.61 5.592-.088 8.607 1.522 3.014 4.279 4.879 6.978 5.038 1.474-2.267 1.61-5.592.088-8.606zM92.476 88.155c-1.495-2.959-4.227-4.776-6.915-4.913-1.485 2.244-1.645 5.522-.151 8.481 1.494 2.959 4.227 4.776 6.915 4.913 1.485-2.244 1.645-5.522.151-8.481zM94.422 72.862c2.778-1.399 4.498-3.936 4.648-6.423-2.087-1.36-5.15-1.488-7.928-.089-2.778 1.399-4.498 3.936-4.648 6.423 2.087 1.36 5.149 1.488 7.928.089zM86.863 54.318c2.851 1.245 5.902.95 7.912-.522-.285-2.474-2.141-4.914-4.992-6.16-2.85-1.246-5.901-.95-7.911.521.285 2.475 2.141 4.915 4.991 6.161zM55.536 38.773c1.655 2.635 4.342 4.109 6.832 4.024 1.158-2.206.998-5.267-.657-7.901-1.654-2.635-4.342-4.109-6.831-4.024-1.158 2.206-.998 5.267.656 7.901zM56.327 28.878c2.415 1.961 5.435 2.489 7.764 1.606.384-2.461-.754-5.307-3.17-7.267-2.415-1.961-5.435-2.489-7.764-1.606-.385 2.461.754 5.307 3.17 7.267zM51.901 19.91c3.785.39 7.231-1.089 9.024-3.552-1.253-2.778-4.323-4.93-8.109-5.32-3.785-.391-7.23 1.089-9.024 3.552 1.253 2.777 4.324 4.929 8.109 5.32zM60.565 57.009c-1.24-3.621-4.044-6.143-7.05-6.743-2.007 2.316-2.678 6.027-1.438 9.648 1.24 3.621 4.044 6.143 7.049 6.743 2.008-2.316 2.678-6.027 1.439-9.648zM72.388 6.581c-1.008-2.943-3.287-4.992-5.73-5.48C65.027 2.984 64.482 6 65.489 8.943c1.008 2.943 3.287 4.993 5.73 5.48 1.632-1.882 2.177-4.898 1.169-7.842zM31.742 45.556c-3.053.599-5.393 2.579-6.207 4.933 1.643 1.872 4.558 2.821 7.61 2.222 3.053-.598 5.393-2.578 6.207-4.932-1.643-1.872-4.558-2.821-7.61-2.223zM39.763 94.854c.48-3.074-.581-5.95-2.515-7.519-2.321.904-4.209 3.319-4.69 6.393-.48 3.073.581 5.949 2.515 7.518 2.321-.904 4.209-3.319 4.69-6.392zM30.855 91.771c1.934-2.437 2.429-5.462 1.52-7.781-2.465-.358-5.298.812-7.232 3.249-1.933 2.437-2.428 5.462-1.52 7.781 2.465.358 5.299-.812 7.232-3.249zM41.232 78.876c-.751-3.019-2.846-5.256-5.238-5.951-1.787 1.735-2.589 4.694-1.837 7.712.751 3.019 2.846 5.257 5.239 5.952 1.787-1.736 2.588-4.695 1.836-7.713zM31.431 78.48c1.05-2.928.548-5.952-1.056-7.858-2.45.453-4.758 2.469-5.808 5.398-1.049 2.928-.548 5.952 1.056 7.857 2.45-.452 4.758-2.468 5.808-5.397zM76.118 52.39c2.778-1.399 4.498-3.936 4.648-6.423-2.087-1.36-5.15-1.488-7.928-.089-2.778 1.399-4.498 3.936-4.648 6.423 2.087 1.36 5.149 1.488 7.928.089zM49.193 92.761c2.778-1.399 4.498-3.936 4.648-6.423-2.087-1.36-5.15-1.488-7.928-.089-2.779 1.399-4.499 3.936-4.648 6.423 2.087 1.36 5.149 1.488 7.928.089zM99.99 37.509c2.631-2.229 3.826-5.409 3.343-8.128-2.602-.924-5.936-.268-8.567 1.961-2.631 2.228-3.826 5.409-3.343 8.127 2.602.924 5.936.268 8.567-1.96zM79.197 31.115c.638-2.858-.184-5.624-1.905-7.216-2.235.709-4.155 2.863-4.793 5.72-.638 2.858.184 5.624 1.905 7.215 2.235-.708 4.155-2.862 4.793-5.719zM52.251 31.472c.735-3.489-.306-6.844-2.425-8.758-2.711.896-5.017 3.546-5.752 7.034-.736 3.489.305 6.844 2.424 8.758 2.711-.896 5.018-3.546 5.753-7.034zM65.88 99.68c.295-3.078-.928-5.868-2.939-7.31-2.249 1.035-3.979 3.542-4.273 6.619-.295 3.077.928 5.867 2.939 7.309 2.249-1.034 3.979-3.542 4.273-6.618zM99.277 75.881c-2.005-1.62-4.508-2.053-6.436-1.317-.315 2.04.634 4.396 2.638 6.016 2.005 1.62 4.507 2.053 6.436 1.317.315-2.04-.633-4.396-2.638-6.016zM46.45 60.095c-3.034-.817-6.038-.065-7.825 1.706.655 2.43 2.875 4.589 5.909 5.406 3.034.818 6.038.066 7.825-1.706-.656-2.429-2.875-4.588-5.909-5.406zM92.518 57.294c-2.389-1.306-5.071-1.284-6.936-.156.057 2.179 1.486 4.448 3.875 5.754 2.388 1.306 5.07 1.285 6.935.157-.057-2.179-1.486-4.449-3.874-5.755zM102.657 25.078c1.109-1.867 1.168-4.007.322-5.526-1.74-.016-3.591 1.059-4.7 2.926-1.109 1.868-1.168 4.007-.322 5.527 1.739.016 3.59-1.059 4.7-2.927zM87.884 27.036c1.428-2.405 1.504-5.16.414-7.117-2.239-.021-4.623 1.364-6.051 3.769-1.429 2.405-1.504 5.16-.415 7.117 2.24.02 4.623-1.364 6.052-3.769zM36.878 60.426c2.231-1.87 3.254-4.549 2.858-6.846-2.192-.792-5.009-.253-7.241 1.616-2.231 1.87-3.254 4.549-2.858 6.846 2.192.792 5.01.254 7.241-1.616zM23.906 47.461c-.428-2.541-2.015-4.524-3.947-5.251-1.587 1.319-2.439 3.712-2.011 6.254.428 2.541 2.015 4.524 3.947 5.251 1.587-1.319 2.438-3.712 2.011-6.254z" fill="#443c3a" fill-rule="nonzero"/><path d="M69.543 44.06c-.919 0-1.869-.033-2.851-.101l.331-4.769c22.073 1.538 24.744-17.578 24.848-18.393l4.743.584c-.028.235-3.044 22.679-27.071 22.679z" fill="#443c3a" fill-rule="nonzero"/><path d="M79.441 41.455c.248.166 6.185 4.067 16.029 5.786l.822-4.709c-8.789-1.534-14.153-5.022-14.205-5.057l-2.646 3.98z" fill="#443c3a" fill-rule="nonzero"/><path d="M83.656 74.82c3.415-10.318.216-17.721.067-18.054l-4.364 1.952c.029.064 2.626 6.075-.275 14.711-4.886-1.11-9.083-.902-11.985-.44.446-1.943.637-3.236.691-3.643.254-1.224 1.977-10.479-2.176-18.425 5.384-10.685 6.219-19.66 4.816-26.953 5.781-8.518 11.384-6.166 12.011-5.865l2.158-4.264c-2.991-1.54-9.668-2.212-15.79 4.469C64.109 6.144 53.586.1 53.406 0l-2.324 4.176c1.028.573 24.142 13.874 11.357 42.302-3.815-4.011-9.302-6.283-16.363-6.779-2.869-2.045-14.06-10.769-16.879-24.225l-4.679.98c2.22 10.594 8.819 18.435 13.769 23.032-23.946-1.19-34.608-12.693-34.72-12.816L0 29.849c.528.596 13.225 14.523 42.303 14.523l.502-.001c7.857-.056 13.542 2.066 16.942 6.267 4.505 5.567 3.966 13.518 3.556 16.547-1.645.548-4.936 1.459-9.327 1.751-8.537.565-16.961-1.345-25.049-5.684l-2.259 4.212c9.209 4.941 17.704 6.373 24.457 6.373 4.674 0 8.503-.687 11.166-1.369-1.452 5.928-5.379 17.847-15.158 29.126l3.611 3.131c8.393-9.681 12.736-19.659 14.934-26.566 3.984-1.072 18.206-3.397 31.826 12.82l3.66-3.074C95.25 80.864 89.177 76.932 83.656 74.82z" fill="#443c3a" fill-rule="nonzero"/><path d="M51.944 83.207c3.313-.871 5.746-3.21 6.477-5.854-1.936-1.943-5.206-2.782-8.518-1.911-3.313.871-5.747 3.209-6.477 5.853 1.936 1.943 5.205 2.783 8.518 1.912z" fill="#50a554" fill-rule="nonzero"/></symbol><symbol id="shape-play-button" viewBox="0 0 60 60"><path d="M30 0C13.458 0 0 13.458 0 30s13.458 30 30 30 30-13.458 30-30S46.542 0 30 0zm15.563 30.826l-22 15a1.002 1.002 0 0 1-1.03.058A.999.999 0 0 1 22 45V15a.999.999 0 0 1 1.564-.826l22 15a1.001 1.001 0 0 1-.001 1.652z" fill="#FFF"/></symbol><symbol id="shape-twitter-logo-button" viewBox="0 0 49.652 49.652"><path d="M24.826 0C11.137 0 0 11.137 0 24.826c0 13.688 11.137 24.826 24.826 24.826 13.688 0 24.826-11.138 24.826-24.826C49.652 11.137 38.516 0 24.826 0zm11.075 19.144c.011.246.017.494.017.742 0 7.551-5.746 16.255-16.259 16.255-3.227 0-6.231-.943-8.759-2.565.447.053.902.08 1.363.08 2.678 0 5.141-.914 7.097-2.446a5.72 5.72 0 0 1-5.338-3.969 5.76 5.76 0 0 0 2.58-.096 5.715 5.715 0 0 1-4.583-5.603l.001-.072a5.69 5.69 0 0 0 2.587.714 5.71 5.71 0 0 1-2.541-4.755c0-1.048.281-2.03.773-2.874a16.225 16.225 0 0 0 11.777 5.972 5.707 5.707 0 0 1-.147-1.303 5.714 5.714 0 0 1 9.884-3.91 11.406 11.406 0 0 0 3.63-1.387 5.74 5.74 0 0 1-2.516 3.162 11.36 11.36 0 0 0 3.282-.899 11.494 11.494 0 0 1-2.848 2.954z" fill="#FFF"/></symbol></svg>