<?xml version="1.0" encoding="UTF-8" standalone="no"?><!DOCTYPE svg PUBLIC "-//W3C//DTD SVG 1.1//EN" "http://www.w3.org/Graphics/SVG/1.1/DTD/svg11.dtd"><svg width="100%" height="100%" viewBox="0 0 284 107" version="1.1" xmlns="http://www.w3.org/2000/svg" xmlns:xlink="http://www.w3.org/1999/xlink" xml:space="preserve" style="fill-rule:evenodd;clip-rule:evenodd;stroke-linejoin:round;stroke-miterlimit:1.41421;"><g><path d="M158.63,53.676c0,-4.536 -0.028,-8.877 0.013,-13.218c0.017,-1.838 -0.147,-3.777 0.391,-5.474c0.347,-1.096 1.79,-2.51 2.793,-2.551c1.054,-0.044 2.551,1.16 3.156,2.218c0.654,1.144 0.651,2.747 0.672,4.154c0.072,4.764 0.027,9.53 0.027,14.339c1.099,0 1.815,0 2.237,0c0,-3.899 -0.02,-7.654 0.009,-11.409c0.015,-1.925 -0.114,-3.894 0.244,-5.762c0.383,-1.996 1.733,-3.617 3.901,-3.67c2.145,-0.053 3.02,1.673 3.181,3.551c0.478,5.574 0.834,11.159 1.247,16.739c0.011,0.151 0.127,0.294 0.266,0.596c0.557,0.05 1.193,0.107 2.444,0.22c-0.588,-6.465 -0.809,-12.756 -1.829,-18.915c-0.858,-5.188 -4.821,-6.287 -8.856,-2.974c-0.304,0.25 -0.675,0.42 -1.076,0.665c-2.806,-3.123 -5.832,-2.974 -8.351,-0.945c-1.143,-0.672 -1.876,-1.102 -2.622,-1.54c0,8.312 0,16.092 0,23.976c1.01,0 1.651,0 2.153,0Z" style="fill:#fff;fill-rule:nonzero;"/><path d="M282.17,31.003c-1.202,-0.585 -2.055,-1.094 -2.972,-1.43c-2.952,-1.08 -5.872,-0.077 -7.422,2.481c-1.455,2.401 -1.044,5.095 1.222,7.283c1.083,1.046 2.411,1.849 3.435,2.943c1.183,1.265 2.664,2.597 3.063,4.145c0.347,1.345 -0.282,3.313 -1.184,4.447c-0.428,0.539 -2.529,-0.096 -3.804,-0.446c-0.742,-0.204 -1.35,-0.898 -2.198,-1.499c-0.628,0.709 -1.191,1.346 -1.897,2.143c1.134,0.716 1.941,1.309 2.819,1.764c3.108,1.61 6.495,1.167 8.29,-1.035c1.878,-2.302 1.822,-5.517 -0.462,-8.295c-1.37,-1.667 -3.141,-3.001 -4.699,-4.519c-2.2,-2.142 -2.881,-4.709 -1.579,-6.211c1.901,-2.194 3.752,-0.61 5.635,0.307c0.514,-0.609 0.99,-1.174 1.753,-2.078Z" style="fill:#fff;fill-rule:nonzero;"/><path d="M216.589,53.11c0,-5.948 0.219,-11.803 -0.073,-17.633c-0.214,-4.293 -3.428,-5.987 -7.24,-4.287c-0.342,0.152 -0.679,0.316 -0.648,0.302c-0.696,-0.722 -1.192,-1.236 -1.687,-1.75c-0.486,0.533 -1.365,1.044 -1.397,1.603c-0.387,6.857 -0.64,13.721 -0.954,20.583c-0.075,1.641 0.646,2.06 2.193,1.628c0.051,-0.741 0.113,-1.402 0.139,-2.064c0.199,-4.936 0.432,-9.872 0.566,-14.81c0.065,-2.415 1.514,-3.443 3.589,-3.753c2.191,-0.327 2.812,1.359 3.313,3.008c0.167,0.552 0.237,1.155 0.236,1.735c-0.011,4.598 -0.024,9.197 -0.098,13.794c-0.02,1.284 0.087,2.233 2.061,1.644Z" style="fill:#fff;fill-rule:nonzero;"/><path d="M125.451,51.194c7.067,0.577 9.238,-0.696 9.518,-5.967c0.279,-5.265 0.417,-10.546 0.283,-15.814c-0.148,-5.79 -2.65,-7.316 -9.801,-6.104c0,9.186 0,18.447 0,27.885Zm-2.814,-30.883c4.079,-0.464 7.989,-0.732 11.44,0.828c1.543,0.698 3.247,2.595 3.298,3.989c0.283,7.696 0.272,15.411 -0.068,23.105c-0.113,2.562 -2.446,4.454 -5.525,4.953c-2.958,0.481 -6.008,0.549 -9.145,0.808c0,-11.548 0,-22.522 0,-33.683Z" style="fill:#fff;fill-rule:nonzero;"/><path d="M216.589,53.11c-1.974,0.589 -2.081,-0.36 -2.061,-1.644c0.074,-4.597 0.087,-9.196 0.098,-13.794c0.001,-0.58 -0.069,-1.183 -0.236,-1.735c-0.501,-1.649 -1.122,-3.335 -3.313,-3.008c-2.075,0.31 -3.524,1.338 -3.589,3.753c-0.134,4.938 -0.367,9.874 -0.566,14.81c-0.026,0.662 -0.088,1.323 -0.139,2.064c-1.547,0.432 -2.268,0.013 -2.193,-1.628c0.314,-6.862 0.567,-13.726 0.954,-20.583c0.032,-0.559 0.911,-1.07 1.397,-1.603c0.495,0.514 0.991,1.028 1.687,1.75c-0.031,0.014 0.306,-0.15 0.648,-0.302c3.812,-1.7 7.026,-0.006 7.24,4.287c0.292,5.83 0.073,11.685 0.073,17.633Z" style="fill:#fff;fill-rule:nonzero;"/><path d="M199.893,29.745c-1.985,-0.577 -2.635,0.283 -2.655,2.396c-0.062,6.524 -0.299,13.047 -0.447,19.571c-0.015,0.635 0.114,1.273 0.178,1.931c1.071,0 1.952,0 2.924,0c0,-7.986 0,-15.823 0,-23.898Z" style="fill:#fff;fill-rule:nonzero;"/><path d="M198.859,23.413c-0.701,0.993 -1.393,1.562 -1.445,2.184c-0.039,0.46 0.755,0.99 1.179,1.488c0.589,-0.581 1.334,-1.084 1.684,-1.784c0.124,-0.25 -0.71,-0.978 -1.418,-1.888Z" style="fill:#fff;fill-rule:nonzero;"/><path d="M199.893,29.745c0,8.075 0,15.912 0,23.898c-0.972,0 -1.853,0 -2.924,0c-0.064,-0.658 -0.193,-1.296 -0.178,-1.931c0.148,-6.524 0.385,-13.047 0.447,-19.571c0.02,-2.113 0.67,-2.973 2.655,-2.396Z" style="fill:#fff;fill-rule:nonzero;"/><path d="M198.859,23.413c0.708,0.91 1.542,1.638 1.418,1.888c-0.35,0.7 -1.095,1.203 -1.684,1.784c-0.424,-0.498 -1.218,-1.028 -1.179,-1.488c0.052,-0.622 0.744,-1.191 1.445,-2.184Z" style="fill:#fff;fill-rule:nonzero;"/><path d="M250.321,42.068c0.053,0 0.106,0 0.16,0c0,-2.089 -0.095,-4.184 0.03,-6.266c0.098,-1.62 -0.768,-2.267 -2.095,-2.598c-2.277,-0.568 -4.383,0.392 -4.698,2.905c-0.469,3.746 -0.306,7.581 -0.238,11.375c0.015,0.814 0.584,2.051 1.227,2.33c1.26,0.544 2.809,0.871 4.124,0.639c0.631,-0.112 1.311,-1.664 1.424,-2.628c0.223,-1.896 0.066,-3.836 0.066,-5.757Zm-0.05,-19.618c-0.081,-1.93 0.602,-2.636 2.58,-2.131c0,11.048 0,22.09 0,33.758c-1.166,-0.415 -2.09,-0.801 -3.048,-1.058c-0.427,-0.114 -0.932,-0.015 -1.386,0.069c-3.278,0.605 -5.412,-0.458 -6.482,-3.632c-1.736,-5.146 -1.576,-10.403 -0.137,-15.572c0.829,-2.981 2.745,-3.921 5.767,-3.345c0.81,0.155 1.618,0.322 2.737,0.545c0,-2.982 0.088,-5.812 -0.031,-8.634Z" style="fill:#fff;fill-rule:nonzero;"/><path d="M183.64,44.919c0.219,1.327 0.13,2.54 0.635,3.405c0.645,1.105 1.745,2.644 2.697,2.679c1.022,0.038 2.75,-1.28 3.02,-2.309c0.566,-2.157 0.62,-4.538 0.385,-6.774c-0.099,-0.941 -1.484,-2.474 -2.245,-2.451c-1.198,0.037 -2.675,0.914 -3.453,1.895c-0.747,0.943 -0.755,2.471 -1.039,3.555Zm-1.775,3.96c-0.506,-1.638 -0.717,-3.475 -0.582,-5.183c0.41,-5.171 3.717,-7.182 9.783,-5.897c-0.099,-1.309 0.109,-2.665 -0.37,-3.704c-0.456,-0.989 -1.523,-1.923 -2.539,-2.315c-0.41,-0.158 -1.375,1.224 -2.134,1.848c-0.558,0.457 -1.194,0.821 -1.794,1.226c-0.149,-0.766 -0.598,-1.627 -0.393,-2.282c0.696,-2.218 3,-3.705 5.208,-3.59c2.526,0.132 3.573,1.99 3.787,4.013c0.403,3.816 0.423,7.675 0.525,11.519c0.063,2.348 0.064,4.705 -0.081,7.047c-0.047,0.758 -0.645,1.481 -0.992,2.22c-0.684,-0.371 -1.369,-0.742 -2.203,-1.194c-4.183,2.116 -6.722,1.116 -8.215,-3.708Z" style="fill:#fff;fill-rule:nonzero;"/><path d="M258.285,39.205c1.755,0 2.831,0.009 3.906,-0.002c4.118,-0.042 4.965,-1.306 3.153,-5.019c-0.417,-0.853 -1.474,-1.965 -2.218,-1.95c-1.056,0.02 -2.517,0.716 -3.044,1.585c-0.865,1.425 -1.12,3.222 -1.797,5.386Zm0.289,2.598c0.182,2.136 0.288,3.946 0.504,5.742c0.23,1.924 1.079,3.435 3.272,3.42c2.102,-0.013 3.091,-1.383 3.452,-3.317c0.045,-0.24 0.159,-0.466 0.24,-0.694c3.046,0.586 3.41,1.371 1.701,3.87c-1.435,2.098 -3.52,3.087 -6.027,2.931c-2.387,-0.148 -3.816,-1.757 -4.473,-3.85c-1.719,-5.496 -1.826,-11.042 0.312,-16.461c1.162,-2.944 3.589,-4.325 6.32,-3.817c2.848,0.53 3.521,2.827 3.858,5.21c0.303,2.137 0.386,4.305 0.607,6.966c-3.453,0 -6.43,0 -9.766,0Z" style="fill:#fff;fill-rule:nonzero;"/><path d="M222.297,39.119c2.298,0 4.118,0.048 5.935,-0.015c1.503,-0.052 2.043,-0.982 1.793,-2.385c-0.146,-0.816 -0.21,-1.752 -0.661,-2.384c-0.623,-0.872 -1.56,-2.074 -2.392,-2.098c-1.014,-0.029 -2.475,0.774 -2.995,1.657c-0.844,1.436 -1.081,3.229 -1.68,5.225Zm0.245,2.684c0.177,2.121 0.275,3.998 0.507,5.859c0.226,1.814 1.033,3.231 3.116,3.294c1.995,0.061 3.027,-1.132 3.514,-2.931c0.103,-0.381 0.209,-0.761 0.305,-1.109c2.746,0.087 3.485,1.004 1.758,3.788c-1.348,2.173 -3.448,3.152 -5.951,3.056c-2.516,-0.096 -3.965,-1.778 -4.642,-3.968c-1.674,-5.417 -1.749,-10.886 0.284,-16.235c1.125,-2.959 3.502,-4.326 6.258,-3.957c2.24,0.301 3.608,2.057 4.006,5.355c0.257,2.131 0.359,4.281 0.565,6.848c-3.455,0 -6.368,0 -9.72,0Z" style="fill:#fff;fill-rule:nonzero;"/><path d="M151.732,41.574c-0.477,-2.108 -0.897,-5.003 -1.872,-7.7c-0.334,-0.924 -2.098,-1.925 -3.133,-1.85c-1.03,0.075 -2.377,1.27 -2.85,2.305c-0.836,1.83 -1.514,3.907 -1.533,5.887c-0.027,2.982 0.346,6.018 0.98,8.939c0.419,1.93 2.307,2.964 4.189,2.466c1.226,-0.325 2.714,-1.524 3.115,-2.666c0.717,-2.042 0.701,-4.338 1.104,-7.381Zm0.925,8.09c-0.573,2.105 -1.775,3.961 -4.336,4.144c-2.897,0.207 -5.576,-0.554 -6.717,-3.37c-2.527,-6.241 -2.388,-12.591 0.877,-18.515c2.006,-3.639 7.524,-3.028 9.312,1.075c1.248,2.866 1.611,6.111 2.252,8.707c-0.516,3.089 -0.74,5.581 -1.388,7.959Z" style="fill:#fff;fill-rule:nonzero;"/><path d="M136.812,82.009c0,3.303 0.087,6.976 -0.032,10.642c-0.074,2.267 0.999,2.947 3.209,2.873c3.109,-0.104 2.343,-2.378 2.338,-3.901c-0.033,-9.214 -0.226,-18.428 -0.378,-27.641c-0.013,-0.776 -0.118,-1.55 -0.177,-2.278c-4.129,-0.634 -4.418,-0.458 -5.641,2.998c-1.209,3.413 -2.458,6.813 -3.835,10.624c-1.47,-4.117 -2.718,-7.808 -4.123,-11.443c-0.543,-1.406 -1.013,-3.586 -3.208,-2.775c-0.984,0.363 -1.829,2.286 -1.873,3.529c-0.325,9.208 -0.362,18.425 -0.658,27.635c-0.077,2.372 1.001,3.142 3.209,3.215c2.392,0.079 2.391,-1.523 2.402,-3.069c0.027,-3.84 0.009,-7.681 0.009,-11.763c1.996,1.848 0.919,5.9 4.46,5.512c1.555,-0.169 2.829,-2.655 4.298,-4.158Z" style="fill:#fff;fill-rule:nonzero;"/><path d="M273.146,60.359c-1.917,0.046 -4.568,1.356 -6.022,4.51c-1.557,3.377 -1.461,6.766 0.821,9.755c1.271,1.666 3.139,2.865 4.53,4.456c1.846,2.11 3.741,4.253 5.129,6.661c0.898,1.559 0.62,3.608 -1.506,4.424c-2.099,0.805 -3.564,-0.264 -3.96,-2.277c-0.512,-2.605 -2.393,-1.988 -3.918,-1.849c-1.83,0.166 -1.877,1.705 -1.53,3.046c0.301,1.163 0.754,2.391 1.485,3.32c2.82,3.585 7.826,4.219 11.672,1.622c3.297,-2.227 4.788,-7.675 2.554,-11.136c-1.65,-2.555 -4.009,-4.661 -6.117,-6.906c-1.451,-1.547 -3.155,-2.876 -4.488,-4.512c-1.396,-1.714 -0.73,-4.87 1.194,-5.77c2.299,-1.076 3.413,0.334 4.022,2.382c0.075,0.25 0.21,0.648 0.374,0.678c1.35,0.254 2.732,0.645 4.062,0.525c0.441,-0.04 1.172,-1.511 1.064,-2.221c-0.634,-4.187 -3.755,-6.739 -9.366,-6.708Z" style="fill:#fff;fill-rule:nonzero;"/><path d="M177.315,60.947c-3.915,0 -7.873,-0.045 -11.829,0.02c-1.706,0.028 -2.122,1.159 -2.138,2.625c-0.017,1.626 0.886,2.043 2.352,1.975c0.759,-0.035 1.521,-0.006 2.573,-0.006c0,10.054 0,19.828 0,29.766c1.633,0 3.101,0 5.108,0c0,-2.903 -0.044,-5.763 0.009,-8.621c0.119,-6.348 0.254,-12.696 0.484,-19.04c0.023,-0.655 0.573,-1.647 1.141,-1.871c3.043,-1.2 3.317,-1.616 2.3,-4.848Z" style="fill:#fff;fill-rule:nonzero;"/><path d="M244.363,78.021c0.146,0 0.292,0 0.438,-0.001c0,-4.797 0.049,-9.596 -0.05,-14.392c-0.016,-0.774 -0.584,-2.118 -1.079,-2.206c-3.149,-0.564 -4.839,-0.24 -4.647,3.182c0.284,5.055 0.451,10.121 0.452,15.183c0.002,4.273 -0.369,8.544 -0.434,12.819c-0.02,1.365 0.178,2.98 2.273,2.765c1.752,-0.181 3.179,-0.558 3.096,-2.944c-0.166,-4.797 -0.049,-9.603 -0.049,-14.406Z" style="fill:#fff;fill-rule:nonzero;"/><path d="M192.066,82.3c-1.777,-0.11 -3.409,-0.212 -5.133,-0.319c-0.249,3.736 -0.536,7.214 -0.691,10.698c-0.092,2.06 -0.998,2.958 -3.011,2.764c-2.17,-0.21 -1.745,-1.785 -1.712,-3.215c0.216,-9.371 0.458,-18.742 0.575,-28.115c0.025,-1.981 0.55,-3.063 2.622,-3.174c2.405,-0.128 2.442,1.39 2.418,3.176c-0.055,4.229 -0.017,8.458 -0.017,13.064c1.532,0.14 3.245,0.296 5.331,0.486c0.25,-4.833 0.403,-9.483 0.811,-14.11c0.074,-0.836 1.097,-2.096 1.859,-2.25c1.508,-0.305 2.761,0.482 2.833,2.358c0.011,0.27 0.021,0.542 0.011,0.812c-0.292,7.655 -0.584,15.311 -0.883,22.966c-0.074,1.891 -0.295,3.786 -0.227,5.671c0.065,1.776 -0.63,2.383 -2.305,2.397c-1.73,0.014 -2.448,-0.868 -2.467,-2.451c-0.043,-3.498 -0.014,-6.997 -0.014,-10.758Z" style="fill:#fff;fill-rule:nonzero;"/><path d="M207.961,66.56c-0.243,3.475 -0.474,6.776 -0.727,10.406c1.858,-0.157 3.405,-0.242 4.938,-0.428c2.338,-0.284 2.473,1.254 2.743,2.856c0.31,1.836 -0.708,2.234 -2.256,2.308c-1.653,0.079 -3.303,0.23 -5.096,0.36c0.169,2.675 0.324,5.118 0.488,7.724c1.637,0.132 3.117,0.313 4.601,0.361c4.767,0.152 4.922,0.295 4.621,5.201c-4.167,0 -8.371,0.101 -12.557,-0.118c-0.566,-0.03 -1.416,-1.635 -1.493,-2.561c-0.271,-3.24 -0.299,-6.501 -0.351,-9.756c-0.101,-6.339 -0.081,-12.681 -0.271,-19.017c-0.065,-2.175 0.819,-2.905 2.926,-2.881c2.743,0.031 5.493,-0.008 8.232,-0.163c2.721,-0.153 2.911,1.626 3.062,3.478c0.183,2.242 -1.548,1.814 -2.898,1.893c-1.931,0.112 -3.862,0.219 -5.962,0.337Z" style="fill:#fff;fill-rule:nonzero;"/><path d="M254.864,66.674c-0.241,3.513 -0.467,6.8 -0.71,10.356c1.981,-0.156 3.621,-0.288 5.26,-0.414c2.292,-0.177 2.126,1.517 2.402,2.905c0.324,1.63 -0.556,2.143 -2.051,2.212c-1.67,0.078 -3.338,0.218 -5.256,0.348c0.137,2.558 0.266,4.981 0.411,7.694c1.603,0.138 3.151,0.343 4.707,0.392c4.678,0.149 4.885,0.347 4.542,5.209c-4.099,0 -8.236,0.132 -12.345,-0.135c-0.657,-0.042 -1.634,-1.844 -1.704,-2.88c-0.297,-4.425 -0.342,-8.867 -0.417,-13.304c-0.085,-5.121 -0.063,-10.244 -0.178,-15.364c-0.036,-1.57 0.486,-2.469 2.181,-2.505c3.098,-0.064 6.197,-0.063 9.293,-0.169c2.71,-0.092 2.538,1.874 2.718,3.494c0.224,2.015 -1.372,1.761 -2.686,1.822c-2.012,0.094 -4.021,0.219 -6.167,0.339Z" style="fill:#fff;fill-rule:nonzero;"/><path d="M219.28,61.519c0.77,-0.149 1.388,-0.201 1.96,-0.391c1.996,-0.666 2.623,0.166 2.891,2.111c0.791,5.744 1.78,11.462 3.336,17.196c0.633,-3.45 1.253,-6.901 1.902,-10.347c0.473,-2.513 0.999,-5.015 1.474,-7.527c0.466,-2.468 2.452,-1.642 3.825,-1.514c0.435,0.04 1.145,1.796 1.005,2.648c-1.689,10.27 -3.488,20.522 -5.357,30.76c-0.131,0.718 -1.099,1.872 -1.56,1.818c-0.92,-0.108 -2.378,-0.771 -2.535,-1.453c-2.416,-10.465 -4.663,-20.969 -6.927,-31.468c-0.109,-0.503 -0.014,-1.05 -0.014,-1.833Z" style="fill:#fff;fill-rule:nonzero;"/><path d="M153.646,81.479c2.606,0.04 3.039,-2.766 1.298,-6.679c-0.428,2.203 -0.843,4.336 -1.298,6.679Zm3.044,5.081c-4.363,-0.378 -4.359,-0.377 -5.082,3.695c-0.155,0.869 -0.386,1.726 -0.517,2.598c-0.275,1.835 -1.078,2.912 -3.162,2.593c-2.397,-0.368 -1.812,-2.202 -1.561,-3.507c0.732,-3.806 1.761,-7.554 2.598,-11.341c1.276,-5.776 2.47,-11.57 3.739,-17.347c0.315,-1.433 0.79,-2.582 2.762,-2.537c1.999,0.046 2.255,1.246 2.51,2.68c1.701,9.566 3.417,19.129 5.094,28.699c0.241,1.374 0.566,3.003 -1.475,3.293c-1.839,0.262 -3.286,-0.234 -3.609,-2.476c-0.3,-2.084 -0.834,-4.134 -1.297,-6.35Z" style="fill:#fff;fill-rule:nonzero;"/><path d="M13.971,24.391c-1.961,-2.415 -4.808,-3.552 -7.269,-3.166c-0.882,2.33 -0.352,5.349 1.61,7.763c1.961,2.415 4.808,3.552 7.269,3.166c0.881,-2.33 0.352,-5.349 -1.61,-7.763Z" style="fill:#fff;fill-rule:nonzero;"/><path d="M27.427,28.285c-1.096,-2.911 -3.436,-4.891 -5.893,-5.304c-1.574,1.931 -2.027,4.963 -0.93,7.874c1.096,2.911 3.437,4.891 5.893,5.303c1.574,-1.93 2.027,-4.962 0.93,-7.873Z" style="fill:#fff;fill-rule:nonzero;"/><path d="M42.037,23.038c-1.097,-2.911 -3.437,-4.891 -5.894,-5.304c-1.574,1.931 -2.026,4.963 -0.93,7.874c1.097,2.911 3.437,4.891 5.893,5.303c1.574,-1.93 2.027,-4.962 0.931,-7.873Z" style="fill:#fff;fill-rule:nonzero;"/><path d="M78.713,63.799c0.358,-3.734 -1.126,-7.119 -3.567,-8.87c-2.728,1.256 -4.827,4.298 -5.185,8.032c-0.357,3.734 1.127,7.119 3.567,8.869c2.729,-1.255 4.828,-4.298 5.185,-8.031Z" style="fill:#fff;fill-rule:nonzero;"/><path d="M72.284,87.112c0.296,-3.096 -0.934,-5.904 -2.958,-7.355c-2.263,1.041 -4.004,3.564 -4.3,6.661c-0.297,3.096 0.934,5.904 2.958,7.355c2.263,-1.041 4.004,-3.564 4.3,-6.661Z" style="fill:#fff;fill-rule:nonzero;"/><path d="M48.913,51.14c-1.008,-2.943 -3.287,-4.993 -5.73,-5.48c-1.632,1.882 -2.176,4.899 -1.169,7.842c1.008,2.943 3.287,4.993 5.73,5.48c1.632,-1.882 2.176,-4.899 1.169,-7.842Z" style="fill:#fff;fill-rule:nonzero;"/><path d="M82.005,84.713c-1.522,-3.015 -4.278,-4.879 -6.978,-5.039c-1.474,2.267 -1.61,5.592 -0.088,8.607c1.522,3.014 4.279,4.879 6.978,5.038c1.474,-2.267 1.61,-5.592 0.088,-8.606Z" style="fill:#fff;fill-rule:nonzero;"/><path d="M92.476,88.155c-1.495,-2.959 -4.227,-4.776 -6.915,-4.913c-1.485,2.244 -1.645,5.522 -0.151,8.481c1.494,2.959 4.227,4.776 6.915,4.913c1.485,-2.244 1.645,-5.522 0.151,-8.481Z" style="fill:#fff;fill-rule:nonzero;"/><path d="M94.422,72.862c2.778,-1.399 4.498,-3.936 4.648,-6.423c-2.087,-1.36 -5.15,-1.488 -7.928,-0.089c-2.778,1.399 -4.498,3.936 -4.648,6.423c2.087,1.36 5.149,1.488 7.928,0.089Z" style="fill:#fff;fill-rule:nonzero;"/><path d="M86.863,54.318c2.851,1.245 5.902,0.95 7.912,-0.522c-0.285,-2.474 -2.141,-4.914 -4.992,-6.16c-2.85,-1.246 -5.901,-0.95 -7.911,0.521c0.285,2.475 2.141,4.915 4.991,6.161Z" style="fill:#fff;fill-rule:nonzero;"/><path d="M55.536,38.773c1.655,2.635 4.342,4.109 6.832,4.024c1.158,-2.206 0.998,-5.267 -0.657,-7.901c-1.654,-2.635 -4.342,-4.109 -6.831,-4.024c-1.158,2.206 -0.998,5.267 0.656,7.901Z" style="fill:#fff;fill-rule:nonzero;"/><path d="M56.327,28.878c2.415,1.961 5.435,2.489 7.764,1.606c0.384,-2.461 -0.754,-5.307 -3.17,-7.267c-2.415,-1.961 -5.435,-2.489 -7.764,-1.606c-0.385,2.461 0.754,5.307 3.17,7.267Z" style="fill:#fff;fill-rule:nonzero;"/><path d="M51.901,19.91c3.785,0.39 7.231,-1.089 9.024,-3.552c-1.253,-2.778 -4.323,-4.93 -8.109,-5.32c-3.785,-0.391 -7.23,1.089 -9.024,3.552c1.253,2.777 4.324,4.929 8.109,5.32Z" style="fill:#fff;fill-rule:nonzero;"/><path d="M60.565,57.009c-1.24,-3.621 -4.044,-6.143 -7.05,-6.743c-2.007,2.316 -2.678,6.027 -1.438,9.648c1.24,3.621 4.044,6.143 7.049,6.743c2.008,-2.316 2.678,-6.027 1.439,-9.648Z" style="fill:#fff;fill-rule:nonzero;"/><path d="M72.388,6.581c-1.008,-2.943 -3.287,-4.992 -5.73,-5.48c-1.631,1.883 -2.176,4.899 -1.169,7.842c1.008,2.943 3.287,4.993 5.73,5.48c1.632,-1.882 2.177,-4.898 1.169,-7.842Z" style="fill:#fff;fill-rule:nonzero;"/><path d="M31.742,45.556c-3.053,0.599 -5.393,2.579 -6.207,4.933c1.643,1.872 4.558,2.821 7.61,2.222c3.053,-0.598 5.393,-2.578 6.207,-4.932c-1.643,-1.872 -4.558,-2.821 -7.61,-2.223Z" style="fill:#fff;fill-rule:nonzero;"/><path d="M39.763,94.854c0.48,-3.074 -0.581,-5.95 -2.515,-7.519c-2.321,0.904 -4.209,3.319 -4.69,6.393c-0.48,3.073 0.581,5.949 2.515,7.518c2.321,-0.904 4.209,-3.319 4.69,-6.392Z" style="fill:#fff;fill-rule:nonzero;"/><path d="M30.855,91.771c1.934,-2.437 2.429,-5.462 1.52,-7.781c-2.465,-0.358 -5.298,0.812 -7.232,3.249c-1.933,2.437 -2.428,5.462 -1.52,7.781c2.465,0.358 5.299,-0.812 7.232,-3.249Z" style="fill:#fff;fill-rule:nonzero;"/><path d="M41.232,78.876c-0.751,-3.019 -2.846,-5.256 -5.238,-5.951c-1.787,1.735 -2.589,4.694 -1.837,7.712c0.751,3.019 2.846,5.257 5.239,5.952c1.787,-1.736 2.588,-4.695 1.836,-7.713Z" style="fill:#fff;fill-rule:nonzero;"/><path d="M31.431,78.48c1.05,-2.928 0.548,-5.952 -1.056,-7.858c-2.45,0.453 -4.758,2.469 -5.808,5.398c-1.049,2.928 -0.548,5.952 1.056,7.857c2.45,-0.452 4.758,-2.468 5.808,-5.397Z" style="fill:#fff;fill-rule:nonzero;"/><path d="M76.118,52.39c2.778,-1.399 4.498,-3.936 4.648,-6.423c-2.087,-1.36 -5.15,-1.488 -7.928,-0.089c-2.778,1.399 -4.498,3.936 -4.648,6.423c2.087,1.36 5.149,1.488 7.928,0.089Z" style="fill:#fff;fill-rule:nonzero;"/><path d="M49.193,92.761c2.778,-1.399 4.498,-3.936 4.648,-6.423c-2.087,-1.36 -5.15,-1.488 -7.928,-0.089c-2.779,1.399 -4.499,3.936 -4.648,6.423c2.087,1.36 5.149,1.488 7.928,0.089Z" style="fill:#fff;fill-rule:nonzero;"/><path d="M99.99,37.509c2.631,-2.229 3.826,-5.409 3.343,-8.128c-2.602,-0.924 -5.936,-0.268 -8.567,1.961c-2.631,2.228 -3.826,5.409 -3.343,8.127c2.602,0.924 5.936,0.268 8.567,-1.96Z" style="fill:#fff;fill-rule:nonzero;"/><path d="M79.197,31.115c0.638,-2.858 -0.184,-5.624 -1.905,-7.216c-2.235,0.709 -4.155,2.863 -4.793,5.72c-0.638,2.858 0.184,5.624 1.905,7.215c2.235,-0.708 4.155,-2.862 4.793,-5.719Z" style="fill:#fff;fill-rule:nonzero;"/><path d="M52.251,31.472c0.735,-3.489 -0.306,-6.844 -2.425,-8.758c-2.711,0.896 -5.017,3.546 -5.752,7.034c-0.736,3.489 0.305,6.844 2.424,8.758c2.711,-0.896 5.018,-3.546 5.753,-7.034Z" style="fill:#fff;fill-rule:nonzero;"/><path d="M65.88,99.68c0.295,-3.078 -0.928,-5.868 -2.939,-7.31c-2.249,1.035 -3.979,3.542 -4.273,6.619c-0.295,3.077 0.928,5.867 2.939,7.309c2.249,-1.034 3.979,-3.542 4.273,-6.618Z" style="fill:#fff;fill-rule:nonzero;"/><path d="M99.277,75.881c-2.005,-1.62 -4.508,-2.053 -6.436,-1.317c-0.315,2.04 0.634,4.396 2.638,6.016c2.005,1.62 4.507,2.053 6.436,1.317c0.315,-2.04 -0.633,-4.396 -2.638,-6.016Z" style="fill:#fff;fill-rule:nonzero;"/><path d="M46.45,60.095c-3.034,-0.817 -6.038,-0.065 -7.825,1.706c0.655,2.43 2.875,4.589 5.909,5.406c3.034,0.818 6.038,0.066 7.825,-1.706c-0.656,-2.429 -2.875,-4.588 -5.909,-5.406Z" style="fill:#fff;fill-rule:nonzero;"/><path d="M92.518,57.294c-2.389,-1.306 -5.071,-1.284 -6.936,-0.156c0.057,2.179 1.486,4.448 3.875,5.754c2.388,1.306 5.07,1.285 6.935,0.157c-0.057,-2.179 -1.486,-4.449 -3.874,-5.755Z" style="fill:#fff;fill-rule:nonzero;"/><path d="M102.657,25.078c1.109,-1.867 1.168,-4.007 0.322,-5.526c-1.74,-0.016 -3.591,1.059 -4.7,2.926c-1.109,1.868 -1.168,4.007 -0.322,5.527c1.739,0.016 3.59,-1.059 4.7,-2.927Z" style="fill:#fff;fill-rule:nonzero;"/><path d="M87.884,27.036c1.428,-2.405 1.504,-5.16 0.414,-7.117c-2.239,-0.021 -4.623,1.364 -6.051,3.769c-1.429,2.405 -1.504,5.16 -0.415,7.117c2.24,0.02 4.623,-1.364 6.052,-3.769Z" style="fill:#fff;fill-rule:nonzero;"/><path d="M36.878,60.426c2.231,-1.87 3.254,-4.549 2.858,-6.846c-2.192,-0.792 -5.009,-0.253 -7.241,1.616c-2.231,1.87 -3.254,4.549 -2.858,6.846c2.192,0.792 5.01,0.254 7.241,-1.616Z" style="fill:#fff;fill-rule:nonzero;"/><path d="M23.906,47.461c-0.428,-2.541 -2.015,-4.524 -3.947,-5.251c-1.587,1.319 -2.439,3.712 -2.011,6.254c0.428,2.541 2.015,4.524 3.947,5.251c1.587,-1.319 2.438,-3.712 2.011,-6.254Z" style="fill:#fff;fill-rule:nonzero;"/><path d="M69.543,44.06c-0.919,0 -1.869,-0.033 -2.851,-0.101l0.331,-4.769c22.073,1.538 24.744,-17.578 24.848,-18.393l4.743,0.584c-0.028,0.235 -3.044,22.679 -27.071,22.679Z" style="fill:#fff;fill-rule:nonzero;"/><path d="M79.441,41.455c0.248,0.166 6.185,4.067 16.029,5.786l0.822,-4.709c-8.789,-1.534 -14.153,-5.022 -14.205,-5.057l-2.646,3.98Z" style="fill:#fff;fill-rule:nonzero;"/><path d="M83.656,74.82c3.415,-10.318 0.216,-17.721 0.067,-18.054l-4.364,1.952c0.029,0.064 2.626,6.075 -0.275,14.711c-4.886,-1.11 -9.083,-0.902 -11.985,-0.44c0.446,-1.943 0.637,-3.236 0.691,-3.643c0.254,-1.224 1.977,-10.479 -2.176,-18.425c5.384,-10.685 6.219,-19.66 4.816,-26.953c5.781,-8.518 11.384,-6.166 12.011,-5.865l2.158,-4.264c-2.991,-1.54 -9.668,-2.212 -15.79,4.469c-4.7,-12.164 -15.223,-18.208 -15.403,-18.308l-2.324,4.176c1.028,0.573 24.142,13.874 11.357,42.302c-3.815,-4.011 -9.302,-6.283 -16.363,-6.779c-2.869,-2.045 -14.06,-10.769 -16.879,-24.225l-4.679,0.98c2.22,10.594 8.819,18.435 13.769,23.032c-23.946,-1.19 -34.608,-12.693 -34.72,-12.816l-3.567,3.179c0.528,0.596 13.225,14.523 42.303,14.523c0.165,0 0.335,0 0.502,-0.001c7.857,-0.056 13.542,2.066 16.942,6.267c4.505,5.567 3.966,13.518 3.556,16.547c-1.645,0.548 -4.936,1.459 -9.327,1.751c-8.537,0.565 -16.961,-1.345 -25.049,-5.684l-2.259,4.212c9.209,4.941 17.704,6.373 24.457,6.373c4.674,0 8.503,-0.687 11.166,-1.369c-1.452,5.928 -5.379,17.847 -15.158,29.126l3.611,3.131c8.393,-9.681 12.736,-19.659 14.934,-26.566c3.984,-1.072 18.206,-3.397 31.826,12.82l3.66,-3.074c-5.914,-7.041 -11.987,-10.973 -17.508,-13.085Z" style="fill:#fff;fill-rule:nonzero;"/></g><path d="M51.944,83.207c3.313,-0.871 5.746,-3.21 6.477,-5.854c-1.936,-1.943 -5.206,-2.782 -8.518,-1.911c-3.313,0.871 -5.747,3.209 -6.477,5.853c1.936,1.943 5.205,2.783 8.518,1.912Z" style="fill:#50a554;fill-rule:nonzero;"/></svg>