<?xml version="1.0" standalone="no"?>
<!DOCTYPE svg PUBLIC "-//W3C//DTD SVG 1.1//EN" "http://www.w3.org/Graphics/SVG/1.1/DTD/svg11.dtd" >
<svg xmlns="http://www.w3.org/2000/svg">
<metadata></metadata>
<defs>
<font id="whatever_it_takesregular" horiz-adv-x="776" >
<font-face units-per-em="2048" ascent="1536" descent="-512" />
<missing-glyph horiz-adv-x="409" />
<glyph horiz-adv-x="2048" />
<glyph horiz-adv-x="2048" />
<glyph unicode="&#xd;" horiz-adv-x="2048" />
<glyph unicode=" "  horiz-adv-x="409" />
<glyph unicode="&#x09;" horiz-adv-x="409" />
<glyph unicode="&#xa0;" horiz-adv-x="409" />
<glyph unicode="!" horiz-adv-x="215" d="M135 127h8q2 -4 7.5 -15.5t7.5 -15.5t3 -13t1 -13q-2 0 -9.5 -1t-9.5 -1q-2 -2 -14 -7.5t-14 -7.5q-4 0 -9.5 -2t-9.5 -2q0 4 1 10.5t3 8.5q4 6 14.5 28.5t14.5 30.5h6zM70 389l14 14q0 2 1 10.5t1 12.5t-1 12t-1 11q0 2 -5 7t-9 7v698q6 0 23.5 -3t21.5 -7 q6 -4 17 -21.5t11 -23.5v-279l-14 -14q2 -6 4 -22.5t4 -35t4 -36t2 -23.5q0 -16 1 -57t1 -88t-1 -89t-1 -59q4 -2 9.5 -13t5.5 -15t-5.5 -9.5t-9.5 -5.5l15 -14q2 -4 0 -15.5t0 -15.5l6 -6l8 -8q0 -2 1 -3t1 -5t2 -8h-16.5t-16.5 2l-28 14l-15.5 15.5l-15.5 15.5 q0 2 -5 18.5t-9 24.5v8v6z" />
<glyph unicode="&#x22;" horiz-adv-x="407" d="M41 1126q2 4 7 15.5t7 13.5h8q4 0 6.5 1t6.5 1t13 -1t11 -1l15 -14v-15v-16q-4 -2 -9 -6q-4 -4 -4 -6l-2 -2q-2 -6 -2 -15v-22v-21q0 -8 2 -14q0 -4 7.5 -15.5t7.5 -15.5v-13v-23.5v-22.5v-12q0 -4 7 -15.5t7 -15.5q2 -4 3 -23.5t1 -25.5q-6 0 -24.5 2t-24.5 4l-14 14 q-2 8 -7.5 36t-7.5 38v20.5v37v38v21.5q0 2 -2 11t-4 18.5t-5 17.5t-3 10v8v8zM274 922q0 2 -6 13t-8 15q-4 10 -9 32t-5 26q0 8 -1 30.5t-2 47t-2 47t-1 30.5q6 0 25.5 -3t23.5 -5q4 -4 15 -14.5t15 -14.5q0 -8 -1 -29.5t-1 -44t1 -44t1 -29.5q0 -2 2.5 -13.5t4.5 -23.5 t5 -23.5t3 -13.5v-8v-6q-2 -4 -7 -9t-8 -5q-8 -2 -31.5 -4.5t-29.5 -2.5v11.5t2 9.5q2 4 8 15.5t6 15.5z" />
<glyph unicode="#" horiz-adv-x="819" d="M600 76q0 6 1 23.5t1 36t-1 34.5t-1 23q0 2 -5 11l-10 18t-10.5 18.5t-5.5 11.5q0 6 -1 25.5t-1 40t1 40t1 25.5l-28 -14h-15q-4 0 -16 -4.5t-26.5 -9.5t-27 -9t-18.5 -6q-2 -2 -14 -8t-14 -6q-8 -4 -36 -15.5t-38 -15.5v-133q-2 0 -7 1t-7 1q-4 2 -15.5 7t-13.5 7 q-6 4 -17.5 15.5t-13.5 15.5t4 18.5t6 18.5q-6 0 -27.5 4t-25.5 2q-2 0 -11 -5t-18.5 -9.5t-18.5 -9.5t-11 -5q0 -2 -7.5 -3t-9.5 -1q0 4 1 9t1 10q4 14 15.5 41.5t15.5 31.5q2 2 20.5 6.5t22.5 8.5q6 4 17.5 15t11.5 13v117q0 4 -11.5 14.5t-17.5 14.5q-2 2 -14 1t-15 -1 q-10 2 -25 4t-28.5 5t-24.5 5l-10 2v16q-4 0 -14 -1t-14 -1q-8 0 -31 5.5t-29 9.5v6v8l15 29l14 14q8 4 35.5 9l38.5 7v-8v-8l-15 -29q4 -4 21.5 -9t21.5 -5q8 0 31 5t29 9q0 6 1 29t1 31q0 10 -1 32.5t-1 24.5t-2 13.5t-5 23.5t-5.5 22.5t-2.5 14.5q0 2 -1 7t-1 7h56 q0 -8 2 -35.5t2 -37.5q0 -4 7 -21.5t7 -21.5q2 -4 7 -30t10 -30q0 -2 5 -7t9 -7h14h15q2 2 14 8t14 6q8 4 36 15.5t38 15.5l43 14q2 0 8 -7t8 -7t12.5 5t16.5 9l14 15l29 14l14 88l-14 14l14 117q-4 4 -14 15.5t-14 15.5q-2 4 -2 8v12q0 4 1 12.5t1 10.5t7 14t7 14 q2 4 3 23.5t1 23.5q2 0 5 -1t5 -1q6 -4 23.5 -15t21.5 -15q0 -14 -1 -49t-1 -74t1 -75t1 -50q0 -4 5.5 -26.5t9.5 -32.5l14 -29h6h8q4 2 22.5 8t22.5 6q6 2 31 3t31 1q0 -2 -1 -8t-3 -10q-4 -4 -14.5 -15.5t-14.5 -13.5t-16.5 -6t-27.5 -8t-28.5 -8t-15.5 -7q-2 -2 -7 -13 t-7 -17q-2 -12 -2 -21v-30q0 -4 1 -24.5t1 -27.5l14 -14q2 0 10.5 -1t12.5 -1t12 1t10 1l6 6l8 8l7 2l4 -2h4q2 0 7 -7t7 -7q6 -2 22.5 -4t20.5 -2v-23l-72 -28q-8 -4 -24 -15.5t-21 -15.5q-4 -4 -9 -14.5t-5 -14.5q0 -6 -1 -20.5t-1 -30.5t1 -30.5t1 -20.5l-14 -14l14 -15 q4 -4 9 -15t5 -15q4 -8 9.5 -36t5.5 -36q2 -8 3 -33t1 -31q-4 0 -22.5 1t-24.5 3zM565 592q-4 0 -12 -1t-12 -3q-4 0 -21.5 -6.5t-21.5 -8.5h-15q-2 0 -11 -5t-18.5 -9t-18.5 -9t-11 -5q-2 -2 -14.5 -1t-14.5 1q-8 -2 -24.5 -7.5t-20.5 -7.5q-6 -4 -17 -15t-11 -15v-121 q6 0 22 2t21 2q4 0 17 5t27.5 10t27 10.5t16.5 5.5t22.5 -1t22.5 1q4 0 15 12t13 16q2 2 14.5 7.5t14.5 7.5q4 2 9 7t5 7q4 6 10.5 16.5t6.5 12.5q0 4 -8.5 15t-8.5 15q0 6 -2 30t-2 32zM307 559q-10 0 -10 -14.5t10 -14.5t10 14.5t-10 14.5z" />
<glyph unicode="$" horiz-adv-x="643" d="M336 -90v15.5v27.5v27.5v17.5t-5 9t-9 5q-10 0 -35 1t-53.5 3t-53 5.5t-35.5 5.5q-6 0 -16 6t-22.5 12t-21.5 13.5t-11 11.5q-4 4 -9.5 16t-10.5 26.5t-8 27t-3 18.5h14q4 -4 14.5 -15.5t21.5 -22.5t22.5 -21.5t15.5 -12.5q4 -4 20.5 -10t24.5 -6t29.5 1t46 2t46 2 t30.5 1q0 6 -1 22.5t-3 34t-2 33.5v22q0 2 6 13.5t8 15.5v12v17q-2 4 -7 32.5t-7 40.5t-7.5 35t-7.5 23q-2 2 -13 7t-15 9h-7h-10q-4 0 -19.5 -3t-31.5 -5t-31.5 -5t-19.5 -3h-6h-9q-4 2 -21.5 8t-21.5 8q-4 0 -15 -1t-13 1q-4 0 -9.5 5t-7.5 10q0 2 2 6t2 8h-41 q0 4 1.5 16.5t2.5 26.5t3 26.5t2 18.5q0 4 4 12t8 17.5t9 17.5t7 10l31 -28q-4 6 -4 28.5t4 30.5q2 6 13.5 22.5t15.5 20.5q2 2 14 0t14 0t11.5 10t19.5 18.5t18.5 19.5t10.5 11q4 2 21.5 13.5t21.5 15.5q2 2 8 13.5t6 15.5v8v6q0 2 -2 11.5t-4 18.5t-5 18t-3 11v29 q0 2 -4 14.5t-8.5 25.5t-9.5 27.5t-7 20.5l-14 29q-2 4 -7 9t-8 5l29 60q4 -2 15.5 -13.5t13.5 -15.5t8 -16.5t13 -25.5t13.5 -26.5t10.5 -19.5v-14q2 -10 8 -30t13.5 -41.5t13.5 -38.5t8 -24q2 -4 7 -9t7 -5q6 0 18.5 -1t27 -2t26.5 -2t16 -1v-55q-2 0 -7 1t-7 3q-2 0 -7 6 t-7 8h-9h-6q-10 -4 -26.5 -9t-18.5 -5v-25v-35q0 -4 7.5 -21.5t7.5 -21.5v-45q0 -2 2 -11t4 -20.5t5 -22.5t5 -17q0 -8 5 -31t9 -29q4 0 16.5 -4t27 -9t26.5 -9l18 -6q6 -4 18.5 -10.5t26 -12.5t25.5 -13t16 -10q4 -2 15.5 -13t15.5 -15l14 -43q0 -4 1 -18.5t1 -22.5 q0 -6 -1 -18.5t-1 -14.5q-2 -6 -7 -18.5t-12 -26.5t-14.5 -26.5t-11.5 -16.5q0 -2 -12 -7t-16 -7q-2 -4 -14.5 -15.5t-14.5 -13.5q-4 -2 -15.5 -8t-13.5 -8l-15 -7.5t-22.5 -12.5t-21.5 -14t-14 -9q0 -6 -1 -29t-1 -31q0 -10 1 -32.5t1 -24.5q2 -10 7 -38t7 -36l-14 -14 q-12 -2 -21 -2q-4 0 -7 -1t-7 -1h-6q0 -2 -5.5 2t-9.5 10l-12 16zM393 383q0 -8 1 -32.5t1 -31.5q0 -12 2 -40.5t4 -61.5t4.5 -61.5t4.5 -40.5h6h8q6 2 28.5 13t30.5 15l43 29q6 4 17.5 15.5t11.5 15.5q4 4 9 26.5t5 30.5q0 2 1 11.5t1 13.5q0 2 -1 5t-1 7v8l-14 14 q-2 2 -11 7.5t-21.5 12.5t-23 13t-16.5 10t-17 9.5t-13 5.5q-6 2 -30 4t-30 2zM190 422q-10 0 -10 -14.5t10 -14.5t10 14.5t-10 14.5zM88 496q2 -4 13.5 -15.5l15.5 -15.5q4 -2 26.5 -7t32.5 -7h12.5h22.5h23.5h13.5q4 0 15 -7.5t16 -7.5q4 0 14 5t14 10q0 4 1 21t1 24 q0 8 -1 24.5t-1 18.5t-7 14t-7 14v13.5v23.5v22.5v14.5t-5 9t-9 5t-15.5 -5t-15.5 -9l-14.5 -14.5l-21.5 -21.5t-21.5 -22.5t-14.5 -15.5q-2 4 -8 4t-8 -4q-2 -2 -7.5 -14t-7.5 -14q-4 -4 -14 -15.5t-14 -13.5q-2 -2 -7.5 -1t-7.5 1q-4 -2 -9 -7t-5 -7zM74 465 q-12 0 -12.5 -14.5t12.5 -14.5q10 0 10 14.5t-10 14.5zM467 772q8 -6 8 -28.5t-8 -28.5q-4 -4 -5 6t-1 22.5t1 22.5t5 6zM498 786q6 4 22.5 -2t20.5 -12t10 -28.5t6 -28.5h-59v71z" />
<glyph unicode="%" horiz-adv-x="1159" d="M580 688q4 2 14 13.5t14 15.5v8v6q0 6 2 18.5t5 27t5.5 26.5t2.5 16q2 4 7 29.5t7 30.5q0 2 3 15t5 27.5t4 28t2 17.5q2 4 8.5 21.5t6.5 21.5v14q2 6 7 28.5t9 30.5q2 8 7 24.5t7 18.5l2 2q0 2 4 7q4 4 9 6q2 4 4 24.5t2 24.5q2 -2 4 -2q2 -2 4 -2q6 -4 22.5 -21.5 t20.5 -23.5v-2q0 -2 2 -4q0 -2 -1 -2t-1 -3v-4q0 -2 -7 -14t-7 -14q0 -4 5 -12.5t9 -10.5h-43q2 -2 7 -10t7 -12v-6q0 -4 1 -5.5t1 -3.5t-1 -7t-1 -7q-2 -2 -7 -14.5t-7 -14.5v-14q-2 -4 -7 -29.5t-7 -29.5q0 -4 1 -21.5t-1 -21.5l-9 -9l-6 -6v-16q-2 -4 -8 -21.5t-6 -21.5 v-29q-2 -4 -7 -20.5t-9 -24.5q0 -2 -7.5 -14t-7.5 -15q0 -4 1 -21t-1 -22q0 -2 -6 -8l-8 -8v-14q-2 -8 -6 -25.5t-8.5 -36t-8.5 -34t-6 -21.5q-2 -2 -8 -14.5t-6 -14.5t-3 -11t-5 -18.5t-4 -18.5t-2 -11q-2 -4 -8.5 -21.5t-8.5 -21.5v-29q0 -4 -6 -15t-8 -15q0 -4 -6 -29 t-8 -29t-8.5 -15t-6.5 -16q-2 -4 0 -21t0 -22q0 -2 -6 -14t-8 -14q0 -2 -3 -11.5t-5 -18.5t-4 -18.5t-2 -11.5q-2 -2 -8.5 -14t-6.5 -14q-2 -4 -1 -22.5t1 -22.5q-4 -8 -15 -24.5t-16 -18.5q0 -2 -11 -2h-17h-14.5t-14.5 2q4 6 15.5 28.5t13.5 30.5q2 4 0 21.5t0 21.5 q0 2 5 11.5t9 18.5t9 18t5 11v15q2 4 8.5 21.5t6.5 21.5t2 19.5t5 31.5t5 31.5t4 19.5q0 4 13.5 22.5t15.5 22.5v10.5v17.5v18.5v11.5q2 8 7 30.5t7 28.5q2 4 13.5 21.5t15.5 21.5zM139 614q0 -2 -5 -7t-9 -7t-21.5 -4t-21.5 -2v53q-4 0 -8 -2t-6 -2q-4 2 -8.5 7t-8.5 9 t-9 14.5t-5 14.5t5 15.5t9 13.5h-35q0 6 2 22.5t5 22.5l14 14q-2 0 -8 5t-6 10q0 2 -1.5 13t-1.5 15v17q0 6 3 12q0 2 5 13t10 23.5t9 24t4 13.5q2 4 1 15t-1 13q2 4 7 21.5t10 23.5q4 8 11 22.5t13 29t12.5 24.5t6.5 12q2 4 20.5 15.5t22.5 13.5q2 2 8 7t8 7q4 4 20.5 14.5 t22.5 14.5l14 -14q8 -4 24.5 -15.5t20.5 -13.5q2 -2 13.5 0t15.5 0q2 0 7 -7t7 -7q4 -2 12.5 -3t12.5 -1q0 -4 2 -12.5t2 -12.5q0 -2 7 -8t7 -8v-2q0 -2 2 -4q0 -2 -1 -2.5t-1 -2.5v-4q0 -2 -5 -7t-9 -7q4 -2 9 -7t5 -7q2 -2 8.5 -13.5t8.5 -15.5q2 -6 7 -23.5t7 -21.5v-6 v-8l-14 -15l14 -14l-31 -14q4 0 10.5 -5.5t6.5 -9.5t-8.5 -15t-8.5 -15t1 -21.5t-1 -21.5q0 -4 -6 -15.5t-8 -13.5v-31q0 -4 -5 -15t-9 -14q-2 -2 -7.5 0.5t-7.5 -0.5q-2 -2 -7 -13t-7 -15q0 -4 1 -15.5t-1 -15.5l-14 -14h-8h-7q-4 2 -15 7t-15 7q2 -4 -4.5 -21.5 t-10.5 -21.5q-2 -2 -18 -7t-25 -7h-10h-4q-4 2 -15.5 13t-15.5 15zM94 772q0 -6 2 -10q0 -4 4 -13.5t8.5 -21.5t9.5 -22.5t7 -16.5q2 -4 7 -8t7 -6q4 -4 16.5 -9.5t14.5 -5.5q4 0 21.5 6.5t21.5 8.5h14q0 6 5.5 28.5t9.5 28.5q2 4 15 8t15 6q2 4 7.5 22.5t7.5 23.5q0 4 6 15 t8 13l14 15q0 4 -7 15t-7 15v10.5v17.5v18.5v11.5t-3 11t-5 18.5t-4 18.5t-2 11v8v6q4 4 14 8.5t14 6.5q-6 4 -28.5 15t-30.5 13h-2q-2 0 -4 2q-2 0 -2 -1t-2 -1h-4q-4 -2 -15.5 -13t-13.5 -15q0 4 -5 9t-9 5t-15.5 -6t-13.5 -8q-2 0 -8 1t-8 -1q-2 -4 -7.5 -21.5 t-7.5 -21.5q0 -2 -7 -8.5t-7 -8.5q-2 -2 -1 -13t1 -15q-2 -10 -7 -38t-7 -36q-2 -2 -8.5 -13.5t-6.5 -15.5q0 -2 -1 -13t-1 -18v-16zM272 731q-12 0 -12 -14.5t12 -14.5q10 0 10 14.5t-10 14.5zM330 745q-10 0 -10.5 -14t10.5 -14q10 0 10 14t-10 14zM287 848q10 0 10 -14.5 t-10 -14.5t-10 14.5t10 14.5zM711 1024q-10 0 -10.5 -14.5t10.5 -14.5q10 0 10 14.5t-10 14.5zM213 1098q-10 0 -10 -14.5t10 -14.5t10 14.5t-10 14.5zM881 190l28 -28l15 28q2 2 11 10.5t19.5 18.5t18.5 18.5t10 12.5t8 20.5t13.5 38t13.5 42t8 30.5q0 2 1 9t1 11 q0 2 -1 6.5t-1 8.5v8q-2 10 -7 37.5t-7 36.5l28 14q2 0 11.5 1t13.5 1q2 0 5 -1t7 -1h8q4 -2 15.5 -13.5t13.5 -15.5l-14 -14q-2 -2 -2 -4v-4v-4q0 -2 2 -2q2 -2 7 -8.5t7 -8.5v-2q0 -2 2 -4q0 -2 -1 -2t-1 -2v-4l-14 -14q4 0 9 -5.5t5 -9.5q0 -2 -5 -18.5t-9 -24.5 q-4 -10 -14.5 -37.5t-14.5 -35.5q-2 -4 -8 -15.5t-8 -13.5q0 -4 1 -15.5t-1 -15.5l-15 -14q0 -2 -5 -14.5t-9 -14.5q-2 -2 -7 0t-7 0t-11.5 -10t-18.5 -19.5t-18.5 -19.5t-11.5 -10h-6h-8q0 2 -6 8t-8 6l-6 2q-2 0 -2.5 -1t-2.5 -1h-4q-2 -2 -13 -14.5t-15 -14.5 q-2 0 -12.5 -1t-16.5 -1q-4 0 -16.5 1t-14.5 1t-7 7.5t-7 7.5h-14q-4 2 -9.5 7t-5.5 7q-2 8 -4 30.5t-2 28.5h109zM717 256q0 4 1 12t1 11q0 2 7 7t7 7v13v23.5v22.5v15q2 4 13.5 26.5t17.5 30.5q2 4 13 15.5t16 15.5q2 2 7 13t7 15l29 29q4 2 26.5 7t32.5 7h6h8q4 0 9.5 -5 t5.5 -9q0 -2 1 -10t1 -13q0 -2 -1 -5t-1 -7v-8q-2 -4 -7.5 -15.5t-7.5 -15.5h-8h-6q-4 4 -9 15.5t-5 15.5q-4 -6 -15.5 -23.5t-15.5 -21.5l-14 -14q-4 -8 -11.5 -21.5t-13.5 -28t-12 -25.5t-6 -13v-13.5v-24v-22.5v-12q-2 -4 -13.5 -21.5t-15.5 -23.5q-4 -2 -15.5 -7 t-15.5 -8q2 4 2 14.5t-2 14.5l-8 8l-6 6q0 2 -1 10.5t-1 12.5z" />
<glyph unicode="&#x26;" horiz-adv-x="731" d="M41 88q0 2 1 7t1 7q2 6 6 19.5l8 27t8.5 25.5t6.5 16q2 2 8 13.5t14 24t14.5 22.5t8.5 14q4 6 11 20.5t13 28t12.5 24.5t6.5 15q2 2 0 13.5t0 15.5q0 2 7 7t7 7q2 2 8 14.5t6 14.5q2 2 8.5 8t8.5 6q0 4 6 15.5t8 15.5q2 2 14.5 13.5t14.5 15.5q2 2 0 14t0 14q2 4 14 15.5 t14 15.5q4 4 9.5 14.5t5.5 14.5q0 2 1 21.5t1 29.5q0 4 -1 24.5t-1 26.5l-15 14q0 4 -6 21.5t-8 21.5t-7 15.5t-7 15.5t-15.5 21.5t-13.5 21.5q0 2 -2 17.5t-5 34t-5 37t-2 28.5q0 4 -1 13t-1 14v10q0 4 2 8l102 102h15q4 0 28.5 7.5t28.5 7.5q8 0 21.5 -4t27.5 -9.5 t25.5 -9.5t13.5 -6q4 -4 9 -31.5t5 -42.5q0 -4 1 -26.5t1 -32.5q0 -6 -1 -28.5t-1 -28.5l-14 -15v-16q-2 -4 -7 -21.5t-7 -21.5t-7.5 -29.5t-7.5 -30.5q-2 -2 -8 -13t-6 -15v-29q-2 -4 -15.5 -14t-15.5 -15v-36v-37q2 -4 13.5 -26.5t17.5 -33.5q0 -2 5 -7t9 -7l-14 -14 l14 -15q2 -4 8.5 -14t13.5 -22.5t13 -23.5t8 -13t8.5 -7.5t6.5 -7.5v-14q4 -4 15 -9t15 -5l-14 -15q4 -4 20.5 -15l22.5 -15h14h15q6 2 18 8t26.5 13t27 13t16.5 11q0 -4 1 -12.5t1 -10.5q0 -4 -1 -12t-1 -10q-2 -4 -7.5 -15.5t-7.5 -13.5q-4 -4 -21.5 -15.5t-21.5 -13.5 l-9 -9t-7 -5v-8v-9q4 -2 15.5 -13t15.5 -15q0 -2 6 -14.5t8 -14.5t7 -8t7 -6q4 -6 9.5 -23.5t5.5 -21.5q2 -10 3 -45t1 -45h-8h-6q-2 0 -5 2l-7 7t-7 9t-8 21.5t-6 21.5q-4 10 -16.5 32.5t-14.5 26.5q-2 2 -10 8.5t-17.5 13.5t-18.5 13t-11 8l-29 29l-12 -12l-17.5 -17.5 l-17.5 -17.5t-12 -10q-2 -2 -13.5 -7t-15.5 -8q-4 -2 -22.5 -8t-22.5 -8q-10 -4 -31.5 -14.5t-25.5 -14.5q-6 -4 -23.5 -21.5t-22.5 -21.5l-14 15l-43 -45l-14 16l-17 -31l-14 15q0 -2 -5 -8.5t-9 -6.5h-29h-29q-2 0 -8 7.5t-8 7.5q-4 0 -14.5 -5.5t-14.5 -9.5q2 6 2 23.5 t-2 21.5q-4 2 -8 7q-6 6 -6 8q-2 2 -2 6v8zM117 117q0 -4 5 -15.5t9 -13.5q2 0 12.5 -1t16.5 -1h16q6 0 12 2q4 2 15.5 15.5t15.5 13.5q4 4 21.5 9t21.5 5l8 8t6 8h15q10 4 31.5 14.5t27.5 14.5l29 29q4 2 17.5 10t28.5 18.5t27.5 18.5t14.5 12q2 0 7 11.5t7 17.5v8v6 q0 4 -5 14.5t-9 14.5q-2 2 -7 8t-7 8l-15 29v14q-2 2 -8 7.5t-6 7.5v14l-14 14v17q-2 4 -7.5 14t-9.5 14q0 2 -6 7.5t-8 7.5l-14 28v15l-7.5 15l-7.5 15q-2 -6 -8 -18t-13 -26.5t-13.5 -27t-8.5 -16.5q-4 -4 -15 -22.5t-16 -22.5l-14 -28q-2 -4 -7 -21.5t-7 -21.5 q-2 -2 -7 -8.5t-8 -6.5q-2 -4 -8 -15t-6 -15q-2 -2 -8 -13.5t-14.5 -24t-14.5 -22.5t-8 -12q-2 -6 -8 -19.5t-13.5 -27t-13.5 -25.5l-8 -16q-4 -8 -9 -24.5t-5 -20.5zM248 936q2 -6 7 -22.5t7 -20.5l14 -14q2 -4 8.5 -22.5t6.5 -22.5q2 0 9 -6.5t7 -8.5t2 -13t4 -23.5 t4 -23.5t5 -14l14 -14l14 -29l15 29q0 4 -1.5 15.5t1.5 15.5q2 4 15 14t13 15q2 2 1 14t-1 14q2 2 6 15.5t9.5 29t10.5 27.5t5 16v60v57q-4 4 -21.5 9t-23.5 5h-6q-4 0 -6 1t-5 1q-2 0 -3 -1t-3 -1h-6q-6 -2 -18.5 -10t-26.5 -17.5t-26.5 -17.5t-16.5 -12q-2 -2 -7 -13.5 t-7 -17.5v-6v-8z" />
<glyph unicode="'" horiz-adv-x="204" d="M59 1130q2 4 7.5 15.5t7.5 13.5h8q4 0 6 1t6 1t13.5 -1t11.5 -1l14 -14v-15v-16q-4 -2 -8 -6t-4 -6l-2 -2q-2 -6 -2 -15v-22v-21q0 -8 2 -14q0 -4 7 -15.5t7 -15.5v-13v-23.5v-22.5v-12q0 -4 7 -15.5t7 -15.5q2 -4 3.5 -23.5t1.5 -25.5q-6 0 -24.5 2t-25.5 4l-14 14 q-2 8 -7 36t-7 38v20.5v37v38v21.5q0 2 -2 11t-4 18.5t-5.5 17.5t-3.5 10v8v8z" />
<glyph unicode="(" horiz-adv-x="350" d="M43 205v27.5t-1 42t-1 42v27.5v34.5t1 45t1 40v19.5q0 8 2 30t5 44.5t5 43t2 28.5q0 4 7.5 15t7.5 15v10.5v17.5v18.5v11.5q0 4 6 20.5t10 24.5q0 2 7 13t7 16v15v27.5v27.5v18q0 6 5.5 28.5t9.5 28.5q2 2 7 8t7 6q4 4 9 15.5t5 15.5q2 4 0 28.5t0 28.5l2 2q0 2 5 7 q4 4 8 6q2 4 7 26.5t7 32.5v14q2 4 8 15.5t8 13.5q0 2 4.5 13.5t9.5 23.5t9 23.5t6 13.5q2 4 14.5 15t14.5 13q4 4 8 22.5t6 23.5q4 4 20.5 21t24.5 22q0 2 7.5 3t9.5 1v-16.5t-2 -16.5t-8.5 -21.5t-6.5 -21.5q-2 -4 -7 -29.5t-7 -30.5q-2 -2 -8 -7t-9 -7l-14 -29 q0 -4 -2 -14t-4 -22.5t-4 -23.5t-4 -13l-8 -8l-7 -7q-2 -4 -6 -21.5t-8 -37.5t-8 -36.5t-6 -20.5q0 -2 -5 -11.5t-10.5 -18.5t-10.5 -18.5t-5 -11.5q0 -4 1 -29.5t-1 -29.5q0 -2 -6 -13.5t-8 -15.5l-15 -43v-14q0 -6 -5 -27.5t-9 -46t-9 -46t-5 -28.5v-16v-26.5v-28v-17.5 t-5.5 -15t-9.5 -13v-322q4 -6 15.5 -28.5t13.5 -30.5v-13.5v-23.5v-22.5v-12.5t6 -8l8 -8q2 -6 11.5 -20.5t18.5 -31t17.5 -31t12.5 -20.5q0 4 6 4t8 -4q2 -2 7 -13t7 -15l15 -15h-98q0 2 -1.5 7.5t-3.5 7.5t-7 8t-7 6q-4 8 -11 21.5t-14.5 27.5t-12.5 25.5t-5 13.5 q-2 4 -1 29.5t1 29.5t-7 21.5t-9 21.5q0 2 -2 11.5t-4.5 18.5t-5.5 18.5t-3 11.5q0 4 -5 21.5t-9 21.5z" />
<glyph unicode=")" horiz-adv-x="423" d="M57 -43q4 0 14.5 5t14.5 9q6 4 28.5 20.5t30.5 22.5q2 4 7.5 9.5t7.5 5.5l8 16t13 25.5t13.5 27t10.5 19.5q2 4 8 19.5t13 31.5t13.5 31.5t8.5 19.5q2 2 7 8t7 6v17q2 2 8 13t6 16q2 8 7.5 21t10.5 27.5t9 26t4 13.5v12v22.5v23.5v13q0 4 6 22.5t9 22.5q0 2 -1.5 14.5 t1.5 14.5q0 2 6 8t8 6v9v6q-2 4 -8 15t-6 15q-2 4 -1 21.5t1 21.5q0 6 -2.5 24.5t-5.5 40t-5 40t-2 26.5q-2 6 -4 20.5t-5 28t-5 24.5t-2 16q0 2 -3 15t-8.5 29.5t-10.5 32t-7 25.5q-2 8 -7 24.5t-7 20.5q0 2 -5 10t-10.5 18.5t-9.5 18.5t-4 10q-2 4 -1 22.5t1 22.5 q0 2 -5 13.5t-9 15.5q-2 2 -8.5 7t-8.5 7q0 2 1 8.5t-1 6.5q-4 4 -21 22.5t-22 22.5q-2 0 0 6t0 8q-2 4 -13 14.5t-15 14.5q-8 6 -36 23.5t-38 21.5q4 6 20.5 22.5t22.5 20.5q6 2 21.5 6t19.5 4q0 -2 1 -12t3 -12q2 -4 7 -8.5t7 -6.5t14.5 -7t14.5 -7q4 -4 9 -15.5t5 -15.5 q2 0 8.5 -6t8.5 -8v-15q0 -2 6 -7t8 -7q0 -4 6 -22.5t8 -22.5q2 0 7.5 -6t7.5 -8v-15l14 -14v-14q2 -4 7 -9.5t7 -5.5l-14 -14q4 -2 9 -7t5 -9q6 -8 15.5 -21.5t18.5 -28t17.5 -24.5t8.5 -12q0 -4 2 -14.5t5 -22.5t5 -23.5t2 -13.5q2 -4 8.5 -15.5t6.5 -13.5v-14v-22.5 v-23.5v-13q0 -4 3 -14.5t5 -23t4 -23.5t2 -13v-16.5v-27v-27.5v-17t7 -21.5t7 -21.5t1 -29t1 -37q0 -8 -1 -32.5t-1 -32.5q-2 -2 -7 -7.5t-7 -9.5q0 -4 1 -21.5t-1 -21.5q0 -4 -4 -16t-9.5 -27.5t-10.5 -29t-5 -15.5v-11v-18.5v-17.5v-10q-2 -4 -14 -15.5t-14 -15.5 q-4 -4 -9.5 -14t-5.5 -15v-28q0 -2 -7 -8.5t-9 -6.5q-4 -6 -14.5 -23.5t-14.5 -21.5q0 -2 -5 -11t-9 -18.5t-9.5 -17.5t-5.5 -10q-4 -4 -15 -15.5t-13 -15.5q-2 -2 -8.5 -14t-8.5 -14t-13 -14.5t-15 -14.5q-2 -4 -7.5 -15.5t-7.5 -15.5h-73zM322 950q-10 0 -10.5 -14 t10.5 -14q10 0 10 14t-10 14zM57 1339q0 -4 1 -5t1 -3t-1 -4t-1 -4v-6l-14 -14q0 2 -1 7t-1 7v8q0 2 2 6t7 9.5t7 5.5v-7z" />
<glyph unicode="*" horiz-adv-x="716" d="M338 291q0 2 -1 4t-1 4q-8 2 -36 7t-38 7h-16h-13l-28 -14h-162q-2 0 -7 5t-7 9q-2 2 -2 6v9v8q0 2 2 6t7 9t7 5h117q4 0 15 8.5t15 8.5t21.5 -7.5t21.5 -9.5h9h6q2 2 8 8.5t6 8.5q4 2 21.5 7t23.5 7l-14 14q-6 2 -25.5 12.5t-42 23t-42 23.5t-23.5 15q-2 2 -10.5 9.5 t-17.5 16.5t-17.5 18t-12.5 13q-2 2 -2 5v4l2 6q0 4 5.5 9t9.5 5q2 0 10 1t12 1q2 0 5 -1t8 -1h8q4 0 8 -12t6 -17q2 -2 14.5 -7t16.5 -7t28.5 -7t28.5 -7q2 -2 11.5 -8.5t18.5 -13.5l18 -14t12 -9l28 -15q0 8 1 36t1 38q0 14 -1 42t-1 32q0 8 -4 26.5t-9 40t-9 40t-6 24.5 q0 4 6 9t8 5q6 2 29.5 4t29.5 2v-20q-2 -4 -8 -21.5t-8 -21.5v-8v-8q2 -4 7 -20.5t9 -22.5q0 -2 7.5 -14.5t7.5 -14.5v-148q2 6 10 18.5t17 27t17.5 26.5t12.5 16q2 2 9 15.5t16.5 30t18.5 33t15 24.5q2 4 7.5 15.5t7.5 13.5q2 4 14 22.5t14 22.5q2 2 7.5 14t7.5 14h4 q2 0 2 1t2 1l4 -2h4q2 -2 7 -13t7 -15q0 -4 1 -13.5t1 -13.5q-2 0 -8 -1t-8 -1q-10 -6 -16 -16q0 -2 -2 -13.5t-4.5 -24l-4.5 -22.5t-4 -12q0 -4 -11 -26.5t-17 -33.5q-2 -4 -14.5 -21t-14.5 -22q-4 -6 -10 -18t-13.5 -26.5t-13.5 -26.5t-8 -17q4 4 15.5 9.5t15.5 5.5 q2 -4 6 -8q6 -6 8 -7q2 0 14.5 6.5t14.5 8.5q2 0 14 -1t14 1l2 2q2 0 7 4q4 4 6 8q10 2 39.5 4t38.5 2q0 -4 -1.5 -17t-3.5 -18q-2 -6 -7 -17t-7 -11l-131 -45q4 0 21.5 -5.5t21.5 -9.5q4 -2 9 -14t5 -14l31 -31q-4 0 -18.5 -1t-18.5 -1q-8 0 -21.5 1t-15.5 1q-6 2 -16 8 l-22.5 13.5l-22.5 13.5t-12 10v-8v-6q0 -4 3 -21.5t5 -38t4 -37t2 -20.5q0 -10 1 -33.5t2 -49.5t1 -49.5v-31.5h-16.5t-16.5 2l-28 14v117q0 6 -2 18.5t-5.5 27t-5.5 26.5t-2 16q-2 0 -7 1t-9 1q-2 0 -4 -1t-4 -1h-6q0 -2 -6.5 -6t-8.5 -8q-4 -6 -14 -28.5t-14 -30.5 q-2 -4 -8.5 -21.5t-6.5 -21.5q-4 -4 -15 -21.5t-16 -21.5q0 -4 -6 -22.5t-8 -23.5q0 -4 -5 -9t-9 -5q-2 0 -18.5 -1t-24.5 -1q-6 0 -23.5 1t-21.5 1l15 22.5t15 20.5q0 2 6.5 8t8.5 9l43 86q4 4 15 22.5t13 22.5q2 2 8.5 14t8.5 14t8 11.5t13.5 18.5t13.5 18.5t8 11.5l2 6v0 z" />
<glyph unicode="+" horiz-adv-x="618" d="M231 438q-6 0 -20 2t-31.5 3t-32 2t-20.5 1q-4 0 -23.5 1.5t-23.5 -1.5q-4 0 -15.5 -8t-15.5 -8l-8 8l-8 8q-4 0 -15.5 -6t-15.5 -10l16 78l15 16q2 0 11 1t13 1t12.5 -1t10.5 -1l16 -16q8 0 6 2t7 2q16 0 37.5 -13.5t23.5 -13.5q4 0 16.5 7.5t14.5 9.5q4 0 15 -1t15 1 q8 4 20.5 15t12.5 15v189l-16 31h94q4 0 9 -5.5t5 -9.5q-4 0 -9 -6t-5 -10v-10.5v-19.5v-20v-12q0 -4 -8 -16t-8 -14q0 -4 -1 -8.5t-1 -18.5q0 -8 1 -34.5t1 -35.5q4 -4 24 -8l8 4q8 2 40 1t40 -1q4 0 15.5 5.5t15.5 9.5v-15q4 4 15.5 9.5t15.5 7.5q8 0 32.5 2t32.5 2v-18.5 t-2 -18.5l-16 -31q-4 -2 -21.5 -6t-25.5 -6q-4 -2 -21.5 -4t-39 -5t-40 -5t-24.5 -2l-51 -17q-4 -4 -10.5 -20.5t-6.5 -20.5l12 -254h-55v297h-33z" />
<glyph unicode="," horiz-adv-x="190" d="M57 35v74q0 2 11.5 7t17.5 7h4q2 0 2 1t2 1l4 -2h4q8 -6 24.5 -22.5t18.5 -20.5q0 -2 1 -17.5t1 -23.5t-1 -26.5t-1 -20.5q0 -4 -4 -21.5t-9 -41t-9 -47t-6 -38.5q-4 -10 -9.5 -32.5t-5.5 -24.5q-4 -4 -14 -14.5t-16 -14.5q0 -2 -8.5 -4t-10.5 -2q0 8 1 39t3 39q0 2 2 11 t5.5 18.5t5.5 18.5t2 11q2 14 5 36t5 43.5t3 36.5l1 15z" />
<glyph unicode="-" horiz-adv-x="555" d="M29 588q-2 10 9 32.5t19 26.5h13q4 0 9 1t9 1q8 0 24.5 -1t18.5 -1q6 -2 28.5 -7t30.5 -7l15 20h102q0 2 5 5.5t10 3.5h13h23.5h22.5h14l6 6q8 8 9 8h16q6 0 14.5 1t12.5 1q6 0 23.5 -1t21.5 -1q0 -4 -6.5 -21.5t-10.5 -21.5q-2 -4 -13 -15.5t-15 -15.5h-15 q-4 0 -21.5 -2t-37 -4t-36.5 -5t-21 -3h-9h-6q-4 2 -9 7t-5 7q-4 -4 -15.5 -14t-15.5 -15q-2 -2 -6 -2h-12q-4 0 -13.5 1t-11.5 1q-4 0 -19.5 3.5t-31.5 5.5t-31.5 4t-19.5 2q-6 0 -18.5 1t-27 1t-26.5 -1t-16 -1zM453 647q-10 0 -10.5 -14.5t10.5 -14.5q10 0 10 14.5 t-10 14.5zM438 676q10 0 10.5 -14.5t-10.5 -14.5q-10 0 -10 14.5t10 14.5z" />
<glyph unicode="." horiz-adv-x="235" d="M74 104q2 4 12 9.5t14 3.5q2 0 12.5 -5.5t16.5 -9.5q2 -4 14 -12q6 -4 11 -6q2 -2 1 -14.5t-3 -18.5t-14.5 -13t-16.5 -13q-4 2 -10.5 -3.5t-12.5 -3.5q-4 4 -16 15.5t-14 11.5q-4 6 -2 29.5t8 29.5z" />
<glyph unicode="/" horiz-adv-x="555" d="M12 -160q0 4 1 12.5t1 10.5t2 13t5.5 23.5t5.5 22.5t2 15v14q2 10 6 28.5t9 37t9 32.5t4 19q0 2 7.5 7t9.5 7q0 2 4 13t9 23.5t9 23t6 14.5q2 2 8.5 7t6.5 7q2 2 1 14.5t-1 14.5q2 4 7 15t7 15v15q2 2 8 14t6 14v29q2 4 14.5 15.5t16.5 15.5l14 28q0 4 2.5 19.5t4.5 32 t4 32t4 19.5q0 2 7 14t7 15q2 4 0 22t0 23q0 2 7 15t14.5 27.5t14.5 26.5t7 17q2 4 4 17t4 27.5t4 27t5 16.5q0 4 13 15t15 15v10.5v17.5v18.5v11.5q2 4 10.5 21.5t18.5 38t18 36.5t11 20q4 8 7 31t3 29h14q0 6 -6 28.5t-2 28.5q0 4 13.5 15.5t15.5 15.5t0 28.5t0 28.5 q0 4 6 22.5t8 22.5q0 4 4 19.5t9 32t9.5 32t6.5 19.5l14 14q6 2 24.5 4t24.5 2q0 -6 -1 -26.5t-3 -24.5q0 -2 -7 -13.5t-7 -15.5q-2 -8 -4 -35.5t-2 -37.5h-9l-4 -11q-4 -10 -9 -23.5t-10 -28.5t-7 -23v-17q0 -8 -6.5 -30.5t-8.5 -26.5l-14 -29q-8 -25 -29.5 -88t-44 -133 t-43 -132.5t-28.5 -86.5q-2 -2 -4.5 -13.5t-5.5 -23.5t-5 -22.5t-2 -12.5q0 -4 -4 -14l-9 -22.5t-9 -24t-7 -13.5q-2 -4 -7 -29.5t-7 -29.5t-7 -21.5t-7 -21.5t-7 -29.5t-8 -29.5q-2 -4 -8 -16.5t-14 -27t-14.5 -27.5l-8.5 -17v-29q0 -2 -6 -14.5t-8 -14.5 q-4 -14 -15.5 -41.5t-13.5 -31.5t0 -21.5t0 -21.5l-8 -9l-6 -6q-4 -6 -12 -23.5t-17.5 -36t-18.5 -35.5t-11 -24l-7.5 7.5t-7.5 9.5t-2 8v12zM483 1237q-12 0 -12 -14.5t12 -14.5q10 0 10 14.5t-10 14.5z" />
<glyph unicode="0" horiz-adv-x="630" d="M10 520q0 2 7.5 20.5t7.5 20.5v18.5v31v29.5v17q0 6 3 22.5t7 37t8 40t6 29.5q2 2 7 12.5t10 14.5q0 2 6 8t13 13.5t13 12.5t6 7q2 4 6.5 22.5t6.5 22.5q4 4 14 24.5t12 28.5q4 4 15.5 20.5t13.5 20.5l13.5 13.5t11.5 13.5q2 4 7 12t5 12l2 5q4 4 14.5 22.5t10.5 20.5 l14 14l20.5 20.5t20.5 19.5t14 13q2 0 4 2t4 2l6 -4q4 0 8.5 -5t4.5 -9q0 14 14 14q8 0 16 2q6 0 14.5 1t12.5 1q2 0 8 -1t13 -1q8 -2 16 -2q6 0 15.5 -5t11.5 -9v-4v-11q-2 0 -6.5 -4t-4.5 -8q0 -2 4 -14q2 -6 7 -12q-2 -4 -11.5 -16.5t-15.5 -14.5q8 0 28.5 -9.5 t26.5 -17.5q4 -2 15.5 -26.5t13.5 -28.5l8 -12q6 -8 16.5 -30t14.5 -26v-12q0 -4 5 -21.5t9 -37t8 -36t4 -18.5q2 -4 1 -21t-1 -22q0 -4 3.5 -14t5.5 -21.5t4 -22.5t2 -13v-88v-92q0 -4 -2 -14.5t-5 -22t-5.5 -20.5t-2.5 -11q0 -8 5.5 -24.5t9.5 -20.5h-27q-2 -8 -7 -40 t-7 -42q-2 -6 -8 -24.5t-12.5 -38t-11.5 -38t-7 -26.5l-6 -6q-8 -8 -12 -8q-2 -2 -11.5 -19.5t-11.5 -21.5l-70 -70h-4h-6q0 2 -6 8t-10 6q0 -4 -4 -14t-7 -14l-15 -7.5t-15 -5.5h-13h-14q-2 0 -7 5.5t-7 7.5q0 -2 -3 -7.5t-7 -5.5h-21h-24l-11 13q-2 2 -14 1t-14 -1 q0 2 -9.5 8t-15.5 6q-2 0 -6 8q-2 4 -6 6q-2 0 -6 2t-9 5q-6 2 -12 6v30q-2 2 -10 10.5t-17.5 17.5t-17.5 16.5t-10 9.5q-2 6 -1 29.5t1 29.5q-2 4 -14.5 25.5t-14.5 27.5q0 2 -2 12.5t-4 22.5t-4 22.5t-2 12.5q0 4 -5 20.5t-7 20.5q-2 14 -8.5 40.5t-6.5 31.5v34v35z M76 481q0 -16 5 -51t7 -43q0 -2 4 -12t8 -15q2 -6 7.5 -27.5t5.5 -25.5q2 -4 5 -21.5t5 -19.5t4 -10t5 -17.5t6 -16.5t3 -9t6.5 -10t12.5 -17.5t11 -18.5t7 -11q2 -4 6 -11q2 -10 9 -14q0 -2 10 -12t12 -17q4 0 13.5 -6t9.5 -8h20h8q4 2 19.5 8t19.5 6h27q4 2 18.5 13.5 t20.5 15.5q2 0 8 5t6 7q0 4 12 9l13 4l8 16t12 26.5t11 26t8 15.5q2 4 18 18t18 21q2 2 4.5 10t5.5 19t5 21.5t2 16.5v29q0 2 4 16.5t6 22.5q2 2 10 14t8 14t-9 18.5t-9 20.5q0 6 3 30t6 50.5t6 50t3 29.5v14v13q0 4 -3 18t-6 29.5t-6 29t-3 17.5v18q-4 2 -6 4l-4 4 q-2 6 -6 22.5t-8.5 33t-8.5 33t-4 22.5q-2 2 -12 7l-14 7q-2 2 -7.5 5.5t-5.5 7.5q-4 2 -8 12t-6 14q0 2 1 12.5t-1 14.5t-17.5 19.5l-19.5 19.5v14q0 4 -6 8t-8 4l14 48q-2 4 2 5t-2 3h-4q-2 0 -4 2l-6 -2q-4 -2 -18.5 -12.5t-20.5 -14.5q0 -2 -2 -3t-4 -5l-7 -6 q-4 -2 -18 -12.5t-16 -14.5q-6 -2 -16.5 -25.5t-10.5 -27.5q-4 0 -10 -7t-10 -7q-4 -6 -7 -13q-2 -4 -2 -10q0 -2 -2 -4q-2 -4 -12 -13.5t-14 -11.5q0 -4 -4 -21.5t-4 -19.5q-4 -6 -9.5 -14t-5.5 -12q-4 0 -8 -6t-4 -11q-4 -8 -12.5 -24.5t-17.5 -33.5t-15 -31.5t-8 -18.5 q0 -2 -3.5 -15.5t-7.5 -30t-8 -33.5t-6 -28v-14q-2 -4 -7 -31.5t-5 -36.5v-24v-27z" />
<glyph unicode="1" horiz-adv-x="284" d="M131 45q2 0 10.5 7t8.5 9t-8.5 15.5t-10.5 17.5t-7 23.5t-9 23.5q2 29 2 100.5v150.5v149.5t-2 99.5q0 4 -2 25.5t-5.5 47t-5.5 47t-2 27.5q0 4 0 -9t-1 -28.5t-1 -23.5t0 4v24.5t1 32t1 27.5v12l15 17q0 6 -2 22.5t-5.5 35t-5.5 35.5t-2 24q0 2 -1 21t-1 30q0 8 1 26.5 t1 22.5q2 14 9.5 25.5t15.5 19.5t20 14l15 -12q6 -27 5 -65.5t1 -65.5q0 -23 -1 -44.5t1 -43.5q0 -6 2 -30.5t5 -52.5t6 -53.5t3 -31.5q0 -35 1 -121t1 -184.5t-1 -185.5t-1 -121q2 -4 8.5 -15.5t8.5 -15.5q2 -8 7 -34t7 -34v-16v-17q-4 2 -23.5 8.5t-23.5 8.5l-16.5 16.5 t-18.5 16.5v8v10z" />
<glyph unicode="2" horiz-adv-x="606" d="M111 188q0 10 2 19q0 6 2 14q0 2 6 9.5t10 9.5q0 2 2 10t5 16t5 15.5t4 9.5t7.5 8t9.5 10q4 6 16.5 26.5t16.5 24.5q8 14 23.5 45t30.5 64t28.5 60.5t17.5 37.5q2 6 9 26.5t16.5 43t16.5 43t9 25.5q0 2 5 13t11.5 22.5t11.5 21.5t5 12q4 8 9 24.5t10.5 33t9.5 29.5t4 18 v15v27.5v27v16.5l8 8q8 8 8 10v6v10q0 4 -6 17.5t-10 17.5q-10 2 -41 3t-41 1h-22.5t-28 -1t-23.5 -2l-10 -1q-4 -2 -17.5 -8t-29 -14t-30.5 -16.5t-24 -12.5q-6 -4 -25.5 -23.5t-23.5 -29.5q-4 -2 -10 -17.5t-10 -17.5q-2 -2 -15.5 -1t-17.5 1q-4 -2 -16.5 -8t-16.5 -8 q4 8 9.5 33.5t7.5 33.5q4 12 9 32.5t7 20.5l119 86h266q4 0 17.5 -12t17.5 -22q4 -6 16.5 -32t16.5 -36v-10v-8l-9.5 -9.5t-7.5 -9.5q-2 -4 -1 -25.5t1 -25.5q0 -6 -3 -20.5t-5 -27.5t-5 -24.5t-3 -13.5q-2 -8 -14.5 -36t-26.5 -59.5t-26.5 -59t-16.5 -33.5q0 -2 -3 -10.5 t-5 -17.5t-5 -16.5t-3 -9.5q-2 -4 -9.5 -22.5t-15.5 -38t-16.5 -37.5t-10.5 -23v-16q0 -2 -5 -10t-10 -16.5t-10 -15.5t-7 -9v-19l-8.5 -17l-8.5 -17q-2 0 -8 -7.5t-8 -9.5q-2 -4 -7 -13t-10.5 -20.5t-9.5 -21.5t-6 -14q-4 -6 -9 -18.5t-10.5 -27t-9.5 -25.5t-6 -15v-11v-6 q2 -8 9.5 -20.5t7.5 -16.5h18q2 0 8 -6t8 -10q-4 6 2.5 19.5t14.5 15.5q2 0 20.5 -6.5t28.5 -12.5q4 -2 17.5 -7t17.5 -9q2 0 8 -6t8 -10l17 32h116l17 -32l32 16v-16l17 32q6 0 12 -6t6 -10q0 -8 3 -31.5t3 -32.5q-6 0 -27.5 -2t-29.5 -2q-2 0 -16.5 -9t-16.5 -9t-14 -1 t-18 -1q-10 0 -21.5 1t-13.5 1l-8 8l-7 6q-2 2 -2 4h-49q-4 0 -19.5 2t-32.5 5.5t-31.5 6.5t-16.5 3h-17q-10 2 -28.5 8t-22.5 8t-16 15.5t-17 19.5q-8 10 -20 35.5t-12 34.5q0 2 -2 15t-2 19z" />
<glyph unicode="3" horiz-adv-x="638" d="M180 84q4 0 13.5 1t13.5 1t13 -1t11 -1t15.5 -6t17.5 -10l17 -17h16h18q10 0 41 6t41 11q4 6 15.5 25.5t25 41t25.5 40t18 26.5q2 4 17.5 17t15.5 15q4 6 9 26t5 28q0 2 2 25.5t2 33.5t-2 32.5t-2 24.5q-2 12 -14 38t-16 28t-17.5 3t-21.5 1t-24.5 -1t-20.5 -3 q-4 0 -16.5 -7t-27 -16.5t-25.5 -16.5t-13 -9h-17q-2 0 -10 -3l-16 -6t-15.5 -5.5t-9.5 -2.5t-8 -1t-8 -1v84l33 17q6 4 25.5 23.5t25.5 27.5q6 6 15 21.5t20.5 31t19.5 29.5t10 18q4 10 11.5 32t15.5 46.5t15 45t10 26.5v13t1 26.5t1 30v22.5v19.5t-1 27.5t-1 27.5v19.5 q-4 4 -17.5 23.5t-17.5 25.5q-6 6 -24.5 25.5t-24.5 23.5q-4 4 -16.5 11.5t-16.5 7.5h-66h-51q-2 0 -16.5 -10.5t-33 -23.5t-36.5 -27.5t-31 -22.5q-4 -4 -17 -16.5t-18 -16.5q-2 -6 -8 -26.5t-8 -24.5q0 -4 -6 -9t-10 -7q-4 0 -10.5 6t-6.5 10t-1 24.5t-1 30.5t1 26.5 t1 18.5q2 2 10.5 11.5t18.5 20.5t21.5 21.5t17.5 14.5t20.5 12t29.5 16.5t29.5 14.5t18.5 6q2 0 26.5 1t35.5 1q14 0 41.5 -1t31.5 -1t22.5 -6t27.5 -10q2 -2 13 -8.5t25.5 -14.5t26.5 -16t19 -13q2 -2 8 -7t8 -9q2 -6 7 -18.5t10 -25.5t9.5 -24.5t6.5 -13.5q0 -4 2 -23.5 t5 -44t5 -48t4 -37.5v-25v-25q0 -4 -7 -16t-9 -16q-4 -4 -9.5 -23.5t-7.5 -28.5q-2 -2 -4 -12t-5 -21.5t-5 -20.5t-2 -11q-2 -4 -16.5 -17.5t-16.5 -17.5q-2 -2 -9 -16.5t-9 -16.5q0 -2 -7.5 -8t-9.5 -8q0 -4 2 -9t2 -7h31v-17q4 4 22.5 10.5t26.5 6.5q8 -2 34 -15.5 t34 -19.5l4 -8q4 -9 9 -20t10.5 -21.5t7.5 -16.5q4 -4 9 -29.5t7 -37.5v-9v-8q0 -10 -2 -25.5t-5 -31.5t-5 -29.5t-4 -15.5t-7.5 -14.5t-9.5 -18.5q-2 -2 -8 -7t-6 -9q-2 -2 -7 -12.5t-11.5 -21.5t-10.5 -21.5t-6 -12.5t-9 -11t-14.5 -19.5t-15.5 -20.5t-10 -14 q-6 -6 -18.5 -19.5t-14.5 -15.5q-6 -2 -20.5 -6t-30.5 -10.5t-29.5 -10.5t-19.5 -6q-2 0 -18.5 -1t-24.5 -1q-6 0 -22.5 1t-18.5 1t-8.5 6t-8.5 10q-4 4 -17 25.5t-15 26.5q-2 2 -8.5 8t-10.5 8z" />
<glyph unicode="4" horiz-adv-x="638" d="M324 467q-4 -4 -20.5 -8t-27.5 -6l-116 -31q-2 -2 -16.5 -8t-16.5 -6h-16l-9.5 -9.5t-7.5 -9.5h-16l-19 33q0 4 -7 23.5t-9 23.5q0 2 -7 8t-9 6q-4 8 -10.5 19.5t-6.5 13.5q2 4 17.5 16.5t15.5 16.5q0 2 -5 11t-11.5 20.5t-11.5 19.5t-5 10q0 4 8.5 16.5t8.5 16.5 q2 10 8 39t11 61.5t9 62.5t4 42q2 4 1 26.5t-1 36.5q-4 -4 -4 -6q-4 -6 -1 8.5t5 16.5l-4 8q-2 6 -2 12v19q0 4 1 16t1 14t7.5 9.5t9.5 7.5q4 4 10 16t6 17q-4 2 -8 6l-8 8q-2 6 -1 31.5t1 29.5q-4 6 -17.5 12.5t-17.5 4.5q0 4 7 11t11 7q10 0 41 2t41 2v-229q4 -6 2 -15.5 t-12 -9.5h-2l12 11v14q-4 6 -10 6q-12 0 -12 -14.5t10 -16.5l-4 -4q6 0 22 -8v-4q-2 -4 -9 -22.5t-7 -22.5v-11.5v-20.5v-20.5v-11.5q0 -4 -8 -23.5t-8 -23.5v-18v-29.5v-30v-16.5q0 -4 -8.5 -16.5t-8.5 -16.5v-30q2 -12 7 -43t10 -37l16 -17h33l35 17q0 2 7 9t9 7h12h21.5 h20.5h11l9 8l8 8q8 0 29.5 3.5t29.5 3.5v-7q14 2 32.5 3.5t36 2.5t29.5 2l13 1l53 16v14q-2 4 -4 15.5t-5 25t-5 24.5t-2 15v17q0 4 6 9t10 5v166q-4 2 -10 7t-6 7q-4 6 -2 33t2 33q-2 2 -5 11t-6.5 20.5t-6.5 20.5t-3 11v111q4 4 17.5 15t19.5 16q4 2 22.5 5t22.5 3v-39 t1 -60.5t1 -60.5v-39q2 -18 2 -67.5v-102.5t-1 -100t-1 -66v-18q2 -2 12.5 -10.5t22.5 -19.5t22.5 -20.5t12.5 -11.5q0 -2 1 -8t1 -8t-1 -4t-1 -4v-6q-4 -4 -17.5 -10.5t-15.5 -8.5q-6 -2 -13 -7t-7 -7v-473h-7q-4 0 -6 1t-4 1q-2 2 -7 8t-7 10q-8 14 -20.5 44t-12.5 34v375 zM72 920q-8 0 -13 10v-4v-15q5 9 13 9zM154 874q0 -2 -4 17q2 0 4 -2v-2q0 -2 2 -4q0 -2 -1 -2t-1 -2v-5zM143 909q2 4 4.5 -2t2.5 -16q0 2 -2.5 2t-4.5 4v12z" />
<glyph unicode="5" horiz-adv-x="620" d="M76 133q8 0 24 -4q0 -2 5.5 -14.5t9.5 -18.5q4 -4 9 -23.5t7 -21.5t21.5 -9t29.5 -7q4 0 10.5 -1t8.5 -1h10q4 0 6 2q4 0 15.5 8t24.5 17.5t25.5 19.5t18.5 16q6 4 17.5 13.5t22.5 19.5t19.5 18.5l10.5 10.5q2 4 8 23.5t8 23.5q4 2 19.5 22.5t15.5 24.5q2 4 8 27.5 t10 33.5q2 8 4 22.5t5.5 29t5.5 26.5t2 17v30v33q0 4 -6.5 14.5t-10.5 14.5q-6 4 -16 14l-20.5 20.5t-20.5 18.5t-12 10q-2 0 -12.5 2t-22.5 5t-22.5 5.5t-12.5 2.5q-4 2 -16.5 8t-14.5 8q-2 4 -4 6t-2 6t3 10.5t3 8.5l15 28q2 -2 8 -7t8 -7q4 0 17.5 -5t27.5 -10.5 t26.5 -9.5t14.5 -6q8 -2 21.5 -7t13.5 -7q8 -8 33.5 -30.5t36.5 -33.5q2 0 1 -6t-1 -10q2 -2 8 -14.5t6 -14.5t2 -18t2 -27q0 -10 -2 -28.5t-2 -20.5q0 -10 -2 -29.5t-5 -39t-5 -36t-2 -18.5q0 -4 -7.5 -15t-15.5 -26.5t-16.5 -30t-12.5 -22.5q-4 -2 -11 -11t-16.5 -19.5 t-16.5 -20.5t-9 -12q-2 -4 -14.5 -22.5t-16.5 -22.5q-6 -4 -28.5 -16.5t-26.5 -14.5q0 -2 -7 -9.5t-9 -7.5q-10 -6 -37 -17t-31 -13h-35h-32q-4 2 -25 13t-25 17q-6 4 -12 16.5t-6 16.5t-1 16.5t-2 25.5t-2 24.5t-1 15.5zM10 803q0 10 2 43t2 43q2 0 7.5 6t9.5 10 q2 2 1 14.5t-1 14.5q2 4 7 16.5t7 16.5q4 4 18.5 15t18.5 15h8h10q4 4 8.5 15.5t6.5 15.5l28 -31v47l23 -16l16 31l19 -31q4 4 17 15.5t18 15.5q4 4 16 9t18 5h31q4 2 18.5 9.5t18.5 7.5h14.5h26.5h26.5h16.5q2 0 12 2t21.5 5t21.5 6t15 3h34h33q6 -2 18.5 -7t14.5 -9 q4 0 4 -9.5v-13.5v-12t-4 -11q-4 -4 -15.5 -10t-17.5 -6q-4 0 -17.5 8t-17.5 8t-17 -8t-15 -8t-9.5 2t-15.5 5t-16.5 6t-10.5 3q-4 0 -17 -7t-17 -9q-2 0 -17.5 1t-17.5 -1q-4 -2 -24.5 -16.5t-24.5 -14.5q-4 -2 -27 -1t-25 1q-6 -2 -24.5 -7t-28.5 -9q-4 -2 -14 -6 t-21.5 -9t-20.5 -9.5t-11 -6.5q-4 -4 -17.5 -15t-17.5 -15q-4 -6 -9.5 -31t-5.5 -33l-1 -10t-1 -24.5t-1 -28t-1 -21.5q0 -4 1 -16.5t1 -26.5t1 -25.5t1 -15.5q6 -2 32 -8t34 -8q2 -2 9 -9.5t7 -9.5q6 0 27.5 -5t26.5 -9v-4q0 -2 1 -4t1 -4q0 -4 -1 -9.5t-1 -9.5 q-2 -4 -9.5 -16t-9.5 -14h-6h-10q-6 0 -16.5 3t-21.5 5t-20.5 5t-11.5 3l-7 7t-9 7q-2 0 -8.5 -1t-6.5 1q-6 4 -11 16.5t-7 14.5q-4 4 -19.5 8t-17.5 6q-4 10 -16.5 34t-14.5 30l-1 10q-1 10 -1 24.5t-1 29t-1 22.5zM63 827q-14 0 -14 -16t14 -16t14 16t-14 16z" />
<glyph unicode="6" horiz-adv-x="729" d="M8 549q4 4 9.5 22.5t5.5 24.5q2 6 6 23.5t8 37t8 38t6 24.5q0 2 2 14t5 24.5t6.5 24t3.5 15.5q0 2 6 13t8 15q0 4 5 17.5t9 29t9.5 29.5t5.5 19q0 2 2 4t6 10q4 6 8 14v15q2 2 6 12t9 20.5t9.5 19.5t6.5 11q0 2 2 11.5t4 19.5t4 19t4 11q0 4 14.5 15.5t16.5 15.5t7 15.5 t7 15.5q4 -6 15.5 -30.5t13.5 -31.5v-6q0 -4 1 -6t1 -4t-1 -7t-1 -7q0 -4 -5 -15.5t-10 -15.5l-14 14q0 -6 -4 -19t-9 -27.5t-10.5 -28t-7.5 -17.5q-2 0 -8 -6t-6 -8v-11.5v-20.5v-19.5v-10.5q-4 -2 -8 -6q-6 -6 -6 -10q-2 -2 -4 -13.5t-4.5 -23.5t-4.5 -24.5t-4 -14.5 q-2 -4 -6 -8l-8 -8q-4 -4 -9 -27.5t-7 -31.5q0 -4 1 -23.5t-1 -24.5q-4 -2 -9 -6q-6 -6 -6 -10v-17.5v-28.5v-28.5v-17.5q0 -2 -5 -18.5t-9 -26.5q-2 -4 -8 -16.5t-6 -14.5v-16v-15q0 -2 2 -10t4 -18.5t4 -19.5t4 -13q2 -2 8 -22.5t6 -24.5q-4 -2 -8 -6q-6 -6 -6 -11 q0 -2 6 -14t8 -14q0 -4 -1 -16.5t1 -14.5q0 -2 7.5 -8t7.5 -8q2 -2 0 -14.5t0 -16.5t15 -16.5t15 -14.5q4 -4 15.5 -22.5t15.5 -22.5q2 0 6 2l8 4v133q4 0 10.5 5.5t6.5 9.5v17v28.5v29v17.5q2 6 7 23.5t7 21.5q4 4 14.5 10t14.5 6q-2 10 -2 40t2 38q2 2 16 13.5t17 15.5v33 q4 6 18 21t30.5 32.5t32 32t21.5 20.5q2 2 16.5 6t29.5 9.5t28.5 9.5t17.5 6q2 0 13.5 5t23.5 9t23.5 9.5t13.5 5.5h8h4q10 -2 27.5 -7.5t19.5 -5.5q2 -2 0 -16t0 -14q2 -4 21.5 -9.5t23.5 -7.5q2 -2 4 -11t4.5 -19.5t4.5 -19.5t2 -11q2 -2 9 -8.5t7 -8.5v-45v-45 q0 -4 -5 -15t-10 -23.5t-9.5 -25t-6.5 -14.5v-16q-2 -6 -7 -19.5t-9 -29t-8 -27.5t-6 -16q-2 -2 -7.5 -7t-7.5 -10q-10 -4 -14 0q-2 -4 -6 -15t-9.5 -23.5t-10.5 -22.5l-7 -14t-5 -15.5t-7 -15.5q-4 -8 -15.5 -25.5t-15.5 -19.5q-2 0 -13 -6t-16 -8q-4 -2 -23.5 -7.5 t-23.5 -9.5q-4 -2 -21.5 -22.5t-21.5 -22.5t-21.5 -8t-25.5 -8h-14q0 -2 -6 -8.5t-11 -6.5q-2 -2 -10 -4t-17 -4t-17.5 -4t-10.5 -4q-8 -6 -14 -22.5t-6 -24.5h-27q-4 6 -17.5 19.5t-27.5 28.5t-26.5 27.5l-18.5 18.5q-4 2 -16.5 6t-14.5 6q-4 4 -15 24.5t-13 25.5 q-2 0 -9 6l-8 8v14q-4 4 -15 23.5t-13 23.5v11.5v19.5v19.5v11.5q0 4 -5.5 14t-9.5 14v232zM264 135q0 -4 5 -10t10 -6q4 0 19 6t21 10q4 4 23.5 16.5t24.5 14.5q4 0 22.5 6t22.5 8q2 2 7 8.5t7 8.5q2 0 8 -1t6 1q4 4 16.5 22.5t16.5 22.5t22.5 16t20.5 16q4 4 1 21.5 t-1 21.5q4 10 15.5 27.5t15.5 22.5q6 4 21.5 4t23.5 -4q-4 0 -10.5 6t-6.5 8v6v8q0 2 8.5 15.5t8.5 15.5q0 4 -1 23.5t1 23.5q0 2 5 8t9 8q-4 8 -9 37t-5 39v11.5v20.5v19.5v10.5q-2 4 -10.5 11t-17.5 14t-18 13.5t-14 6.5q-4 0 -15 -5t-15 -10q-10 -6 -27.5 -16t-35 -19.5 t-29.5 -17.5l-13 -8q-6 -4 -24.5 -22.5t-22.5 -24.5q-2 -4 -7 -22.5t-7 -22.5q-2 -6 -10.5 -26.5t-18.5 -43t-18 -43t-10 -24.5v-17q0 -4 -3.5 -15t-5.5 -23.5t-4 -24t-2 -13.5q0 -4 -1 -29.5t-1 -39.5q0 -8 1 -35t1 -35zM621 317q10 0 10 -14t-10 -14t-10 14t10 14z M547 334q-6 4 -6 -7.5t6 -9.5q16 13 0 17zM575 350q-12 0 -12 -16.5t12 -16.5t12 16.5t-12 16.5zM68 367q-12 0 -12.5 -16.5t12.5 -16.5q10 0 10 16.5t-10 16.5z" />
<glyph unicode="7" horiz-adv-x="634" d="M264 92q4 14 -1 9t-7 -1q0 2 5 13.5t11.5 24t11.5 22.5t5 14q0 2 1 11.5t3 19.5t3 19t1 12q2 2 15.5 20t13.5 23q0 2 2 11t3 20.5t2 20.5t1 11q2 8 6 25.5t10 37t12.5 37t10.5 23.5q4 0 11 4t7 8q2 4 4 18.5t4 31t4.5 29.5t4.5 17t11 22.5t11 22.5q2 2 2 14.5t4 16.5 q0 2 9.5 6t7.5 7q2 2 3 11t3 19t3 19.5t1 13.5q4 6 14 34.5t22.5 62.5t21.5 62.5t11 37.5v7t3 9v8q0 2 2 6q0 6 -2.5 15.5t-5.5 18.5t-7 16.5t-4 9.5q0 4 -12 16l-19 19q-4 2 -16 7t-16 7q-4 0 -15.5 3t-25 5t-24.5 5t-17 3v51q6 0 22.5 -2t35 -5t34.5 -7t22 -6q2 0 10.5 -8 t18.5 -18.5t20.5 -19.5t16.5 -15q0 -2 6 -14.5t10 -20.5q2 -4 9.5 -24.5t7.5 -24.5q2 -6 3 -18.5t1 -26v-24.5v-15q2 -2 1 -14.5t-1 -18.5q-2 -4 -6 -17q-2 -6 -4 -10q0 -4 -10.5 -15t-10.5 -16q-2 -4 -4 -17t-4 -29.5t-5 -31t-5 -18.5q-4 -4 -9 -6q-2 -2 -3 -2t-3 -2l-2 -2 q-2 -2 -3 -10t-3 -18.5t-3 -19.5t-1 -11q-2 -4 -11 -16.5t-11 -16.5q-6 -6 -15.5 -29.5t-13.5 -28.5q0 -4 -2 -17t-4 -29.5t-5 -31t-3 -16.5q0 -6 -5.5 -21.5t-11.5 -32.5t-11 -31.5t-7 -18.5q0 -2 -10.5 -14.5t-10.5 -14.5q-2 -4 -4 -13t-3 -20.5t-3 -20.5t-2 -11 q-4 -2 -9 -7.5t-10 -3.5q0 -10 -4 -32.5t-8 -47t-7 -46t-5 -29.5q-2 -10 -5 -5t-5 1q0 -4 -2 -13.5t-3 -20.5t-3.5 -19.5t-4.5 -10.5q-4 -6 -13 -22.5t-9 -20.5h-6q-4 -2 -5 -1t-3 1t-5 2q-4 2 -7 8t-7 11q-4 6 -7 18t-3 14q0 4 5 33t9 45zM354 258q-6 2 -10 -2t-5 -10 t1 -11.5t8 -7.5q10 0 14 14.5t-8 16.5zM483 737q-10 2 -14 -14t8 -18t15 14t-9 18zM4 1077q4 2 22.5 7.5t26.5 7.5q12 4 44 9t38 7q4 0 32 1t60.5 2t60 2t31.5 1q0 -4 4.5 -16.5t2.5 -16.5q0 -2 -21.5 -7t-48.5 -11t-48.5 -11t-23.5 -5q-8 -4 -25.5 -10.5t-23.5 -8.5h-24 h-25q-10 2 -34.5 8t-28.5 11q-4 0 -10.5 5t-8.5 9v10v6z" />
<glyph unicode="8" horiz-adv-x="700" d="M111 135q0 4 -8.5 12.5l-17.5 17.5t-17.5 17t-8.5 15v32.5t1 51t1 48v23.5t4.5 15.5t9.5 28t10 26.5t5 16q2 4 10.5 16.5t18.5 27t18 27.5t8 19q2 0 5.5 1t5.5 1l8 -2q4 -4 11 1.5t7 2.5q4 6 17.5 21.5t17.5 24.5q0 2 8 9t11 9l16 33l4 6q0 2 -1 4t-1 4l-2 2 q-4 8 -17.5 19.5t-17.5 13.5t-18.5 1t-18.5 -1q-6 4 -26.5 17.5t-24.5 19.5q-4 0 -2 6t2 10q-4 0 -11 6t-7 11q-2 2 -9.5 12t-16.5 21.5t-18.5 20.5t-11.5 11q-4 4 -17 8t-18 4l-18 82q2 0 8 8.5t12.5 19.5t11.5 20.5t5 11.5q0 4 -7 17t-12 15q4 2 18.5 8.5t16.5 8.5 q4 4 10.5 18.5t8.5 14.5q4 2 18 1t19 -1q2 2 8 17t10 17q4 0 25.5 -1t25.5 1q6 2 31 9.5t51.5 15.5t50 16.5t29.5 10.5h8h10q2 -4 8.5 -9.5t8.5 -7.5h125q2 -4 8 -9t8 -9q6 -4 26.5 -16.5t26.5 -16.5q4 -2 18.5 -8t18.5 -10q2 -2 5 -10.5t3 -12.5q-6 0 -23.5 1t-35.5 2 t-33.5 2t-21.5 1q-4 0 -18.5 8.5t-16.5 8.5t-26.5 1t-34.5 1q-8 0 -33 -1t-31 -1q-2 -2 -9 -8.5t-11 -8.5q-2 0 -15.5 -3t-28 -5t-27.5 -5t-15 -3q-14 -4 -48 -16.5t-43 -16.5q-8 -6 -27.5 -25.5t-23.5 -27.5q-2 -4 -2 -6q-2 -2 -2 -4v-2q0 -4 2 -10.5t2 -10.5q0 -2 8.5 -8 t8.5 -8t-1 -16.5t1 -16.5q0 -4 13 -17.5t21 -17.5q2 -2 12.5 -8t21.5 -14.5t21.5 -16.5t16.5 -10q8 -6 28.5 -18.5t24.5 -14.5q16 -10 43 -23.5t29 -13.5t7 8.5t11.5 17.5t10.5 17t6 11l9 4t20.5 9t22.5 10t17 9t27 10.5t29 6.5q2 0 11 1t13 1q0 -4 -2 -25.5t-6 -25.5 q0 -4 -6 -9.5t-10 -7.5t-14.5 -7t-22.5 -11t-22.5 -11.5t-12.5 -7.5q-6 -2 -19.5 -14t-15.5 -18l17 -17q4 -2 17 -9t27.5 -15.5t28 -15.5t17.5 -9q8 -6 21.5 -16.5t27.5 -20.5t25.5 -19.5t15.5 -11.5q0 -4 6 -22.5t10 -28.5v-18q0 -2 8.5 -15.5t10.5 -17.5v-14q0 -2 2 -14.5 t5 -28t5 -27.5l2 -12q-2 -14 -7 -37t-11.5 -46.5t-10.5 -40t-4 -18.5q-2 -6 -15 -25.5t-22 -27.5q-2 -2 -16 -8t-18 -8t-14.5 -12.5t-23 -21.5t-21.5 -20.5t-11 -11.5q-4 -2 -18.5 -9t-18.5 -9l-8 -8l-6 -7q-2 -2 -4 -2q-4 -4 -18.5 -10t-16.5 -6q-4 0 -34 -2t-46 -2h-16.5 t-20.5 2q-12 0 -24 2q-2 0 -30 19.5t-42 31.5q-4 2 -10.5 8.5l-8.5 8.5v16q-2 6 -15 25.5t-19 23.5zM180 119q6 -4 26.5 -24.5t29.5 -24.5q2 -4 15 -10.5t19 -6.5h11h6q8 0 28.5 6.5t26.5 10.5q4 2 15.5 6t22.5 10t20.5 10t11.5 6q8 4 34.5 23.5t36.5 26.5q8 8 28.5 27.5 t25.5 25.5q4 4 10 16t6 17q2 8 5 34.5t6 55t5 53.5t2 29q0 10 -7 35.5t-11 31.5q0 2 -8 7t-17.5 10.5t-16.5 9.5t-9 6q-4 4 -18.5 17.5t-16.5 17.5q-6 4 -28.5 8t-26.5 8q-2 2 -16.5 17.5t-18.5 17.5h-17h-18q-4 -2 -17.5 -15.5l-19.5 -19.5q0 -4 -7 -17.5t-11 -15.5 q-4 -4 -25.5 -17t-25.5 -17l-10 -6q-9 -5 -18 -11t-18.5 -13t-9.5 -9q-2 -4 -9 -23.5t-11 -25.5q-2 -6 -6 -20.5t-9.5 -29t-9.5 -26t-4 -13.5v-145q0 -4 7 -11t16.5 -15.5t17.5 -15.5t8 -11z" />
<glyph unicode="9" horiz-adv-x="720" d="M596 786q-4 0 -9 4.5t-7 2.5q-4 -4 -17.5 -24.5t-15.5 -25.5q-4 -2 -17.5 -16t-17.5 -16q0 -2 -7 -15.5t-9 -15.5q0 -4 -6.5 -9t-10.5 -7q-4 -4 -24.5 -17.5t-24.5 -17.5l-24.5 -24.5t-24.5 -22.5q-4 -4 -24.5 -9.5t-24.5 -7.5q-2 -2 -9.5 -10t-15.5 -16.5t-16 -15.5 t-10 -9h-17q-4 -2 -8 -6q-8 -8 -8 -10q-2 -4 -7 -15.5t-10 -15.5q0 4 -5 10t-9 6t-17.5 -8t-15.5 -8t-27.5 -1t-39.5 -1q-6 0 -32 1t-36 1l-16 16q0 2 -6.5 15.5t-8.5 15.5t-6 15.5t-8 29.5t-8 29l-4 14l10 62q4 0 10 6t6 10t-6 16.5t-10 14.5q8 0 33.5 12t32.5 20 q2 4 0 24.5t0 25.5q0 4 6 16t10 16q2 2 16.5 15.5t16.5 17.5l16 33l17 16q2 2 15 8.5t26.5 14.5t25.5 15t14 11q4 2 9.5 15.5t7.5 15.5q8 10 27.5 28.5t23.5 22.5q4 2 24.5 0t24.5 0q2 2 8 15.5t9 15.5h8h8l16 16q10 4 35 17.5t31 17.5h33q2 0 12 2t21.5 5t20.5 6.5t13 3.5 q2 0 20.5 -6.5t26.5 -10.5q6 -4 18.5 -9t16.5 -9q4 -2 10.5 -8.5t6.5 -8.5l-17 -79q-4 0 -10 6t-8 10t-14.5 24.5t-16.5 22.5h-8q-4 0 -7 1t-8 1q-4 0 -8 -1t-8 -1h-10q-4 -2 -25.5 -7t-25.5 -7h-17q-2 -4 -8 -9.5t-8 -7.5t-15.5 -9t-17.5 -7l-8 -8q-4 -4 -6 -8 q-6 -2 -26.5 -9.5t-24.5 -9.5q-2 0 -8.5 -7t-8.5 -9q-2 0 -16.5 -5t-16.5 -10q-4 -4 -10 -17t-6 -15q-2 -2 -9 -9.5t-9 -7.5q-2 -4 -15.5 -24.5t-17.5 -24.5q-2 -2 -11.5 -7t-20.5 -10t-20.5 -9.5t-11.5 -6.5q-6 -4 -10 -16t-4 -16h-4q-2 -4 -9 -16.5t-14.5 -25t-14.5 -24.5 t-11 -16q-2 -4 -14.5 -10.5t-18.5 -6.5q2 -2 8 -7t8 -7v-4v-4q0 -2 2 -2q0 -2 -1 -2t-1 -2v-2q-2 -2 -9 -9.5t-7 -9.5q0 -6 1 -17.5t2 -25.5t3 -25.5t2 -17.5q8 0 36 -7t38 -3q2 0 14.5 5t28.5 13t31.5 16.5t23.5 12.5q6 2 25.5 15.5t25.5 17.5q2 4 8.5 9t8.5 7q2 4 8 17.5 t8 17.5q2 2 9.5 6t15.5 9t15 10.5t9 5.5q4 4 16.5 13t25 19.5t24.5 19.5t16 13q-4 8 0 17q2 2 8.5 7t8.5 9q4 2 17 8t17 8t14.5 11.5t20.5 20.5t18.5 20.5t12.5 13.5q4 -2 9 -8t5 -11q4 -4 10.5 -15t6.5 -15q4 -8 10 -33t8 -33v-268v-270q0 -29 -4 -66t-8 -76t-7 -75.5 t-5 -61.5q0 -2 -3 -2h-4h-6q-2 0 -4 2q-4 0 -10 7t-6 9zM33 727q12 0 12 -16.5t-12 -16.5q-10 0 -10 16.5t10 16.5zM117 760q-12 0 -12.5 -16.5t12.5 -16.5q12 0 12 16.5t-12 16.5zM381 1055q-12 0 -12 -16.5t12 -16.5t12 16.5t-12 16.5z" />
<glyph unicode=":" horiz-adv-x="235" d="M74 104q2 4 12 9.5t14 3.5q2 0 12.5 -5.5t16.5 -9.5q2 -4 14 -12q6 -4 11 -6q2 -2 1 -14.5t-3 -18.5t-14.5 -13t-16.5 -13q-4 2 -10.5 -3.5t-12.5 -3.5q-4 4 -16 15.5t-14 11.5q-4 6 -2 29.5t8 29.5zM74 596q2 4 12 9t14 3q2 0 12.5 -5t16.5 -9q2 -4 14 -12q6 -4 11 -7 q2 -2 1 -14t-3 -18t-14.5 -13.5t-16.5 -13.5q-4 2 -10.5 -3t-12.5 -3q-4 4 -16 15.5t-14 11.5q-4 6 -2 29.5t8 29.5z" />
<glyph unicode=";" horiz-adv-x="190" d="M57 35v74q0 2 11.5 7t17.5 7h4q2 0 2 1t2 1l4 -2h4q8 -6 24.5 -22.5t18.5 -20.5q0 -2 1 -17.5t1 -23.5t-1 -26.5t-1 -20.5q0 -4 -4 -21.5t-9 -41t-9 -47t-6 -38.5q-4 -10 -9.5 -32.5t-5.5 -24.5q-4 -4 -14 -14.5t-16 -14.5q0 -2 -8.5 -4t-10.5 -2q0 8 1 39t3 39q0 2 2 11 t5.5 18.5t5.5 18.5t2 11q2 14 5 36t5 43.5t3 36.5l1 15zM74 596q2 4 12 9t14 3q2 0 12.5 -5t16.5 -9q2 -4 14 -12q6 -4 11 -7q2 -2 1 -14t-3 -18t-14.5 -13.5t-16.5 -13.5q-4 2 -10.5 -3t-12.5 -3q-4 4 -16 15.5t-14 11.5q-4 6 -2 29.5t8 29.5z" />
<glyph unicode="&#x3c;" horiz-adv-x="628" d="M117 219h-15q-4 4 -15 22.5t-13 22.5q-4 2 -15.5 14.5t-15.5 14.5q-4 6 -15.5 22.5t-13.5 20.5q0 2 -1 10t-1 12t1 12.5t1 10.5q2 4 15.5 15.5t13.5 13.5q2 2 8 15t14.5 28.5t14.5 28t8 16.5q4 6 20.5 22.5t22.5 20.5q2 2 8 2t6 -2q4 8 15.5 30.5t15.5 28.5 q10 12 29.5 32.5t38 39t33 32t16.5 13.5h20v55q4 0 12.5 1t10.5 3q4 0 15 6t14 9h8h8q4 -2 9 -7.5t5 -7.5v-24v-21q-4 -4 -20.5 -21.5t-24.5 -21.5q0 -2 -6 0t-8 0q-6 -4 -22.5 -21.5t-20.5 -23.5t-15.5 -28.5t-15.5 -28.5q0 2 -6 2t-8 -2q0 -2 -6 -7.5t-9 -7.5 q-2 -4 -7 -15t-7 -15q-2 0 -7 1t-7 -1q-4 -4 -14.5 -21.5t-14.5 -21.5q-2 -2 -8 -2t-8 2q-2 -6 -13.5 -29l-15.5 -31q-2 -4 -13.5 -14t-15.5 -14v-103l10 -6q11 -6 24.5 -12t28.5 -13.5t25 -11.5q4 -2 21.5 -8t21.5 -6q2 -2 8.5 -8t6.5 -9q4 -4 21.5 -14t23.5 -14 q8 -4 37.5 -21.5t64.5 -37t64.5 -37t38.5 -21.5q0 -2 6 -7t8 -7q4 -4 21.5 -15.5t21.5 -13.5l9 -9t5 -7q2 0 3 -9.5t1 -11.5q-4 0 -22.5 3t-24.5 3q-2 0 -11 5.5t-18.5 10.5t-18.5 9t-11 6q-2 0 -13.5 4t-23.5 9t-22.5 9.5t-12.5 6.5q-4 2 -15 7t-15 7l-15 14zM307 702 q-10 0 -10 -14t10 -14t10 14t-10 14z" />
<glyph unicode="=" horiz-adv-x="688" d="M37 371l-23 39l13 16h417q6 2 19.5 5t28 6t27.5 5t18 2q4 0 13 -9t11 -9h13.5t22.5 1t21.5 1t14.5 -2q2 -2 10 -8t12 -8v-9q0 -4 1 -6t1 -4q0 -4 -1 -11t-1 -9q-4 -8 -12 -22.5t-10 -14.5h-129q-2 4 -6 11t-6 7h-11q-4 2 -8 8.5t-4 10.5h-432zM573 391q-10 0 -10 -19.5 t10 -19.5t10 19.5t-10 19.5zM55 580q-2 10 9.5 32.5t19.5 26.5h12q4 0 9.5 1t9.5 1q8 0 24.5 -1t18.5 -1q6 -2 28.5 -7t30.5 -7l14 20l211 -18q0 2 5.5 5t9.5 3h13h23.5h22.5h14l7 6l8 8h16q6 0 14.5 1t12.5 1q6 0 23.5 -1t21.5 -1q14 -29 -10.5 -46t-61.5 -26.5 t-69.5 -12.5t-34.5 -3h-8h-7q-4 2 -9 7t-5 7q-2 -2 -22.5 -3t-46 -2t-47 -2t-23.5 -3t-6 -2h-13q-4 0 -13 1t-11 1q-4 0 -19.5 3t-32 5t-32 4.5t-19.5 2.5q-6 0 -18 1t-26.5 1t-27 -1t-16.5 -1zM573 649q14 -12 11.5 -18t-11 -6t-11.5 6t11 18z" />
<glyph unicode="&#x3e;" horiz-adv-x="716" d="M424 328q4 0 21.5 5t21.5 9q4 2 8 14.5t6 16.5q2 2 13.5 6t17.5 8h6h8q2 2 6.5 14.5t8.5 14.5q2 2 15 8t28.5 13t28 13.5t16.5 8.5q0 2 5 13t9 17v7v8l-14 14l-176 88q-4 2 -21.5 7t-21.5 8q-2 0 -11.5 5t-18.5 10t-18.5 9t-11.5 4q-2 2 -14 1t-14 -1t-9 6q-4 4 -6 9 q-4 4 -29.5 8t-29.5 8q-2 0 -7 5t-8 9q-8 2 -29.5 6.5t-44 8.5t-44 8t-29.5 6h-29q-2 6 -7 28.5t-7 30.5q-2 0 -2 2v7v6h16q2 -2 15.5 -6.5t29 -9.5t27.5 -9t16 -6h15q4 0 20.5 -5t24.5 -9q2 0 12 -5.5t22.5 -9.5t23.5 -9t13 -5q4 -2 15.5 -1t15.5 1q2 -2 13.5 -7t15.5 -7 h14q4 -2 21.5 -8.5t21.5 -6.5q4 -2 30 -7t30 -7q2 -2 7 -8t7 -8q4 0 22.5 -6.5t22.5 -8.5q2 -2 12.5 -8t22.5 -13t23.5 -13.5t13.5 -8.5q4 -4 29.5 -14t29.5 -14q10 -8 26.5 -24.5t16.5 -21.5q2 -2 3 -21t1 -30q0 -4 -1 -24.5t-3 -26.5l-14 -7t-21.5 -12.5t-22 -14.5 t-14.5 -9q-4 -4 -15 -22.5t-15 -22.5q-2 -2 -20.5 -6t-22.5 -8q-4 -2 -16.5 -13.5t-28 -23.5t-28.5 -23.5t-15 -13.5q-4 -2 -21.5 -13.5t-21.5 -15.5q-6 -4 -23.5 -21.5l-21.5 -21.5l-7.5 -15l-7.5 -15q-2 0 -13 -6.5t-15 -8.5h-15l-133 -131h-39q0 4 4 21.5t6 21.5 q0 2 6.5 9.5t14.5 14.5t14 13l8 8t7.5 14.5t9.5 14.5q2 2 10 8t17.5 14.5t18.5 14.5t11 8q8 8 31.5 30.5t49.5 48t48.5 48.5t32.5 33zM526 373q-10 0 -10 -15.5t10 -15.5t10 15.5t-10 15.5z" />
<glyph unicode="?" horiz-adv-x="505" d="M190 90q4 0 12.5 -1t10.5 -1q-4 -6 -21.5 -22.5t-21.5 -20.5t-15.5 -9t-15.5 -7t-8 -2h-8v9t2 9q2 4 8 15.5t6 13.5q4 2 15.5 7t15.5 7h8q4 0 6 1t6 1zM70 324q0 2 4 6t8 6q0 4 -1 15t1 16q0 2 13.5 6t15.5 8t2 21.5t-2 21.5l28 -14l11 6q12 6 25 15t27.5 19.5t24.5 18.5 q6 6 21.5 18.5t32 26.5t31 26.5t18.5 16.5t14 20.5t14 22.5q4 8 15.5 30.5t23 48.5t21.5 49.5t14 33.5v20v23q-2 10 -7 32.5t-7 26.5t-13.5 14.5t-15.5 14.5q-6 4 -27.5 14.5t-31.5 14.5l-6 2q-2 0 -2 -1t-3 -1h-4q-2 -2 -13 -14.5t-15 -14.5t-32 -7t-42 -7h-29l-15 -7.5 l-15 -7.5q-4 -4 -21.5 -22.5t-21.5 -22.5h-7h-8q-2 0 -11 3t-18.5 5t-18.5 4.5t-11 2.5q-4 2 -14.5 3t-14.5 1v51q4 0 21.5 1t21.5 3q4 0 15.5 6t15.5 8q4 0 20.5 5.5t37 9.5t38 9t21.5 5q6 4 22.5 8t20.5 6q4 4 29.5 15.5t29.5 15.5h6h8q2 -2 7.5 -8t7.5 -6q2 -2 15 -4 t28.5 -4.5t28 -4.5t16.5 -4t15 -20.5t13 -22.5q2 -2 8.5 -7t6.5 -7q2 -6 5 -21.5t5 -32t4 -30.5t2 -18t-7 -15.5t-9 -13.5q0 -4 -2 -17.5t-4 -28t-4 -27.5t-5 -15q0 -4 -6 -15.5t-12 -24.5t-13 -27.5t-12 -20.5l-14 -15q-4 -4 -15.5 -22.5t-15.5 -22.5q-4 -6 -16 -18 l-26.5 -26.5l-27 -27l-16.5 -16.5q-4 0 -15 -6t-15 -8l-29 -29q-4 -2 -21.5 -13t-21.5 -15t-9 -15.5t-7 -15.5v-31v-26q2 -4 14 -15.5t16 -13.5v-8v-9q-2 -4 -7 -9t-7 -5h-33h-26q-4 4 -8.5 22.5t-6.5 22.5q-2 0 -8 6t-6 9q-4 6 -9 22t-5 21zM68 879q-12 0 -12.5 -15.5 t12.5 -15.5q10 0 10 15.5t-10 15.5z" />
<glyph unicode="@" horiz-adv-x="1224" d="M174 -137l-7 14t-9 14q-2 4 -13.5 15.5l-15.5 15.5q0 2 -5 10.5t-9 17.5t-9.5 18t-5.5 12l-14 14q-4 4 -8 15t-6 16q-2 4 -7.5 20t-9.5 23q-4 10 -8 26.5t-9 32.5t-8 28.5t-3 14.5q-2 4 0 29.5t0 29.5q0 2 -6.5 13.5t-8.5 15.5v6v8q0 6 2 26.5t5.5 45.5t5.5 46.5t2 27.5 v16q2 8 4 24.5l4 33t4 30t2 15.5t4 14t9 28.5t9.5 33t8.5 26.5q2 6 7 22.5t7 20.5q0 2 6 14.5t8 14.5v14q2 6 6.5 15.5t9.5 18.5t9 16t4 9q2 2 14.5 7.5t14.5 7.5q4 4 9 15t7 13q4 8 14.5 24.5t14.5 20.5l57 58q4 4 15.5 22.5t15.5 22.5q2 2 20.5 7t22.5 7t9 13.5t5 15.5 l14 -29q0 4 6.5 15.5t10.5 13.5q0 2 6 1t8 -1q2 4 6 15t9 16h14q2 0 14.5 6t14.5 8q10 4 32.5 9t26.5 5t9 -5t5 -9q6 4 28.5 15.5t31.5 13.5h2q2 0 2 1t2 1l4 -2h4q4 -2 21.5 -15.5t21.5 -13.5q4 -2 22.5 -1t22.5 1t20.5 -5t22.5 -9q4 -4 15.5 -8.5t13.5 -8.5q2 0 8 -6t6 -8 q4 -2 29.5 -6t29.5 -8l15 -15q4 -2 22.5 -7t22.5 -7q0 -2 -1 -8t1 -6q2 -4 13 -15.5t16 -15.5q4 -2 21 -13.5t22 -15.5q4 -2 15 -14.5t15 -14.5q2 -2 14.5 -7t14.5 -7q2 -4 7 -22.5t7 -22.5q2 0 7.5 -6t7.5 -8l28 -43q2 -4 8.5 -15.5t8.5 -15.5l6 -6l8 -8q0 -4 -1 -21.5 t1 -21.5q0 -4 13.5 -8.5t15.5 -6.5v-8v-6q2 -4 8 -15.5t6 -15.5q2 -4 1 -21.5t-1 -21.5t5 -26.5t9 -32.5q2 -4 8.5 -21.5t6.5 -21.5v-8v-6q-2 -4 -13.5 -9.5t-15.5 -5.5q4 -4 9 -15t5 -16v-8q0 -4 1 -7t1 -5q0 -4 -1 -12.5t-1 -10.5q0 -4 -5 -14t-9 -14q-2 -2 -7 -8.5 t-7 -8.5l-29 -57q-10 4 -14 0t-15.5 -22.5t-15.5 -22.5h-29q-2 0 -14 -7t-14 -7t-9 6q-4 4 -6 8q-4 2 -15 1t-15 -1q-4 2 -21.5 8t-21.5 8q-4 0 -9.5 1t-9.5 1q0 4 -3 13.5t-7 13.5q-2 2 -11.5 6t-19.5 8t-18 8.5t-11 6.5q-2 2 0.5 14t-0.5 14q0 2 -6 8.5t-8 8.5 q-2 4 -7 21.5t-7 21.5q-4 4 -15.5 14t-15.5 14q0 2 -6 1t-8 -1l-15 15q-2 -8 -13 -36t-15 -36q-2 -2 -10.5 -8t-18.5 -14.5t-19.5 -14.5t-11.5 -8t-6 -14.5t-8 -14.5q-2 -2 -14.5 -7t-14.5 -7l-14 -14q-4 -4 -15.5 -9.5t-15.5 -5.5q-8 -4 -35.5 -9t-35.5 -7v68q4 0 14 2 t14 4q2 2 13.5 9t26 16.5t27.5 18.5t21 15q2 0 7.5 5t7.5 9l-15 15l15 14q4 4 14 9t14 5h15q4 4 15 22.5t15 23.5l29 28q2 2 7 18.5t7 24.5v8v9l-14 14v117h-117q-2 -4 -7 -9.5t-7 -5.5l-44 -11t-30 -3l-14 14q0 -4 -5 -15t-9 -15q-4 0 -19.5 -5.5t-25.5 -9.5h-7h-8 q-4 -4 -15 -14t-13 -14q-4 -4 -10.5 -16.5t-13.5 -27t-13 -26.5l-9 -18l-14 28l-14 -57q0 -2 -1 -16.5t-1 -20.5t1 -20.5t1 -16.5q0 -4 6 -26.5t8 -30.5q2 -4 8 -15.5t6 -15.5q2 -2 8.5 -4t8.5 -2v-23h86v-73l-29 14l-14 -29q-6 4 -22.5 14.5t-20.5 14.5t2 12t6 11h-72 q0 4 -4 18t-6 18q-4 4 -14 10.5t-15 4.5l15 14q-8 4 -24.5 20.5t-20.5 24.5v19v24q2 6 6 23.5t8 36t9 35t7 22.5l3 2q0 2 4 6t8 6q0 4 2 13.5t2 13.5q6 0 10 4q4 2 15.5 13t13.5 16q4 6 15 28.5t13 30.5q2 -2 8.5 -2t8.5 2q4 0 14 5t15 9q2 2 11 8.5t18 13.5t17.5 13t10.5 8 h4q2 0 2 1t2 1l4 -2h4l15 -14q0 4 5 15.5t9 13.5q4 4 25.5 15t31.5 15h8h9q4 -4 9 -15t5 -15q0 6 11.5 17t17.5 13h41h47q2 0 7 -7t7 -9q2 0 14.5 -5t14.5 -9q2 0 1 -6.5t-1 -8.5q4 -4 15 -14t15 -14t21.5 -15.5t21.5 -13.5l15.5 -15.5t13.5 -15.5v-6v-8q0 -4 -5 -14.5 t-9 -14.5l-15 -14q0 -2 -1 -10.5t-1 -12.5t1 -12t1 -10t6.5 -14.5t8.5 -14.5v-28q2 -6 7 -23.5t7 -22.5q2 0 8 -6t6 -8q2 -2 8.5 -14.5t8.5 -14.5t10 -11t18.5 -18t18.5 -18.5t10 -11.5q2 0 0 -6t0 -8q4 -4 15.5 -10.5t13.5 -4.5l88 43v23q10 0 14 8q4 4 10.5 21.5t6.5 21.5 v57v60q0 8 -6.5 35.5t-10.5 38.5q0 2 -6 14t-8 14q0 4 -6 22.5t-8 22.5q-2 0 -7.5 6.5t-7.5 8.5v14l-14 14v15q-2 4 -7 15t-7 15q-2 0 -8.5 6.5t-6.5 8.5v14l-10 10l-17.5 17.5t-18.5 17.5t-13 12t-21.5 15.5t-21.5 15.5q-2 2 -11.5 10.5t-18.5 18.5t-18 18t-12 10 q-2 2 -14 8.5t-14 6.5q-2 2 -8.5 8t-6.5 8q-8 4 -30.5 14.5t-28.5 14.5q-2 2 -14.5 1t-14.5 -1q-4 2 -20 7t-25 7q-2 2 -14 8.5t-14 6.5h-14.5h-22.5h-23.5h-13.5q-4 0 -21.5 8t-21.5 6q-4 0 -8 -13.5t-6 -15.5q-4 -2 -15.5 0t-15.5 0t-14.5 -14t-14.5 -14q-4 -4 -14 -9.5 t-14 -5.5q-4 -2 -14.5 -2t-14.5 2l-103 -102q-4 -4 -12 -15.5t-17 -22.5t-18.5 -21.5t-11.5 -14.5q-2 -2 0 -8t0 -6q-4 -4 -21.5 -22.5t-21.5 -22.5q-2 0 -1 -6.5t1 -8.5l-7 -14t-9 -14q0 -2 -6.5 -8.5t-8.5 -6.5q-4 -10 -15 -33.5t-13 -25.5v-11.5v-18.5v-17v-10 q0 -4 -6.5 -22.5t-8.5 -22.5q-2 -6 -4 -22.5t-4 -35t-4 -36t-2 -23.5t-1 -20.5t-1 -31t1 -30.5t1 -21q-4 -2 -9 -7t-5 -7v-8v-6q0 -4 6 -15.5t8 -15.5q4 -8 9 -24.5t5 -18.5v-14.5t-1 -22.5t-1 -23.5t2 -13.5q2 -4 21.5 -21.5t21.5 -21.5t1 -15t-1 -13q2 -8 7.5 -24.5 t7.5 -20.5q4 -6 16 -18.5t26.5 -27t27 -26.5t18.5 -17q4 -2 22.5 -7t22.5 -7q2 0 12 -5t22.5 -9t23.5 -9.5t13 -5.5t24 -1t34 -1q10 0 33.5 1t27.5 1q6 0 25.5 4.5t42 8.5t45 9t33.5 7q2 2 13 7t15 7l15 15q4 2 22.5 7t22.5 9q2 2 16 12.5t32.5 24.5t38 27.5t29.5 21.5 q2 2 7.5 8.5t7.5 8.5q4 2 22.5 13t22.5 15q6 4 17.5 13.5t22.5 18.5t20.5 16.5t11.5 9.5q4 4 8 15t6 15q4 2 15.5 7.5t15.5 7.5q0 2 6 7t8 7l6 2q2 0 3 -1t3 -1h2q2 -2 7.5 -13.5t7.5 -15.5v-8v-6q-2 -4 -7.5 -15.5t-7.5 -15.5l-28 -28q-8 -6 -24.5 -20.5t-33 -28t-30 -25.5 t-15.5 -14l-15 -7.5t-16 -7.5q0 -2 -6 -7t-8 -7q-4 -4 -21.5 -15.5t-21.5 -13.5l-22.5 -22.5l-22.5 -22.5q0 -2 -6 -1t-8 1q0 -2 -6.5 -7t-8.5 -7t-14 -7.5t-14 -7.5l-15 -14q-4 -2 -22.5 -8t-22.5 -6q-2 -2 -14 -9.5t-14 -7.5q-4 0 -21.5 1t-21.5 -1q-6 -2 -23.5 -13 t-21.5 -15q-10 0 -40 -1t-40 -1q-16 0 -47 1t-33 1q-4 0 -21.5 5t-23.5 9q-2 2 -7 8t-8 6q-8 4 -29.5 12.5t-44 17.5t-43 17.5t-28.5 12.5zM55 301q-10 0 -10 -14.5t10 -14.5q12 0 12 14.5t-12 14.5zM1124 346q-10 0 -10 -15.5t10 -15.5t10 15.5t-10 15.5zM729 449 q-6 2 -6 -8.5t6 -6.5q6 2 6 6.5t-6 8.5zM772 639q-4 2 -5 -6t-1 -17.5t1 -16.5t5 -5q8 4 8 22.5t-8 22.5zM422 653q-10 0 -10 -15t10 -15t10 15t-10 15zM174 770q-12 0 -12 -14.5t12 -14.5q10 0 10 14.5t-10 14.5zM408 975q-10 0 -10.5 -14.5t10.5 -14.5q10 0 10 14.5 t-10 14.5z" />
<glyph unicode="A" d="M43 121q4 0 9 5t5 9q2 2 1 14.5t-1 14.5q2 4 7.5 9t7.5 5v133q4 0 9 5.5t7 9.5q4 6 9 22.5t5 20.5t-7 15t-7 13v9v8l6 6l8 8q0 2 2 13.5t4.5 25.5t4.5 27.5t4 21.5v29q2 4 7 21.5t7 21.5q2 8 7 30.5t7 28.5q2 8 8.5 40t13.5 69t14 69.5t9 40.5q0 4 6.5 21.5t8.5 21.5 q0 2 2 13.5t4 23.5t4 23.5t4 13.5q0 2 5 11.5t9.5 18.5t9.5 18t5 11q2 8 2 29v43.5v44t-2 29.5q4 4 14 15t14 14h5q2 0 2 1t2 1l4 -2h4l14 -15h6h9q4 0 19 3t31.5 5t32 4.5t19.5 2.5h22h21q4 0 15.5 -5.5t15.5 -9.5q2 -2 6 -14t8 -14q2 -2 14.5 -7.5t14.5 -7.5t7 -13t7 -16 q2 -4 6 -14l9 -22.5t9.5 -23.5t4.5 -13l8 -8q4 -4 8 -7q0 -4 -8 -22.5t-8 -22.5q4 -2 8 -6l8 -8q0 -2 5 -24.5t9 -32.5q4 -14 9.5 -42t5.5 -32t-1 -29.5t1 -29.5q0 -4 5 -19.5t9 -32t9 -32t5 -19.5q2 -6 4.5 -29.5t4.5 -50t4 -50t2 -30.5q0 -4 7 -22.5t7 -22.5v-23.5v-42 v-42v-23.5t8 -21.5t8 -21.5v-73q0 -4 2.5 -21.5t4.5 -38t5 -37t3 -20.5v-19.5t1 -29t1 -28.5v-17q-4 0 -22.5 2t-24.5 4q-2 0 -7.5 5t-7.5 9q-2 2 -6 12.5t-8 22.5t-8 22.5t-6 16.5v6v8q0 2 2 15.5t5 28t5 27.5t2 17v17v12q-2 2 -8 14.5t-6 14.5v13v23.5v22.5v14 q0 2 -7.5 14.5t-7.5 14.5q0 4 7.5 15.5t7.5 15.5v18q0 8 1 17.5t1 15.5q0 10 -1 28.5t-1 22.5t-7.5 21.5t-7.5 21.5q-2 6 -7 35t-7 39t-7 35.5t-9 53.5t-8.5 52.5t-6.5 32.5v16q0 8 -5 36t-9 36q-2 8 -7 26.5t-9 37t-8.5 34t-4.5 19.5q-2 4 -8 15t-6 15v15l-14 43 q-4 4 -9.5 15l-7.5 15q-4 6 -20.5 22.5t-22.5 21.5h-2q-2 0 -3 1t-3 1l-6 -2q-4 -2 -15.5 -7.5t-13.5 -7.5q-4 -4 -13 -12t-18.5 -17.5t-17.5 -18.5t-10 -11q-2 0 -7 -16.5t-7 -26.5q0 -2 -3.5 -11.5t-5.5 -18.5t-4 -18.5t-2 -11.5q-2 -2 -8 -14t-6 -14v-15q-2 -4 -8 -22.5 t-9 -22.5v-14q0 -4 -7 -21.5t-7 -21.5t1 -29.5t-1 -29.5q-4 -2 -8 -7q-4 -4 -4 -6l-2 -2q-2 -4 -1 -21.5t1 -21.5q-2 -4 -7 -22.5t-8 -22.5v-28q-2 -4 -7 -21.5t-7 -22.5v-30q0 -6 -2 -18.5t-5 -27t-5 -26.5t-2 -16l-15 -43l43 14q4 4 21.5 15.5t21.5 13.5t22.5 8t23.5 8 q2 0 14 6t14 8h15q4 0 17 5.5t27.5 9.5t27 9t16.5 5h28q4 2 15.5 8t15.5 6q8 2 38 4.5t38 2.5q0 -2 -1 -10.5t-3 -10.5q0 -2 -5.5 -7t-9.5 -7q-6 -4 -28.5 -15.5t-28.5 -13.5q-4 -2 -17.5 -6t-27.5 -9t-27.5 -9.5t-15.5 -6.5q-10 -4 -38 -14t-36 -14t-30.5 -14.5 t-26.5 -14.5q-6 -4 -23.5 -15.5t-21.5 -15.5l-15 17q-6 -4 -22 -21.5t-21 -23.5q-2 -2 -7 -24.5t-9 -33.5q-2 -10 -6 -35.5t-8 -53t-8.5 -53.5t-6.5 -34v-29q-2 -4 -7 -22t-7 -23v-43q-2 -4 -7 -29.5t-7 -29.5q-2 -6 -4 -20.5t-4.5 -27.5t-4.5 -25.5t-2 -14.5q0 -6 -1 -21.5 t-2 -33t-1 -31.5v-21q-2 0 -5 2.5t-5 2.5q-10 8 -27.5 24.5t-17.5 20.5v307zM102 4q-10 0 -10 -15.5t10 -15.5t10 15.5t-10 15.5zM102 326q-10 0 -10 -15.5t10 -15.5t10 15.5t-10 15.5zM569 1042q-10 0 -10 -15t10 -15t10 15t-10 15z" />
<glyph unicode="B" horiz-adv-x="833" d="M90 4q-4 0 -15.5 -7t-13.5 -9h-8h-8l-7 7t-7 9q0 18 1 57t1 88.5v102.5v102t-1 88t-1 58q0 14 -2 52t-4 80t-4.5 80t-4.5 52q4 0 9.5 5t5.5 9q0 6 -5.5 23.5t-9.5 21.5v291q0 4 5.5 15.5t9.5 15.5l14 14q2 0 7 1t9 1q2 0 3.5 -1t5.5 -1h6q2 -4 7 -20.5t7 -24.5 q0 -4 1 -33.5t1 -44.5q0 -10 -1 -29.5t-1 -23.5l-14 -14l14 -15q2 -4 7 -21.5t7 -23.5q2 4 7.5 15.5t7.5 15.5t3 21.5t1 21.5h31q0 4 -3.5 22.5t-3.5 22.5q2 4 14.5 26.5t16.5 30.5q2 4 14.5 15.5t14.5 13.5t8 13.5t13.5 23.5t13.5 23.5t8 13.5t13 7t18 7q14 8 41.5 19.5 t29.5 11.5h39h35q4 -2 15.5 -14.5t13.5 -16.5q4 0 16 -5t14 -9t7.5 -26.5t7.5 -31.5q0 -4 1 -31.5t1 -41.5t-1 -42t-1 -32q0 -6 -5.5 -34.5t-9.5 -39.5l-14 -28q-2 -2 -8 -7.5t-8 -7.5q-2 -4 -13.5 -21.5t-15.5 -21.5l-8 -8t-6 -8q-2 -4 -2 -6v-8q0 -2 1 -7.5t1 -7.5 q6 -2 23.5 -10t35.5 -17.5t34.5 -17.5t22.5 -12t29 -21.5t31 -23.5q4 -4 14 -14.5t21.5 -21.5t21.5 -22.5t14 -15.5t15.5 -21.5t15.5 -21.5q0 -2 6 -7t9 -7v-15q0 -4 5 -14t9 -22.5t9 -23.5t5 -13t1 -30t1 -42t-1 -42t-1 -32q0 -6 -4 -21.5t-9 -34.5t-9 -36.5t-6 -25.5 q-4 -8 -14.5 -31t-14.5 -27q-2 -4 -14.5 -8t-16.5 -6q-2 -4 -7 -15.5t-7 -15.5l-29 -29q-4 -2 -14 -8t-22.5 -13t-24 -13.5t-13.5 -8.5t-7 -8t-7 -6q-4 -2 -21.5 -8t-21.5 -8q-2 0 -8 -7.5t-8 -7.5q-4 0 -16.5 -4t-29 -9t-33 -9t-24.5 -6h-14q-4 0 -16.5 -2t-26.5 -5.5 t-27.5 -5.5t-17.5 -2h-6h-8q-10 2 -38 7.5t-34 7.5q-10 2 -26.5 7t-18.5 7q-4 4 -14.5 22.5t-14.5 22.5zM102 412v-50t1 -64t1 -57.5v-31.5q0 -18 2.5 -48t5.5 -58.5t5 -48.5l2 -21l45 -45q12 -2 22 -2h35h22.5t28 1t24.5 1h13t14.5 7t14.5 9h14q10 4 33 12.5t46.5 17.5 t43 17t25.5 10l43 29q6 6 18 17.5t23.5 23.5t20.5 21.5t11 11.5q4 6 13.5 23.5t18.5 36t17.5 34.5t10.5 23v45v57q0 4 -6 31.5t-11 42.5q-2 10 -7 32.5t-7 26.5q0 2 -5 13.5t-9 15.5q-4 8 -15.5 24.5t-13.5 18.5l-88 88q-2 2 -13.5 7t-15.5 7q-4 4 -21.5 8t-23.5 7 q-8 4 -30.5 9t-26.5 7h-8h-6l-17 -16q-10 -6 -31.5 -17.5t-25.5 -11.5q-6 -2 -23.5 4t-21.5 10q-2 2 -2 6v9q0 4 1 9t1 7q2 2 11 8t18.5 13.5t18.5 13.5t11 8q8 6 30.5 28.5t29.5 30.5q0 2 6 13.5t8 15.5q2 2 8 11t14.5 18.5t14.5 17.5t6 10q2 4 7 20.5t7 24.5q4 10 9.5 39 t5.5 35v10q0 4 1 9.5t1 9.5t-1 15t-1 13q0 6 -5.5 29t-9.5 31q0 4 -5 14t-9 15l-14 14l-29 14q-6 0 -23.5 -5t-21.5 -9q-2 -2 -10.5 -9.5t-17.5 -16.5t-17 -18t-12 -14q-4 -4 -15.5 -22t-15.5 -23q0 -2 -6 -7t-8 -7q-2 -4 -8.5 -23.5t-13.5 -42t-13 -42t-8 -23.5l-15 -14 q-4 -4 -9 -15.5t-5 -15.5q-4 -8 -9 -36t-8 -36v-17v-27.5v-28v-15.5q0 -4 -5 -9t-9 -5v-119l-14 -14l14 -15l-29 -28v-17.5t-1 -37t-1 -43v-35.5zM76 823q-10 0 -10 -15t10 -15t10 15t-10 15zM119 866q-10 0 -10 -14t10 -14t10 14t-10 14zM104 881q-10 0 -10 -14.5t10 -14.5 t10 14.5t-10 14.5zM90 895q-10 0 -10 -14.5t10 -14.5t10 14.5t-10 14.5z" />
<glyph unicode="C" horiz-adv-x="755" d="M0 500q0 8 1 22.5t1 16.5t2 15t5 28.5t5 28t2 16.5v43q0 4 3.5 17t5.5 27.5t4 27t2 16.5v14q2 4 8 22.5t6 22.5q2 4 7 28.5t9 28.5q0 4 13.5 8.5t15.5 6.5q2 4 6 17.5t4 19.5q10 0 19 8q2 2 7 13t7 16q2 4 8 22.5t6 22.5q2 6 7.5 15t10.5 18.5t9 16.5l4 7q4 4 18.5 -4 t18.5 -8q0 4 -5 20.5t-3 20.5t13 15t16 15h14q6 2 17.5 6.5t13.5 8.5v14q0 4 5 9t9 5q2 0 10 1t12 1q2 0 5.5 -1t7.5 -1h8q4 -2 9 -7t5 -7q2 4 7.5 14.5t9.5 14.5q2 4 7 9t7 5h8q4 0 7 1t8 1q2 0 5 -1t7 -1h8q4 0 8 -13.5t6 -15.5q4 -2 9 -2h12q4 0 13 1t11 1l29 15v-6 q0 -4 1 -5.5t1 -3.5t-1 -4t-1 -4v-6l-14 -29q4 2 21.5 2t21.5 -2q2 -2 7 -13t7 -17v-15q4 -2 15.5 -6t15.5 -8q2 -2 6 -14.5t8 -14.5q2 -4 14.5 -8t14.5 -6q2 -4 0 -15.5t0 -15.5l6 -6l8 -8v-12q0 -4 1 -9.5t1 -9.5t-1 -8t-1 -8v-10q0 -2 -11 -7.5t-18 -7.5q-2 -2 -4 -2h-4 h-4q-2 0 -2 2q-4 2 -9 13.5t-5 15.5q-2 2 -8.5 7t-6.5 7q-4 4 -15 30t-15 30q-2 2 -14.5 13t-14.5 15q-2 2 0 14.5t0 14.5q0 4 -5 8t-9 6q-10 6 -33 17.5l-27 13.5q-4 0 -28.5 -1t-28.5 1q-4 0 -9 5t-5 9q-4 -6 -14.5 -16t-21.5 -22.5t-22.5 -22.5t-15.5 -12t-22.5 -7.5 t-22.5 -7.5q-2 -2 -6 -14t-8 -14q-2 -4 -14.5 -8.5t-14.5 -8.5l-5 -10t-3 -10q-2 0 -6 -8q-4 -4 -9.5 -21.5t-5.5 -21.5q-4 -4 -9 -15.5t-5 -15.5q-4 -2 -15.5 -13.5l-15.5 -15.5t-14 -26.5t-15 -30.5v-17q-2 -4 -7 -21t-7 -22q0 -4 -3 -16t-5 -27.5t-4 -29t-2 -15.5t-3 -13 t-5 -23.5t-4.5 -23.5t-2.5 -13t-1 -21.5t-1 -30.5q0 -10 1 -28.5t1 -22.5q0 -2 2.5 -11t4.5 -21.5t4 -22.5t4 -16q0 -4 6 -22.5t8 -23.5q2 -4 7 -28.5t7 -28.5q2 -8 7.5 -24.5t7.5 -20.5q2 0 8 -6t6 -8v-15q2 -4 7 -15t7 -13t9.5 -8.5t14.5 -14.5t13 -14t9 -8l14 -29 q6 -4 23.5 -12t36 -17.5t34.5 -18.5t23 -11q6 -4 28.5 -9.5t30.5 -5.5h72h59q2 0 16.5 7.5t33 16.5t38 19.5t29.5 16.5q4 2 21.5 13t23.5 15q0 2 6 8.5t8 6.5q2 2 9.5 3t9.5 1q0 -8 -1 -32t-3 -30l-7.5 -15l-7.5 -15l-15 -7.5t-16 -7.5q-2 -4 -6 -8t-6 -4l-2 -2 q-2 -2 -14.5 0t-14.5 0q-6 -2 -28.5 -13.5t-30.5 -15.5v15l-29 -29h-219l-14 14q-4 0 -14.5 4t-22.5 9.5t-23.5 9.5t-13.5 6l-28 29q-2 2 -11.5 6t-19.5 9t-18.5 9t-10.5 6t-6 20.5t-8 22.5q0 2 -6.5 11.5t-14.5 18.5t-14 18.5t-8 11.5q-4 4 -15.5 26.5t-15.5 30.5v14 q0 2 -2 11.5t-4 18.5t-5 18.5t-3 11.5v28q0 4 -5.5 19.5t-9.5 32t-9 32t-5 19.5q0 2 -1 14.5t-1 20.5zM500 27q-10 0 -10.5 -14.5t10.5 -14.5q10 0 10 14.5t-10 14.5z" />
<glyph unicode="D" horiz-adv-x="884" d="M41 1176q2 0 7 -28t9 -44v-60q0 -2 2 -11t4.5 -18t5.5 -17.5t3 -10.5q0 -4 -1 -29.5t1 -29.5q0 -4 7 -21.5t7 -21.5q2 -8 2 -31t-2 -29q4 2 15.5 13.5t13.5 15.5t7 26.5t7 32.5q0 4 2 19.5t5 32t5 32t2 19.5q0 2 7.5 7t9.5 7q0 4 6 21.5t8 21.5q4 12 15.5 34.5t13.5 25.5 q8 8 23.5 24.5t31.5 32.5l29.5 29.5t17.5 15.5l13 2q12 2 28 4t33.5 4t28.5 4h8h6q12 -4 32.5 -10t41 -13t37 -12.5t20.5 -7.5t15.5 -14t15.5 -16q2 0 14 -6.5t14 -8.5q6 -4 18.5 -16t27 -25.5t26.5 -27t16 -19.5q2 -2 7.5 -13t7.5 -16q0 -2 -1 -14t1 -14q2 -4 14 -15.5 t14 -13.5q2 -4 8.5 -15t6.5 -16q4 -4 15 -21t15 -22l15 -28q0 -4 -5 -10.5t-10 -6.5q2 0 7.5 -5t7.5 -9v-14q2 -2 8 -7.5t6 -7.5v-16v-27.5v-29v-15.5q0 -4 5 -9t9 -5l-28 -14l14 -15v-14q2 -2 7 -8t7 -8v-15q0 -4 3.5 -23.5t6.5 -42t4 -42t1 -23.5t-4 -19.5t-9.5 -31.5 t-10.5 -31.5t-5 -19.5q-2 -4 0 -21.5t0 -21.5q0 -4 -5 -15.5t-9 -15.5q-2 0 -8.5 -6t-6.5 -8q-4 -2 -8 -13.5t-6 -15.5t-7 -22.5t-9 -22.5q-2 -4 -13.5 -19.5t-25.5 -34t-27.5 -37t-19.5 -26.5q-4 -4 -15.5 -15t-15.5 -13q-2 -2 -13.5 -7.5t-15.5 -7.5h-14l-14 -14 q-6 -4 -23.5 -15.5t-21.5 -15.5l-58 -29q-2 0 -10 -1t-12 -1t-12.5 1t-10.5 1l-6 7l-8 8q-4 2 -21.5 1t-21.5 -1q-6 2 -28.5 7l-31.5 7l-14 7t-14 10l14 14q6 -2 20.5 -3t31 -1t30.5 1t21 3q2 0 12 3t24.5 8t28.5 9t23 9q2 2 14 7t14 7h15l14 14q4 2 22.5 7.5t22.5 7.5 t12 11t17.5 18t17.5 17.5t10 12.5q2 2 9.5 14.5t16.5 28.5t18.5 32.5t15.5 26.5t17 33t11 27q2 6 7.5 21.5t10.5 31.5t9 30.5t4 18.5v33v39q0 4 -3 19.5t-5 31.5t-5 31.5t-3 19.5v13.5v23.5v22.5v14.5q0 2 -7.5 14.5t-7.5 14.5q0 4 1 29.5t-1 29.5q0 2 -6 14.5t-8 14.5v28 q-2 4 -7 15.5t-7 15.5t-7.5 26.5t-7.5 30.5v15l-8 8t-6 8q-4 4 0 14l-20.5 20.5l-31 31t-30.5 31t-20 20.5q-4 2 -14.5 10t-21.5 17.5t-22.5 17.5t-15.5 12q-2 2 -13.5 7.5t-15.5 7.5q-16 6 -43.5 17t-29.5 13h-23h-20q-8 -6 -25.5 -21.5t-36 -33.5t-35 -35.5t-22.5 -25.5 q-4 -6 -14.5 -27t-21.5 -44.5t-21.5 -45t-14.5 -31.5q0 -2 -1 -12t-1 -15v-18q0 -6 2 -12q0 -2 6 -8.5t8 -8.5v-2q0 -2 2 -4q0 -2 -1 -2t-1 -2v-4q-2 0 -8 -6t-6 -8q-2 -2 -8 -14.5t-6 -14.5q-2 -4 -7.5 -9t-9.5 -5l31 -45q-4 0 -9 -5.5t-5 -9.5q-2 -4 -2 -6v-6q0 -4 1 -9 t1 -7q0 -4 6 -22.5t8 -22.5v-7v-8q-2 -4 -8 -21.5t-6 -21.5t-1 -33.5t-1 -46.5q0 -16 1 -46.5t1 -35.5q0 -4 6 -21t8 -22v-8v-6q-2 -4 -8 -22.5t-6 -22.5v-14v-15q0 -4 6 -21.5t8 -21.5v-24v-21l-14 -14q0 -8 2 -29.5t5 -44t5 -43t2 -28.5v-39v-35q-2 -6 -7 -28.5l-7 -31.5 h-8h-9l-28 15q-2 2 -7.5 7t-7.5 9q-4 4 -9 14.5t-5 14.5v23.5v42v42v23.5q0 25 -2 74t-5 100t-5 93t-2 54q0 2 -2 13.5t-5.5 24t-5.5 22.5t-2 14v43q-2 6 -6 27.5t-9 46t-10 46t-5 28.5v49v83v82v48q0 2 -2 13t-4.5 23.5t-5.5 23.5t-3 13v46q0 2 -2 12t-5 22.5t-5 23.5 t-2 13q0 4 -1 8.5t-1 6.5h45zM86 811q-10 0 -10 -14.5t10 -14.5t10 14.5t-10 14.5z" />
<glyph unicode="E" horiz-adv-x="720" d="M57 162q0 2 5.5 7t9.5 7l-15 14l15 15q-4 2 -9.5 7t-5.5 7q-2 2 -4 25.5t-4 51.5t-4 51.5t-4 27.5q0 2 -13.5 7t-15.5 7q-2 6 -7 26.5t-5 26.5q4 0 15.5 1t11.5 6q6 4 16 21t14 22q0 4 -1 22t1 23q0 2 5.5 7t9.5 7q-4 0 -9.5 5t-5.5 9q0 2 -1 15.5t-1 21.5t1 21.5t1 15.5 q0 4 5.5 9t9.5 5l-15 15l6 14v88l9 14l-15 15l15 14l-15 14v103l15 16l-21.5 21.5t-23.5 21.5q-2 2 -14.5 7t-14.5 8q-2 2 -2 6v8v8q0 2 2 6q0 2 7 8.5t7 8.5q2 4 0 21t0 22q0 2 5.5 7t9.5 7t16 7t14 7q2 4 2 15.5t-2 15.5q4 0 14.5 -6t14.5 -10q2 -2 6 -10.5t9 -17.5 t9.5 -17.5t4.5 -12.5h190l29 15q4 0 15 -1t16 1l6 6l8 8q4 2 28.5 1t28.5 -1q8 2 36 7t38 7q2 2 14.5 8.5t14.5 6.5h14q10 4 31.5 8t27.5 8q2 0 14.5 7t14.5 7q4 -2 15.5 -13t15.5 -17q2 -4 5 -18.5t3 -18.5q-10 0 -41 -2t-41 -4q-2 0 -8 -6.5t-6 -8.5q-4 -4 -15.5 -9 t-15.5 -5h-10h-17.5h-18.5h-11q-4 -2 -16.5 -6t-27 -8.5t-26.5 -9.5t-18 -7q-2 0 -7.5 -6t-7.5 -8h-8h-6l-14 14q-4 0 -15.5 -6t-15.5 -8l-43 -14h-15q-4 -2 -15 -8.5t-15 -6.5t-16.5 2t-27 4t-27.5 5.5t-15 3.5h-10h-7q-4 -2 -9 -7.5t-5 -7.5q0 -4 1 -21.5t-1 -21.5 q0 -2 -7 -8t-7 -8q-2 -4 -2 -6v-9v-8q0 -4 2 -6q0 -2 7 -7t7 -7v-16.5v-28v-28.5v-15q0 -4 5 -9.5t9 -5.5l-28 -14q4 0 9 -5t5 -9q0 -2 1 -15.5t1 -21.5t-1 -21.5t-1 -15.5q0 -4 -5 -9t-9 -5q4 -2 9 -7.5t5 -7.5q2 -4 7 -26.5t7 -32.5v-6v-8q0 -4 -5 -14.5t-9 -14.5 q0 -4 -5 -9t-9 -5q4 -2 9 -7.5t5 -9.5v-14q8 -6 24.5 -17.5t20.5 -11.5q2 0 12.5 4t22.5 10.5t23.5 10.5t13.5 4q4 2 16 3t17 1q0 -4 -1.5 -16.5t-1.5 -16.5q-2 -4 -7 -15t-7 -13q-4 -4 -15 -9.5t-16 -5.5q-4 -2 -21 -1t-22 1q-2 0 -8 -7t-6 -9q-8 -2 -30.5 -7t-28.5 -8 l14 -14v-184l-14 -15q4 -2 9 -7t5 -7q2 -4 1 -22.5t-1 -22.5q4 -14 9 -42t5 -30q2 -4 18.5 -9t26.5 -5q2 0 10.5 -1t12.5 -1h12q4 0 8 2l2 2q2 0 7 4q4 4 6 8q4 0 19.5 2t31.5 4.5t31.5 4.5t19.5 4q4 0 15.5 6t15.5 8h29q2 2 14 7t14 7q4 0 15.5 -1t15.5 1t20.5 10.5 t37 18.5t38 19.5t21.5 11.5h14q4 0 21.5 5t21.5 9q4 2 15.5 7t15.5 7v-22v-21l-7.5 -15t-9.5 -15h-14q-4 -2 -16.5 -7.5t-25.5 -12.5t-26.5 -14t-19.5 -9q-4 -4 -21.5 -15.5t-21.5 -13.5h-14q-4 -2 -29 -7t-54.5 -12.5t-60 -14.5t-47.5 -11q-4 -2 -29.5 -7t-29.5 -7h-6h-9 q0 2 -6 8t-8 6q-4 0 -15.5 -5t-13.5 -9h15q-2 4 -13.5 8t-15.5 6h-14h-22.5h-24h-13.5q-4 4 -15 20.5t-13 24.5v10v17.5v18.5v11q0 4 -7.5 22.5t-7.5 22.5v7v8zM72 403q-10 0 -10.5 -14t10.5 -14q10 0 10 14t-10 14zM27 434q-10 0 -10.5 -15.5t10.5 -15.5q10 0 10 15.5 t-10 15.5zM469 555q0 -4 -1 -10t-1 -8l-15.5 -31t-15.5 -29q-2 -4 -7 -9t-7 -5h-11.5h-18.5h-17h-10q-4 0 -15.5 -7t-15.5 -7q-4 -2 -22.5 -3.5t-24.5 -1.5q0 2 2 8.5t2 10.5l14 29q2 4 7 8t7 6q8 6 24.5 17.5t21.5 13.5h28q2 0 14.5 7t14.5 7q6 0 23.5 2t23.5 2z" />
<glyph unicode="F" horiz-adv-x="702" d="M78 193l14 16l-14 14v275q4 2 9 7t5 7t1 7t1 9q-2 0 -2 2v5v6q0 4 -13 8t-16 8q-2 0 -2 2v4v4q0 2 2 4q2 6 13.5 29t15.5 29q2 4 7 9t7 5l-7 7t-7 9q0 4 -5 37t-9 49v11v6q4 4 14 9t14 5l-14 15v301q0 2 -5 7t-9 7h-6q-4 0 -5 1t-4 1q-2 0 -7 -1t-7 -1q-4 -2 -15 -8 t-14 -6q-2 0 -10 -1t-12 -1t-12.5 1t-10.5 1l-14 14q0 2 -1 10t-1 12t1 12.5t1 10.5l14 14q14 0 52.5 -1t80.5 -1t78.5 1t53.5 1q4 0 20 2t36.5 4.5t38 5.5t21.5 3h29q4 0 21.5 2t38 5t37 5t20.5 2q6 0 20.5 1t31.5 1h31.5h18.5q0 -4 -5 -22.5t-9 -22.5q-2 -4 -20.5 -9 t-22.5 -7q-4 0 -15.5 -7.5t-15.5 -7.5q-2 0 -13 7.5t-16 7.5q-4 0 -15 -5.5t-13 -9.5h-279l-28 -14q4 0 9 -5t5 -9q0 -2 1 -15.5t1 -21.5t-1 -21.5t-1 -15.5q0 -4 -5 -9t-9 -5l14 -15l-14 -14q4 0 9 -5t5 -9v-17q0 -18 1 -39.5t1 -40v-22.5q0 -8 -1 -21.5t-1 -15.5t-7 -7 t-7 -7q-2 -4 -2 -7v-8v-8q0 -4 2 -6q0 -2 7 -8t7 -9v-14q0 -6 1 -11t1 -9t-1 -10.5t-1 -12.5v-14l-8 -8l-6 -7q-2 -2 -2 -6v-10v-8q0 -4 2 -6q2 -4 7 -9.5t7 -5.5t18.5 -1t26.5 -1q8 0 24.5 1t18.5 1t13.5 5.5t23.5 9.5t22.5 9t14.5 5h14q0 2 6 8l8 8q2 0 11.5 2.5t18.5 5.5 t17.5 5t10.5 2q4 0 15 6t15 8q6 4 22.5 9t20.5 5t22.5 -1t22.5 1q2 0 13.5 6.5t15.5 8.5t16.5 3t16.5 1q0 -4 -1 -16.5t-3 -16.5l-15 -29q-2 -4 -7 -9l-7 -7q-10 -4 -37.5 -12t-57.5 -17.5t-57.5 -17.5t-37.5 -10h-14.5h-22.5h-23.5h-13.5q-4 0 -14.5 -5.5t-14.5 -9.5v15 q-4 -6 -21.5 -23.5l-21.5 -21.5q-4 0 -15 -6.5t-15 -8.5q-8 -4 -22.5 -15t-14.5 -13v-158l-6 -14q0 -4 -1 -25.5t-1 -30.5v-18t1 -24.5t1 -22.5v-12q0 -4 6 -21.5t8 -21.5v-9v-6q-2 -10 -7 -37.5t-7 -36.5l14 -14v-8v-6q-2 -8 -7 -24.5t-7 -20.5h-9h-6q-8 6 -24.5 23.5 t-20.5 21.5q0 4 1 21.5t-1 21.5q0 4 -5 9t-9 5v103zM106 688q-10 0 -10 -14.5t10 -14.5q12 0 12 14.5t-12 14.5z" />
<glyph unicode="G" horiz-adv-x="884" d="M246 45q-4 -4 -15.5 -9t-15.5 -7h-6h-8q-4 2 -21.5 8t-21.5 8q-4 0 -17.5 1t-17.5 1q0 4 -3 13.5t-7 13.5q-2 4 -20.5 14t-22.5 14q-4 2 -8.5 13.5t-6.5 15.5q0 2 -3 11.5t-5 18.5l-4 18t-2 11q-2 2 -6 12.5t-8 23t-9.5 22.5t-7.5 16q0 2 -7 14.5t-7 14.5q-2 4 -1 21.5 t1 21.5q0 2 -3 15.5t-5 28.5t-4 27.5t-2 14.5t2 11t5 18.5t5 17.5t2 10v29.5v51.5v51.5v29.5q0 4 2 18.5t4 31t4 31.5t4 21q2 4 8.5 21.5t6.5 21.5q0 2 6 20.5t12 40t11 40t7 20.5q6 14 18.5 42t26 55.5t25.5 50t16 28.5t16.5 19.5t26 27t26.5 25.5t20 16q4 -2 15 -2t15 2 q2 0 19.5 5.5t37 12.5t37 13t19.5 8l164 -24q8 0 30.5 -11.5t28.5 -19.5l4 -7t8 -16.5t9.5 -18.5t7.5 -15q2 -4 3 -10.5t1 -8.5q-4 0 -16.5 1t-16.5 3q-4 0 -14 5.5t-15 9.5q-4 2 -22.5 14t-22.5 14q-10 6 -32.5 17.5t-24.5 11.5q-4 0 -22.5 -6t-22.5 -8q-4 0 -21.5 1 t-21.5 -1l-8 -8l-6 -7q-4 -2 -15.5 0t-15.5 0t-14.5 -14t-14.5 -14t-22.5 0t-20.5 0t-7 -10.5t-9 -18.5t-8 -19.5t-6 -11.5q-4 -6 -14.5 -22.5t-14.5 -20.5q-2 -2 -11.5 -10t-18.5 -18.5t-18 -19.5t-12 -11q-2 -2 -7 -24.5t-10 -49t-10 -49t-7 -27.5q0 -4 -13.5 -14 t-15.5 -14t0 -21.5t0 -21.5l-8 -8l-6 -7v-14v-22.5v-23.5v-13q0 -4 -3.5 -14.5t-5.5 -22.5t-4 -23.5t-2 -13.5q-2 -12 -4 -30.5l-4 -37t-4 -33t-2 -16.5q0 -4 4 -25.5t9 -46t9.5 -46t6.5 -25.5v-14l14 -29q2 -2 7 -8t7 -9q2 -2 6.5 -13t8.5 -23.5t8 -22.5t6 -12 q2 -4 11 -12.5t21.5 -17.5t24 -17.5t17.5 -12.5q4 -2 22.5 -7t22.5 -7l14 -14q8 -2 32.5 -3t33.5 -1q12 0 37.5 1t27.5 3q2 0 11.5 7t19.5 14t18.5 14.5t10.5 7.5q4 4 21 8t22 6q2 2 11 11.5t19.5 18.5t18.5 18t10 11t13.5 7.5t15.5 7.5q4 4 15 22.5t13 22.5q4 2 16.5 13 t12.5 16q4 4 9 21t7 22q0 2 2 13t5.5 23.5t5.5 22.5t2 12q2 2 14 13.5t14 15.5q2 2 7.5 14.5t7.5 14.5l14 14q2 6 9 18.5t14.5 26.5t13.5 26.5t8 16.5v14q0 2 5 8.5t10.5 13.5t9.5 14t4 9q-2 10 -18.5 32t-24.5 26h-17q-8 0 -16 1t-12 1q-10 0 -32 -1t-26 -1t-14 -2 t-22.5 -4t-23.5 -5.5t-13 -3.5q-8 0 -41 -5t-70 -9t-68.5 -9t-40.5 -5q-4 -2 -22 -8.5t-23 -6.5h-8h-6q-4 4 -15.5 21.5t-13.5 21.5l29 15q4 4 22.5 16t22.5 14h10.5h17.5h18h12q2 0 8 6.5t6 8.5q4 2 20.5 6t24.5 8h14q4 0 21.5 3t37 5t37 4t21.5 2q8 0 29.5 1t44 2.5 t43 1.5h28.5v-19q8 -2 31 -7t29 -7l43 -15q2 -2 7 -13t9 -17v-6v-9q-2 -8 -4 -21t-5 -27.5t-5 -26t-2 -13.5t-5 -13t-10 -15q0 -2 -6 -7.5t-8 -7.5q-2 -6 -11 -33.5t-18.5 -59.5t-17.5 -60.5t-10 -34.5q-2 0 -8.5 -6t-8.5 -8t-8 -13.5t-13 -24t-13.5 -22.5t-8.5 -12 q-2 -4 -15 -8t-13 -9q-4 -2 -12.5 -14t-18.5 -27.5t-18.5 -28.5t-10.5 -16q-2 -4 -7 -9l-7 -7q-2 0 -14.5 -6t-14.5 -8q-4 -2 -12 -10.5t-17.5 -17.5t-18.5 -17.5t-11 -12.5l-14 15q-4 -6 -21.5 -23.5l-21.5 -21.5t-15.5 -9.5t-15.5 -5.5t-9 5.5t-5 9.5l-15 -15h-29 q-2 0 -11 -2t-18 -5t-18.5 -5t-11.5 -2t-14.5 7t-14.5 7q-4 2 -14 3t-14 1v27zM332 45q-10 0 -10 -15.5t10 -15.5q12 0 12 15.5t-12 15.5zM801 567q-10 0 -10 -14t10 -14t10 14t-10 14zM221 1069q-10 0 -10 -15.5t10 -15.5t10 15.5t-10 15.5z" />
<glyph unicode="H" horiz-adv-x="788" d="M635 311v43v67t1 66.5t1 42.5h-21l-12 -12h-14q-4 0 -21.5 -2t-37 -4t-37 -5t-21.5 -3h-14q-2 0 -14.5 2t-25.5 5t-25 5l-11 2q-4 -4 -15.5 -14t-15.5 -15q-2 -2 -6 -2h-12q-4 0 -13.5 1t-11.5 1q-4 0 -19.5 3.5t-31.5 5.5t-31.5 4t-19.5 2q-6 0 -19.5 1t-27.5 1 q-16 -14 -29 -2h-4q0 -6 -1 -16.5t-1 -12.5q0 -4 3 -17.5t5 -27.5t4 -27.5t2 -15.5v-45q0 -4 3 -16.5t5.5 -26.5t4.5 -27.5t2 -17.5v-43l16 -131v-14q-2 -4 -8 -10.5t-8 -6.5q-6 2 -13 6q-4 4 -9 5t-7 6l-14 14l-15 57v31q0 2 -3 10t-5 17.5t-4 18.5t-2 11v27.5v46.5v46.5 v27.5q0 2 -7 13t-7 15v29l-17 45q-2 4 -6 14.5t-8 14.5q0 2 -6 7t-8 7q-2 0 -5.5 1t-7.5 1h-10q0 8 3 28.5t5 29.5q2 4 15.5 14t13.5 14q4 6 9 16.5t10 22.5t8.5 21.5t3.5 13.5t-3.5 30.5t-6.5 57.5t-5 58.5t-2 31.5v262q0 4 6 15.5t11 15.5q4 2 17 6t17 4v-55q0 -12 -2 -43 t-3 -66.5t-1 -66.5v-43q0 -4 2 -28.5t5 -53.5t5.5 -53.5t2.5 -28.5q0 -6 1 -25.5t1 -40t-1 -40t-1 -25.5q2 -4 13 -15.5t15 -15.5q18 8 31 4h8q8 0 24.5 -1t18.5 -1l60 -14l14 20h164q0 2 5 5.5t9 3.5h13.5h23.5h22.5h14.5l6 6l8 8h17q6 0 14 1t12 1t11.5 -1t15.5 -1 q2 12 4 39.5t0 44.5q0 4 -3 31.5t-5 58.5t-4 57.5t-2 30.5q0 14 -1.5 54t-1.5 85t1.5 84t1.5 56q-4 0 -9.5 5t-5.5 9q0 6 5 23.5t10 21.5q2 4 13 9t15 5q4 -8 15.5 -30.5t13.5 -28.5v-14l14 -15l-6 -14v-88l-22 -29q4 -2 9 -7t5 -9q4 -4 9 -21.5t5 -21.5v-16.5v-28v-28.5 v-15q0 -4 6.5 -9.5t10.5 -5.5q-2 -6 -4.5 -32.5t-5.5 -57t-5 -56.5t-2 -32v-29q0 -4 3 -17t6.5 -27.5t5.5 -28t2 -15.5v-133q0 -2 -2 -10t-5.5 -17.5t-6.5 -18.5t-3 -11q0 -4 1 -29.5t-1 -29.5q0 -2 -7 -14.5t-7 -14.5q0 -4 2 -19.5t4 -34l4 -37t4 -26.5q2 -4 9.5 -22.5 t7.5 -22.5q0 -6 2 -31.5t2 -31.5q-6 0 -25.5 2t-23.5 4l-15 14zM590 592q10 0 10 -14.5t-10 -14.5t-10 14.5t10 14.5zM664 1030q-10 0 -10.5 -14.5t10.5 -14.5q10 0 10 14.5t-10 14.5zM678 573q-10 0 -10 -14t10 -14t10 14t-10 14zM604 563q-10 0 -10 -14t10 -14h2v28h-2z " />
<glyph unicode="I" horiz-adv-x="346" d="M123 530v596q-4 4 -10.5 14.5t-8.5 14.5t-2 11.5v9.5q4 0 15.5 -2.5t15.5 -2.5q4 -2 9 -7t5 -9q2 -6 4.5 -22.5t5.5 -35t5 -36t2 -23.5q0 -18 1 -66t3 -111.5t3 -134.5t3 -134.5t3 -111.5t1 -66q2 -2 7 -7.5t8 -9.5q2 -4 7 -25.5t7 -31.5v-8v-6q-2 -8 -13.5 -31 t-15.5 -29h29q2 0 7 -22.5t7 -34.5v-8v-8q-2 -6 -7 -22.5t-7 -20.5l-14 -15q4 -4 15 -14t13 -15v-4q0 -2 2 -4q0 -2 -1 -4t-1 -4q-4 -6 -26.5 -23.5t-30.5 -19.5q-4 -2 -16.5 -5t-16.5 -3v418z" />
<glyph unicode="J" horiz-adv-x="368" d="M248 301v25.5t1 38t1 38v23.5v32.5t-1 40t-1 35v17.5q0 4 -2 17.5t-4 29.5t-4 31.5t-5 23.5q-2 4 -7 21.5t-7 21.5v15q0 2 -3 11t-5 18.5t-4 18.5t-2 11v14q0 2 -3 15.5t-5 29t-4.5 27.5t-2.5 16q0 2 2.5 11.5t5.5 18.5t5 17.5t2 10.5t-7.5 8t-7.5 8v15l-7 7t-9 7v102 q4 2 9 7.5t7 7.5q0 4 2.5 26.5t2.5 26.5q14 0 24 -10q4 -4 15.5 -20.5t13.5 -22.5q0 -2 1 -14.5t1 -18.5q0 -8 -1 -23.5t-1 -17.5t-7.5 -14.5t-7.5 -14.5t6.5 -7t8.5 -7v-4q0 -2 2 -4l-2 -6q-2 -4 -7 -9.5t-8 -5.5l15 -16l-15 -15q2 0 7.5 -5t7.5 -9q2 -2 8 -13t6 -16 q2 -4 8 -21t6 -24q4 -10 10.5 -32.5t6.5 -24.5v-74q0 -4 2 -16t4 -26.5t5 -28t3 -17.5q0 -6 2 -21.5t5 -31.5t5.5 -30.5t2.5 -18.5v-8v-6q-2 -2 -8.5 -7.5t-6.5 -7.5q-2 -4 -1 -29.5t1 -29.5q0 -8 -2 -26.5t-5 -40t-5 -40t-2 -24.5q-4 -2 -9 -7.5t-8 -7.5q0 -4 -2 -14 t-4 -22.5t-4 -23.5t-4 -13q-2 -4 -11 -17.5t-20.5 -30t-22.5 -32t-18 -23.5l-12 -12t-17 -17.5t-18.5 -17.5t-11.5 -10q-4 -2 -15.5 -7t-24.5 -12.5t-27.5 -14.5t-20.5 -11q-2 0 -17.5 -1t-17.5 -1q0 6 7.5 30.5t13.5 30.5q2 2 12 6t22.5 9.5t23.5 9.5t15 4q6 4 22.5 14 t20.5 15q2 2 10.5 12t17.5 22.5t18.5 22.5t13.5 16l14 29q2 6 6 18.5t8.5 26.5t8.5 26.5t6 16.5z" />
<glyph unicode="K" horiz-adv-x="696" d="M14 168q0 2 2 4q2 4 15.5 8t13.5 8q2 4 -6 21.5t-8 21.5v39v35l6 6l8 8q0 4 -6 21.5t-8 21.5v31q0 4 -6.5 21.5t-8.5 21.5q0 4 1 21.5t-1 21.5q0 2 -6 8.5t-8 8.5q-2 0 -2 2v4v4q0 2 2 4q2 0 7 6t7 8q4 4 9.5 15.5t5.5 13.5v14v15q0 4 -6.5 22.5t-8.5 22.5v6v8q2 2 8.5 7 t6.5 7v7q0 2 1 4t1 4t-1 3t-1 5v6q0 4 -7.5 22.5t-7.5 22.5q0 2 -1 21.5t-1 29.5q0 4 1 24.5t1 26.5q4 0 9.5 5.5t5.5 9.5t-7.5 21.5t-7.5 21.5q0 2 -1 16.5t-1 22.5q0 6 1 19.5t1 15.5l2 2q0 2 5 6q4 4 8 6q0 2 1 15.5t1 21.5t-1 21.5t-1 15.5t-7.5 7t-7.5 7t-1 12t-1 17 q0 4 1 16t1 14l7.5 22.5t7.5 20.5h2q2 0 3 1t3 1l4 -2h2q6 -4 16.5 -14t14.5 -14v-29q0 -4 7 -15.5t7 -15.5v-20.5v-37v-37.5v-21q0 -2 2 -13.5t4 -24t5 -23.5t3 -13v-6v-9q-2 -4 -8 -21t-6 -22q0 -4 5 -9t9 -5l-14 -14l14 -17v-188q6 4 22.5 20.5t20.5 22.5q2 2 8.5 14.5 t8.5 14.5q4 4 20.5 21.5t22.5 23.5q2 2 11 8t18.5 13t18.5 13.5t11 8.5l29 28q2 4 14.5 22.5t14.5 22.5q4 4 21 21.5t24 21.5q4 4 21.5 15.5t21.5 15.5t15 14.5t13 14.5q6 8 23.5 35.5t21.5 38.5q4 -4 15 0q2 0 7 5t7 9q2 2 7 14.5t7 14.5q4 4 14.5 9t14.5 5t10 -5t6 -9 q0 6 5.5 22.5t9.5 20.5q2 4 13 15l15 15h9h6l28 -14v-88q0 -4 -11 -9t-17 -5q-4 -2 -21.5 -1t-21.5 1q-2 -2 -9.5 -8.5t-14.5 -14.5t-13 -14l-8 -8t-14.5 -7.5t-14.5 -7.5t0 -7t0 -7t-10 -11.5t-18.5 -18.5t-19.5 -18t-11 -12q-2 -4 -13.5 -21t-15.5 -22q-4 -4 -21.5 -15 t-21.5 -13q-4 -4 -9 -8t-5 -9q-2 -2 -8.5 -13t-8.5 -15q0 -2 -6 -7.5t-8 -7.5q0 -2 -5 -15t-9 -13q-4 -4 -21.5 -9.5t-21.5 -5.5q-2 -2 -7.5 -7t-7.5 -9q-4 -4 -15 -20.5l-15 -22.5q0 -2 -5.5 -14.5t-9.5 -14.5q-2 -2 -11 -9t-18.5 -14t-17.5 -13.5t-10 -8.5 q-6 -4 -16.5 -12t-19.5 -17.5t-16.5 -17.5t-7.5 -10q-2 -4 -2 -6v-8q0 -4 1 -9.5t1 -7.5q2 -2 13.5 -18.5t15.5 -24.5q2 -2 8 -7t6 -7q4 -2 15.5 -8t15.5 -6q4 -4 21.5 -22.5t21.5 -23.5q4 -2 22.5 -14t22.5 -14q0 -2 6.5 -7t8.5 -8q4 -2 21 -8t22 -6q8 -4 30.5 -15 t28.5 -16l14 -14h15q4 0 14 -5t14 -9q2 -2 8.5 -7.5t6.5 -7.5q4 -2 15 -7t15 -7q0 -2 6.5 -8t8.5 -6q8 -6 35.5 -23.5t37.5 -21.5v-6v-9q-2 -4 -7 -9t-9 -5q-4 -2 -8 -2h-12q-4 0 -12.5 1t-10.5 1q-8 4 -29.5 14.5t-44 21.5t-43 22.5t-28.5 15.5q-2 0 -8.5 6t-8.5 8l-28 14 q-2 0 -7.5 -1t-7.5 1t-14 15.5t-14 13.5q-4 2 -21.5 11.5t-38 18.5t-37 17t-20.5 12q-4 2 -15.5 14.5t-15.5 14.5q-4 4 -14 9t-15 5l-14 -57h19v-18.5t-1.5 -26.5t-2.5 -26.5t-1 -16.5q-2 -6 -7 -23.5t-7 -21.5h16v-28.5t-2 -28.5t-7 -29t-7 -31q-2 -2 -8 -14t-6 -14 q0 -6 5 -29t9 -31h-8h-6q-4 4 -15.5 21.5t-15.5 23.5q0 2 -5 24.5t-9 33.5q-2 12 -7.5 40.5t-7.5 32.5q0 2 -1 8.5t-1 8.5v8zM90 158q-10 0 -10 -14.5t10 -14.5t10 14.5t-10 14.5z" />
<glyph unicode="L" horiz-adv-x="667" d="M344 27q-2 0 -16.5 -2t-30.5 -5.5t-29.5 -5.5t-15.5 -2q-4 -2 -8 -2h-13q-4 0 -12 1t-10 1q-4 0 -21.5 2t-37 5.5t-36 5.5t-20.5 2q-4 2 -15 7t-13 7q-4 4 -14.5 26.5t-14.5 32.5q-2 2 -1 14.5t1 14.5t-7 7t-10 7q-4 6 -9 23.5t-5 21.5l6 7l8 8q0 2 -7 14t-7 14t7 7.5 t7 7.5t-2 11t-5 18.5t-5 18.5t-2 11q0 4 7 21.5t7 21.5t1.5 32t1.5 42q0 10 -1.5 37.5t-1.5 36.5q2 4 0 22.5t-5 40t-3 37.5t8 16v453q0 4 11.5 8t19.5 6h6q2 0 4 1t5 1q2 0 3 -1t5 -1h6q4 0 14 -5t15 -9l-29 -29q-4 -72 -6 -137q-4 -57 -5 -115.5t-3 -99.5v-14l14 -103 q-4 -4 -9 -21.5t-5 -21.5v-293l14 -28q0 -4 4 -19.5t9 -32t9 -32t7 -19.5q0 -2 9 -4l18 -4l18 -4l10 -2q10 -6 32.5 -17.5t26.5 -13.5h21h22q2 0 15.5 2t31 5.5t30.5 5.5t15 2q6 0 20.5 1t31 1t31 -1t20.5 -1q0 4 5 9t9 7t22.5 6t39 9t38 8.5t19.5 5.5q4 2 19.5 3t19.5 1 q0 -6 -3 -31t-5 -33q-2 -4 -13.5 -15t-17.5 -13q-4 -2 -27.5 -6.5t-51.5 -8.5t-52.5 -8t-32.5 -6q-4 -2 -8 -2h-12q-4 0 -12.5 1t-10.5 1t-7 7t-7 7q-4 2 -14.5 3t-14.5 1v11zM416 41q-10 0 -10 -14.5t10 -14.5t10 14.5t-10 14.5z" />
<glyph unicode="M" horiz-adv-x="1359" d="M16 813q4 8 9.5 36t5.5 38v8v6q-2 8 -6.5 26.5t-8.5 40t-8 40t-6 24.5q2 4 7 15.5t7 15.5l15 14h6q2 0 4 1t4 1q4 0 9 -1t7 -1q4 -2 15.5 -7t13.5 -7q2 -4 0 -15.5t0 -15.5l14 -14q4 0 21.5 -6t21.5 -8t15.5 -7.5t15.5 -7.5l29 -28q2 -4 7 -15.5t7 -15.5q4 -2 15.5 -13.5 t13.5 -15.5q4 -4 15 -21.5t16 -21.5q0 -2 6 -8t8 -6q2 -4 8 -16.5t13.5 -26t13.5 -26.5t8 -19q2 -4 6 -14.5t9 -22.5t9.5 -23.5t6.5 -13.5q0 -2 7 -7t7 -7q0 -4 2 -14.5t5 -23t5 -23.5t2 -13l15 -29q2 -2 7 -8t7 -6q2 -4 6 -17.5t9 -27.5t9.5 -27.5t4.5 -15.5q2 -4 8 -15.5 t8 -13.5q0 -4 -1 -15t1 -16q2 -4 13.5 -9t15.5 -5l-15 -14q4 0 15.5 -5t13.5 -10q4 -10 0 -14l74 -147h16q0 6 -2 22.5t0 22.5q2 4 7 21.5t7 21.5q0 8 2.5 25.5t5.5 36t5 33.5t2 21q0 10 1 35t1 53.5t-1 53t-1 35.5q4 4 9 14t5 14q2 4 4 21.5t4 38t4 37t2 20.5q2 8 7.5 30.5 t9.5 28.5q0 2 7 14.5t7 14.5q0 4 -7 22.5t-7 22.5v6v8q0 2 7 7.5t7 7.5q0 4 -1 29.5t1 29.5l6 6l9 9v15v27.5v27.5v18l14 14q2 4 7 21.5t7 21.5q4 8 14.5 30.5t14.5 28.5q4 4 8 8.5t8 6.5q6 2 16.5 5t22.5 5t21.5 3t11.5 1q4 0 20.5 -11.5t24.5 -17.5q4 -4 15.5 -15 t13.5 -15q2 0 1 -6.5t-1 -8.5q2 0 7 -6t7 -8q4 -6 15.5 -24.5t22.5 -40t21.5 -40t14.5 -26.5q-4 -4 -4 -14.5t4 -14.5q2 -4 14 -15t14 -16q2 -2 8.5 -14t6.5 -14q2 -2 8 -7.5t6 -7.5q6 -10 17.5 -32.5t13.5 -26.5q2 -6 -3 -32.5t-5 -32.5q4 0 11 5t11 3q2 -4 7 -20.5 t7 -24.5v-15l15 -14v-14q2 -4 7 -9.5t7 -5.5l-14 -14q4 -2 9 -7t5 -9q6 -8 17.5 -31l13.5 -27v-45q0 -6 2 -16t4 -22.5t4 -21.5t4 -11q0 -2 6 -9q4 -4 9 -6q2 -4 1 -22.5t-1 -22.5q2 -4 7 -21.5t7 -21.5q2 -8 7 -35.5l7 -38.5v-14q2 -4 8.5 -19.5t13.5 -32t14 -31.5t9 -19 t6 -21.5t9 -23.5q4 -10 9 -32t5 -26q2 -6 2 -30.5v-30.5q-4 0 -15.5 1t-15.5 1q-4 2 -15 7t-15 7l-9.5 9.5t-5.5 7.5q-2 2 -1 13t1 15q-2 2 -7 14.5t-7 14.5q0 4 1 15.5t-1 13.5q0 6 -7 25.5t-14.5 41t-14.5 41t-7 25.5q-2 2 -1 14t1 14q-2 2 -8 14.5t-9 14.5q-2 8 -7 30.5 t-7 28.5q0 4 1 21.5t-1 21.5q0 2 -4 11.5t-9 18.5t-10.5 18.5t-5.5 11.5v14q0 2 -4 15.5t-9 30t-9 32.5t-6 25q-2 4 -8.5 21t-6.5 22v30q-4 2 -8 6q-8 8 -8 9q0 4 1 21.5t-1 21.5q0 2 -6 8t-8 6v16q-2 4 -14.5 21.5t-14.5 21.5q-4 8 -15.5 30t-22.5 44.5t-21.5 43 t-14.5 28.5q2 4 2 15t-2 16l-14 14v14l-14 29q-2 2 -7.5 8t-7.5 6q-2 4 -8 15.5t-6 15.5q-4 4 -14.5 14t-21.5 21.5t-22.5 21.5t-15.5 15q-2 0 -7 -5.5t-7 -9.5q-4 -4 -9 -14t-5 -14q-4 -8 -9.5 -22.5t-10.5 -29t-8 -24.5t-3 -12q0 -4 8 -21.5t8 -21.5q-2 -4 -15 -15.5 t-15 -15.5t-6.5 -25.5t-8.5 -32.5v-28q0 -4 -2 -16.5t-5 -27t-5 -26.5t-2 -18q-2 -4 -7 -30t-7 -30q0 -6 -3.5 -27.5t-5.5 -46t-4 -45t-2 -26.5q0 -4 -3 -21.5t-5 -38t-4 -37t-2 -20.5v-39v-35q0 -4 2 -14t4 -22.5t5 -23.5t3 -13v-6v-9q-4 -4 -15 -29.5t-16 -29.5 q-4 -8 -9 -24.5t-5 -18.5t7 -7t7 -7q0 -4 -5 -20.5t-9 -24.5q0 -4 -5 -9.5t-9 -5.5h-29h-29q-4 0 -9 5t-7 10q0 4 -6 22.5t-8 22.5q0 2 -6.5 7t-8.5 7t-7 13.5t-7 15.5t-7 22.5t-7 22.5q-2 0 -8.5 6t-6.5 8q-4 2 -8 13.5t-6 15.5t-8 22.5t-8 22.5l-15 14q0 4 -6 21.5 t-8 21.5t-7 15.5t-7 13.5t-8.5 8t-6.5 8q-2 4 0 21.5t0 21.5q0 2 -7 7t-7 8q-4 4 -10 16t-12.5 26.5t-13.5 26.5t-9 19q0 4 -6 21t-8 22q-2 2 -7.5 8t-7.5 8q-2 4 -7 21.5t-7 21.5q-2 2 -8 7t-6 7q-4 6 -16.5 33t-28 55.5t-27.5 55t-16 32.5l-29 29q-4 4 -15.5 22.5 t-15.5 22.5h-6h-8q-2 -4 -13.5 -19.5t-15.5 -25.5q-4 -4 -9 -15.5t-5 -13.5v-8v-6q0 -4 2 -17.5t4 -27.5t5 -27.5t3 -15.5v-45q0 -6 2 -27.5t5 -46t5 -45t2 -26.5v-31v-29q0 -2 -3 -13t-5 -23.5t-4 -22.5t-2 -12q0 -4 7 -22.5t7 -23.5q2 -4 1 -28.5t-1 -28.5t3.5 -14 t5.5 -22.5t4 -24t2 -13.5v-23.5v-42v-42v-23.5t7 -15t7 -15q0 -2 1 -30t1 -42q0 -10 -1 -38t-1 -36l-29 15q-10 6 -26.5 23t-16.5 22q-2 2 -2 10v17t1 18.5t1 11.5l-8 8q-4 4 -8 6v74q0 4 -2 23.5t-4 42t-5 42t-3 23.5v13.5v23.5v22.5v14.5t-5.5 15t-9.5 13v410z" />
<glyph unicode="N" horiz-adv-x="985" d="M16 55q0 8 -1 31t-1 29q0 10 1 32.5t1 24.5q0 4 2 17.5t5.5 27.5t5.5 26.5t2 16.5v88q0 6 3 27.5t5 46t4 46t2 28.5v24v19q0 2 -5 7t-9 7l14 14v353l-14 43v8v6q4 4 15 21.5t15 23.5q4 4 14.5 15.5t14.5 13.5q2 0 12.5 1t14.5 1t9 -1t9 -1h12q4 0 9.5 -5.5t7.5 -9.5 q0 -2 -1 -8t1 -6q2 -4 13 -8t16 -6q2 -2 1 -8.5t-1 -8.5l14 -28l29 -29q4 -4 15 -22.5t15 -22.5l6 -6l9 -9q0 -2 -1 -14t1 -14q2 -4 20 -22.5t23 -20.5q2 -4 8 -15.5t6 -15.5q2 -2 11 -10t19.5 -18.5l18.5 -18.5l10 -10q2 -4 7.5 -22.5t7.5 -22.5q2 -2 14 -6.5t14 -8.5 q2 -2 1 -7t-1 -7l15 -29l8 -8t8 -6q2 -4 13.5 -22.5t15.5 -22.5t22.5 -21.5t20.5 -21.5q4 -4 15 -29.5t15 -29.5q2 -4 10.5 -16.5t17.5 -27t17.5 -26.5t12.5 -19q2 -2 9 -11t16.5 -21.5t18.5 -22.5t15 -16q2 -4 7 -9.5t8 -7.5q2 0 14 -5t14 -9q4 -4 7 -22.5t8 -20.5 q6 -4 23 5t22 9v15q0 6 2 16t4 22.5t4 21.5t4 13q2 2 8 14.5t6 14.5q0 6 1 23.5t1 36t-1 35t-1 22.5l15 14q4 10 9 31.5t5 28.5q0 2 -2 11t-5 18.5t-5 18.5t-2 11l6 6l8 8q2 4 1 29t-1 29t7 22.5t7 22.5v12v22.5v23.5v13q0 4 3 21.5t6.5 38t5.5 38t2 21.5q0 14 1 53t1 83 t1 83t1 54q4 0 18.5 -3.5t20.5 -7.5q2 -2 7 -13t7 -15v-15q2 -4 8 -22.5t6 -22.5t1 -26.5t1 -32.5t-1 -25.5t-1 -17.5l-14 -14q0 -10 1 -37t1 -57.5t-1 -58.5t-1 -38q0 -4 -6 -21.5t-8 -21.5v-14q0 -4 -3 -14.5t-5.5 -22.5t-4.5 -23.5t-2 -13.5v-19.5v-32v-31.5v-19 t-2 -14.5t-5 -23t-5 -23.5t-2 -13v-57l-8 -9l-6 -6q-2 -4 -1 -22.5t1 -22.5q-2 -4 -8.5 -23.5t-14.5 -42t-14 -42t-8 -23.5t0 -15.5t0 -13.5q0 -2 -6.5 -8t-8.5 -8q-2 -4 -13 -21.5t-15 -21.5q0 -2 -2 -2h-7h-4q-2 0 -2 2q-8 4 -30.5 14.5t-28.5 14.5q2 2 2 8t-2 6 q-2 4 -14.5 8t-14.5 8q-4 4 -15 21.5t-16 21.5q-2 2 -13 14.5t-15 14.5q-2 4 -7.5 15.5t-7.5 15.5l-43 57q-4 4 -15 15.5t-15 13.5q0 2 -6.5 11t-12.5 21.5t-13 23.5t-11 18q-2 4 -8.5 15t-6.5 13q-4 4 -12 14.5t-17.5 21.5t-17.5 22.5t-12 15.5t-21.5 22.5t-21.5 22.5 q-2 2 -8 10t-14.5 17.5t-14.5 18.5t-8 11t-8 8.5t-14.5 13.5t-14.5 14t-6 9q-4 4 -8 21.5t-6 21.5q-4 4 -16.5 21.5t-28 37t-28.5 37t-15 21.5t-8.5 15.5t-6.5 13.5q-2 4 -7 9l-7 7q-4 2 -15.5 7.5t-15.5 7.5q-2 -2 -6 -2q-2 -2 -6 -3h-2v-245q-4 0 -9.5 -5.5t-5.5 -9.5v-16 v-26.5v-28v-17.5t-3 -20.5t-5 -37t-4 -37.5t-2 -21v-34v-60.5v-60.5v-36q0 -6 -2 -27.5t-5 -46t-5 -45t-2 -26.5t-1 -21.5t-2 -32t-1 -32v-21.5q-6 0 -11 4q-6 4 -23.5 21.5zM61 172q-12 0 -12 -14.5t12 -14.5q10 0 10 14.5t-10 14.5zM807 203q-10 0 -10 -15.5t10 -15.5 t10 15.5t-10 15.5zM119 963q-10 0 -10 -14.5t10 -14.5t10 14.5t-10 14.5zM119 991q-10 0 -10 -14t10 -14t10 14t-10 14z" />
<glyph unicode="O" horiz-adv-x="1144" d="M37 705q4 2 9 7t5 9q2 2 1 13t-1 16q0 2 7.5 7t7.5 7q4 2 8 13t8 16q0 4 5 22.5t9 22.5q0 2 6.5 10t14.5 18.5t14 18.5t8 10q2 4 8.5 15.5t6.5 15.5q2 0 8 6t6 8q4 4 15.5 21.5t15.5 21.5q0 2 6 1t8 -1q2 2 7 8t7 6q2 2 7.5 3t9.5 6q6 2 12 6q4 0 9 -5.5t5 -9.5 q0 6 6.5 23.5t10.5 21.5q2 2 10 10.5t17.5 18.5t18.5 18.5t11 10.5q4 4 14.5 22.5t14.5 22.5q2 0 13 5t17 9q4 2 21.5 7t21.5 8q2 2 8.5 7t6.5 7q8 4 30.5 15t28.5 14q6 2 19.5 7t27 9t25.5 8t16 6h21h22q6 -2 18.5 -6t27 -8t26.5 -9t16 -7q-2 0 -7 -5.5t-7 -9.5t-2 -21.5 t2 -21.5q-4 4 -21.5 15.5t-23.5 13.5h-10q-4 0 -9.5 1t-7.5 1q-6 0 -17 -1t-13 -1q-4 -2 -9.5 -6t-5.5 -8l117 -44l29 15q-4 -10 0 -15q4 -4 14 -15t14 -15q4 -2 13.5 -4t13.5 -2l4 -9q2 -4 13.5 -14t15.5 -14t21.5 -15.5t21.5 -13.5l30 -31q2 0 11.5 -4t18.5 -9t17.5 -9 t10.5 -6q4 -2 15 -20.5t16 -22.5q0 -2 6 -8.5t8 -8.5q4 -8 14 -28.5t21.5 -43t21.5 -44t15 -29.5q4 -6 10 -22.5t6 -20.5q0 -10 1 -32.5t1 -48.5t1 -49.5t1 -31.5h-35q0 -6 -5 -28.5t-9 -30.5t-10.5 -24.5t-13.5 -33t-12 -30t-7 -15.5t-10.5 -10t-18.5 -18.5t-19 -18.5 t-12 -10q-2 -4 -7 -15.5t-7 -13.5t-7 -8t-7 -8t-8.5 -13.5t-6.5 -15.5l-26.5 -26.5l-40 -40t-39.5 -40t-27 -24.5q-4 4 -14 0q-4 -4 -25.5 -20.5t-31.5 -24.5q-2 0 -8.5 -6t-6.5 -8q-4 0 -15 -6.5t-15 -8.5t-21.5 -7t-21.5 -7q-6 -2 -18.5 -8t-27 -13.5t-26.5 -13.5l-16 -8 q-2 4 -13.5 9t-15.5 5q-2 0 -11.5 -2t-18.5 -5t-18 -5t-12 -2q-2 0 -7 7t-7 7h-43q-12 2 -34.5 6.5t-45 8.5t-42 8t-25.5 6q-4 2 -21.5 14.5t-21.5 14.5t-15.5 8t-15.5 6q0 2 -6 8l-8 8l-16 20q-17 21 -37.5 46t-37 45.5t-16.5 22.5l-5 17q-5 17 -11 38.5t-11 38.5l-6 18v16 v35.5t1 34.5l1 17q-6 12 -9 29.5t-4 35t0 29.5l1 12zM66 428q2 -6 6 -23.5t8 -36t9 -35t7 -22.5q0 -2 6.5 -8t8.5 -8t7 -13.5t7 -15.5t7 -21.5t7 -21.5t13.5 -20.5t15.5 -24.5q4 -2 9 -7l7 -7q2 0 10.5 -5t17.5 -9.5t18.5 -9.5t11.5 -5q2 -4 21.5 -16.5t23.5 -12.5 q2 -2 15 -7t27.5 -9t27 -8t16.5 -6q4 0 9 -5t7 -10q6 2 20.5 4.5t31 4.5t30.5 4t21 2h14q10 2 29.5 7t38 9t33 8t16.5 6l15 7.5t22.5 12.5t21.5 13t14 11q6 4 18.5 16t26 26.5t25.5 26.5t16 19h17l28 14q2 2 11.5 11t18.5 18.5t17.5 18.5t10.5 11h16l72 146q-2 4 -2 14t2 14 t14 15.5t17 15.5q0 2 5 13.5t9 15.5q0 4 6 21.5t8 21.5l15 14q0 2 1 15.5t1 21.5q0 6 -1 20.5t-1 16.5t-2.5 12t-4.5 22.5t-4 22.5t-4 17q-4 6 -8 22t-6 21l-14 14q-4 4 -15.5 22.5t-15.5 22.5t-14.5 15.5t-21.5 22.5l-21.5 21.5l-14.5 14.5q-4 2 -22.5 13t-22.5 15l-74 74 q-4 4 -20.5 14.5t-22.5 14.5t-20 11t-27.5 13t-26 12.5t-14.5 6.5h-6q-4 0 -5 1t-3 1t-7 -1t-7 -1q-4 0 -15.5 -6.5t-13.5 -8.5q-4 0 -15.5 1t-15.5 -1l-14 -14l-6 -2h-4q-2 0 -4 2t-13.5 15.5t-15.5 13.5h-6q-4 0 -5 1t-3 1q-4 0 -9.5 -1t-7.5 -1l-14 -15q-4 -2 -28.5 -7 t-29.5 -7l-14 -14q-2 -4 -7 -15.5t-9 -13.5q-2 -4 -13.5 -9t-15.5 -7q-2 0 -7 -6.5t-7 -8.5l-29 -14q-2 0 -8 1t-6 -1q-4 -2 -8.5 -14.5t-8.5 -14.5q-2 -4 -13 -9t-15 -5l14 -14q2 -4 -14.5 -25.5t-28.5 -34.5q-4 -2 -15.5 -7t-13.5 -7q-2 -4 -8 -14.5t-8 -14.5v-16 q-2 -4 -10 -20.5t-17.5 -37t-18.5 -38t-11 -21.5q-4 -4 -9.5 -21.5t-5.5 -21.5v-29q-2 -4 -8 -15t-6 -15q-2 -4 -4 -17.5t-5 -30t-5 -31.5t-2 -24v-30v-27zM578 1145q-6 2 -6.5 -8.5t6.5 -6.5q8 2 8 6.5t-8 8.5zM520 1159q-10 0 -10 -14.5t10 -14.5t10 14.5t-10 14.5z" />
<glyph unicode="P" horiz-adv-x="823" d="M45 696q-2 6 -4 18.5t-4 27t-4 26.5t-2 16v279q-4 0 -9.5 5t-5.5 9t-1 17.5t-2 29t-2 28.5t-1 19q8 0 33 -3t33 -3q4 -2 9 -7t5 -7t1 -15.5t1 -21.5t-1 -21.5t-1 -15.5q0 -4 -7 -22.5t-7 -22.5q-2 -8 -2 -16v-25q0 -10 1 -26.5t1 -18.5q0 -4 2 -14t5 -22.5t5 -24t2 -13.5 q0 -6 1 -18t1 -26.5t-1 -27t-1 -16.5q4 2 15.5 13.5t13.5 15.5t0 29.5t0 29.5t14 15.5t14 13.5t6.5 11.5t9.5 19.5l9 18t6 11q4 4 16.5 16t25.5 26.5t26.5 26.5t19.5 19q4 2 14.5 9t21.5 14t21.5 12.5t14.5 7.5q4 0 16.5 2t25.5 5t26.5 5t19.5 2q4 0 26.5 1t32.5 1 q6 0 15.5 -1t19.5 -1h23q4 0 20.5 -5t24.5 -9l15 -7.5t13 -7.5t7.5 -8t7.5 -6q4 -2 15 -1t13 1q4 -4 15.5 -22.5t15.5 -22.5l72 -72q4 -4 9 -15t7 -16v-43q0 -4 6.5 -22.5t8.5 -22.5v-6v-8q-4 -10 -8.5 -37.5t-6.5 -34.5q-2 -4 -6 -17t-8 -29.5t-9 -32t-7 -23.5 q-2 -10 -7.5 -26.5t-7.5 -18.5t-7 -2t-7 2q-6 -10 -28.5 -38t-31.5 -36l-12 -12t-17 -17.5t-17.5 -17.5t-10.5 -10t-9 -7t-16.5 -12.5t-18.5 -14.5t-15 -11q-8 -4 -24.5 -15.5t-18.5 -13.5q-8 -4 -36 -15.5t-38 -13.5q-4 -4 -32.5 -9t-41.5 -5h-14h-14q-8 0 -22.5 2t-29 5 t-24.5 5t-12 2q-4 2 -14.5 13.5t-14.5 15.5q-4 8 -4 14h194l13 7q12 8 28.5 17t33.5 19.5t28 16.5q6 4 19 13t26.5 18.5t26 16.5t16.5 9l21.5 21.5t21.5 23.5q4 4 15 21.5t13 21.5q4 4 16.5 15.5t14.5 15.5t12.5 37t16.5 49q4 10 9 32.5t5 26.5q0 2 1 13.5t1 15.5 q0 6 -1 17.5t-1 13.5q-2 8 -7 30.5t-7 26.5t-13.5 21.5t-15.5 23.5q-4 4 -14 14.5t-21.5 21.5t-22.5 21.5t-16 14.5q-4 4 -21 15t-22 16q-6 4 -23.5 9t-21.5 5h-49h-53q-10 -2 -39 -7t-35 -7q-4 -4 -25.5 -20.5t-31.5 -24.5q-4 -4 -15.5 -14.5t-22.5 -22t-21.5 -22.5 t-14.5 -15t-15 -21.5t-13 -21.5q-4 -6 -10.5 -24.5t-13.5 -39t-13 -40t-9 -27.5v-15v-16q2 -2 8.5 -13.5t8.5 -15.5v-6v-8q0 -2 -3 -11t-6 -18.5t-5.5 -18.5t-2.5 -11v-113v-121q0 -2 2.5 -22.5t4.5 -48t5 -57.5t5 -48q0 -6 2 -28.5t4 -50.5t5 -51.5t3 -29.5v-16v-12 q-2 -4 -7 -9.5t-7 -7.5h-8h-9l-24.5 24.5t-18.5 20.5q0 2 -2 15.5t-5 30t-5 31.5t-2 26v57q0 6 -3 25.5t-5 41t-4 41t-2 25.5v57q-2 12 -4 35t-4 45.5t-4.5 42t-2.5 25.5q0 2 -7 14.5t-9 14.5v14q0 6 -2 18.5t-4 26.5t-4 26.5t-4 16.5zM90 696q-10 0 -10 -14t10 -14t10 14 t-10 14zM90 741q-10 0 -10 -15t10 -15t10 15t-10 15zM90 770q-10 0 -10 -14.5t10 -14.5t10 14.5t-10 14.5z" />
<glyph unicode="Q" horiz-adv-x="1009" d="M731 162q-6 -8 -28.5 -30.5t-30.5 -29.5q0 -2 -6.5 -1t-8.5 1l-28 -14v14l-29 -28q-4 -4 -15.5 -9.5t-15.5 -5.5h-28q-2 0 -7.5 -7t-7.5 -7t-10 -1t-12 -1t-12.5 1t-10.5 1t-7 5t-7 9q0 -4 -5 -9t-9 -5q-2 -2 -13.5 -8t-15.5 -8q-10 -4 -26.5 -9.5t-18.5 -5.5 q-4 2 -14.5 15.5t-14.5 15.5q-2 0 -14 -1t-14 1q-2 0 -11.5 4t-18.5 9t-18.5 10.5t-11.5 5.5q-4 2 -14 3t-15 1v10q-6 2 -18 7t-26.5 12.5t-26.5 13.5t-17 10q-4 4 -20 20.5t-23 24.5q-4 4 -14 16.5t-20.5 24.5t-19.5 22.5t-11 12.5q-4 8 -15.5 35.5t-13.5 38.5q4 0 9.5 5 t5.5 9t-7.5 15.5t-7.5 15.5q-2 23 -2 43v53q0 12 1 34.5t1 26.5t5 27t10 31q2 2 6 13t9 23.5l9 22.5t4 14q2 2 1 14.5t-1 14.5t7.5 8t9.5 6q2 4 7 30t7 30q4 10 14 32.5t15 26.5q0 2 7 8.5t14 13.5t14.5 13t7.5 8q2 2 1 14.5t-1 14.5t7 8t9 6q2 4 10 17.5t17.5 28t18.5 26.5 t11 16l15.5 15.5t13.5 15.5q2 2 8 13.5t8 15.5q4 4 14.5 15t14.5 13q2 2 7 2t7 -2q4 6 14.5 29t14.5 31q2 4 8 8t6 6q4 2 15.5 0t15.5 0q6 2 28.5 13.5t28.5 15.5v-15l15 -14q0 4 16.5 6t20.5 4q2 4 12 8.5t16 6.5h6h9q6 -2 17 -7.5t23.5 -9.5t21.5 -8t11 -4 q4 -4 15.5 -14.5t13.5 -14.5q0 -4 2 -17t5 -27.5t5 -28t2 -15.5q2 -4 13.5 -14t15.5 -14q2 -2 13.5 -9.5t23.5 -14.5t23.5 -13t13.5 -8q4 -4 15 -14.5t13 -14.5v-8v-6q4 -4 15.5 -8.5t15.5 -6.5q2 -4 6 -15t9 -16q2 -2 14 -6t14 -8q4 -4 9.5 -21.5t5.5 -21.5q6 -14 16 -41.5 t14 -32.5q0 -2 6.5 -7t8.5 -7q0 -2 2 -9t4 -15.5t5 -16.5t3 -10l14 -14q0 -6 1 -29t1 -29q0 -10 -1 -32.5t-1 -26.5q-2 -8 -7 -30.5t-7 -27.5l-10 -20t-11 -20q-2 0 -5 -8.5t-7 -17.5t-8 -17.5t-4 -10.5t-2 -11t-4 -18.5t-5 -18.5t-3 -11q-4 -10 -14.5 -31.5t-14.5 -25.5 q-2 -2 -10.5 -8.5t-18.5 -14.5t-19 -14t-12 -9v-12v-16q4 -4 15.5 -21.5t15.5 -21.5l-14 -15l7 -7t7 -9q10 -18 25.5 -47t29 -56.5t23.5 -48t10 -22.5v-51q-4 0 -15 3t-15 3l-14.5 14.5t-14.5 16.5q-4 4 -14.5 26.5t-14.5 30.5v14l-14 15q-4 8 -15.5 30.5t-15.5 28.5v14 q0 2 -6 8.5t-8 6.5q-4 4 -14.5 21.5t-14.5 23.5zM438 102q0 -4 5.5 -9t9.5 -5q2 0 13 5t15 9l8.5 8.5t8.5 6.5q4 2 21.5 1t21.5 -1q6 2 22.5 7t20.5 7q4 4 21.5 15.5t23.5 15.5l28 28q4 2 23.5 13.5t21.5 15.5q0 2 -6 25.5t-10 34.5q0 4 -5 14t-9 14q0 2 -6.5 8.5t-8.5 6.5 q0 2 1 8t-1 6q-2 2 -10 11t-17 18.5t-17.5 17.5t-12.5 12q-2 0 -9 11.5t-14.5 23.5t-13.5 23.5t-8 11.5l-15.5 15.5t-13.5 15.5q-2 0 -2 2v4q0 2 1 4t1 4q10 0 38 5t36 9l14 15l15 -15q2 -4 0 -15t0 -13q2 -4 13 -15.5t15 -15.5q4 0 16.5 -5t12.5 -9q2 -4 5 -18.5t5 -31 t4 -32t2 -17.5q4 4 15 0q4 -4 14 -21.5t14 -23.5q2 -2 2.5 -8t0.5 -8q4 0 7 1t5 1q6 2 17 7t11 7q2 4 13.5 26.5t17.5 33.5q2 4 9.5 21.5t16.5 36.5t17 36.5t10 21.5q2 2 5.5 13.5t6.5 26t5 25.5t2 13q0 4 -6 15.5t-8 15.5q0 2 -2.5 10t-4.5 17.5t-4 18.5t-4 11l-14 15 q-2 4 -1 18t1 18q-2 4 -7 21.5t-7 21.5q0 2 1 14.5t-1 14.5q0 2 -5.5 7t-9.5 7q-4 4 -22.5 15.5t-22.5 15.5q-2 2 -7 14.5t-7 14.5l-29 28q-4 4 -15 22.5t-14 23.5l-7 7t-9 7t-21.5 14.5t-21.5 14.5q-2 2 -7 8t-7 6q-4 2 -15.5 8t-13.5 6q-2 2 -8 9.5t-8 7.5t-13.5 -1 t-15.5 1t-15.5 13t-13.5 15q-4 0 -14 3t-22.5 7.5t-22.5 7.5t-12 3q-10 0 -29.5 -1t-22.5 -1q-2 0 -9 -4t-16 -9.5t-18.5 -9.5t-15.5 -6l-7 -7t-7 -9q-2 -2 -7.5 -13.5t-7.5 -15.5q-4 -6 -15 -20.5t-22.5 -31t-21.5 -30.5t-14 -20l-29 -29q-4 -6 -13.5 -25.5t-21.5 -42 t-22.5 -45t-16.5 -35.5q0 -2 -5 -13t-9 -23.5t-9 -22.5t-5 -12l-15 -15q-2 -4 -1 -29.5t1 -29.5q0 -2 -3 -11t-5 -18.5t-4 -18.5t-2 -11q-2 -20 -2 -39v-47v-25q0 -8 2 -16q0 -4 5 -15.5t9 -15.5l-28 -14l14 -15q4 -6 19.5 -27.5t34 -46t33.5 -46t21 -29.5q6 0 29 -5t29 -10 q4 -2 14 -15t14 -15h46q6 0 22 -2t34.5 -4t36 -4.5t23.5 -4.5zM23 645q10 0 10 -14.5t-10 -14.5t-10 14.5t10 14.5zM541 1094q2 -4 13 -9.5t15 -5.5t15.5 5.5t15.5 9.5q-6 10 -16 16h-15h-14l-7 -7t-7 -9z" />
<glyph unicode="R" horiz-adv-x="915" d="M57 416q-4 0 -10 5t-6 9q0 2 2 11.5t5 18.5l6 18t3 11v41v48q0 4 -3 20t-6 36.5t-5 38t-2 21.5v160q-2 4 -8 15.5t-6 15.5v12v22.5v23.5v13q0 4 -4.5 21.5t-9.5 38t-10 37t-5 20.5t-1 17.5t-2 28t-2 26.5t-1 16q6 0 25.5 -5t23.5 -9q4 -2 9 -18.5t7 -24.5v-14.5v-22.5 v-23.5v-13.5t6.5 -14t8.5 -15q2 -4 6 -26.5t8 -32.5v-14l14 -15v-116l15 -15q4 4 9 14.5t5 14.5q0 2 2 13.5t5 23.5t5 22.5t2 14.5q2 4 14.5 14t16.5 14q4 6 15.5 29t13.5 29q2 4 3 15t1 15h10q0 6 4 18.5t8 27t9.5 26.5t7.5 17q2 4 11 15t21.5 25.5t23.5 26.5t17 19 q8 8 21.5 20t27 23.5t24.5 20.5t16 9l8 1t18 2t20.5 1h16.5q14 0 40 -1t28 -3q2 0 11 -7t20.5 -16t23.5 -18.5t18 -15.5l24.5 -24.5t18.5 -20.5q4 -4 15.5 -25.5t15.5 -31.5q2 -4 7 -21.5l7 -24.5v-14l15 -43q2 -4 8 -15t6 -16v-16q0 -6 1 -13t1 -12q0 -8 -1 -25.5t-1 -21.5 t-2 -16t-5 -26.5t-5 -28t-2 -15.5q0 -4 1 -15t-1 -15q-4 -6 -12.5 -22.5t-17.5 -35t-17.5 -36t-12.5 -23.5q0 -2 -12 -14.5t-16 -14.5q-2 -4 -14.5 -22.5t-14.5 -22.5l-20.5 -20.5t-24.5 -22.5q-2 -2 -13.5 -11t-23.5 -18.5t-22.5 -18.5t-12.5 -11q-2 0 -8 -6.5t-6 -8.5 q-4 0 -15.5 -6t-15.5 -8l-28 -29l-15 15q0 -2 -1 -7.5t-1 -7.5v-8q0 -4 2 -6q2 -4 13.5 -9t15.5 -5h29l17 -8.5t27.5 -14.5t27 -14t16.5 -8q6 -2 20 -8.5t30.5 -13.5t31 -13t20.5 -8q4 -2 22.5 -8.5t22.5 -6.5q0 -2 6 -8l8 -8h15q2 0 7 -6t7 -8q6 -4 28.5 -14.5t30.5 -14.5 q4 -2 21.5 -7t21.5 -7q6 -4 17.5 -14.5t11.5 -14.5q4 -6 7 -26.5t3 -24.5q-6 0 -26.5 2t-26.5 4q-4 2 -21.5 14.5t-21.5 14.5q-6 4 -32.5 17t-56.5 27.5t-55.5 27t-31.5 16.5l-14 14q-4 4 -15.5 9t-15.5 7q-2 0 -13.5 -1t-15.5 1q-2 0 -11 4.5t-18.5 9.5t-17.5 9t-10 6 q-6 2 -23.5 7t-21.5 7q-2 0 -14.5 -1t-14.5 1q-2 0 -8 6.5t-6 8.5q-4 4 -15.5 9t-15.5 5t-16.5 2t-26.5 5t-27.5 5t-15.5 2q-4 2 -15 13.5t-16 17.5q0 4 -3 12.5t-3 12.5q4 0 24.5 1t26.5 3q2 0 13.5 5t15.5 9q2 2 7 8t7 6q10 6 32 16.5t28 14.5q2 0 14.5 -1t14.5 1 q6 2 28.5 18.5t30.5 24.5q6 4 20.5 18.5l31 31t30.5 31.5t20 22q6 6 17.5 20t23 27.5t20.5 25t11 15.5q2 2 4 11t4 18.5t4 17.5t2 10q2 4 9.5 22.5t7.5 22.5v43v45q0 2 -2 11.5t-4 20.5t-5.5 22.5t-5.5 17.5q-2 10 -7 32.5t-7 26.5q0 2 -4 11.5t-8 21.5t-9.5 23.5t-7.5 17.5 q-2 4 -7 15t-7 14q-4 4 -14.5 15t-21.5 22.5t-22.5 21.5t-15.5 14q-2 2 -13 7.5l-15 7.5h-7q-4 0 -5 1t-3 1t-4 -1t-4 -1h-6q-4 0 -15.5 -5.5t-15.5 -9.5q-8 -4 -24.5 -15t-18.5 -15q-6 -6 -19.5 -20.5t-26.5 -31t-25.5 -31t-16.5 -20.5q-2 -2 -7 -12t-12 -24.5t-14.5 -28 t-9.5 -21.5q-2 -6 -11 -27.5t-18.5 -46t-18.5 -46t-11 -27.5q0 -2 -5 -11.5t-9.5 -18.5t-9.5 -17.5t-5 -10.5q-2 -4 -7 -26.5t-7 -32.5q0 -4 -3 -16.5t-5 -26.5t-5.5 -26.5t-3.5 -18.5q-2 -12 -4 -30.5l-4 -37t-4 -33t-2 -16.5v-622q-4 0 -21.5 3t-21.5 5q-6 2 -17.5 13 t-11.5 15v484v0z" />
<glyph unicode="S" horiz-adv-x="890" d="M31 166q0 6 2 12q2 4 7 15.5t7 15.5q4 -2 9 -7t5 -9q4 -4 10.5 -14.5t6.5 -14.5v-11.5v-18.5v-17v-11q0 -4 11 -9t17 -7q4 0 16.5 -2t27 -5t26.5 -5t19 -2h43h45l71 14q4 2 15.5 8t15.5 8h14q4 2 22.5 4.5t39 5.5t39 6t22.5 5h15q4 2 22.5 14.5t22.5 14.5q2 2 13 8t15 6 q4 4 21.5 22.5t21.5 22.5q4 2 15.5 7t15.5 7q2 0 13.5 -1t15.5 1l28 29q2 2 9.5 16.5t16.5 33t16.5 33.5t7.5 17q0 18 2 33q0 12 1 22.5t1 12.5t-5.5 10t-10.5 17.5t-10 16.5l-5 7q0 2 -5 7t-9 8q-4 2 -21.5 -0.5t-21.5 0.5q-4 2 -9.5 7t-5.5 7h-221q-4 4 -14.5 9t-14.5 5 q-4 2 -16 4t-26.5 5t-27 5.5t-18.5 2.5q-4 0 -28.5 -1t-28.5 1q-4 0 -15.5 13t-15.5 15t-21.5 2t-21.5 -2l-73 74h-37q0 2 -2 6t-5 8q-4 4 -22 14.5t-23 14.5q0 2 1 14.5t-1 14.5q0 2 -6 8t-8 6q-4 8 -14 30.5t-15 28.5q4 0 9.5 5.5t5.5 9.5t-7.5 15t-7.5 13t-1 10.5 t-1 12.5t1 12t1 10l7.5 22.5t7.5 20.5t15 15.5t13 15.5q2 2 1 13.5t-1 15.5l7.5 15t9.5 14q4 4 17.5 -2.5t17.5 -6.5q0 4 -4.5 26.5t-2.5 27.5q0 2 5.5 6t9.5 8q4 2 16.5 8t26.5 13.5t26.5 13.5t18.5 8q-4 10 0 14q2 4 7 9.5t7 5.5q6 2 16.5 7t22.5 10t21.5 9t13.5 4 t28.5 -1t28.5 1q4 0 8.5 13.5t6.5 15.5h4q2 0 2 1t2 1l4 -2h4q0 -2 6 -8t8 -6t14.5 7t14.5 7t27.5 1t38.5 1q8 0 32.5 -1t32.5 -1q0 -2 6 -7t8 -7q4 -2 30 0t30 0q2 0 7 -7.5t7 -7.5q4 -4 29.5 -8t30.5 -6q4 -2 14 -8t21.5 -13.5t21.5 -14.5t14 -9q0 -2 1 -10.5t1 -12.5 q0 -2 -1 -5t-1 -7v-8q0 -4 -5 -15.5t-9 -15.5h-6h-8q-2 2 -7.5 8.5t-7.5 8.5h-14q2 8 -9.5 30.5t-19.5 26.5q-2 0 -12 2t-24.5 5t-29 5t-22.5 2h-45q-4 0 -20.5 3t-37 5t-38 4.5t-21.5 2.5t-15 -5.5t-13 -9.5v31q-2 -4 -7.5 -9t-7.5 -7q-4 -2 -21.5 -10.5t-38 -17.5 t-36.5 -18.5t-20 -11.5q-4 -4 -21.5 -14t-23.5 -14q-2 -2 -7.5 -8.5t-7.5 -8.5q-4 -2 -21.5 -13t-21.5 -15q-4 -2 -9 -14.5t-7 -14.5q0 -4 -5 -9t-9 -5q-6 -4 -29 -15.5t-29 -15.5q4 0 15.5 -5t13.5 -10v-2q0 -2 2 -4q0 -2 -1 -2t-1 -2v-4q0 -2 -5 -11t-10.5 -18.5 t-9.5 -17.5t-4 -10t-1 -13.5t-1 -17.5q0 -4 1 -15.5t1 -13.5t11.5 -18t17.5 -25q10 -12 26.5 -34.5t16.5 -24.5q4 -4 19.5 -12t31.5 -18.5t31.5 -18.5t19.5 -10q2 0 8.5 -7.5t8.5 -7.5q4 0 21.5 1t21.5 -1q2 0 14 -6t14 -8q4 0 15.5 1t15.5 -1l14 -14h15q2 0 15 -3.5 t27.5 -5.5t28 -4t17.5 -2h29.5h50h50h30.5q4 0 22 -7t23 -7h12h22.5h23.5h13t8.5 -7t8.5 -7q4 -4 22.5 -15.5t20.5 -15.5v-12q0 -4 1 -9.5t1 -9.5t2 -17.5t4 -28.5t4 -27l2 -13q0 -2 -5 -21.5t-11.5 -43t-12.5 -44t-8 -22.5q-4 -2 -15.5 -14.5t-13.5 -14.5t-7 -14t-9 -14 q0 -2 -6 -1t-8 1q0 -2 -6.5 -8.5t-8.5 -6.5q-4 -2 -13 -8t-21.5 -13t-22.5 -14.5t-16 -9.5q-2 0 -10.5 -5t-17.5 -9t-18.5 -9t-11.5 -5l-14 -15q-6 -4 -16.5 -9t-14.5 -5l-6 6l-8 8q-4 0 -14.5 -5t-14.5 -9q-2 -4 -4 -4t-2 -4l-14 14l-15 -29q-2 -2 -18 -8t-37.5 -13 t-43 -13.5t-34.5 -8.5q-4 -2 -33.5 -3t-46.5 -1q-10 0 -40.5 1t-38.5 3q-4 2 -15.5 7.5t-15.5 7.5h-29q-14 2 -41.5 7t-32.5 7l-14 29q-4 8 -9 24.5t-5 20.5q-2 4 -2 10v19v16zM809 311q-6 0 -10 -8t-5 -18.5t0 -18.5t7 -8t9 8t5 18.5t1 18.5t-7 8zM150 1004 q-10 0 -10.5 -14.5t10.5 -14.5q10 0 10 14.5t-10 14.5z" />
<glyph unicode="T" horiz-adv-x="878" d="M418 1165q4 -2 21.5 -8t21.5 -6t22.5 7t22.5 7h20.5h37h37.5h22q4 0 21.5 2t36.5 5.5t36.5 5.5t21.5 2h43q4 0 15.5 7t15.5 7h14q4 0 9.5 -5t5.5 -9q2 -8 4 -39t2 -39q-2 0 -10.5 1t-10.5 5q-4 4 -9 14.5t-5 14.5l-15.5 -15.5t-15.5 -13.5q0 -2 -2 -2h-4h-4q-2 0 -4 2 l-6 6l-8 8h-29q-6 0 -25.5 -3t-41 -5t-41 -4t-23.5 -2h-133q-2 0 -14.5 -5l-22.5 -9l8 -41v-1012q0 -4 -11 -14.5t-18 -14.5q-4 -4 -12 -6t-12 -2v99.5t-1 155.5t-1 183.5t-1 183.5t-2 154.5t-1 98.5q0 10 -2 34.5t-4 52t-4.5 52t-4.5 35.5h-47q0 4 4 24h-59l14 45l17 15 q4 4 14 9t14 5q4 2 21.5 1t21.5 -1l45 14h15zM199 1122q0 2 5 7.5t9 7.5l29 14q0 -2 1 -10t1 -13q0 -4 -1 -6t-1 -6v-8q0 -4 -5.5 -15.5t-9.5 -15.5q-2 -4 -7 -9t-7 -5q-4 0 -15.5 7t-13.5 7q-4 0 -15 -7t-15 -7q-6 0 -25.5 -1t-42.5 -2t-42 -2t-26 -1q0 4 1 17t4 18 q2 4 7 9l7 7q6 4 23.5 9t21.5 5h117zM711 1151q-10 0 -10.5 -14.5t10.5 -14.5q10 0 10 14.5t-10 14.5z" />
<glyph unicode="U" horiz-adv-x="901" d="M109 287l14 14q0 2 -5 13.5t-9 17.5q-2 0 -8.5 6t-6.5 8q-2 2 0 14.5t0 14.5q0 2 -7 7t-7 7q-2 4 -7 20.5t-7 24.5q-4 10 -10.5 32.5t-6.5 25.5q0 4 6 9t11 5q-4 0 -10.5 6t-6.5 8v60q0 6 -2 32.5t-4 55t-5 55.5t-3 33v14q0 2 -6 7t-9 7q-2 6 -7 29t-7 31q-2 6 -2 14v23 v20q0 8 2 14q0 4 7 15.5t7 15.5q0 2 -2 10.5t-4 17.5t-5 18t-3 12v8v6q2 4 7 29.5t7 29.5v15l15 14q4 4 15 9t16 5h2q2 0 2 1t2 1t3 -1t3 -1h2l29 -28q2 -2 -5.5 -14.5t-9.5 -14.5q-2 -6 -4 -20.5t-4 -28t-4 -25.5t-2 -14q0 -4 2 -21.5t5 -38t5 -37t2 -20.5q0 -6 -2 -25.5 t-5 -41t-5 -41t-2 -25.5v-6v-8q0 -4 2 -16.5t4 -27t5 -27.5t3 -17v-15q0 -2 5 -13t9.5 -23.5t9.5 -22.5t5 -12q2 -4 1 -15.5t-1 -15.5q2 -4 8 -21.5t6 -21.5q4 -10 9.5 -39t5.5 -35v-43q2 -4 15 -8t15 -6q2 -4 2 -15.5t-2 -15.5l20.5 -20.5l31 -31t31 -30.5t20.5 -20 q0 -2 5 -14.5t9 -14.5l10 -4t20.5 -9t20.5 -9l10 -3l-22 -47q-4 0 -15.5 2t-25.5 4t-26.5 4.5t-16.5 2.5q-2 2 -6 14t-8 16t-21.5 14.5t-21.5 14.5t-14.5 21.5t-14.5 21.5t-15.5 9t-15.5 7q-2 0 -7 5.5t-7 9.5l-14 28v9v6zM66 551q-12 0 -12.5 -15.5t12.5 -15.5 q10 0 10 15.5t-10 15.5zM748 111l-15 16q0 2 -1 19.5t-1 27.5q0 12 1 39t1 31q0 2 5 18.5t10 24.5q0 4 7 15t7 13v19.5t-2 28t-3 26.5t-1 19q-4 0 -18.5 7t-20.5 3q-2 0 -7 -12.5t-8 -16.5q0 -2 -6 -7t-8 -7q-2 -4 -7 -21.5t-7 -21.5q-2 -6 -7 -17.5t-8 -13.5q-2 0 -8 1 t-6 -1q-2 0 -13 -16.5t-18 -26.5q0 -4 -6 -15.5t-8 -13.5q0 -2 -6 -8l-8 -8q-2 -4 -13.5 -22.5t-15.5 -20.5t-22.5 -7t-22.5 -7q0 -2 -6 -8.5t-8 -6.5q-4 -4 -16.5 -10t-27 -13t-26.5 -13.5t-18 -8.5v15q0 -2 -5.5 -7.5t-9.5 -7.5q-4 0 -18.5 -2t-18.5 -2q0 4 3.5 24.5 t5.5 24.5l28 29q6 4 23.5 15.5t21.5 13.5t21.5 8t21.5 6q2 2 8.5 8t6.5 8q4 2 22.5 13.5t22.5 15.5q0 2 -1 14.5t1 14.5q2 4 20.5 22.5l22.5 22.5q2 2 8 12t13 22.5t14.5 23.5t9.5 13q0 2 6 8.5t8 6.5q0 4 5 15t9 16q4 4 14.5 9t14.5 5l-29 14l15 29q2 4 7 22.5t7 22.5 q2 2 8 14.5t6 14.5t3.5 11t5.5 18t4 18.5t2 11.5q2 2 8 13.5t8 15.5v28q0 4 7.5 15.5t7.5 13.5v147l14 15q0 2 1 17.5t1 25.5t-1 32.5t-1 26.5t-7 21.5t-7 21.5t7 15.5t7 15.5v16q0 6 1 14.5t1 12.5q0 8 -1 25.5t-1 19.5q0 4 -7 21.5t-7 21.5t-1.5 16.5t-2.5 26.5t-1 25.5 v15.5q4 0 23.5 -3t24.5 -7q6 -4 17 -21.5t11 -23.5v-834l-14 -14q0 -6 1 -20.5t1 -31t-1 -30.5t-1 -21q0 -2 -7 -14t-7 -14t6 -8q4 -4 8 -7q2 -6 5 -17t5 -23.5t3 -21.5t1 -11t-11 -18.5t-17 -26.5l-15 -15l29 -14l-29 -14q4 0 9.5 -5.5t5.5 -9.5q0 -6 1 -19.5t2 -27.5 t2 -27.5t1 -19.5q-4 0 -24.5 2t-24.5 4t-9.5 7t-5.5 8v116zM791 156q-10 0 -10.5 -14.5t10.5 -14.5q10 0 10 14.5t-10 14.5zM659 346q-10 0 -10 -15.5t10 -15.5t10 15.5t-10 15.5zM762 463q2 6 -7.5 6t-6.5 -6q0 -6 6 -6t8 6zM762 492q2 6 -7.5 6t-6.5 -6q0 -6 6 -6t8 6z M748 537q-10 0 -10.5 -15.5t10.5 -15.5q10 0 10 15.5t-10 15.5zM762 580q-10 0 -10 -14.5t10 -14.5t10 14.5t-10 14.5zM762 608q-10 0 -10 -14t10 -14t10 14t-10 14z" />
<glyph unicode="V" horiz-adv-x="907" d="M8 1135h64q0 -4 3 -21.5t7 -21.5q0 -2 7 -8.5t14.5 -13.5t14.5 -13t7 -8q2 -4 12 -22.5t22.5 -42t23 -47.5t16.5 -36q2 -4 7 -21.5t7 -21.5q0 -2 5 -11t9 -18.5t9.5 -18.5t5.5 -11q4 -6 9 -22.5t5 -20.5q2 -4 1 -30t-1 -30q0 -2 7 -7t9 -7q0 -2 -1 -7t1 -7 q2 -4 13.5 -8.5t15.5 -6.5v-8v-6q2 -4 8 -15.5t6 -15.5q0 -2 -7 -14t-7 -14t6 -7.5t8 -7.5v-14q2 -2 7.5 -8t7.5 -6q6 -8 17 -24.5t11 -20.5q2 -2 4.5 -11.5t5.5 -18.5t5 -17.5t2 -10.5q0 -4 7 -15t7 -16q0 -4 -7 -21t-7 -22q0 -2 6 -8t8 -6v-14q0 -2 6 -8.5t8 -8.5v-14 q2 -2 7.5 -14.5t7.5 -14.5q2 -6 7 -22.5t7 -20.5q0 -4 -1 -15t1 -15l6 -6l8 -9q2 -2 1 -14t-1 -14t7 -9q4 -4 8 -6v-8q0 -4 -2 -6h18q0 10 5 43t10 43q0 2 4 9t9 14.5t10 13.5t5 8q2 4 7 15.5t8 13.5q0 2 3 11t5 18.5t4 18.5t2 11q2 2 8 14.5t6 14.5q2 4 1 29.5t-1 29.5 q0 2 6 13.5t11 15.5q0 2 6 7t8 7q4 6 11 19.5t13.5 27t12.5 25.5t6 16q2 2 1 14.5t-1 14.5q2 10 9 31.5t13.5 45t12.5 44t10 26.5q0 4 6 15.5t12.5 26t13.5 26.5t11 18q2 2 7 8.5t7 8.5q4 4 9.5 14t5.5 14v29q2 4 8 15.5t6 13.5v31q2 2 8 14t8 14q0 2 4.5 15.5t9.5 29 t9 27.5t6 16q0 2 5 13.5t9 23.5t9.5 22.5t5.5 14.5q4 6 9 28.5t5 28.5h33q0 -6 -1 -28.5t-1 -28.5q0 -4 -6.5 -26.5t-10.5 -32.5q0 -4 -5 -16.5t-9 -28t-9 -28.5t-5 -15v-16.5v-27v-27.5v-18l-15 -14q-2 -2 -7 -13t-7 -16q-2 -4 -8 -22.5t-6 -22.5q-4 -4 -8.5 -14t-6.5 -14 q-2 -2 -8 -7.5t-8 -7.5q-4 -8 -14.5 -30.5t-14.5 -28.5q-2 -4 -6 -20.5t-9 -37t-9 -38t-4 -21.5q-2 -4 -8.5 -21.5t-6.5 -21.5v-14q-2 -4 -8 -22.5t-6 -22.5q-2 -4 -3 -10.5t-1 -10.5q-2 0 -5 -3t-7 -5q-2 -4 -7.5 -21.5t-7.5 -21.5q0 -2 -6 -8l-8 -8l-14 -29q0 -2 1 -14.5 t-1 -14.5q0 -4 -6.5 -19t-14.5 -31.5t-14 -32t-8 -19.5q-2 -6 -9.5 -25.5t-14.5 -41t-13 -41t-8 -23.5q0 -4 -5.5 -14.5t-9.5 -22.5t-9 -23.5t-5 -13.5q-2 -4 -4 -22.5t-2 -24.5q-4 0 -11.5 1t-11.5 1q-6 2 -23.5 7t-21.5 10q-2 0 -7 5t-7 9q-2 2 -7 13t-8 16q-2 4 -8 21 t-6 22q0 2 -3 11t-5 18.5t-4 18.5t-2 11q-2 4 -8.5 21.5t-8.5 21.5v16q0 4 -5 20.5t-9 22.5q0 2 -6 14.5t-8 14.5q-2 8 -7.5 36t-7.5 38q0 2 1 14t-1 14q0 4 -7 17.5t-14 28t-14.5 26.5t-7.5 17q-2 4 -1 15t1 13q-2 4 -7 21.5t-9 23.5q0 2 -6 14.5t-8 14.5q0 4 1 15.5 t-1 13.5q0 2 -4.5 9t-9.5 14t-10 13.5t-5 8.5v14q0 2 -5 13.5t-9 23.5t-9.5 22.5t-5.5 14.5v14q-2 2 -8 7t-6 7q-2 2 -6 13.5t-9 24t-9.5 22.5t-6.5 14l-14 14q-2 2 -7 13.5t-7 15.5q0 2 -5.5 13.5t-9.5 23.5t-9 22.5t-5 14.5l-14 29q-8 4 -31 9t-29 5v117zM461 96 q-10 0 -10 -14t10 -14q12 0 12 14t-12 14zM623 463q-10 0 -10.5 -14.5t10.5 -14.5q10 0 10 14.5t-10 14.5zM754 827q-10 0 -10.5 -14t10.5 -14q10 0 10 14t-10 14z" />
<glyph unicode="W" horiz-adv-x="1275" d="M23 1053q0 4 5 10t9 6q-4 0 -9 5t-5 9q-2 8 -4.5 39t-2.5 39q6 0 32 -2t34 -4q2 0 7 -5t7 -9v-21v-22l-8 -8l-6 -7v-14v-16q0 -4 5 -32t9 -40q2 -10 7.5 -32.5t7.5 -26.5q2 -2 8 -7.5t6 -7.5q0 -4 2 -15t5 -24.5t5 -28t2 -20.5v-11v-18.5v-17.5v-10t7.5 -8t7.5 -9 q2 -2 7 -24.5t7 -32.5q4 -10 9 -38.5t7 -35.5v-14q0 -2 7.5 -7t7.5 -7v-45q0 -4 7 -21.5t7 -21.5q2 -4 0 -30t0 -30l14 -14v-14q2 -4 7.5 -21.5t7.5 -21.5q2 -8 8 -36t6 -38v-14l14 -29q2 -2 9.5 -8t7.5 -9q0 -4 -1 -21t1 -22q0 -2 6 -7t8 -7q0 -4 5 -16.5t9 -12.5 q4 -4 16.5 2.5t16.5 6.5q0 4 -3 10t-1 10q2 2 7 13.5t7 15.5t7.5 9t7.5 5l-15 14l15.5 31t15.5 29q0 2 2 13t5 23.5t5 22.5t2 15q0 2 6.5 14t8.5 14v15q2 4 7 15t7 13v17q0 6 4 21.5t8.5 33.5t9.5 35.5t7 25.5q2 4 8 21.5t6 21.5q2 4 1 30t-1 30q4 2 8 6l9 8q4 4 9 15.5 t5 13.5q0 4 -1 29.5t1 29.5q0 4 13 14.5t16 14.5q2 2 -0.5 14t0.5 15q2 4 7 9t7 5q6 4 23.5 10t21.5 6q2 0 18.5 -6t24.5 -10q6 -2 17.5 -7t11.5 -7q2 -2 6 -10.5t9 -17.5t9 -18.5t6 -11.5q0 -2 6.5 -8t8.5 -6q0 -2 5 -11.5t9 -18.5t9 -18t5 -12l15 -14q2 -4 8 -22.5 t6 -22.5q4 -8 15.5 -29.5t22.5 -44t21.5 -43t14.5 -28.5q2 -2 8 -7.5t6 -7.5q2 -4 1 -15t-1 -13q2 -4 7 -15.5t7 -15.5q4 -2 15.5 -14.5t15.5 -14.5q0 -2 4 -11t9.5 -18.5t9.5 -18.5t6 -11q2 -4 10 -14.5t17.5 -21.5t17.5 -21.5t12 -14.5q4 0 9 5t8 10q2 4 7 15t7 13v29 q0 4 2 16.5t4 26.5t4 26.5t4 18.5q2 4 7 29.5t8 29.5v6v9l-15 14q4 6 15.5 28.5t13.5 30.5v15.5v28v27.5v17q0 2 5 25t9 33q2 4 8.5 22.5t6.5 22.5v15.5v27.5v26.5v16.5t7 22.5t9 22.5v29q0 4 2 16t4 26.5t4 27t4 18.5q2 10 7.5 32.5t7.5 26.5q2 0 8 6t6 8q2 4 1 29t-1 29 q0 2 2 13t5 23.5t5 22.5t2 14v15q2 6 7.5 23.5t7.5 21.5q2 6 7 15t9 18.5t8 16.5t6 7q0 2 5.5 3t9.5 1q2 0 7 -1t7 -3t7 -13t7 -15v-9v-6q0 -8 -2 -21.5t-5 -27.5t-5 -25.5t-2 -13.5q-2 -4 -8 -15t-6 -14q-2 -4 -7.5 -32.5t-7.5 -40.5q0 -4 -3 -16.5t-5 -28t-5 -28.5t-3 -15 t-6 -14.5t-8 -14.5v-31q0 -6 -2 -18t-4.5 -26.5t-4.5 -26t-4 -15.5t-8 -22.5t-6 -22.5v-16v-26.5v-28v-17.5q0 -2 -2 -12t-4 -24.5l-4 -29t-4 -22.5q0 -2 -3.5 -13.5t-5.5 -23.5t-4 -22.5t-2 -12.5v-45q-4 -2 -8 -6t-4 -6l-2 -2v-13.5v-23.5v-23.5v-13.5q-4 -2 -8 -6l-8 -8 v-13.5v-23.5v-22.5v-12.5q0 -8 -5.5 -30.5t-9.5 -28.5q-2 -6 -10 -23.5t-17.5 -36t-17.5 -35t-12 -22.5q-4 -2 -15.5 -3t-15.5 -1t-15 1t-14 3q-4 2 -8 20.5t-6 22.5t-14 8t-15 6q-4 4 -15 21.5t-15 24.5q-6 10 -18.5 34.5t-27 53t-25.5 53t-15 35.5q-2 4 -8.5 21.5 t-8.5 21.5q0 2 -6 7t-8 7t-8 13.5t-13.5 23.5t-13.5 22.5t-8 14.5q-2 2 -8 7t-6 7q-2 4 -8.5 21.5t-6.5 21.5q-2 4 -7 15.5t-9 15.5q-2 4 -13.5 21.5t-15.5 21.5q-2 2 -8 13t-13 23.5t-13.5 22.5t-8.5 15l-14 14q-4 2 -18.5 -1t-18.5 -3q0 -6 1 -17.5t3 -25t2 -24.5v-17 q0 -2 -7 -7t-7 -8q-2 -4 0 -29.5t0 -29.5l-14 -14q-2 -4 -7.5 -25.5t-7.5 -32.5v-14q-2 -4 -8 -15.5t-6 -15.5q0 -2 -3 -13t-5 -23.5t-4 -22.5t-2 -12q-4 -12 -9.5 -35t-7.5 -25q0 -2 -7 -7t-7 -7q0 -4 1 -22.5t-1 -22.5q-4 -2 -8 -6t-4 -6l-3 -2q-2 -4 -6 -20.5t-9 -37 t-9 -38t-4 -21.5q-4 -10 -10.5 -29.5t-13.5 -40t-13 -38t-8 -23.5q0 -2 -6.5 -8.5t-8.5 -6.5q-2 -4 -13 -22.5t-15 -22.5h-8h-7q-4 4 -15 15.5t-13 15.5q-4 0 -16.5 5t-14.5 9q0 2 1 14.5t-1 14.5q0 2 -13.5 7t-15.5 7q-2 4 0 22.5t0 22.5q0 4 -5 19.5t-9 32t-9 32t-5 19.5 q-2 6 -6.5 26.5t-9.5 45t-9 46t-6 27.5q0 2 -6 14.5t-8 14.5v14q-2 12 -7.5 35t-9.5 46.5t-8 43t-4 23.5q-2 2 -7 14t-7 14v15q-2 6 -4.5 18t-4.5 26.5t-4 27t-2 16.5q0 2 -3 11t-5 18.5t-4 18.5t-2 11q-2 6 -6 26.5t-9.5 45t-9.5 46t-6 28.5q0 4 -7 15t-7 13v13.5v23.5 v23.5v13.5q0 4 -7 15.5t-7 13.5zM344 102q-10 0 -10 -14t10 -14t10 14t-10 14zM330 117q-10 0 -10.5 -14.5t10.5 -14.5q10 0 10 14.5t-10 14.5zM256 233q-10 0 -10 -14t10 -14t10 14t-10 14z" />
<glyph unicode="X" horiz-adv-x="800" d="M182 49q0 4 1 13.5t1 11.5q0 6 5.5 22.5t9.5 20.5q2 4 13 9t15 5q-2 10 -2 38t2 36q2 4 7.5 21.5t7.5 23.5q2 0 8 6t6 8q4 4 15.5 26.5t15.5 31.5q0 2 4 12t8 22.5t9 22.5t7 16q2 4 7.5 21.5t7.5 21.5q4 10 11 24.5t15 29.5l17 34h20q0 4 -3 15.5t-1 15.5l6 6l8 8v15v14 q-4 6 -15 28.5t-15 30.5l-29 29q-2 2 -8 13.5t-13.5 23.5t-13.5 22.5t-8 14.5q-4 2 -14.5 15.5t-22.5 27.5t-23.5 26.5t-13.5 16.5t-14 22.5t-14 22.5q-2 2 -11.5 11t-18.5 18.5t-18.5 17.5t-11.5 10q-2 4 -7 15.5t-7 15.5l-43 43q-2 2 -11.5 6t-19.5 8t-19 8.5t-9 6.5 q-4 10 -11.5 37.5t-7.5 35.5h94q0 -2 -1 -7t-1 -7l-14 -14q4 2 14 2t15 -2q2 -2 7 -14.5t7 -14.5q2 -4 14.5 -15.5t14.5 -15.5q4 -2 9 -13t5 -15v-15q4 -4 15.5 -9t15.5 -5q6 -6 19 -19.5t26.5 -26.5t26 -25.5l16.5 -16.5q2 -2 6 -10.5t8 -18.5t8 -19t6 -11q2 0 7.5 -6.5 t7.5 -8.5q4 -4 19.5 -21.5t31.5 -37t31.5 -36.5t19.5 -22q2 -4 7 -9t7 -5q2 -2 5 -2h4h4q2 0 2 2q4 2 15 18.5t16 24.5q2 4 10 21.5t17 38t18.5 37t11.5 20.5t15.5 15t13.5 16q4 6 14 26.5t22.5 45t22.5 46t14 27.5q2 6 15.5 25.5t29 41t27.5 41t16 23.5q4 8 9.5 30.5 t5.5 28.5q2 0 4 1.5t4 1.5l6 -3q4 -2 9 -7t5 -7l21 -39l-5 -9t-11.5 -21.5t-11.5 -22.5t-7 -10l-14 -15q-2 -4 -7.5 -22.5t-7.5 -22.5q-2 0 -7 -6t-7 -8q-2 -4 -11 -21.5t-18.5 -37t-18.5 -37t-11 -21.5q0 -2 -6.5 -7t-8.5 -7q-2 -4 -8 -16.5t-13 -27.5t-13.5 -28.5 t-8.5 -15.5t-15 -14.5t-15 -14.5q-6 -10 -16.5 -32.5t-23 -46t-21.5 -43t-11 -25.5t-2 -13q-2 -6 -2 -16q0 -4 2 -14.5t2 -14.5q4 -10 16.5 -34.5t25.5 -53t26.5 -53t19.5 -35.5q0 -2 6 -7t8 -7q2 -4 11.5 -20.5t21.5 -38t22.5 -42t16.5 -30.5q6 -12 17.5 -34.5t13.5 -25.5 q0 -4 -1 -21t1 -22q0 -4 5 -15t9 -15q2 0 7 -6.5t7 -8.5v-14l7.5 -22.5t7.5 -20.5q-2 0 -10.5 -1t-12.5 -1h-12q-4 0 -8 2q-4 0 -9.5 5t-5.5 9v15q-2 2 -8 7t-8 7v14q-2 4 -13.5 22.5t-15.5 22.5v15q-2 0 -7 6t-7 8l-14 29v14l-15 14q-2 2 -6 13.5t-9 24t-9 23.5t-6 13 q0 2 -6.5 8.5t-8.5 6.5q-4 6 -14 28.5t-14 30.5q-2 4 -7.5 21.5t-7.5 21.5l-14 14q-2 4 -8 15.5t-6 15.5q-2 2 -8.5 7t-8.5 7h-2q-2 0 -4 2q-2 0 -2 -1t-2 -1h-4q-8 -4 -24.5 -15t-18.5 -13q-2 -4 -8.5 -16.5t-14.5 -28t-14 -28.5t-8 -15q0 -2 -6.5 -8.5t-8.5 -6.5 q0 -4 -4 -13t-9 -21.5l-9 -22.5t-6 -16q-4 -10 -12.5 -35t-17.5 -53.5t-17.5 -53t-12.5 -35.5l-14 -14q0 -2 1 -14.5t-1 -14.5q0 -2 -6 -8t-8 -6q-4 -8 -14.5 -30.5t-14.5 -28.5q2 2 2 7t-2 7q-4 4 -16.5 14.5t-12.5 14.5q-2 4 -2 8v12zM242 117q-10 0 -10.5 -14.5 t10.5 -14.5q10 0 10 14.5t-10 14.5zM344 455q-10 0 -10 -15.5t10 -15.5t10 15.5t-10 15.5zM446 526q-10 0 -10 -14t10 -14t10 14t-10 14z" />
<glyph unicode="Y" horiz-adv-x="827" d="M444 -387q2 6 12.5 12t23 11.5t22.5 10.5t12 11q4 25 27.5 49.5t25.5 28.5q0 2 8.5 21.5t16.5 42t15 44t7 29.5q0 -2 7.5 31t12.5 77t6 89t-11 67v8q0 4 2 7q0 2 -1 11t-1 19.5v19.5v11t1 6t1 6q0 37 4 65.5t8 56.5t5 55.5t-5 60.5l-33 -74l-88 -176q-2 -4 -13 -20.5 l-15 -22.5l-29 -29q-4 -4 -15.5 -22.5t-15.5 -22.5t-14 -15t-14 -13q-2 -2 -7.5 -1t-7.5 1l-14 -15q-4 -4 -14.5 -9t-14.5 -5q-8 -4 -30.5 -9t-28.5 -5q-2 0 -11.5 -1t-13.5 -1h-51q-23 0 -49 2q-4 0 -15.5 12t-15.5 16q0 2 -6 0t-8 0q-10 6 -26.5 22.5t-16.5 20.5 q-2 4 7 15.5t7 15.5t-15.5 14.5t-13.5 14.5q-2 4 -1 21.5t1 21.5l-8 8q-4 4 -8 6v13.5v23.5v23.5v13.5q0 4 -7 15t-7 13q0 4 5 10.5t9 6.5q-4 8 -9 35.5t-5 35.5v342l-7.5 7.5t-7.5 9.5l-14 72v73q0 12 2 33t5 39t5 31l2 14h60l14 -102q-4 -2 -9 -7.5t-5 -7.5q-2 -4 -2 -6 v-8v-8q0 -4 2 -6q0 -4 6 -15.5t8 -15.5v-14l-14 -43v-26t-1 -41.5t-1 -39.5v-25v-27.5t1 -34.5t1 -30.5v-15.5q0 -4 2 -21.5t4 -39t4 -42t4 -30.5l14 -72v-31l15 -71q0 -4 -1 -15.5t1 -15.5l6 -6l8 -8l31 -43q0 -4 -1 -15.5t1 -13.5q0 -2 14.5 -10t18.5 -13q2 0 15 -1 t30.5 -3t31 -3t15.5 -1h14q4 4 14.5 16.5t14.5 14.5q4 0 15 -1t15 1q8 2 31 19.5t27 23.5q4 4 11 16.5t14.5 26.5t12.5 26.5t7 18.5l14 -14q-2 4 -2 14t2 14t14.5 15.5t14.5 13.5q4 4 9 22.5t5 22.5q2 4 8.5 15.5t6.5 13.5l16 14l14 29q0 4 1 15t1 16h13l14 57q0 4 7 17.5 t14.5 27.5t14.5 26.5t7 16.5q2 2 4 16.5t5 30.5t5 29.5t2 17.5t6.5 21.5t8.5 21.5v14l-15 89l15 14q4 4 9 15t5 16v219l14 14l-14 14q-2 2 -2 7v8v8q0 2 2 6t7 9l7 7h29q6 -4 17.5 -21t13.5 -24v-204q0 -6 -6.5 -29t-10.5 -29l-6 -299q0 -2 -1 -14t-3 -19q-2 -8 -5 -22 t-3 -16q-2 -2 -11.5 -13.5t-9.5 -13.5t4.5 -17.5t-6.5 -70.5q2 -4 6.5 -15.5t4.5 -15.5q0 -6 3 -23.5t1 -23.5q2 -6 2 -22.5v-35t-1 -32.5l-1 -14l-15 -74q0 -6 2.5 -20.5t2.5 -22.5q0 -6 -1.5 -21.5t-1.5 -33t-1 -31.5t-1 -19v-4q0 -2 -2 -4q0 -2 -7 -20.5t-15 -40.5 l-21 -62q-2 0 -5 -18.5t-3 -20.5q-2 -2 -7 -15t-11 -29.5t-11.5 -30t-5.5 -15.5q-2 -6 -11 -22.5t-19.5 -34.5t-19.5 -33.5t-11 -21.5l-86 -49q-2 -4 -24.5 -2t-49 5t-49.5 4t-25 -1q-2 -4 -13 1t-24.5 11t-26.5 8t-22 -4q-4 -4 -14 3t-22.5 16.5t-22.5 17.5t-12 6 q-4 0 -12.5 11.5t-19.5 25.5t-22.5 25.5t-17.5 9.5q-2 0 -17.5 1t-17.5 3q0 6 11.5 28.5t19.5 26.5q4 4 22.5 -7t24.5 -11q2 2 14.5 -6.5t25.5 -18.5t23.5 -18t12.5 -8q2 2 12 -4.5t22.5 -14.5t23.5 -14t16 -2q2 2 13 -3t25.5 -11.5t25.5 -11.5t13 -3q2 4 15.5 2t28 -5 t27.5 -4t15 3z" />
<glyph unicode="Z" horiz-adv-x="921" d="M55 29q0 2 1 8t1 8q2 8 7.5 30.5t7.5 26.5t14 22.5t16 22.5q0 2 6.5 13.5t8.5 15.5q4 6 23.5 34t42 60.5t42 60t23.5 36.5q2 4 14 21.5t14 21.5q2 2 8.5 8t14.5 13t14 14.5t9 9.5q2 4 24.5 28.5t49 53t49 53t26.5 28.5l29 29q2 2 11 8.5t18.5 13.5t17.5 13t10 8 q4 4 15.5 22.5t15.5 22.5l43 43q4 4 22.5 14.5t22.5 14.5t14 22.5t15 22.5q4 4 21 15.5t22 13.5q6 4 18 16l26.5 26.5t26.5 27t17 18.5q0 2 1 7t1 7t-1 3t-1 5v6q-2 4 -7.5 9.5t-7.5 5.5q-4 4 -26.5 8t-32.5 8q-8 2 -24.5 4l-33 4t-29.5 4t-16 2q-18 0 -74.5 3.5t-120 7.5 t-119.5 7t-77 3q-4 4 -21.5 9t-21.5 5q-10 0 -32.5 1t-49 2t-49 2t-31.5 1v72q6 0 20.5 -1t31 -1t31 -1t20.5 -1q4 0 21.5 -7t21.5 -9h45q10 0 57 -5.5t101.5 -11.5t102.5 -12t58 -6h58q4 0 32.5 -6.5t41.5 -8.5q6 -2 23 -6t35.5 -8t35 -8t22.5 -6l43 -15q4 -4 9.5 -15 l7.5 -15v-47v-39q-2 -4 -21.5 -15.5t-23.5 -15.5q-2 -2 -8.5 -13.5t-6.5 -15.5l-233 -233q0 -4 -5 -15.5t-10 -15.5q-2 -2 -11 -8t-18 -13.5t-18.5 -13.5t-11.5 -8q-6 -6 -32.5 -31.5t-57.5 -56.5t-56.5 -57.5t-31.5 -32.5q-4 -4 -12.5 -14.5t-17.5 -21.5t-17 -22.5 t-13 -15.5q-2 -2 -8 -13t-13 -23.5t-13 -23.5t-9 -14q-2 0 -8 -6t-6 -8q-2 -2 -8 -13t-14.5 -23.5t-14.5 -22.5t-8 -13l-12 -18t-17.5 -26.5t-17.5 -27t-10 -16.5l14 -14q8 2 29.5 6t44 8t43 8.5t28.5 6.5h15q4 2 22.5 7t22.5 7h14q4 2 30 7t30 7h12q4 0 9 1t9 1t14.5 -1 t12.5 -1q4 -2 9 -6t5 -8q0 4 5.5 15.5t9.5 13.5t29.5 1t29.5 -1q2 0 7 7t7 7q6 4 29 9t31 7q4 0 28.5 -1t28.5 1q4 0 15.5 6.5t15.5 8.5q4 0 22.5 4t42 8t46 9t34.5 7q2 0 10.5 1.5t10.5 1.5q0 -8 -2 -31t-4 -31q0 -2 -5.5 -7t-9.5 -7q-4 0 -16 -2t-28.5 -4t-33 -5.5 t-24.5 -3.5h-23h-20q-4 2 -9.5 7.5l-7.5 7.5q0 -2 -5 -7.5t-9 -7.5l-29 -14h-14q-4 -2 -15.5 -7t-13.5 -7q-4 -2 -26.5 -7.5t-32.5 -7.5q-10 -4 -38 -9t-36 -5h-14q-8 -4 -30.5 -8t-26.5 -8q-4 0 -15.5 -6.5t-15.5 -8.5h-6h-8q-4 2 -21.5 8.5t-21.5 6.5t-15.5 -6.5 t-15.5 -8.5l-72 -14h-17.5h-27.5h-27.5h-15.5q-4 0 -15.5 -6t-13.5 -8q-4 -2 -10 -2q0 2 -1 8t-5 8q-2 4 -14.5 8t-14.5 6t-2 6v9v0z" />
<glyph unicode="[" horiz-adv-x="483" d="M31 471l-8 526q2 6 4 18.5t4 27t4 26.5t2 16v15q4 14 9 41.5t5 32.5q4 10 15.5 32.5t15.5 26.5q2 2 24.5 18.5t32.5 24.5q4 2 15.5 7t15.5 7q8 4 30.5 9.5t26.5 5.5h15.5h29h27.5h16q2 0 7.5 7t7.5 7t15 1t22 1q8 0 21 -1t15 -1t7.5 -6t7.5 -8q2 0 7 -1t7 -1v-56l-14 15 q0 -4 -5 -9.5t-10 -5.5h-16h-27.5h-29h-15.5q-4 0 -15 -5t-13 -9v29q-4 -4 -21.5 -15.5t-23.5 -13.5l-6 -2h-5q-2 0 -4 2q-2 0 -7 6t-7 8h-8h-6q-4 -4 -22.5 -20.5t-22.5 -24.5q0 -2 -5.5 -13t-9.5 -15q-4 -8 -8 -22.5t-9 -29t-8 -25t-3 -12.5v-31.5v-55v-56.5v-33l-15 -86 l15 -16q0 -6 -2.5 -22.5t-5.5 -35t-5 -36t-2 -23.5v-14v-14q2 -10 7.5 -38t7.5 -36v-584q0 -4 22.5 -15.5t36.5 -15.5h59h72q4 0 19.5 2t32 5.5t31.5 5.5t19 2q2 0 9.5 1t11.5 1q0 -4 -2 -22.5t-4 -22.5q0 -2 -5 -7.5t-10 -7.5q-6 -4 -28.5 -15t-30.5 -13h-6h-8 q-2 0 -11.5 2t-18.5 4t-17.5 5t-10.5 3h-59q-4 0 -16.5 2t-27.5 4t-28.5 5t-15.5 3t-7 -1t-7 1l-29 29q-4 2 -15.5 7t-15.5 7q-4 4 -9 15.5t-5 15.5l-6 410v57z" />
<glyph unicode="\" horiz-adv-x="530" d="M516 -160q0 -4 -1 -6t-1 -6v-8q-2 -4 -7 -9.5t-7 -7.5q-4 6 -12.5 23.5t-17.5 36t-17.5 36t-12.5 23.5q-4 2 -8 6q-6 6 -6 9q-2 4 0 21t0 22q-2 4 -13.5 31.5t-15.5 41.5q-2 2 -8 14.5t-6 14.5v29q-2 4 -8 17t-14.5 27.5t-14.5 27t-8 16.5t-7 29.5t-7 29.5t-7.5 21.5 t-7.5 21.5t-7 29.5t-7 29.5q-2 2 -6 13.5t-9.5 24t-9.5 22.5t-4 14q0 2 -2 12.5t-5 22.5t-5 23.5t-4 13.5q-8 25 -28.5 87t-43 132t-44 133.5t-30.5 87.5l-14 29q-2 4 -8 26.5t-6 30.5v17q-4 8 -8.5 23t-9.5 28.5t-9 23.5l-4 11h-8q0 10 -2 37.5t-4 35.5q0 4 -7.5 15.5 t-7.5 13.5q-2 4 -3 24.5t-1 26.5q6 0 24.5 -2t24.5 -4l15 -14q2 -4 6 -19.5t9 -32t9 -32t4 -19.5q2 -4 8.5 -22.5t6.5 -22.5q2 -4 0 -28.5t0 -28.5t15 -15.5t13 -15.5q4 -6 -2 -28.5t-6 -28.5h15q0 -6 3 -28.5t7 -31.5l10 -20t18.5 -36.5t18.5 -38t10 -21.5v-11.5v-18.5 v-17.5v-10.5q2 -4 15.5 -15t13.5 -15q2 -4 4 -16.5t4 -27t4 -27.5t4 -17q0 -4 7.5 -16.5t14.5 -27t14 -27.5t7 -15q2 -4 0 -22.5t0 -22.5q0 -2 7.5 -14.5t7.5 -14.5q2 -4 4 -19.5t4 -32t4 -31.5t2 -20l14 -28q4 -4 16.5 -15.5t14.5 -15.5v-29q0 -2 6 -14t8 -14v-15l7.5 -15 l7.5 -15q0 -2 -1 -14.5t1 -14.5q0 -2 6 -7t8 -7q2 -4 6 -14.5t9 -23t9.5 -23.5t4.5 -13q2 -2 9 -7t7 -7q0 -4 4 -18.5t8 -33t9.5 -37t7.5 -28.5v-14q0 -4 2 -14.5t5 -23t5 -23.5t2 -13t1 -10.5t1 -12.5zM45 1237q-10 0 -10 -14.5t10 -14.5q12 0 12 14.5t-12 14.5z" />
<glyph unicode="]" horiz-adv-x="512" d="M12 -66q4 0 15.5 -1t15.5 -3t9 -7t5 -7q2 2 7.5 7t9.5 7t31.5 7.5t39.5 7.5h9h6q4 -2 22.5 -8.5t22.5 -6.5q6 0 34.5 5.5t39.5 9.5l14 14q0 27 -1 85t-1 130v152v151.5t1 129t1 83.5q0 6 2 33t4 55.5t5 55t3 32.5v15q2 4 8.5 22.5t6.5 22.5v10v17.5v18.5v11q0 4 5 31.5 t9 42.5q4 10 9 31.5t5 25.5q4 12 15.5 41t15.5 33q0 4 13.5 14t15.5 15q0 2 1 13t1 17t-1 16.5t-1 12.5q-2 4 -13.5 9t-15.5 5h-352l-23 -14v43l227 45q4 -4 21.5 -9t24.5 -5q4 -2 20 -4.5t34.5 -4.5t36 -4t25.5 -2q4 0 22.5 1t20.5 -1q4 -4 9.5 -20.5t5.5 -24.5 q0 -2 1 -29.5t1 -43.5q0 -8 -1 -36t-1 -36l-15.5 -15.5t-13.5 -15.5q0 -2 -2 -10t-5 -17.5t-5 -18.5t-2 -11q-2 -6 -8.5 -23.5t-6.5 -21.5q-2 -2 -8 -13.5t-6 -15.5v-11v-18.5v-17.5v-10q0 -4 -6 -9.5t-10 -7.5q0 -8 1 -28.5t1 -43t-1 -44t-1 -29.5q0 -6 -5.5 -22.5 t-9.5 -20.5v-791q0 -4 -5 -15t-9 -13q-2 -2 -29.5 -7.5t-44.5 -9.5q-6 0 -22.5 -2t-35 -5t-35.5 -5t-24 -2q0 -4 -5 -9t-9 -5q-2 0 -16.5 -1t-20.5 -1q-8 0 -21.5 1t-15.5 1l-28 28q-2 4 -7.5 15.5t-7.5 15.5q-2 2 -2 9v9z" />
<glyph unicode="^" horiz-adv-x="532" d="M326 1186q2 0 6 -5t6 -10q2 -4 9 -14t9 -14q4 -4 9 -6q4 -2 5 -4.5t3 -2.5q0 -2 1 -7t1 -7q0 -4 8 -20.5t10 -20.5q2 -8 11.5 -35.5t19.5 -62.5t20.5 -67.5t16.5 -49.5q0 -4 4 -16.5t8 -25.5t7 -26.5t3 -15.5q4 -12 3 -11t3 -9v-8q0 -4 3 -9q-4 0 -9.5 2t-21.5 -2 q-4 0 -16.5 4.5t-14.5 6.5q-2 4 -8 19t-10 24q-2 6 -2 7v0v0t-2 11q0 4 -4.5 18.5t-9.5 32t-8 31.5t-3 18q-4 8 -11 30t-12 28q-2 2 -9 12t-9 14v14.5t-2 14.5q-4 8 -12.5 26.5t-17.5 40t-17 40t-10 24.5q-2 -4 -7.5 -15.5t-7.5 -15.5q-4 -4 -17 -20.5t-15 -20.5t-7.5 -16 t-11.5 -25.5t-11 -27t-7 -15.5l-15 -14q-2 -4 -8 -21.5t-12 -37t-11.5 -36t-7.5 -18.5q0 -2 -7 -8t-7 -8q-4 -4 -10 -13t-10 -14v-14q0 -4 6 7.5t12 24.5t11 23.5t3 8.5q-2 -8 -8 -24.5t-8 -18.5t-8 -6.5t-8 -6.5q-2 -4 -8.5 -14t-8.5 -14q6 -4 -1 -16.5t-19.5 -21.5 t-28.5 -13.5t-31 6.5q2 12 4 36.5t5 28.5q2 4 15 20.5t15 20.5t2 -1t-1 -11t-1 -10.5t2 0.5q2 4 8.5 15t8.5 11q2 4 8 22.5t8 22.5q2 2 9 6t7 7q2 2 2 14v14q2 4 9.5 15.5t7.5 15.5v6q0 4 1 5t1 3q2 2 7 9.5t11.5 16.5t11.5 17t5 10v15.5t2 15.5q0 2 7 14.5t16.5 25.5 t16.5 24.5t7 15.5q2 4 4 15.5t2 15.5h111zM117 903q-10 0 -11.5 -14.5t9.5 -14.5q12 -2 13 12.5t-11 16.5z" />
<glyph unicode="_" horiz-adv-x="907" d="M205 59q0 2 5 7.5t9 7.5l29 14q0 -2 1 -10t1 -12t-1 -6.5t-1 -6.5v-8q0 -4 -5 -15.5t-10 -15.5q-2 -4 -7 -9t-7 -5q-4 0 -15 7t-14 7q-4 0 -15 -7t-15 -7q-6 0 -25.5 -1t-42 -2t-42 -2t-25.5 -1q0 4 1 17.5t3 17.5t7 9l7 7q6 4 23.5 9t21.5 5h117zM424 102q4 -2 21.5 -8 t21.5 -6t22.5 7t22.5 7h20.5h37h38h21.5t21.5 2t37 5.5t36.5 5.5t21 2h43q4 0 15.5 7t15.5 7h6h9q4 0 9 -5t5 -9q2 -8 4 -39t2 -39q-2 0 -10 1t-10 5q-4 4 -9.5 14.5t-5.5 14.5q-4 -4 -15 -15.5t-16 -13.5q0 -2 -2 -2h-4h-4q-2 0 -4 2l-6 6l-8 8h-12h-17q-6 0 -25.5 -3 t-41 -5t-41 -4t-23.5 -2h-133q-2 0 -18.5 -6t-24.5 -10q-4 0 -15.5 -7.5t-13.5 -7.5h-67h-66q2 6 7 23.5t7 21.5q2 2 7.5 6.5t9.5 8.5t14 9t15 5q4 2 21 1t22 -1q4 2 22.5 7t22.5 7h6h8zM717 88q-10 0 -10 -14.5t10 -14.5t10 14.5t-10 14.5z" />
<glyph unicode="`" horiz-adv-x="423" d="M205 1442l-88 88q-4 2 -15.5 8t-15.5 6q-10 8 -26.5 24.5t-16.5 20.5t11.5 20.5t17.5 22.5h4q2 0 2 1t2 1l4 -2h2q4 -2 15.5 -14t15.5 -14q2 -2 13 -8.5t23.5 -13.5t22.5 -13t12 -8q4 -4 15.5 -22.5t15.5 -22.5q2 -2 14.5 -7.5t14.5 -7.5l59 -59q2 -4 13.5 -21.5 t15.5 -21.5l14 -15q4 -6 11.5 -15t13.5 -18.5t12 -16.5t6 -9l4 -8q2 -4 2 -8h-17t-17 2q-2 0 -13.5 5t-15.5 9q-8 6 -25.5 16.5t-19.5 14.5v14z" />
<glyph unicode="a" horiz-adv-x="657" d="M178 18q-2 -4 -7 -9t-7 -5q-4 -2 -15.5 -4t-15.5 -2v27q-4 0 -14 -5.5t-15 -1.5q-4 2 -14 12.5t-14 16.5t-15.5 28.5t-13.5 30.5q-2 2 -1 13.5t1 15.5q0 2 -8 7t-8 8q0 4 1 21t-1 22q0 2 -7.5 8t-7.5 8v29q0 4 -6 21t-8 22q0 2 -1 11t-1 13v12q0 4 2 9l14 14l-14 14 l29 15v102q4 2 9 7l7 7v15q2 8 6 24.5t8 20.5q0 2 6.5 7t8.5 7t7 13.5t7 15.5t7 22.5t7 22.5q4 8 15.5 30.5t13.5 26.5l31 31q0 2 5 13t9 16q4 4 21.5 14t21.5 14v8v7q4 4 15.5 15t15.5 15h14q2 0 14.5 6.5t14.5 8.5q2 0 11 2t18.5 4t18.5 5t11 3q4 2 21.5 7t21.5 7 q2 0 7.5 1t7.5 1v-20q6 0 28.5 3t30.5 1q4 -2 14.5 -6t14.5 -8q8 -6 30.5 -29t28.5 -31q-4 -2 -9 -7l-7 -7q0 -2 1 -14.5t-1 -14.5l-8 -8l-7 -6q0 -4 7.5 -22.5t7.5 -22.5v-29q2 -4 7 -9t9 -5v-103l14 -14v-22v-23l-14 -14q4 2 14.5 -4.5t14.5 -10.5q2 -4 0 -29.5t0 -29.5 l6 -6l8 -8q0 -2 3 -27t6 -53.5t6.5 -53t3.5 -26.5t6 -8q4 -4 8 -6q2 -4 1 -22.5t-1 -22.5q2 -10 7 -39t7 -35l6 -6l9 -9v-6v-8q-2 -4 -7.5 -15.5t-7.5 -13.5q-4 -2 -8 -2h-12q-4 0 -12.5 1t-10.5 1l-15 7.5t-13 7.5q-2 0 -3 2v6l3 6l2 2q0 2 4 6t8 6q0 4 -7 15.5t-7 15.5 q-2 4 -7.5 37t-9.5 49v17q0 2 -6 13t-8 15l-3 21q-3 20 -6 44.5t-6 45.5l-4 20q0 2 -7 14.5t-7 14.5q-2 6 1 19.5t3 19.5q-2 0 -9 4t-9 2q-6 -6 -17.5 -23.5t-11.5 -21.5q-2 -4 -1 -28.5t1 -28.5t-5 -15.5t-9 -15.5q-2 0 -8.5 -6t-8.5 -8q0 -2 -6 -14.5t-8 -14.5q0 -2 -7 -7 t-7 -7q-2 -4 0 -22.5t0 -22.5q0 -4 -4.5 -12.5t-9.5 -17.5t-9 -17.5t-6 -10.5q-8 -10 -28.5 -30.5l-44 -44t-45 -44t-29.5 -28.5q-2 0 -10.5 -1t-10.5 -1q-4 0 -12 1t-10 1q-4 4 -10.5 15t-4.5 15zM104 135q2 -2 8.5 -11t13.5 -19.5t14 -18.5t10 -10h30h41q4 0 15.5 6 t15.5 8q0 4 11 20.5t18 24.5q2 2 7 14.5t7 14.5q4 6 14 23.5t15 21.5q2 0 8 6t6 8q4 6 15.5 28.5t15.5 29.5l14 -15q-4 10 -4 38t4 36q0 2 6 16.5t12.5 33t13.5 37.5t11 30q2 4 8 15t6 13l9 9q4 4 8 6v45q0 6 2 20.5t4 30.5t4 30.5t4 20.5q0 4 6 21.5t8 21.5v15q2 4 8.5 15 t6.5 15q-2 4 -13.5 21.5t-15.5 21.5t-15.5 9.5t-15.5 5.5h-8q-4 0 -7 1t-5 1q-4 0 -12.5 -1t-10.5 -1t-14 -7.5t-14 -7.5q-4 -2 -22.5 0t-22.5 0q-2 0 -8.5 -6t-13.5 -14t-13 -14.5t-8 -8.5q-4 -2 -16.5 -7t-12.5 -7q-4 -4 2 -16.5t6 -16.5q-2 0 -12 2t-12 0q-4 0 -14.5 -5 t-14.5 -9q-4 -8 -15.5 -29.5t-22.5 -44t-21.5 -43t-14.5 -29.5q-2 -4 -6 -29.5t-8 -29.5q0 -2 -7.5 -7t-7.5 -7q-2 -2 -1 -14.5t1 -14.5q-2 -4 -7 -22.5t-7 -22.5v-14l-14 -15l14 -14l-14 -14q-2 -4 -2 -9v-12q0 -4 1 -13t1 -11q2 -4 7 -29t7 -29v-14q2 -4 8 -22.5t6 -22.5 t-5 -9t-9 -5zM383 178q-10 0 -10 -14t10 -14t10 14t-10 14zM635 61q-10 0 -10 -14t10 -14t10 14t-10 14zM397 209q-10 0 -10 -15.5t10 -15.5t10 15.5t-10 15.5zM397 266q-10 0 -10 -14t10 -14t10 14t-10 14zM606 195q-10 0 -10 -15.5t10 -15.5t10 15.5t-10 15.5zM90 442 q-10 0 -10 -14t10 -14t10 14t-10 14zM514 485q-10 0 -10 -14t10 -14t10 14t-10 14zM338 838q-10 0 -10 -15.5t10 -15.5q12 0 12 15.5t-12 15.5z" />
<glyph unicode="b" horiz-adv-x="743" d="M180 45q6 -4 31 -5t35 -1q4 0 33.5 2t63.5 5t63.5 5t35.5 4q12 2 26.5 9.5t27 16.5t21.5 16t11 9t6.5 14.5t8.5 28t8 27.5t6 17q2 4 14.5 15t16.5 15l14 29q2 6 4 18.5t4 26.5t4 26.5t2 16.5v14.5t1 29.5t1 33.5v26.5v26.5t-1 32t-1 28v14.5q0 4 -5 20.5t-9 22.5 q-4 8 -12 25.5t-17.5 36t-17.5 33.5t-12 22q0 4 -5.5 9t-9.5 7q-4 4 -15 9t-13 5h-117q-4 -2 -9 -7t-5 -7l-60 -88q-4 -8 -13 -24.5t-18.5 -33t-17.5 -30t-10 -15.5l-14 -59q0 -2 -6.5 -14.5t-8.5 -14.5l-14 -73q0 -4 1 -21.5t-1 -21.5l-8 -9l-6 -6q-2 -4 0 -15t0 -15 q0 -2 -5.5 -10.5t-10.5 -18.5t-9 -18.5t-4 -10.5q-2 -4 -1 -15t1 -15q-2 -2 -9.5 -13.5t-7.5 -15.5q0 -8 -1 -29.5t-1 -44t-1 -43t-1 -29.5h-82q-4 0 -9 28t-7 44q0 14 -1 52t-2 83t-2 85t-1 59v45q0 29 -1 98.5t-2 146t-2 144t-3 92.5q0 10 -2 34.5t-4 53.5t-4.5 53.5 t-4.5 34.5q4 4 14.5 15.5t14.5 13.5q2 0 9 1t12 1q4 0 13 -1t11 -1t7 -5t7 -10l-14 -14l14 -14l-14 -15l14 -14q0 -10 -1 -37.5t-1 -58.5t1 -57.5t1 -36.5q0 -4 7.5 -22.5t7.5 -22.5t-7.5 -21.5t-7.5 -21.5t6.5 -22.5t8.5 -22.5v-15q-2 -4 -8.5 -21.5t-6.5 -21.5t2.5 -14 t5.5 -22.5t5 -24t2 -13.5v-52t-2 -79t-3 -78.5t-1 -52.5h22q0 2 -1 6.5t-1 8.5q2 4 8 21.5t6 21.5v28l17 45q0 2 2 11.5t4 18.5t5 17.5t3 10.5q2 10 7 26.5t8 18.5q0 2 7 8t14 13t14.5 13.5t7.5 8.5q4 8 9 30.5t5 28.5q6 6 22.5 23.5t35 36t35.5 35t26 22.5q4 4 14 9t14 5 q2 0 21.5 1t30.5 1q10 0 29.5 -1t21.5 -1t13 -5t15 -9q6 -4 23.5 -15.5t21.5 -13.5q6 -6 22.5 -23.5t20.5 -21.5q6 -10 16.5 -25.5t20 -32t16.5 -29.5t7 -15v-277q-10 -6 -17 -16l-14 -72q-2 -8 -6 -24.5t-8 -20.5l-29 -43q-2 -4 -8 -15t-6 -14q-4 -6 -12.5 -19t-18.5 -27.5 t-18.5 -25.5t-12.5 -11q-12 -4 -34.5 -10.5t-45 -11.5t-40 -10t-21.5 -5q-2 0 -25.5 1t-52 3t-54.5 5t-30 7l-8 4q-4 2 -7 3t-5 3q-4 0 -5 2t-5 4t-7 7q-2 0 -4 8t-2 12zM90 295q-10 0 -10 -14.5t10 -14.5t10 14.5t-10 14.5zM500 59q-10 0 -10.5 -14t10.5 -14q10 0 10 14 t-10 14z" />
<glyph unicode="c" horiz-adv-x="616" d="M6 256q0 6 2 18.5t5 26.5t5 26.5t2 16.5l-14 14q4 0 9 5.5t5 9.5t-7 15t-7 15q-2 6 -2 15v22v21q0 8 2 14q0 4 5 15.5t9 15.5q4 2 16.5 13t14.5 16q0 4 -1 21t1 22q2 8 10.5 25.5t17.5 35.5t17 34.5t13 22.5q2 4 12 14.5t22.5 21.5t22.5 21.5t16 14.5q2 2 24.5 14.5 t33.5 16.5q4 2 21.5 7t23.5 7q2 -4 7 -21.5t7 -23.5v-6q0 -4 1 -6t1 -4t-1 -4.5t-1 -4.5v-4q-2 -2 -10 -6t-18.5 -8t-19.5 -8t-11 -6q-4 -4 -14.5 -22.5t-14.5 -22.5q-2 -2 -11.5 -13.5t-18.5 -24t-17 -22.5t-10 -12q-4 -8 -16.5 -30.5t-14.5 -28.5t-6 -28t-9.5 -46.5 t-9.5 -45t-4 -26.5q-2 -4 -8 -15.5t-6 -15.5q-2 -6 -2 -14v-22v-21q0 -8 2 -14q0 -4 6 -15.5t8 -15.5v-6q0 -4 1 -5t1 -3t-1 -4t-1 -5v-6l-14 -14l14 -14q2 -4 8.5 -14.5t13.5 -22.5t13 -23.5t8 -13.5t18.5 -13.5t26.5 -15.5q4 -4 15.5 -9t13.5 -5q10 -4 32.5 -10t26.5 -6 h80h142q2 4 7 9l7 7q8 4 30.5 14t28.5 15h4q2 0 2 1t2 1l5 -2h2q4 -4 8 -14.5t6 -14.5v-8v-8q-2 -8 -7 -24.5t-7 -18.5q-4 -4 -20.5 -9.5t-22.5 -5.5q-2 0 -9 6q-4 4 -6 9q-4 0 -15 -5.5t-15 -9.5v15l-15 -29h-178l-14 14q-2 -4 -7.5 -9t-7.5 -5h-8h-6q-8 2 -24.5 6t-20.5 8 l-14 15q-4 2 -30 7t-30 7l-28 14l-15.5 15.5t-13.5 15.5q-2 0 -1 6t1 8q-2 0 -8 6.5t-6 8.5q-4 4 -9.5 15t-5.5 13v29q0 2 -7 8t-9 8v15l-15 14l-14 29v8v6zM256 37q-4 6 -13.5 -2t-2.5 -12q8 -4 14 2t2 12zM537 680q-6 0 -23.5 6t-21.5 10q-2 0 -8.5 7.5t-13.5 14.5t-13 14 t-8 7q-4 2 -21.5 4t-38 4.5t-39 3.5t-22.5 1v71q2 0 18 -1t34.5 -3t34 -4t19.5 -2q2 -2 6 -15.5t9 -15.5q4 0 21 1t22 -1q4 0 15 -12t15 -16q2 -2 13.5 -7.5t15.5 -7.5l14 -14q0 -6 1 -28.5t1 -30.5q0 -4 -12 -3t-18 17zM168 651q-10 0 -10 -14t10 -14t10 14t-10 14z M197 680q-10 0 -10.5 -14.5t10.5 -14.5q10 0 10 14.5t-10 14.5zM240 799q12 0 12 -15.5t-12 -15.5q-10 0 -10 15.5t10 15.5z" />
<glyph unicode="d" horiz-adv-x="708" d="M41 102q0 4 5 9.5t9 5.5l-14 14q0 2 1 14.5t-1 14.5q0 2 -5 8t-7 6q-4 4 -9.5 15.5t-5.5 15.5q-2 10 -2 18v31q0 10 1 29.5t1 21.5t5.5 13.5t9.5 15.5l7 7t5 7q2 4 6 21.5t9 38t8.5 37t5.5 20.5q0 2 5 7t7 5q2 4 7 22.5t7 22.5t6 15.5t7 13.5q2 2 10 11t17 18.5 t17.5 18.5t10.5 11q0 2 4 14.5t8 14.5q2 2 13.5 7t13.5 7q4 2 8 7.5t4 7.5q2 4 8 15t6 15q6 8 21.5 23.5t19.5 17.5q2 0 10.5 2t17.5 5.5t16 5.5l8 2l8 8t8 6q4 2 25.5 1t25.5 -1q4 4 10.5 15.5t3.5 15.5q2 -6 12.5 -17.5t16.5 -13.5q2 0 12.5 5t12.5 9v-28q2 4 12 15t14 13 t14.5 1t12.5 -1q4 2 14.5 7.5t14.5 9.5q0 16 1 59t3 92t4 92t4 62q2 16 7 44t7 28l25 24l6 -1t13 -3t14.5 -3t7.5 -3t4 -12.5t9 -23.5t9 -23.5t4 -12.5v-13t1 -25.5t1 -30v-23.5v-25.5t-1 -31t-1 -26.5v-13q0 -4 -1 -17.5t-3 -30t-4 -31.5t-4 -24q-2 -6 -6 -24.5t-9 -40 t-8.5 -41t-3.5 -23.5q0 -6 -1 -20t-1 -30.5t1 -31t1 -20.5q-4 0 -9 -6t-5 -10v-35v-37q0 -4 7 -21.5t7 -21.5v-20.5v-37v-38v-21.5q0 -2 5.5 -18.5t9.5 -24.5q0 -4 6 -15t6 -16q0 -4 2 -19t4 -35.5l4 -41t2 -33.5v-16v-12q0 -4 -5 -9.5t-7 -5.5l12 -14q0 -4 -5 -9l-7 -7h-8 h-4q-4 2 -9.5 7t-5.5 9q-2 2 -5 13.5t-8 24.5t-9 27.5t-6 20.5q-2 10 -7 31.5t-5 25.5v60q0 2 -2.5 10t-4.5 17.5t-4 18.5t-2 11q0 6 -1 20.5t-1 31t1 30.5t1 21q-6 -2 -21.5 -13.5t-19.5 -15.5q-2 -4 -6 -22.5t-8 -22.5q-2 -4 -13.5 -23.5t-25.5 -41t-25.5 -41t-13.5 -25.5 q-2 -4 -8 -16.5t-13.5 -27t-13.5 -27.5t-8 -15q0 -2 -8 -10.5t-17.5 -18.5t-16.5 -18.5t-9 -10.5q-4 -4 -14.5 -22.5t-14.5 -22.5q-2 -2 -18.5 -6t-20.5 -8q-4 -2 -20.5 -21.5t-20.5 -21.5q0 -2 -7 -3t-11 -1t-12.5 1t-10.5 3q-4 2 -9 13.5t-3 15.5q2 -4 -3 -15.5t-9 -13.5 q-4 -4 -14.5 -7t-16.5 -3q0 4 -4 19.5t-8 19.5q0 2 -17.5 7t-21.5 7q-2 0 -6 8q-2 4 -6 6h-15q-4 6 -9 22.5t-5 22.5zM70 219q2 -2 6 -7t6 -7q2 -4 7 -22.5t7 -22.5t6 -14.5t7 -14.5q4 -4 15 -21.5t11 -21.5q2 -4 2 -15.5t-2 -15.5q4 4 14.5 9.5t14.5 5.5h24q2 2 12.5 7 t14.5 9q2 0 8 6t6 8q4 2 20.5 14.5t20.5 14.5l16.5 16.5t25 26.5t23.5 26.5t15 18.5q0 2 6 13.5t9 13.5q2 2 6 8t6 6q4 4 13 21.5t13 23.5q2 2 7.5 14.5t5.5 14.5q2 2 8 7t8 7q2 4 6 14.5t6 14.5v16q4 8 13.5 30.5t13.5 27.5q0 2 6 8t13.5 13t13.5 13.5t6 8.5q2 2 1 13 t-1 15q0 2 7 7.5t7 7.5q2 6 7.5 20t9.5 27.5t7 25t3 15.5t-1 16t-2 26.5t-4 27t-5 18.5q-4 2 -20.5 7t-20.5 7h-15q-6 0 -11 1t-9 1t-9 -1t-10 -1h-12q-4 0 -14 -5t-21.5 -10t-20.5 -9.5t-11 -4.5q-4 -2 -14.5 -1t-12.5 1q-4 -2 -9 -14t-7 -16t-11.5 -15.5t-13.5 -13.5 t-21.5 -7t-19.5 -7q-4 -4 -15.5 -16.5t-24.5 -27t-24.5 -26.5t-15.5 -18q-4 -2 -8 -20.5t-4 -22.5q-2 -2 -8 -8.5t-6 -8.5q-2 0 -7.5 -11l-7.5 -15q0 -4 -6 -21.5t-8 -21.5q0 -4 -4 -9.5t-8 -5.5q0 -6 1 -20.5t1 -30.5t-1 -30.5t-1 -20.5t-5.5 -23.5t-7.5 -21.5t-12 -14.5 t-14 -12.5zM150 596q10 0 10 -15.5t-10 -15.5t-10 15.5t10 15.5zM297 682q-10 0 -10 -14.5t10 -14.5t10 14.5t-10 14.5zM588 868l20 31v162h-20v-193zM590 1133q-4 2 -4 -15.5t4 -13.5q8 4 8 14.5t-8 14.5z" />
<glyph unicode="e" horiz-adv-x="702" d="M152 35q-4 0 -15.5 -3t-15.5 -3q-2 4 -6 8l-9 8q-4 0 -14 2t-14 2v31q-4 0 -8 -5t-7 -1q-4 2 -14 18.5t-16 24.5q-4 6 -9.5 17t-5.5 13q0 4 5.5 9.5t9.5 5.5l-15 14l15 14q-2 0 -7.5 10.5t-9.5 23t-8 23.5t-4 13t-1 14.5t-1 20.5q0 6 1 -9.5t1 -13.5q0 4 7 21.5t7 21.5 t-7 15.5t-7 15.5q0 2 2 15.5t5 27.5t5 27.5t2 17.5v15q2 8 4.5 24t4.5 32.5t4 29t2 16.5q2 4 8 1t8 1v29q0 4 5 15t9 15q2 4 14.5 21.5t14.5 21.5t7 22.5t7 22.5q2 2 14.5 13.5t14.5 15.5q2 2 7 14.5t10 14.5q0 2 6 1t8 -1q0 2 6 8t8 6q4 2 19.5 11.5t32 18.5t32 18t19.5 11 l14 15h4q2 0 2 1t2 1l4 -2h2q4 -2 9.5 -13.5t5.5 -15.5l14 14q8 4 24.5 9.5t20.5 5.5q2 0 18.5 -11.5t24.5 -17.5l14 -14q4 -4 21.5 -8t23.5 -9h15q2 0 7 -5t7 -9v-14q2 -2 8 -14.5t6 -14.5q0 -4 8.5 -12t8.5 -10q4 -4 14 -26t14 -26v-20v-23l-8 -8l-6 -6q-2 -4 -1 -15.5 t1 -15.5q-4 -8 -10 -23.5t-10 -23.5q0 -2 -10.5 -5t-10.5 -5q-2 -4 -5 -9t-3 -9l-29 -25l-41 -49q0 4 -6 4t-8 -4q-2 -2 -7 -13.5t-7 -15.5t-14.5 -7t-16.5 -7t-13.5 -10.5t-18.5 -13.5t-17 -13t-10 -8h-15l-15 -7.5t-22.5 -12.5t-21.5 -14t-14 -9l-15 28q-2 -4 -13 -15 t-15 -13q-2 -2 -5 -2h-4l-6 2l-14 14q-2 0 -10.5 1t-12.5 1t-11 -8t-9 -8q-6 -2 -17.5 -7.5t-11.5 -7.5v-110q0 -2 7 -9.5t16.5 -16.5t19.5 -18t17 -16q2 -2 13 -7t15 -7t8.5 -13.5t6.5 -15.5q2 4 13 9.5t15 5.5l8 -8l7 -7q4 0 15 7.5t15 7.5q4 2 21.5 1t21.5 -1q4 2 20.5 7 t24.5 7q2 0 10.5 5t17.5 9t18.5 9.5t11.5 5.5q4 2 22.5 8t22.5 6q4 4 15 9t13 7t11.5 10.5t18.5 18.5t17.5 18.5l10.5 10.5t8 0t8 0l29 28q2 4 7 12.5t7 12.5h2q2 0 3 1t3 1l6 -2q6 -4 17.5 -4t11.5 -4q2 -2 3 -14.5t1 -16.5q0 -6 -1 -16t-3 -13q0 -2 -8 -8t-18.5 -13 l-19.5 -13t-11 -9q-4 -4 -8 -15t-7 -15q-2 0 -13 -5.5t-17 -9.5q-4 -2 -19.5 -8t-32 -13t-32 -13.5t-19.5 -8.5q0 -2 -6 -8t-8 -6q-4 -2 -16.5 -6t-26.5 -9t-27.5 -9.5t-17.5 -6.5q-4 0 -14.5 -5t-14.5 -9l-14 -14l-29 -15h-8h-6q-4 0 -17.5 5.5t-27.5 9.5t-27.5 9t-15.5 5 h-8q-4 0 -6 2v33zM49 346q-12 0 -12 -15.5t12 -15.5q10 0 10 15.5t-10 15.5zM78 346q4 4 21.5 9t21.5 5l8 -8l6 -6q2 0 12.5 6t16.5 6q4 0 15 1t14 1q2 0 15 4.5t28.5 9.5t27.5 10t17 5q2 0 7 -1t7 1q4 4 22.5 13.5t22.5 15.5q4 4 14.5 17.5t14.5 17.5q0 2 6 7t8 7t11 3 t12 3q4 4 21 22.5t22 22.5q2 2 4 5t4 5q4 4 13 16.5t13 16.5l4 109l15 14q-4 -2 -14.5 -2t-14.5 2q-4 4 -15.5 22.5t-15.5 22.5l-14 14q-4 4 -21.5 8.5t-21.5 6.5q-2 0 -16.5 1t-22.5 1q-6 0 -19.5 -1t-15.5 -1t-7 -6.5t-7 -8.5q-2 0 -11.5 -5t-18.5 -9t-18 -9t-11 -5 q0 -2 -6.5 -8.5t-8.5 -6.5q-4 -2 -22.5 -7t-20.5 -9q-2 -2 -8 -12t-13 -24.5t-14.5 -28t-9.5 -21.5t-13 -26.5t-16 -34.5v-17q-2 0 -8 -6t-6 -8q-2 -4 0 -21.5t0 -21.5t-7 -9t-7 -5v-103zM420 473q-10 0 -14.5 -3t6.5 -3q10 0 14 3t-6 3zM471 526q-10 0 -10 -15t10 -15 t10 15t-10 15zM78 551q-10 0 -10 -15.5t10 -15.5t10 15.5t-10 15.5zM33 567q12 0 12 -14t-12 -14q-10 0 -10 14t10 14z" />
<glyph unicode="f" horiz-adv-x="698" d="M170 662q-4 -2 -26.5 -7.5t-32.5 -7.5q-2 0 -14.5 1t-14.5 -1q-6 -4 -23.5 -14t-21.5 -15q0 2 -5 7.5t-9 7.5h-9q-4 0 -7 1t-5 1q0 6 2 21.5t4 19.5t7 9t8 5q4 2 22 1t23 -1q4 2 16 6l25.5 8.5t27 9.5t19.5 7q10 4 32.5 14t24.5 15q4 2 9 24.5t5 32.5v59q0 4 7.5 21.5 t7.5 21.5v17q2 8 4 19t6 24q4 12 6 28h37q0 4 -6 22.5t-2 22.5q2 4 14 14.5t14 14.5q2 2 1 14.5t-1 14.5l7.5 15l7.5 15q4 4 15 15.5t15 13.5h9q4 0 6 1t6 1t12 -1t10 -1l15 -14q0 4 5 15t9 14q4 2 29.5 7t30.5 7q2 2 14 8t14 6h4q2 0 2 1t2 1l4 -2h3q4 -2 15 -14t15 -14 q0 -2 16.5 -7.5t26.5 -7.5q6 -4 28.5 -9t31.5 -5v-8v-7q-4 -4 -15.5 -9t-15.5 -7h-12h-17q-4 0 -16 3t-27.5 5t-29 5t-15.5 3h-16h-12q-4 -2 -15.5 -15t-13.5 -15q-4 -2 -22.5 -6t-22.5 -9q-6 -4 -18.5 -16t-27 -26.5l-26.5 -26.5t-16 -19v-14q-2 -16 -7.5 -40.5t-9.5 -48.5 t-8 -40l-4 -16l-29 -15q2 -2 7.5 -7t7.5 -9l14 -57h14h15q4 2 29.5 7t29.5 7q6 0 22.5 2t35 5t36 5t23.5 2q4 0 29.5 -1t29.5 1q6 2 22.5 6t35 8.5t36 8.5t23.5 6v-21v-22q-2 -6 -7 -17.5t-7 -11.5q-4 -2 -27 -7t-33 -7h-28q-6 0 -28 -3t-46.5 -5t-46 -5t-27.5 -3h-14 q-2 0 -11.5 -5.5t-18.5 -9.5t-17.5 -9t-10.5 -5t-13 5t-17 9l-15 15l-14 -29v-279q2 -4 7 -20.5t7 -22.5q0 -2 -1 -14t1 -14q2 -4 7.5 -9.5t7.5 -5.5l-15 -16q4 0 9.5 -5t5.5 -9q2 -4 4 -15.5t4 -25t4 -27.5t2 -20v-11q0 -4 1 -7t1 -5q0 -4 -1 -6t-1 -6v-8q0 -2 -5 -7.5 t-9 -7.5q4 -2 9 -7t5 -7q4 -4 9 -15.5t7 -15.5v-14q0 -4 6.5 -21.5t8.5 -21.5v-21q-4 0 -21.5 2t-23.5 4l-15 15l-14 28q-2 6 -7 29t-7 31v14q-2 6 -6.5 26.5t-9.5 45t-9 46t-4 28.5v14q-2 4 -8 22.5t-8 22.5v43q0 4 -2 17.5t-4.5 27.5t-5.5 26.5t-3 16.5v88q0 6 -2 20.5 t-4 28t-4 24.5t-4 15t-13.5 15.5t-15.5 13.5zM315 281q-10 0 -10 -14.5t10 -14.5t10 14.5t-10 14.5zM272 573q-10 0 -10 -14t10 -14t10 14t-10 14zM549 750q-10 0 -10 -14.5t10 -14.5q12 0 12 14.5t-12 14.5zM315 1028q-10 0 -10 -15.5t10 -15.5t10 15.5t-10 15.5zM344 1042 q12 0 12 -15t-12 -15q-10 0 -10 15t10 15zM301 1057q-10 0 -10 -14.5t10 -14.5t10 14.5t-10 14.5zM389 1085q10 0 10 -14t-10 -14t-10 14t10 14z" />
<glyph unicode="g" horiz-adv-x="737" d="M365 -236q0 4 3 18.5t5 18.5q2 -4 13 -15t15 -13q2 0 9.5 -1t11.5 -1h14q4 0 8 2q8 2 31 13t29 15q10 10 30.5 39t26.5 37q4 6 17.5 31.5t17.5 36.5q0 2 6 15t6 22q0 6 -1 21t-1 17q0 4 -3 21.5t-5 38t-4 37t-2 20.5v8v7q0 4 2 17t4 27.5t5 27t3 16.5v10v4l-8 8t-6 8 q-2 2 -1 13.5t1 15.5q-4 4 -15.5 9t-15.5 5q-2 -8 -13 -30.5t-16 -28.5l-57 -57q-4 -4 -15 -9.5t-16 -5.5h-28q-4 -2 -15.5 -14t-13.5 -16q-2 0 -11 -4.5t-18.5 -9.5t-18.5 -9t-11 -6l-15 -14l-15 -7.5t-13 -7.5q-4 0 -15.5 1t-15.5 -1q-2 -4 -6 -8t-6 -4l-2 -2q-4 -2 -9 -2 h-12q-4 0 -12 1t-10 1t-9 6q-4 4 -6 8q-4 0 -15 -8t-15 -6q-4 0 -14.5 13t-14.5 16q-2 2 -14.5 -0.5t-14.5 0.5q-4 2 -20.5 18t-24.5 25q0 4 -6 15t-8 15l-15 15v14q-2 4 -7 21.5t-7 21.5v10v6q2 4 13.5 14.5t15.5 14.5l-15 14q-2 2 -2 6v9v8q0 2 2 6t8.5 17.5t14.5 27.5 t14 26.5t9 16.5v29q0 4 5 15t9 15l14 15q2 2 8.5 15t13.5 27.5t13 28t8 17.5l15 14q4 2 17 -1t17 -3q0 4 -3 16.5t-1 16.5q0 2 5.5 7t9.5 7q2 2 14 8.5t14 6.5q2 2 10.5 11t18.5 19.5t18.5 18.5t12.5 10t21.5 7t21.5 7t15 8.5t13 6.5t7.5 1t9.5 1q2 0 3 -1t5 -1h6 q2 0 7 -5.5t7 -9.5q2 4 13.5 15.5t15.5 13.5q6 4 28.5 10t30.5 6q4 0 9.5 -6t5.5 -10q2 4 7 9l7 7h8h6l9 -8q4 -4 6 -8q4 0 15 8t16 8q2 -4 6 -8l8 -8h29q6 -2 16 -11.5t22.5 -21.5t21.5 -22.5t13 -16.5q2 -6 5 -18t6.5 -27.5t5.5 -28t2 -18.5q-2 0 -16.5 1t-16.5 3 q-4 2 -21.5 13.5t-23.5 15.5l-14 14q-2 4 0 15.5t0 15.5q-2 0 -13.5 5t-15.5 9h-14q-2 0 -8.5 7.5t-8.5 7.5h-10h-17.5h-18.5h-11q-4 2 -9.5 7t-5.5 7q-4 -4 -15 -15.5t-15 -13.5t-21.5 -1t-21.5 1q-4 -2 -16.5 -7t-26 -12t-26.5 -14.5t-19 -11.5q-2 -2 -11.5 -8t-18.5 -13 t-17.5 -13.5t-10.5 -8.5t-8 0t-8 0l-29 -28q-2 -4 -11 -17.5t-18.5 -28t-17.5 -27.5t-10 -16l-8 -8t-8 -6q-4 -10 -15.5 -32.5t-13.5 -26.5t-1 -21.5t1 -21.5q-2 -6 -7 -22.5t-7 -22.5l-15 -15q-4 -4 -9 -15t-5 -13t-1 -14.5t-1 -18.5v-16q0 -6 2 -11q0 -2 7 -9l16.5 -16.5 l18.5 -18.5t15 -13q4 -4 15.5 -10t15.5 -6q2 0 13.5 7t15.5 9h28q4 0 22.5 6t22.5 8q4 0 21.5 -1t21.5 1q4 0 15.5 13.5t13.5 15.5h8h6q2 2 8.5 7t8.5 7h2q2 0 2 1t2 1l4 -2h4l14 -14l15 29q2 2 7 8t7 6q2 4 8 15.5t6 15.5q4 4 19.5 18t33 31.5t32 33t18.5 19.5q2 2 6 10.5 t9 17.5t9 18t7 11l2 2q0 2 4 7q4 4 8 6q0 4 -2 22.5t2 22.5q2 4 18.5 14t24.5 14q4 2 17.5 4.5t17.5 2.5v-55.5t-1 -83.5t-1 -98t-1 -98t-2 -84t-1 -54q0 -6 -2.5 -20.5t-4.5 -31t-4 -31t-4 -20.5q0 -4 -3 -15t-8 -24.5t-10 -28t-7 -20.5t-7.5 -17.5t-7.5 -13.5l-16 -16 l-26.5 -26.5l-27 -27t-18.5 -16.5q-2 -4 -18.5 -15t-24.5 -15q-6 -4 -17.5 -9.5t-13.5 -5.5q-6 0 -17 2t-22.5 4t-20.5 4.5t-11 4.5t-5 15t-3 21zM489 328q-10 0 -10 -14.5t10 -14.5t10 14.5t-10 14.5zM592 342q-10 0 -10 -14.5t10 -14.5t10 14.5t-10 14.5zM578 373 q-12 0 -12.5 -15.5t12.5 -15.5q10 0 10 15.5t-10 15.5zM254 694q-10 0 -10 -15t10 -15q12 0 12 15t-12 15zM578 373q-12 0 -12.5 -15.5t12.5 -15.5q10 0 10 15.5t-10 15.5z" />
<glyph unicode="h" horiz-adv-x="833" d="M692 166q0 4 -3 14t-3 15q-2 6 -4 20t-4 27.5t-4 25t-2 15.5v43q0 4 -7.5 15t-9.5 15v29q0 4 -5 26.5t-9 32.5q0 4 -6 21.5t-8 21.5t-7.5 30t-7.5 30l-14 28q-6 10 -23.5 32t-21.5 26q-6 8 -17.5 20.5t-22.5 23.5l-20.5 20.5t-11.5 9.5q-4 2 -22.5 3t-28.5 1 q-6 0 -26.5 -1t-24.5 -3t-15.5 -13.5l-15.5 -15.5q0 -2 -4 -11.5t-9 -18.5t-9 -18t-7 -12q-2 -4 -21 -21t-22 -22q-4 -4 -15 -29.5t-15 -29.5l-15 -14q0 -4 -12 -32t-16 -42l-15 -43q-4 -10 -9 -32.5t-5 -26.5v-58l-8 -16t-14.5 -27.5t-14.5 -29t-8 -15.5v-28v-31l14 -29 l-43 -57q-2 -4 -7 -15.5t-7 -15.5h-8h-6q-4 4 -9.5 15.5t-5.5 15.5v19.5v31.5v31.5v19.5q0 10 -1 45t-3 82t-4 99.5t-4 99.5t-3 81t-1 46v117q0 4 -2 21t-4 37.5t-5 37t-3 20.5v22.5v39v39v22.5q0 8 -11.5 24.5t-17.5 20.5q2 0 7 5t7 10v8q0 4 1 6t1 6q0 2 -1 6t-1 8v9 q-2 4 -7 29.5t-7 29.5v6v8q2 6 7 17.5t7 11.5h11q4 0 8 1t8 1q6 0 18.5 -1t14.5 -1q4 0 8 -5t6 -9q0 -6 -1 -22.5t-1 -35t1 -36t1 -23.5q0 -4 7 -21.5t7 -21.5t-7 -22.5t-7 -22.5v-98v-99q0 -25 2 -89t5 -137t5 -137.5t2 -88.5h19q0 2 -3 7t-1 7q2 4 8 15.5t6 13.5q0 6 1 20 t1 30.5t-1 31t-1 20.5q2 4 7 9l7 7q2 0 10.5 -2t10.5 -2q0 4 -3 16.5t-1 16.5q0 4 6 16.5t12 25.5t13.5 26.5t11.5 19.5q2 0 7 6t7 8t8 14.5t6 14.5q6 8 23.5 30.5t21.5 29.5q2 4 10.5 12t17.5 17l17.5 17.5t12.5 10.5q2 2 13 7t18 7q8 4 24.5 10.5t18.5 6.5h49h39 q4 -2 16 -9.5t25.5 -16.5t27 -18.5t19.5 -15.5q4 -2 15 -20.5t13 -22.5t15.5 -15t13.5 -16q4 -4 -2 -21t-6 -22h22l5 -8q4 -8 9 -20t9 -24.5t8 -20.5q2 -10 9 -29.5t14.5 -41t12.5 -39t7 -21.5q2 -6 8 -35t6 -39v-29q0 -6 3.5 -25.5t5.5 -41t4 -41t2 -23.5q0 -8 1 -29.5 t2 -46t2 -45t1 -28.5h-17.5t-17.5 2t-15.5 7t-13.5 7q-4 4 -6 15.5t-2 15.5v131zM729 195q-10 0 -10 -14.5t10 -14.5t10 14.5t-10 14.5zM174 428q-10 0 -10 -14.5t10 -14.5t10 14.5t-10 14.5z" />
<glyph unicode="i" horiz-adv-x="245" d="M70 137q0 2 2 11.5t5 18.5t5 18.5t2 11.5t1 13t1 17q0 2 -1 7.5t-1 9.5v10q0 2 -7 8t-7 8v21v22q0 2 7 7.5t7 7.5v6q0 2 1 4t1 4t-1 3t-1 5v6q0 4 -6 22.5t-8 22.5v7v8q2 4 8 21.5t6 21.5q0 2 1 7t1 9q0 2 -1 3t-1 5v6q0 2 -5 7.5t-9 7.5v117l-15 14q4 2 9.5 7t5.5 7 q2 8 4 33t2 33q6 0 26.5 -2t26.5 -4q2 0 7 -5.5t7 -9.5q0 -2 1 -10t1 -12t-1 -12.5t-1 -10.5l-14 -14l14 -14l-14 -15l14 -14v-14q0 -2 3.5 -11.5t5.5 -18.5t4 -18.5t2 -11.5t-7.5 -7t-7.5 -7q-2 -4 -2 -6v-9v-8q0 -4 2 -6q0 -2 7.5 -8t7.5 -8v-15q0 -6 1 -11t1 -9t-1 -10 t-1 -13v-14l-8 -8l-7 -6q-2 -2 -2 -6v-11v-8q0 -4 2 -6l15 -14q0 -4 -2 -16.5t-5.5 -27t-5.5 -26.5t-2 -18v-17v-12q0 -2 7.5 -7t7.5 -7t1 -15.5t1 -21.5t-1 -21.5t-1 -15.5q0 -4 -5.5 -9t-9.5 -5l15 -15v-14l14 -14q2 -6 4 -26t2 -26q-6 0 -31.5 2t-31.5 4q-2 0 -7.5 5.5 t-7.5 9.5q-4 4 -10 15t-6 16v10v17v18.5v11.5l-8 8zM82 956q0 4 1 16.5t1 14.5q2 2 13.5 7t17.5 7q4 0 16 1.5t16 1.5q0 -4 -1 -16.5t-3 -16.5q-4 -2 -8 -6t-4 -7l-2 -2q-2 -4 -2 -21t2 -22q-6 -4 -23.5 2.5t-21.5 12.5q0 2 -1 12t-1 16z" />
<glyph unicode="j" horiz-adv-x="323" d="M-225 -430q10 2 37.5 7t35.5 7l27 13.5t31 17.5q4 2 22.5 13.5t22.5 15.5q2 2 14 7t15 7q4 4 15 14.5t22.5 21.5t21.5 22.5t14 15.5l15 28q2 4 7 21.5t7 21.5q0 2 5 13.5t9 24t9.5 23.5t5.5 13q4 10 9 38t5 36q0 2 1 26.5t1 38.5q0 8 -1 33t-1 33q-4 0 -9 5t-5 9t5 15.5 t9 15.5v569q0 8 6 24.5t10 20.5q4 0 11 2q4 0 9 1t9 1t15.5 -2t13.5 -2q2 -2 7 -18t7 -27v-6v-8q0 -4 -2 -19.5t-5 -32t-5 -31.5t-2 -19t2 -14.5t5 -23t5 -23.5t2 -13t1 -21.5t1 -29.5t-1 -29.5t-1 -22.5q0 -4 -5 -15t-9 -13v-279q-4 0 -15.5 -11t-13.5 -17v-14.5v-23v-23.5 v-13q-2 -12 -4 -34.5t-4 -46.5t-4 -42t-2 -23q0 -2 -5.5 -11t-10.5 -18t-9 -18.5t-6 -11.5q0 -4 -6 -21.5t-8 -21.5q0 -4 -5.5 -14.5t-9.5 -14.5q-4 -8 -15 -24.5t-13 -20.5q-6 -4 -22.5 -21.5t-22.5 -21.5q-2 -2 -13.5 -7t-15.5 -7q-2 -4 -7 -15.5t-7 -15.5h-15 q-4 0 -14 -5t-14 -9q-4 -2 -9.5 -7t-7.5 -7h-145v14zM168 1055q0 4 1 18t1 19l57 -29q6 -6 11 -8l6 -6q0 -8 -6.5 -31t-10.5 -29q0 -2 -11 -7t-17 -7q-4 -4 -11 -4q0 4 -1 16t-3 17l-8 8l-6 6q0 2 -1 15.5t-1 21.5z" />
<glyph unicode="k" horiz-adv-x="819" d="M51 115q0 2 7.5 7t7.5 7q0 4 -7.5 21.5t-7.5 21.5v18.5t-1 36t-1 39v29.5q0 16 1 47t1 35l15 16l-15 15v102l15 14q-2 10 -4.5 35t-4.5 53.5t-4 53t-2 34.5q0 27 -1 94.5t-2 142.5t-2 142.5t-1 94.5q8 0 33.5 -2.5t32.5 -4.5q2 0 7 -5t7 -9v-6v-4q0 -2 2 -2q0 -4 -1 -5 t-1 -6v-6q-2 -4 -8 -22.5t-6 -22.5q0 -2 6 -14t8 -14v-9v-6l-14 -14q0 -2 -1 -13.5t-1 -17.5q0 -4 1 -15t1 -13t7 -7.5t7 -7.5t-6 -14t-8 -14v-9v-6l8 -8t6 -8v-17q0 -8 1 -15t1 -11t-1 -12.5t-1 -14.5v-16q0 -2 -7 -8.5t-7 -8.5q-2 -4 -2 -6v-6q0 -4 1 -9t1 -7 q2 -4 8 -21.5t6 -21.5v-29.5t-2 -44.5t-3 -44.5t-1 -29.5h20l29 60l16 -15l29 58q2 4 0 15t0 15t21.5 14.5t21.5 14.5q2 2 1 14.5t-1 14.5l2 2q0 2 4 6t8 6q4 4 15.5 21.5t15.5 23.5q0 2 6 14.5t8 14.5l29 28l15.5 31t13.5 29q2 -4 8 -4t8 4t6 21.5t8 21.5q2 6 12.5 16.5 t22 22.5t22.5 21.5t15 13.5q4 -4 9 -14.5t8 -14.5q0 -4 2 -20.5t2 -20.5q-4 0 -11.5 -1t-9.5 -3q-2 0 -7 -5t-7 -9t-10.5 -21.5t-18.5 -37t-18 -37t-11 -21.5q-2 -2 -8 -7t-6 -8q-2 -4 -9 -14t-14.5 -22.5t-13.5 -23.5t-8 -13t-8 -11.5t-13.5 -18.5t-13.5 -17.5t-8 -10.5 q-2 -4 -8 -15t-6 -15q-4 -6 -12.5 -18.5t-17.5 -27t-18.5 -26.5t-11.5 -16q-2 0 -7 -6.5t-7 -8.5q-4 -8 -16.5 -30.5t-12.5 -26.5q-2 -4 -1 -15.5t1 -15.5q-4 -2 -8 -6l-8 -8v-14q0 -4 -5 -21.5t-9 -21.5h59q4 0 21.5 -7.5t21.5 -7.5q2 0 7 -1t9 -1h9q2 0 6 2q4 0 21.5 13.5 t21.5 15.5q2 0 10 1t12 1q2 0 5 -1t8 -1h8q2 0 8 -7t8 -7t13.5 7t15.5 7q2 0 14 -7t14 -7t8.5 6t6.5 8h6h8q4 0 21.5 -3t38 -5t38 -4t21.5 -2h117q6 0 28.5 -5.5t28.5 -9.5q4 -2 9 -7t5 -9v-2q0 -2 2 -4q0 -2 -1 -2t-1 -2v-5q-2 -4 -13 -15t-15 -13h-6h-9q-4 2 -21.5 8 t-21.5 6h-25.5h-41h-41h-25.5q-4 0 -21.5 7t-21.5 7h-14h-14q-4 0 -15.5 -6t-15.5 -8q-4 0 -16.5 -2t-25.5 -5t-26.5 -5t-19.5 -2h-43q-14 0 -39 -2t-51.5 -5t-47 -5.5t-24.5 -2.5q-6 -2 -17.5 -7t-11.5 -7v-264l-14 -14q-2 -2 -7 -15.5t-7 -13.5q-4 -2 -21.5 4t-23.5 10 q-2 2 -7.5 13.5t-7.5 15.5v37v37zM270 362q-10 0 -10 -14t10 -14q12 0 12 14t-12 14zM373 377q-10 0 -10.5 -14.5t10.5 -14.5q12 0 12 14.5t-12 14.5z" />
<glyph unicode="l" horiz-adv-x="225" d="M94 367v292l-31 15q-2 4 -2 10v18q0 8 1 24.5t1 18.5t7.5 8.5t9.5 8.5v6v8q-2 0 -9.5 6t-7.5 9q0 2 -2 14t-4 28.5l-4 33t-4 26.5v8v6q2 2 8 14.5t6 14.5q0 4 -5 15.5t-9 15.5v194q8 0 30.5 -2t29.5 -4q2 0 7 -5t7 -9l14 -43q0 -18 -1 -61.5t-1 -92.5t1 -92t1 -61 q0 -10 5 -38t10 -36l-29 -15q4 2 15.5 -4t13.5 -10v-8q0 -4 1 -6t1 -4q0 -4 -1 -14.5t-1 -12.5q0 -4 -5.5 -21.5t-9.5 -21.5v-367q4 -6 9.5 -28.5t5.5 -28.5q0 -10 1 -35.5t2 -53.5t2 -53.5t1 -35.5h-10.5t-10.5 2l-14 14q-2 4 -7 15.5t-7 15.5q-4 8 -9.5 24.5t-5.5 18.5 v13.5v23.5v22.5v14.5q0 6 -3 33.5t-5 60.5t-4 60.5t-2 35.5v15h14zM80 922q-12 0 -12 -14.5t12 -14.5q10 0 10 14.5t-10 14.5z" />
<glyph unicode="m" horiz-adv-x="1226" d="M383 721q-10 0 -26.5 -1t-18.5 -3l-43 -43q-8 -10 -21.5 -27.5t-28 -36t-25.5 -34t-13 -19.5q0 -2 -4 -12t-9.5 -24.5t-9.5 -29t-6 -22.5q0 -2 -3 -11t-5 -18.5t-4 -18.5t-2 -11q-4 -6 -9 -22.5t-5 -20.5q-2 -2 -6.5 -11.5t-9.5 -18.5t-10 -18.5t-5 -11.5v-19.5v-31.5 v-31.5v-19.5q0 -2 -7.5 -14.5t-7.5 -14.5q0 -6 -1 -23.5t-1 -36t1 -34.5t1 -23q-2 -4 -7 -9t-7 -5t-10 -1t-12 -1h-13q-4 0 -8 2q-8 0 -19.5 5t-11.5 9v643q0 6 5.5 22.5t9.5 20.5h6q2 0 4 1.5t4 1.5q4 0 9 -1.5t7 -1.5l15 -14q4 -4 9 -15t5 -14v-229q4 0 14.5 -3t14.5 -1 q4 0 9 5t5 9q2 2 4 11.5t4 18.5t4 17.5t5 10.5q2 6 7 19t12 26.5t13 26t11 16.5q6 10 28.5 37.5t30.5 35.5q4 4 25.5 20.5t31.5 22.5q4 4 15.5 10.5t13.5 6.5h37h37q6 -2 28.5 -7t30.5 -10q6 -6 23.5 -21t36 -33.5t35 -36t22.5 -25.5q2 0 7 -11.5t7 -17.5l14 -43 q2 -6 7.5 -27.5t12.5 -47t14 -50t12 -37.5q2 -8 7 -30.5t7 -28.5q0 -2 2 -13.5t4 -23.5t4 -22.5t4 -12.5q2 -4 7 -9t8 -5v117q2 0 7 5t7 9q2 2 4 15.5t4 27.5t4 27.5t2 17.5q0 2 5 10t10.5 18.5t9.5 18.5t6 10q2 6 8 20.5t13.5 31t13.5 31t8 20.5l29 14l30 31q6 4 29 15 t29 13l14 -14q2 -2 13.5 -4t23.5 -4t22.5 -4t14.5 -2q4 -4 21.5 -20.5t21.5 -24.5q2 -2 14 -24.5t16 -33.5q4 -10 11.5 -25.5t13.5 -31.5t12 -29.5t6 -15.5t4.5 -17.5t8.5 -37t9 -43t7 -35.5q2 -6 5 -17.5t5 -22.5t4.5 -20.5t2.5 -11.5q0 -8 2 -26.5t5 -40t5 -40t2 -26.5 v-45h-6h-6q-2 0 -2 2q-4 2 -15.5 7t-15.5 7l-15 15q-2 4 -7 32.5t-7 40.5q0 8 -4 38t-9 65t-9.5 64.5t-6.5 37.5q0 4 -5 19.5t-10 32t-9 32t-6 19.5q0 2 -2 11t-4 18.5t-4.5 18.5t-4.5 11q0 4 -11 20.5t-17 22.5q-4 4 -14.5 15.5t-14.5 13.5q-4 4 -15.5 9t-15.5 5h-2 q-2 0 -4 2q-2 0 -3 -1t-3 -1h-2q-2 -2 -13.5 -14.5t-15.5 -14.5t-22.5 1t-20.5 -1q-2 -2 -13 -24.5t-17 -32.5q0 -4 -5.5 -14.5t-9.5 -22.5t-9 -23.5t-5 -13.5q-2 -4 -7 -15t-7 -13q-4 -8 -9.5 -24.5t-5.5 -20.5v-11.5v-18.5v-17.5v-10.5q0 -4 -7 -22.5t-7 -22.5t-3 -16 t-5 -26.5t-5 -28t-3 -17.5t-6.5 -21.5t-8.5 -21.5v-45q0 -2 -2 -13.5t-5 -23.5t-5 -22.5t-2 -12.5q0 -6 -1 -20t-2 -29.5t-1 -30v-18.5q-4 0 -19.5 3t-19.5 7q-4 2 -8 13.5t-6 15.5q-4 8 -9.5 35.5t-7.5 38.5v43q0 2 -2 11t-4 18.5t-5 18.5t-3 11v29q-2 12 -8.5 43 t-13.5 66.5t-13 66.5t-8 43q-2 4 -7.5 20.5t-7.5 24.5q-2 2 -8 14.5t-6 14.5v28q0 2 -6 13.5t-10 17.5q-2 4 -7.5 14.5t-12.5 21.5t-14 21.5t-9 14.5q-6 8 -16.5 24.5t-12.5 20.5l-24.5 24.5t-20.5 18.5q0 2 -16.5 3t-26.5 1zM90 410h14v14zM90 455q-10 0 -10 -15.5 t10 -15.5t10 15.5t-10 15.5z" />
<glyph unicode="n" d="M20 119q0 2 3 2q4 2 11 7t11 7v541h29l45 -45l-13 -199q2 4 0 -17.5t-6 -48t-6 -48t0 -17.5q2 2 11.5 21.5t19.5 43t19.5 44t11.5 22.5q2 4 9 17.5t15 30t16.5 29.5t10.5 17q4 2 25.5 8.5t23.5 10.5q2 2 -4 11t-4 11q8 8 25.5 29.5t36 43.5t34.5 40t23 22q2 2 11 9.5 t20.5 14.5t21.5 14.5t12 9.5q4 2 22.5 -1.5t22.5 1.5l29 14h6q2 0 4 1t4 1t7 -1t8 -1q4 -2 20 -7t25 -7q4 -4 15 -9.5t13 -5.5q4 -4 12.5 -12t17.5 -17.5t17.5 -17.5t10.5 -12q4 -2 9 -13.5t7 -15.5v-14q0 -4 6 -22.5t8 -22.5q0 -4 5.5 -28.5t9.5 -29.5q2 -4 7 -9t7 -5 l-29 -16q2 0 7.5 -5.5t7.5 -9.5v-14q2 -4 7 -21.5t7 -21.5q0 -2 1 -11t1 -14q0 -4 -1 -6t-1 -6v-8l-14 -14l14 -15v-14q2 -4 8 -15.5t6 -13.5q0 -4 -2 -14t-4 -22.5t-5 -23.5t-3 -13v-17v-12q2 -4 8 -15.5t6 -15.5t-5 -26.5t-9 -30.5q-2 -4 -7 -9.5t-7 -5.5l7 -7t7 -9v-14 l14 -29q-4 0 -14 -1t-14 -1h-19q-6 0 -10 2q-8 2 -19.5 13.5t-11.5 15.5v424q-2 4 -7 21.5t-7 23.5v14q-2 10 -7 32.5t-7 26.5q-2 6 -7.5 17.5t-9.5 23t-8 20.5t-4 11q-4 4 -20.5 15.5t-24.5 15.5h-6h-8q-4 -2 -21.5 -7t-21.5 -9q-6 -2 -17.5 -7.5t-13.5 -7.5 q-4 -4 -16.5 -16t-25.5 -25.5t-25.5 -27t-18.5 -19.5q-2 -2 -10.5 -11t-17.5 -21.5t-18.5 -22.5t-13.5 -17q-2 -4 -14 -22.5t-14 -22.5q-2 0 -8.5 -6t-6.5 -8q-6 -8 -19 -27.5t-26.5 -40t-26 -39t-16.5 -24.5t-15 -28.5t-15 -30.5q-4 -10 -11.5 -31t-13.5 -41.5t-12 -37.5 t-6 -21v-16.5v-28v-29v-15.5t-6.5 -7t-8.5 -7t-7 -15.5t-7 -13.5q-4 -2 -6 -2q-4 -2 -8 -2t-9.5 2t-7.5 2q0 6 -5 29t-9 29q0 4 -6 15t-8 15q-2 0 -3 3v4v6zM82 266q-10 0 -10 -14t10 -14t10 14t-10 14zM666 500q-10 0 -10.5 -14.5t10.5 -14.5q12 0 12 14.5t-12 14.5z" />
<glyph unicode="o" horiz-adv-x="677" d="M242 90q0 -2 -5.5 -7t-9.5 -7h-6h-8q-2 2 -7 8t-7 6h-15q-10 4 -26.5 9t-18.5 7q-6 4 -18 15.5t-26.5 26t-26 26.5t-15.5 19q2 6 2 22t-2 23q-4 4 -15 10t-15 4l14 14l-14 15l14 14q-4 0 -14.5 6t-14.5 10q-2 0 -2 2v4v5q0 2 2 4q2 0 8.5 6t6.5 8q2 2 1 14.5t-1 14.5 q4 10 9 32.5t5 26.5q4 4 22.5 21.5t22.5 21.5q2 4 -6 15.5t-8 13.5t6 8l8 8q2 4 13 28.5t16 28.5q2 4 15 8.5t13 6.5q2 2 7.5 10t9.5 19.5t8 19.5t6 10q0 2 13.5 1t15.5 -1q2 2 13 7t15 8q2 2 8.5 7t6.5 7q4 4 15 9t15 5q4 2 21.5 3t21.5 1v-47l-145 -147q-8 4 -24.5 -2 t-20.5 -13v-10v-17v-18.5v-11.5l-8 -8l-6 -6q-2 -4 -1 -15.5t1 -15.5q-2 -2 -7.5 -14.5t-7.5 -14.5q-2 -6 -7 -22.5t-7 -20.5q0 -2 -1 -8t-1 -8v-8q0 -4 2 -6q2 -4 21.5 -14.5t21.5 -14.5q4 -2 8 -21.5t6 -21.5q4 -4 22.5 -15.5t22.5 -15.5q2 0 7.5 -7t7.5 -7q4 -2 14 -3 t14 -1v-25h148q0 2 5 7t9 8q2 2 14.5 7t14.5 7q4 4 9 14t5 15q0 -4 5 -9.5t9 -5.5q6 0 16.5 5t14.5 10l88 176v6v8q-2 6 -4 17.5t-5 23.5t-5 21.5t-2 11.5t-6 14t-8 14q0 4 1 15.5t-1 15.5q0 2 -11.5 18.5t-17.5 24.5l-14 14h-15q-16 4 -43.5 9.5t-30.5 5.5q-4 4 -7 29.5 t-7 29.5q-6 4 -25.5 10.5t-23.5 6.5q0 8 2 21t2 20q2 6 7 17t9 13q4 0 21.5 -7t21.5 -7h29q4 -2 20.5 -7t24.5 -9q4 -2 15.5 -7.5t13.5 -7.5q6 -4 22.5 -21.5t20.5 -21.5l-14 -14l30 -31q4 -2 22.5 -13t20.5 -16q2 -2 1 -14t-1 -14q2 -6 7.5 -23.5t7.5 -21.5q2 0 8 -6.5 t6 -8.5v-8q0 -4 1 -7t1 -5q0 -4 -1 -12.5t-1 -10.5q0 -4 -5 -9t-9 -5q4 -2 9 -7t5 -7v-6v-11q0 -4 -2 -16t-4 -26.5t-5 -28t-3 -15.5v-16l-15 -43q-4 -10 -15 -32.5t-13 -26.5q-6 -6 -28 -29t-32 -29q-2 -2 -7 -1t-7 1q-6 -4 -28.5 -14t-31.5 -15q0 -2 -6 -8l-8 -8l-43 -14 h-16h-13q-4 2 -9 7l-7 7q0 -2 -5 -7t-9 -7t-15.5 -7.5t-13.5 -7.5q-2 0 -7 -1t-9 -1h-6q-2 0 -7 2q-4 4 -15 14.5t-15 14.5zM111 457q2 6 -7.5 6t-7.5 -6t7.5 -6t7.5 6zM96 516q-10 0 -10 -15.5t10 -15.5t10 15.5t-10 15.5zM111 545q-10 0 -10.5 -14.5t10.5 -14.5 q10 0 10 14.5t-10 14.5zM301 676q-10 0 -10 -14.5t10 -14.5t10 14.5t-10 14.5z" />
<glyph unicode="p" horiz-adv-x="673" d="M47 -219q0 4 5 9t9 5q-4 8 -9 36t-5 38v49v93v92v49q0 8 -5 30.5t-9 28.5l28 14q-2 4 -8 14.5t-6 14.5v74q0 2 -2 13t-4 23.5t-5 22.5t-3 14v7v8q0 2 3 15t5 28.5t4 28t2 16.5q0 6 -2 22.5t-4 35t-4 35.5t-4 24q-4 0 -9.5 5t-5.5 9t7.5 15.5t7.5 13.5q0 4 -7.5 22.5 t-7.5 22.5q0 2 -1 13t-2 23.5t-1 22.5v14q6 0 31 -6t33 -10l14 -43v-14q0 -4 7 -15.5t7 -13.5t-5 -11.5t-10 -18.5t-9 -18t-4 -11t-1 -9.5t-1 -11.5v-14q0 -4 2 -8q0 -4 5 -15.5t9 -15.5q0 -2 5 -7t9 -8q2 6 7.5 23.5t7.5 22.5q2 2 14 13t15 15q2 2 6 11.5t8 18.5t9 17.5 t7 10.5q6 6 18.5 20t26 27.5t25.5 25t16 15.5q4 2 26.5 7t33.5 7h14h14q8 -2 22.5 -6l29 -8t24.5 -8.5t12 -6.5q6 -4 20.5 -16t31 -28.5t31 -33t20.5 -24.5q2 -2 6 -10.5t9 -17.5t9 -17t4 -12h17q0 -8 5 -31t9 -29q0 -2 6 -7t8 -7v-4q0 -2 3 -4l-3 -7q-2 -4 -7 -9t-7 -5 q2 -10 2 -32.5v-48v-49t-2 -32.5q-2 -4 -9 -20.5t-16.5 -34.5t-18.5 -35.5t-15 -25.5q-2 -4 -20.5 -22.5l-22.5 -22.5t-15.5 -21.5t-15.5 -21.5q0 -2 -6 -7.5t-8 -7.5t-14.5 -8t-14.5 -6q-4 -4 -21.5 -15.5t-21.5 -15.5q-6 -4 -17.5 -9t-13.5 -5h-47h-41q-4 2 -25.5 13 t-31.5 18q-4 0 -9 5t-5 9q-4 4 -9.5 15t-5.5 14q0 4 5 15t10 13l43 -43q4 -4 14 -9t14 -5q2 0 10.5 -1t12.5 -1t12 1t10 1t12.5 3t22.5 8t22.5 9t16.5 9q0 2 6 7t8 7t14.5 8t14.5 6q10 6 26.5 17.5t16.5 13.5q4 2 9 13.5t7 15.5q2 2 10.5 15t18.5 27.5t18.5 28t10.5 17.5 q2 2 4 11t4 21.5t4 22.5t2 16q0 4 1 20.5t1 26.5q0 4 -1 11.5t-1 13.5v16q0 4 -6 15.5t-8 15.5q0 2 -4 15.5t-9.5 27.5t-9.5 26.5t-6 16.5t-10 16.5t-17.5 26.5t-18.5 26.5t-13 18.5t-12.5 15.5t-17.5 18.5t-17.5 16.5t-10.5 9.5t-24.5 7t-34.5 7h-6h-8q-8 -2 -24.5 -7 t-18.5 -7q-4 -2 -15.5 -13.5l-15.5 -15.5q-4 -8 -21.5 -30.5t-21.5 -28.5q-2 -2 -8 -13.5t-6 -15.5q-2 -4 -8.5 -22.5t-6.5 -22.5q-2 0 -9 -6t-7 -9q0 -4 -2 -19t-4 -31.5t-4 -32t-4 -19.5q0 -2 -6.5 -7t-8.5 -7q-4 -6 -9 -22.5t-5 -20.5t-1 -29t-1 -39q0 -12 1 -36.5 t1 -28.5t6 -21.5t8 -21.5q0 -4 -1 -18.5t-2 -33l-2 -37t-1 -28.5v-14q0 -4 3 -36t5 -70t4 -70.5t2 -34.5q0 -4 -7 -22.5t-7 -22.5t7 -21.5t7 -21.5q0 -2 1 -10.5t1 -12.5t-1 -12t-1 -11q0 -10 -6 -26.5t-8 -16.5h-68q-2 0 -7 11.5t-7 17.5v37v37z" />
<glyph unicode="q" horiz-adv-x="731" d="M563 -82q0 4 8.5 15.5t8.5 13.5q0 4 -7.5 22.5t-9.5 22.5v22v21q2 4 7 9t10 5v68v65q0 4 -7.5 29t-9.5 29q0 6 2 22.5t2 22.5h-18q-2 -8 -13.5 -31t-15.5 -29l-28 -28q-2 -4 -7.5 -15.5t-7.5 -13.5t-10 -8t-17.5 -13.5t-18.5 -14.5t-13 -9q-2 -2 -14.5 -7t-14.5 -7 q-4 -4 -15.5 -21.5t-15.5 -21.5q0 -2 -2 -3h-4h-4q-2 0 -4 3q-2 0 -7 5t-7 9q-2 -4 -7.5 -9t-7.5 -5q-2 -2 -13 -8.5t-15 -8.5q-6 -2 -23.5 -7t-21.5 -7h-9h-6l-21.5 21.5t-21.5 23.5l-30 -31v45q0 -4 -5.5 -9t-9.5 -5q0 -2 -6 -3t-8 -1v41q-4 0 -14.5 -5.5t-14.5 -2.5 q-6 2 -15 11t-18.5 18t-16.5 17.5t-9 12.5t-7 17.5t-9.5 29.5t-8.5 31.5t-4 23.5q-2 4 -2 37v49v35t2 25l29 14q-4 0 -9 5t-5 9t5 15.5t9 15.5q4 2 16.5 6t14.5 8v29q0 4 5 14.5t9 14.5t21.5 22.5t21.5 22.5q2 2 7 14t7 15q2 2 10.5 6t18.5 9t19.5 9t11.5 4q2 2 7 8.5t7 6.5 t10 1t13 1q2 0 5 -1t7 -1h8q4 0 9 -5.5t7 -9.5q-2 6 4.5 23.5t10.5 21.5q2 2 20.5 7.5t22.5 7.5q2 2 8 7t6 7q4 2 21.5 7t23.5 7h6q4 0 6 1t5 1q2 0 4 -1t4 -1h4q4 -2 9 -13t5 -15l21.5 21.5t23.5 21.5h2q2 0 2 1t2 1l4 -2h5q2 0 14 -7.5t14 -7.5t13.5 -1t15.5 -1t15 1t16 1 l-17 15q0 4 -1 20t-1 25q-14 23 8.5 34t46.5 7q2 -2 10.5 -3t16.5 -2.5t15.5 -3.5t7.5 -4v-4q0 -2 2 -4l-2 -6q0 -4 -5.5 -9t-9.5 -5v-236l-14 -29v-204q4 -2 9 -13.5t5 -15.5q0 -2 1 -20.5t1 -28.5t-1 -30.5t-1 -22.5q0 -4 -2 -21.5t-5 -38t-5 -37t-2 -20.5v-21.5v-38v-37 v-20.5t-7 -15t-7 -16q0 -4 6 -28.5t8 -28.5v-8v-6q-2 -4 -7 -22.5t-7 -22.5v-6v-9q2 -2 7 -14t7 -14v-9v-6q-2 -12 -7 -34.5t-7 -24.5t-10.5 -3t-12.5 -1q-2 0 -10 1t-10 3q-2 4 -4.5 16.5t-5.5 26.5t-5 26.5t-2 18.5v68v63zM580 -170q-12 0 -12.5 -14.5t12.5 -14.5 q10 0 10 14.5t-10 14.5zM82 313v-43q0 -6 5 -22.5t9 -22.5l29 -43q4 -4 14.5 -15t21.5 -22.5t22.5 -21.5t15.5 -14l57 14h8h8l15 -14q4 6 21.5 22t21.5 21h8h6l31 30h14q2 4 8 12.5t13.5 17.5t13.5 17.5t8 10.5q4 4 15.5 9t13.5 5q10 6 16 16l15 29v14q0 2 6 7.5t8 7.5 q2 4 7 29.5t7 29.5q0 2 5 12.5t9.5 22.5t9.5 23.5t5 13.5v16q0 2 3 12.5t5 22.5t4 23.5t2 13.5q0 6 1 22.5t2 35t2 34.5t1 23q-4 0 -17 1t-17 1q-4 2 -21.5 9t-21.5 7h-31h-29q-2 0 -14 -7t-15 -9q-2 0 -8 1t-6 -1q-4 -2 -15.5 -14.5t-15.5 -14.5q-2 -2 -13 -1t-15 1 q-4 -2 -20.5 -7t-22.5 -7q-4 -2 -15.5 -7.5t-15.5 -7.5q-2 -4 -13.5 -15t-15.5 -13q-2 -2 -11 -9.5t-18.5 -14.5t-17.5 -13t-10 -9q-12 -10 -34.5 -31.5t-24.5 -25.5t0 -22.5t0 -22.5q-4 -4 -20.5 -10t-22.5 -4l14 -15l-14 -73zM506 211q10 0 10 -14.5t-10 -14.5t-10 14.5 t10 14.5zM461 285q8 -4 8 -8.5t-8 -6.5q-6 -4 -6 6.5t6 8.5zM111 561q-10 0 -10.5 -14.5t10.5 -14.5q10 0 10 14.5t-10 14.5zM330 694q-10 0 -10.5 -15t10.5 -15q10 0 10 15t-10 15zM358 723q-10 0 -10 -14.5t10 -14.5q12 0 12 14.5t-12 14.5z" />
<glyph unicode="r" horiz-adv-x="512" d="M16 766q6 0 25.5 -6t24.5 -10q4 -4 15 -27t15 -33v-28v-29q-2 -4 -6 -9.5t-8 -5.5l7 -7t7 -9l15 -29q2 -6 7 -34.5t7 -38.5v-29q0 -2 2 -11t5 -18.5t5 -17.5t2 -10q2 -8 6.5 -30t8.5 -44.5t8 -44t6 -29.5q2 6 7 23.5t9 21.5q0 2 6.5 13.5t8.5 15.5v29q0 4 5 20.5t9 24.5 q2 4 7 17t12.5 29.5t13.5 32t10 23.5l14 29q6 8 15.5 24.5t18.5 32.5t16.5 28.5t9.5 16.5l14 15q4 4 14.5 29.5t14.5 29.5t21.5 20.5t23.5 22.5q2 0 12 4t21.5 8t21.5 8t12 4q2 -4 3 -14t1 -14q0 -6 -1 -17.5t-3 -11.5q0 -2 -11 -5t-23.5 -8t-22.5 -8t-10 -5q-2 -2 -6 -10.5 t-9.5 -17.5t-9.5 -18.5t-4 -11.5q-4 -4 -15.5 -21.5t-15.5 -23.5l-14 -14q-4 -8 -15.5 -30.5t-13.5 -27.5q-4 -10 -12 -34.5t-17.5 -52t-17.5 -53t-12 -36.5q0 -4 -4 -21.5t-9 -37t-9.5 -36.5t-6.5 -21l-8 -9l-6 -6q-2 -4 -4 -16t-4 -26.5t-4 -27t-2 -18.5t-1 -20.5 t-2 -31.5t-1 -32.5v-21.5q-4 0 -7 2q-2 0 -4 2q-4 2 -15 7t-15 7l-15 14q-2 4 -7 27t-7 33q0 4 -2 17.5t-5 29.5t-5 31.5t-2 23.5q-2 6 -4.5 24.5t-4.5 39t-4 40t-2 27.5v15q-2 2 -6 11t-9 18.5t-10 18.5t-5 11q0 4 -2.5 19.5t-5.5 32t-5 31.5t-2 19q0 2 -2 12.5t-4 23 t-5 23.5t-3 13v16q-2 2 -8 13.5t-6 15.5q0 6 -1.5 22.5t-2.5 36t-2 37t-1 23.5z" />
<glyph unicode="s" horiz-adv-x="618" d="M59 80q0 8 1 25.5t1 21.5t5.5 14.5t9.5 14.5l6 2q2 0 4 -1t4 -1q2 -10 7 -38t7 -36q2 -4 7.5 -15.5t7.5 -13.5q4 -2 26.5 -7t32.5 -7h15h14q2 0 14 6t15 8q4 2 22 7.5t23 7.5q4 2 21 14t22 14q4 4 29.5 15.5t29.5 15.5l14 14q2 2 10.5 8.5t17.5 13.5t17.5 13t12.5 8 q4 4 22.5 14.5t22.5 14.5q2 4 7 15.5t7 15.5q2 6 -1 31.5t-3 31.5q-6 0 -26.5 -3t-28.5 -3l-6 6l-9 8q-2 0 -14 -6t-14 -8h-9h-6q-4 0 -16 3t-27.5 5t-29 4t-15.5 2h-14q-2 0 -11.5 3.5t-18.5 6.5t-18 5t-11 2h-16.5h-27h-27.5h-18q-4 0 -14 13t-14 15q-2 0 -11.5 2.5 t-18.5 4.5t-17.5 4t-10.5 4q-4 2 -1 11t8.5 19.5t9.5 19.5t4 13q-2 0 -10.5 -1t-16.5 -2t-15 -1h-9t-7.5 5t-7.5 10l60 28q0 -4 5 -15t9 -13q4 -4 13.5 -7.5t13.5 -3.5q0 -2 2 -4q2 -4 7 -9l7 -7h31q4 0 21.5 -6t21.5 -9q2 0 14 1.5t15 -1.5q2 0 8 -6t6 -8q6 -4 17.5 -9 t13.5 -5h219l14 -15q2 -2 14.5 -8t14.5 -6q6 -4 17 -15.5t13 -15.5v-20v-23q0 -2 -6 -18t-10 -25q-4 -16 -15.5 -43.5t-13.5 -29.5q-2 -4 -20.5 -15.5t-22.5 -13.5l-8 -8t-6 -8q-4 0 -22.5 -6.5t-22.5 -8.5q-2 0 -7 -6t-7 -8l-29 -14h-14q-4 -2 -15.5 -7.5t-15.5 -7.5 q-4 -4 -21.5 -22.5t-21.5 -22.5h-8h-6q-4 2 -9.5 7t-5.5 10q-6 -4 -28.5 -15.5t-30.5 -15.5h-29h-31q-8 2 -30.5 7t-26.5 7q-6 4 -17.5 15.5t-11.5 15.5q-2 8 -2 16v25zM51 629q4 0 12.5 3t12.5 7q2 0 6 12.5t8 16.5q2 2 7 0t7 0l29 28h4q2 0 2 1t2 1l4 -2h2q4 -2 9.5 -7 t7.5 -7q0 4 5 15.5t9 13.5q2 2 11.5 6t21.5 8t22.5 9t16.5 7q4 0 23.5 2t23.5 2q0 -8 -6 -32.5t-10 -30.5q-2 -2 -10.5 -7t-18.5 -9t-19.5 -8.5t-11.5 -4.5q-2 -2 -7 -8t-7 -6q-2 -2 -14.5 -1t-14.5 1q-2 -2 -9 -8t-14.5 -14.5t-13.5 -14.5l-8 -8t-14.5 -7t-14.5 -7 q-4 -4 -14 -20.5t-14 -22.5q-2 -4 -7.5 -22.5t-7.5 -22.5q-6 -4 -28.5 -15.5t-30.5 -13.5q0 4 -1 21.5t-1 21.5q0 10 1 26.5t1 18.5l29 43l14 14q2 4 4 10.5t2 10.5zM90 639q-10 0 -10 -15.5t10 -15.5t10 15.5t-10 15.5zM440 725q-2 0 -13 -2t-23.5 -4t-22.5 -5t-12 -3h-17 q-4 0 -21.5 -5.5t-21.5 -9.5v70q2 0 7.5 1t7.5 3q4 2 9 7t5 7q8 0 30.5 1t28.5 1q10 0 33 -1t25 -1q6 0 19 -4t26.5 -9t26 -9t16.5 -6v-8v-7q-2 -12 -4 -29.5t-4 -33.5q-4 -20 -7 -39h-14q2 8 -4 35.5t-10 36.5q-2 2 -18.5 7t-26.5 7h-6h-9z" />
<glyph unicode="t" horiz-adv-x="409" d="M217 141q0 4 1 12.5t1 10.5q0 4 7 15t7 14q-6 27 -9 23.5t-4 -12.5t-1 -12.5t0 25.5q0 4 -7 21.5t-7 21.5v13.5v23.5v22.5v14.5q0 2 -1 1t-3 7t-3 31.5t-1 77.5q-4 2 -9.5 7t-7.5 7v8v6q2 4 9.5 22.5t7.5 22.5t-11.5 25.5t-19.5 32.5q0 4 -6 9t-8 7h-15h-14 q-4 -2 -15.5 -9t-13.5 -7q-12 0 -34.5 6t-24.5 10q-6 8 -14.5 36t-8.5 36h158q0 10 -2 37.5t-2 35.5q0 2 3 13.5t5 24t4 22.5t2 14q0 10 1 36t2 54.5t2 54t1 35.5q4 0 12.5 -2t12.5 -4q2 -4 6 -6l8 -8q8 -12 19.5 -34.5t9.5 -22.5l-14 -15v-176l14 -14v-4q0 -2 2 -4 q0 -2 -1 -2t-1 -3v-2q-2 -4 -7 -9l-7 -7h8h6q4 2 21.5 6t38 9.5t37 9.5t20.5 6h20q0 -6 -2 -29.5t-4 -30.5q0 -2 -5 -7t-9 -7q-2 0 -13.5 -2t-23.5 -5t-22.5 -5t-12.5 -2t-7 -5.5t-9 -9.5l-7.5 -15l-7.5 -15q0 -2 -2 -10.5t-4 -17.5t-4 -18.5t-4 -11.5q-2 -4 -7 -9t-7 -5 l28 -14q0 -14 -1 -18.5t-1 -18.5q0 -2 7.5 -13.5t7.5 -15.5q-6 -2 -7.5 -15.5t-1.5 -27.5t-2 -26.5t-8 -12.5q0 -4 2 -16.5t5 -27.5t5 -28.5t2 -15.5v-43q8 -31 12.5 -35t4.5 -3t-1 -5t1 -39q0 -6 2 -23.5t4 -36t4 -34.5t4 -23q0 -4 -5 -9t-9 -5t-15.5 5t-15.5 9l-29 29 q-2 2 -1 14.5t1 14.5q-2 4 -7 22.5t-7 22.5t-2 8v12zM248 334q-10 0 -10 -15.5t10 -15.5t10 15.5t-10 15.5zM268 641q-10 0 -10 -14.5t10 -14.5t10 14.5t-10 14.5zM197 758q-12 0 -12.5 -14.5t12.5 -14.5q10 0 10 14.5t-10 14.5z" />
<glyph unicode="u" horiz-adv-x="714" d="M530 340q-2 -4 -1 -15.5t1 -13.5q-2 -4 -7 -15t-7 -15q-2 -2 -15.5 -13.5t-13.5 -15.5q-2 -2 -1 -14.5t1 -14.5q-4 -4 -20 -21.5t-25 -23.5h-6h-8q-2 -4 -7 -22.5t-7 -20.5q-6 -6 -18.5 -20.5t-27 -27.5t-26.5 -25.5t-16 -14.5q-2 -2 -14.5 -6t-28 -9t-28.5 -9.5 t-17 -4.5q0 -2 -6.5 -8t-8.5 -6h-6h-8q-10 2 -32.5 7t-26.5 7q-2 0 -13.5 11.5t-15.5 17.5q-2 2 -7 14.5t-8 14.5q-2 2 -7 2t-7 -2q-4 8 -14 35.5t-15 38.5q-4 8 -10 24t-6 19q0 4 1 15t-1 15q0 2 -5 7.5t-9 7.5v116l14 15l-29 14v102q4 0 9.5 5.5t5.5 9.5t-7.5 22.5 t-7.5 22.5q0 6 -1 23.5t-2 36t-2 35.5t-1 24h12.5t8.5 -2l14 -15q12 -4 27 -4q0 -4 1 -12t3 -13q0 -2 7 -8t7 -8l14 -72l-14 -14q-2 -2 -2 -6v-10v-8q0 -4 2 -7l6 -6l8 -8q0 -2 1.5 -15.5t1.5 -19.5q0 -8 -1.5 -22.5t-1.5 -16.5q0 -4 -7 -21.5t-7 -21.5t5 -9t9 -5 q0 -6 -1 -20.5t-1 -31t1 -30.5t1 -20q0 -2 5.5 -11.5t9.5 -18.5t9 -18.5t5 -11.5q2 -4 7 -28.5t8 -28.5q2 -4 14 -15.5t16 -15.5q-2 -4 -2 -6q-2 -2 -2 -4v-2q4 -2 8 -2h11q10 4 32.5 9t24.5 5q4 2 15.5 14.5t15.5 16.5q2 0 14 5t14 9q2 2 7.5 14.5t7.5 14.5q4 4 26.5 14 t32.5 15q4 2 15.5 -1.5t15.5 -3.5q0 4 -2 23.5t0 26.5q2 4 7 21t7 22v14q4 4 16.5 22.5t12.5 22.5q4 8 11 27.5t14 40t12.5 39t7.5 24.5v13.5v23.5v22.5v14.5q0 2 7 14t7 14q2 4 3 23.5t1 26.5q4 0 19.5 -2.5t19.5 -2.5q4 -2 15.5 -7t15.5 -9l-15 -14l15 -15q-4 0 -9.5 -5 t-5.5 -9q0 -2 2.5 -11t4.5 -18.5t5 -18.5t3 -11q0 -4 -1 -21.5t1 -21.5q0 -4 4 -16.5t9 -28t10 -28.5t5 -15q0 -6 1.5 -22.5t1.5 -35t-1.5 -36t-1.5 -23.5l29 -14l-14 -15q4 -2 9 -7t5 -7v-8v-8q0 -4 -5 -14.5t-9 -14.5h24q0 -4 2.5 -14.5t2.5 -14.5q0 -2 7 -8t9 -6v-8v-7 q-2 -2 -9 -8t-7 -8v-14v-15q0 -2 7 -7t9 -7q4 -4 9 -15.5t5 -13.5q0 -8 2 -31.5t2 -29.5h-17t-17 2q-2 2 -13.5 7t-15.5 7l-15 15q-2 4 -7 32.5t-7 40.5v15q0 2 -3 13t-5 23.5t-4 22.5t-2 15v28q-2 4 -8.5 15.5t-6.5 15.5q-4 4 -9 21.5t-7 21.5v14q0 6 -2 18.5t-4 27 t-4 26.5t-4 16zM678 90q10 0 10 -14.5t-10 -14.5q-12 0 -12 14.5t12 14.5zM457 311q-10 0 -10.5 -15t10.5 -15q12 0 12 15t-12 15zM487 326q-10 0 -10 -15.5t10 -15.5t10 15.5t-10 15.5z" />
<glyph unicode="v" horiz-adv-x="626" d="M131 176q-2 10 -8 35t-13.5 53.5t-13.5 53t-8 34.5v15q-2 4 -6 19t-9 31.5t-9.5 32t-4.5 19.5q-2 4 -1 21.5t1 21.5q0 2 -5 11t-10 18.5t-10 18.5t-5 11q-4 12 -11.5 41t-11.5 50q-2 6 -3 28.5t-1 30.5h64v-117l7 -7t7 -9q0 -2 1 3t3 10t3 10t1 3t2 -11t5 -18.5t5 -17.5 t2 -10q2 -4 7.5 -9t7.5 -7q-2 0 -7.5 -5.5t-7.5 -9.5t-2 -6v-8q0 -2 1 -7t1 -7l29 14v-57q0 -2 3 -11.5t5 -18.5t4 -18.5t2 -11.5q2 -6 0 -30.5t-2 -30.5q2 0 9.5 2t9.5 0q2 0 7 -5t7 -9v-15q0 -2 7 -7t7 -7q2 -2 1 -14.5t-1 -14.5q0 -8 2.5 -21.5t5.5 -27.5t5 -25.5 t2 -13.5t5 -11t10 -18.5t9 -18.5t4 -11q2 -4 -1 -8.5t-3 -8.5q4 0 17.5 -8t17.5 -4t14.5 26.5t14.5 32.5q2 2 0 13.5t0 15.5q2 6 13 28.5t16 28.5l14 -14q0 6 2 18.5t5 27t5 26.5t2 16q2 4 7 14.5t10 14.5l22.5 22.5t20.5 22.5q2 2 0 14.5t0 14.5q2 8 13 35.5l15 37.5 q2 2 8.5 7.5t6.5 7.5q2 4 4 14t2 14h14q0 2 -4 -6l-9 -18t-8 -17.5t-3 -5.5q0 4 12 21.5t16 21.5q2 4 7 21.5t8 21.5q2 4 7 15.5t7 15.5q2 0 8 6t6 8q2 2 1 14.5t-1 14.5q2 4 15.5 14.5t15.5 14.5v30q0 4 5 14.5t9 14.5l15 -14q4 -4 9 -15.5t5 -13.5t1 -11t1 -14 q0 -4 -1 -11t-1 -9q-2 -4 -10.5 -21.5t-18.5 -37t-19 -37t-11 -21.5q-2 -6 -3.5 -5t-5.5 -5q-4 -12 -25.5 -57t-46 -96.5t-46 -96.5t-27.5 -57t-18.5 -41t-26.5 -61.5t-26.5 -61.5t-16.5 -41l-14 -14q-8 -2 -31 -7.5t-29 -7.5q4 4 4 21.5t-4 21.5q-2 4 -14 9.5t-15 5.5 q-4 2 -9 7t-5 9q-4 4 -9 14.5t-5 14.5q0 2 -2 15t-5 27.5t-5.5 28t-4.5 17.5q0 2 -5 7t-9 7zM307 190q-10 0 -10 -14t10 -14t10 14t-10 14z" />
<glyph unicode="w" horiz-adv-x="915" d="M47 197q0 2 1 3t1 3v2q2 2 7 6t10 6q-2 4 -4.5 15.5t-5.5 25.5t-6 26.5t-3 16.5q0 2 -1 11.5t-2 20.5t-1 22.5v15.5q0 2 1 8t1 8q-2 10 -4 37t-4 31q0 4 -5 15t-5 15q0 2 1 10.5t3 17.5t2 17.5v10.5q2 4 -2 22.5t-6 22.5q-2 10 -5.5 30.5t-1.5 22.5q0 6 1 23.5t3.5 36 t4.5 35t2 22.5q2 0 8 -3t8 -5q10 -8 27.5 -32t21.5 -28q0 -4 -2 -14t-2 -15q0 -2 1 -11t2 -20.5t2 -21.5t1 -16q0 -4 3 -28.5t3 -29.5q0 -2 -1 -10t-3 -17t-2 -17v-9q-2 -4 2 -22.5t6 -22.5q0 -2 -1 -14t-3 -12q2 -6 4 -24.5t4.5 -40t4.5 -40t2 -22.5q2 -12 3 -36t3 -46.5 t3 -40t1 -19.5q0 -4 -2 -20.5t-2 -20.5t4 -10t8 -6q4 2 14.5 10t19.5 18.5t17.5 19.5t10.5 13q2 2 3 20.5t1 20.5q2 4 10 19.5t18.5 34t18.5 34t10 19.5t8 19.5t8 19.5q4 4 10.5 13t8.5 13q2 0 9 5.5t7 7.5t1 19.5t1 19.5l2 2q2 2 3 2t3 2q4 2 9 6v8q0 4 2 6t7 10.5t10 16.5 t10 15t7 9q2 4 10.5 20.5t8.5 18.5q2 4 8 15.5t10 13.5h17.5t17.5 -2q6 0 18.5 -3t14.5 -3q2 -2 10 -18.5t15 -26.5q2 -8 9 -28.5t15 -44.5t15.5 -44.5t11.5 -28.5q0 -4 4 -22.5t4 -22.5q2 -6 8 -22.5t12.5 -35t12.5 -35.5t8 -23q2 0 8 -6.5t6 -8.5t-2 -14t0 -14 q-2 -4 7.5 -14.5t15.5 -14.5q2 -4 11 -10.5t13 -8.5q-2 4 0 20.5t4 22.5l9 13l7 7t3 5t4 14.5t8 26.5t7 25.5t3 15.5q2 2 11.5 12t9.5 12v10.5t1 17.5t2 17.5t1 10.5q0 4 8 20.5t12 18.5q0 4 2 21.5t2 19.5q2 8 5.5 22.5t7.5 29.5t7 27.5t5 16.5l16 10q0 2 2.5 13.5 t4.5 15.5v26q0 2 -5.5 9.5t-7.5 9.5v4v4q0 2 2 4q2 0 7.5 5t7.5 7q4 4 10 13.5t8 11.5q2 4 4 28.5t2 28.5q2 6 5 19.5t7.5 29t7.5 28.5t5 18q2 4 8 13t10 11l25 -31l-23 -192q-4 0 -10 -3t-6 -7q-2 -4 -4 -16.5t-3 -27t-2 -26.5t-1 -14q-4 -12 -12.5 -43t-12.5 -39 q0 -2 -8 -6l-8 -4q0 -4 -2 -21.5t-4 -21.5q0 -4 -8.5 -19.5t-8.5 -19.5q-2 -4 -3 -29t-5 -29q0 -2 -7 -18.5t-9 -20.5q0 -2 -1 -3t-1 -3v-4q-2 -8 -5.5 -20.5t-7.5 -25.5t-8 -23.5t-4 -12.5q-2 -4 -8 -14t-8 -12v-7.5t-2 -7.5q-2 -4 -9.5 -18.5t-9.5 -20.5l-10 -15t-8 -9 q-4 -4 -23.5 -13.5t-28.5 -11.5l5 43q-4 -4 -16.5 -7t-16.5 -3t-6 -1t-4 -1q0 4 -1 16.5t-4 16.5q2 0 -3 5l-7 7q-4 8 -12 25.5t-10 21.5v6q0 4 1 5t1 3q-2 2 -11.5 19.5t-9.5 21.5v15q-2 0 -6 8q-2 4 -6 8q0 2 -1 12.5t-2 22.5t-2 23.5t-1 13.5t-6 9t-12.5 14t-12.5 13.5 t-6 8.5q0 4 4 20.5t2 20.5q0 2 -5 8t-7 8q-2 4 -5 22.5t-3 22.5l-6 6q-6 2 -7 7q0 4 -3 21t-7 22q0 4 -6 4q-6 6 -6 -2q-4 -4 -12.5 -17.5t-16.5 -28t-15 -26.5t-9 -19q-2 -4 -5.5 -15t-7.5 -24.5t-7 -25.5t-3 -16q-4 -4 -8 -7q-2 -2 -3 -2t-3 -2l-2 -2q-2 -2 -9.5 -11 t-9.5 -13t-9 -20.5t-9 -20.5t-10.5 -17.5t-17.5 -29t-16 -28.5t-9 -17q-4 -8 -10.5 -39t-8.5 -41l-22 2q0 -4 1 -14.5t-1 -14.5t-7.5 -12t-9.5 -13q-4 -4 -15 -14t-15 -10q-6 -4 -22.5 -7t-18.5 -1q-4 2 -13.5 13t-13.5 17q0 4 -3 21.5t-5 21.5l-6 7q-4 2 -7 6q-2 4 1.5 15 t3.5 15l-7 7q-8 6 -6 8v14q0 6 2 12q-2 4 -4 22.5t-4 22.5v7zM147 80q-10 2 -12 -12.5t8 -16.5q10 0 11 13.5t-7 15.5zM190 104q-10 0 -12 -13t8 -15t12 12t-8 16zM637 90q-10 2 -12 -11t8 -16q10 -2 12 11.5t-8 15.5z" />
<glyph unicode="x" horiz-adv-x="567" d="M184 322q-2 10 -7 32.5t-7 26.5q-4 4 -15.5 21.5t-15.5 21.5t-21.5 22.5t-21.5 22.5t-14 20.5t-14 22.5q-2 4 -7.5 16.5t-9.5 12.5q-4 4 -21.5 7t-21.5 3v57q4 0 21.5 -3t21.5 -5t21.5 -13.5t23.5 -15.5q4 -4 15.5 -15t13.5 -15q2 0 1 -6.5t-1 -8.5l29 -43q4 -6 16 -18 l26.5 -26.5l27 -27t18.5 -16.5q4 2 15 13.5t15 15.5q0 2 4.5 11t9.5 18.5t9 18.5t6 11l29 43q4 4 16 15.5t12 15.5q2 4 11.5 21.5t18.5 37t17.5 37t12.5 21.5q4 6 16 19.5t26.5 26.5t27 25.5t18.5 16.5q4 0 9 -6t5 -11q2 -8 4 -33.5t2 -35.5q-2 0 -10 -1t-10 -1q-4 -2 -8 -7 t-6 -8q-2 -4 -8.5 -15t-6.5 -15q-2 0 -8 -6.5t-8 -8.5q0 -2 -4 -11t-9.5 -18.5t-9.5 -17.5t-6 -10t-8 -11t-13.5 -18.5t-13.5 -18.5t-8 -11q-4 -6 -15.5 -22.5t-15.5 -20.5q0 -4 -6 -15.5t-8 -15.5q-2 -2 -14.5 -13.5t-14.5 -15.5q-4 -6 -9 -28.5t-5 -30.5t5 -30.5t9 -26.5 q2 -4 20.5 -22.5t22.5 -23.5q2 0 1 -6t-1 -8q2 0 8.5 -6t8.5 -8q0 -2 5 -14.5t9 -14.5q2 -4 14.5 -8t14.5 -6v-8v-7q2 -2 7 -8t7 -8v-2q0 -2 2 -4q0 -2 -1 -3t-1 -3v-2q-2 -2 -13 -7.5t-16 -7.5q-2 0 -7 -1t-9 -1h-6q-2 0 -6 2t-15.5 13.5l-15.5 15.5q-2 2 -8 11.5 t-13.5 18.5t-13.5 18t-8 11l-59 60q-4 0 -14.5 -6t-14.5 -11q-2 -2 -7 -13t-7 -15q-4 -2 -16.5 -14.5t-12.5 -14.5q-2 -4 -8 -15t-13.5 -24.5t-14.5 -28t-9 -20.5q-2 -4 -7 -22.5t-7 -20.5q-4 -4 -32 -21.5t-42 -23.5q0 -2 -11.5 -2h-13.5q0 4 4 22.5t7 24.5q2 2 15 6t13 8 q4 4 9.5 29t7.5 29t13 26.5t15 32.5q2 4 13.5 20.5t15.5 22.5q6 8 23.5 30.5t21.5 29.5q0 2 7 7t7 7v12v17z" />
<glyph unicode="y" horiz-adv-x="604" d="M207 33q-4 -2 -13.5 -3t-13.5 -1q0 4 -1 16t-1 16q-2 4 -7 15.5t-9 13.5q-2 4 -14.5 8t-14.5 8q-4 4 -14 26t-15 32q-2 4 0 15t0 14q-2 4 -14 8t-14 8q-4 2 -9.5 13t-7.5 16q0 4 1 21t-1 22q0 4 -7 15t-7 15t1 21.5t-1 21.5q0 2 -7 7.5t-7 7.5q-2 2 -2 6v8v8q0 2 2 6 t8 22.5t6 22.5q0 2 1 15.5t1 21.5q0 4 -1 18.5t-1 18.5q-4 0 -14.5 5t-14.5 9v7v8q0 12 2 40.5t5.5 61.5t5.5 61.5t2 41.5l14 14h6q2 0 4 1t4 1t4.5 -1t6.5 -1h6l14 -14v-9v-6q0 -2 -3 -11t-5 -18.5t-4 -18.5t-2 -11q0 -4 7 -21.5t7 -21.5v-51v-52q0 -4 -7 -22.5t-7 -22.5 v-6v-8q0 -2 6 -14.5t8 -14.5q0 -4 5 -21.5t9.5 -38t9.5 -36.5t5 -20q2 -4 7 -15.5t7 -15.5v-29q2 -4 8 -21.5t6 -21.5v-14q2 -2 8.5 -8t6.5 -8q8 -8 19.5 -24.5t11.5 -18.5q0 -4 -5.5 -15.5t-9.5 -13.5h15l28 -15q2 -2 7 -8t8 -8q4 0 16 -5t12 -9v-8q0 -4 1 -7.5t1 -5.5 q0 -4 -1 -12t-1 -10q0 -4 -5 -9.5t-9 -5.5l-6 -2h-6q-2 0 -2 2q-2 4 -7.5 14.5t-7.5 14.5zM461 6q0 2 3 15.5t5 27.5t4 27.5t2 17.5q0 2 1 24.5t1 33.5q0 6 -1 28.5t-1 30.5q0 4 -5 9t-9 5t-15.5 -5t-13.5 -9t-8 -16.5t-14.5 -27.5t-14.5 -28.5t-8 -15.5q-2 -4 -11 -13.5 t-21.5 -21.5t-24 -22.5t-17.5 -16.5q-4 -4 -20.5 -15t-22.5 -14q0 4 -1 18.5t-1 18.5q0 6 1 20.5t1 16.5l15 29q4 4 22.5 14t22.5 15q2 4 7 15t7 13q4 6 20.5 28.5t22.5 31.5q2 2 8 7t6 7q4 8 11.5 22.5t14.5 28.5t13 24.5t6 12.5v32.5v55.5v55.5v32.5q0 2 2.5 12.5 t4.5 22.5t5 23.5t3 13.5q2 10 2 37.5t-2 36.5q4 4 14 9t14 5h7q2 0 4 1t4 1t3 -1t5 -1h6q6 0 17.5 -5t13.5 -9v-21v-22l-8 -9l-6 -6q0 -2 2 -11t5 -18.5t5 -18.5t2 -11q0 -4 -5 -9.5t-9 -5.5v-176l-17 -28v-176l17 -29q0 -12 -1.5 -46t-1.5 -71t1.5 -70.5t1.5 -46.5 q0 -6 2 -18t4 -26.5t4 -27t4 -16.5q-4 -2 -9 -7t-5 -7q-2 -2 -6.5 -11t-9.5 -19.5t-9 -18.5t-6 -10q-4 -4 -12.5 -8.5t-12.5 -4.5v34t-1 53.5t-2 52t-1 34.5q0 2 -2 15.5t-4 28t-5 26.5t-3 16v17v14zM416 240q-6 2 -6 -8.5t6 -6.5q8 2 8 7.5t-8 7.5zM446 268q-10 0 -10 -14 t10 -14t10 14t-10 14zM461 299q-10 0 -10 -15.5t10 -15.5t10 15.5t-10 15.5z" />
<glyph unicode="z" horiz-adv-x="698" d="M80 -6q-4 4 -15.5 15t-15.5 16l-29 14l29 14q-4 2 -15 13.5t-14 15.5q-2 2 -2 4v4l2 6l22.5 22.5t20.5 22.5q2 2 7.5 10.5t9.5 18.5t8 18.5t6 10.5q2 4 14.5 15t14.5 15q2 2 7 13.5t7 15.5l20.5 20.5l31 31l30.5 30.5t21 20l15 7.5t13 7.5q4 2 8.5 14t8.5 14q2 4 13 8.5 t15 6.5l7.5 15t7.5 16q2 2 7 6t7 8q4 4 21.5 14t23.5 15q2 2 13.5 7t15.5 7q2 4 7 15t7 16q4 4 21.5 20t21.5 23q4 2 22.5 14t22.5 14q4 4 21.5 22.5t21.5 22.5q4 2 15.5 7.5t15.5 7.5l-6 12t-8.5 17.5t-9.5 17.5t-7 10q-2 4 -13 9t-16 7q-2 0 -20 2l-40.5 4.5t-46.5 4.5 t-38 4h-10h-6q-2 -2 -13.5 -8.5t-15.5 -6.5q-6 -4 -22.5 -9t-20.5 -7q-4 0 -16.5 -2t-26.5 -5t-26.5 -5t-18.5 -2q-4 0 -15.5 1t-13.5 -1q-4 0 -9 -5.5t-7 -9.5h-154q0 4 3 22.5t5 22.5t13.5 15.5t15.5 13.5h17.5h28h26.5h16l2 2q2 0 6 4t7 8h13h23.5h22.5h14q4 2 15.5 7.5 t13.5 7.5v-15q4 4 15.5 9.5t15.5 5.5h24q10 0 20.5 1t16.5 1q12 0 39 -1t31 -1q10 0 29.5 -2t41 -5.5t39 -5.5t21.5 -2q6 -2 28.5 -13t30.5 -15q2 -2 7 -14.5t8 -16.5q2 0 7 -6t7 -8v-6v-9q-2 -8 -7 -22.5t-9.5 -28.5t-8.5 -24.5t-4 -12.5l-9 -9l-16.5 -16.5l-18.5 -18.5 t-15 -13q-2 -2 -13.5 -11.5t-23.5 -18.5t-23.5 -18t-13.5 -11l-14 -15q-2 -4 -14.5 -21.5t-14.5 -21.5q-4 -6 -15.5 -17t-13.5 -14q-4 -2 -22.5 -7t-22.5 -7l-14 -14q-2 -4 -11 -14.5t-18.5 -22.5t-17.5 -23.5t-10 -13.5q-12 -12 -32 -32.5t-38 -39t-32.5 -32t-16.5 -13.5 h-14l-29 -57q-2 -4 -7 -21.5t-7 -23.5v-6v-8l14 -15q2 -2 12 -6t22.5 -8t22.5 -8t17 -6h14q25 0 84 -2.5t126.5 -5.5t128 -5t85.5 -4v-35q-25 0 -87.5 1t-132 2t-132 2.5t-86.5 1.5q-6 0 -23.5 2t-36 4t-35 4t-22.5 4zM137 213q-10 0 -10 -14.5t10 -14.5t10 14.5t-10 14.5z M109 244q10 0 10 -15.5t-10 -15.5t-10 15.5t10 15.5zM80 756q-12 0 -12 -15.5t12 -15.5q10 0 10 15.5t-10 15.5z" />
<glyph unicode="{" horiz-adv-x="600" d="M299 31l8 8q0 4 -7 21.5t-7 21.5v14q-4 4 -15.5 22.5t-15.5 22.5v6v9l7 7t10 7q-4 4 -10.5 16.5t-13.5 26.5t-13 26.5t-9 18.5q-2 4 -7 21.5t-7 21.5q-2 6 -8 18.5t-13.5 26.5t-13.5 26.5t-8 16.5t-7 9t-9 5q-4 4 -15.5 9.5t-13.5 5.5t-14.5 -7.5t-14.5 -7.5h-36h-37 q-4 0 -9.5 5.5t-5.5 9.5q0 2 -1 15t-1 22q0 4 1 18t1 19q6 2 21.5 10t32 17t31 18.5t18.5 13.5q8 6 30.5 28.5l48 48l49 49l34.5 34.5q4 6 14 28.5t14 30.5q0 2 1 15.5t1 19.5t-1 21.5t-1 17.5l-14 28q-4 6 -11.5 17.5t-14.5 24t-12 21.5t-7 11l-15 15q-2 4 -7 21t-7 22 q-2 2 -7 8t-7 6q-4 6 -9.5 23.5t-5.5 21.5q0 2 -1 24.5t-1 32.5q0 12 1 35t1 25q0 4 5.5 14t9.5 14q2 4 14 8.5t14 6.5q4 4 6.5 15t2.5 15h30q0 4 -6 14.5t-4 14.5q2 2 10.5 10t17.5 17.5t18 17.5t14 12q2 2 7 1t7 -1q4 2 14 7.5t15 9.5q2 0 8 6l8 8q4 2 20.5 6t22.5 8h14 q2 0 13.5 5.5t23.5 9.5t22.5 9t14.5 5h6h8q4 -2 9.5 -7t5.5 -7t1 -10.5t1 -12.5t-1 -6t-1 -6v-8q-2 -4 -14.5 -9.5t-14.5 -7.5l-8 -8l-6 -6q-4 0 -15.5 1t-15.5 -1t-20.5 -10t-37 -17.5t-38 -18.5t-21.5 -11q0 -2 -6 -2t-8 2q-2 -4 -8 -14.5t-13.5 -21.5t-13.5 -22.5 t-8 -15.5q-4 -4 -9 -14.5t-5 -14.5q-4 -8 -10.5 -24.5t-6.5 -20.5q0 -2 6 -23.5t11 -33.5q0 -4 6 -22.5t8 -22.5q0 -2 -1 -14.5t1 -14.5q0 -4 11 -26.5t18 -32.5q2 0 7 -6t7 -9q4 -4 9 -15t5 -13t1 -26.5t1 -37.5q0 -14 -1 -39.5t-1 -27.5q0 -10 -5 -33t-9 -27 q-2 -4 -13.5 -18t-25.5 -30.5t-27.5 -32t-21.5 -21.5q-2 -2 -14.5 -7t-14.5 -7l-59 -60q-4 -4 -14.5 -20.5t-14.5 -22.5q-2 -2 -2 -4v-4v-2q0 -2 2 -4q10 -2 38 -13.5t36 -15.5l74 -74q0 -4 5 -14t9 -14q2 -6 6 -20.5t9 -28t9.5 -25.5t4.5 -14q2 -12 9 -41t14 -61.5 t12 -61.5t8 -41q4 -2 9 -7l7 -7v-17l72 -71v-19q4 0 15 2t15 2q4 -2 21.5 -7t21.5 -9q2 0 7.5 -5t7.5 -10l2 -6q0 -2 -1 -3t-1 -3v-2q-2 -2 -13.5 -7t-15.5 -7q-2 0 -16.5 -1t-22.5 -1q-6 0 -19.5 1t-15.5 1q-4 2 -26.5 13t-30.5 15l-15.5 15.5l-15.5 15.5v15l-14 14 q0 2 1 7t-1 7t-14.5 7t-14.5 8q-4 4 -9 21t-5 24z" />
<glyph unicode="|" horiz-adv-x="266" d="M109 662q-2 10 -4.5 34.5t-5.5 53t-5 53t-2 35.5v71q0 8 -2 38t-5 65t-5 64.5t-2 37.5v43v75v73.5v44.5q0 4 -6 28.5t-9 28.5q0 4 1.5 22.5t-1.5 22.5q-4 2 -8 6q-6 6 -6 8t-1 10.5t-1 12.5v12q0 4 2 8t7 9.5t7 5.5l-14 16h14h15q4 -2 15 -7t16 -9v-15q0 -2 7 -14t7 -14 q0 -4 2 -21.5t2 -21.5h-14q0 -4 -3.5 -15.5t-0.5 -15.5q2 -6 13 -28.5t15 -28.5q-4 -2 -9 -7.5t-5 -7.5v-6v-10q0 -6 2 -28.5t4 -50.5t5 -51.5t3 -29.5q0 -4 -1 -29.5t1 -29.5q0 -4 6.5 -21.5t8.5 -21.5v-21v-24q0 -4 -3.5 -16.5t-5.5 -27t-4 -27.5t-2 -15t2 -11.5t4 -18.5 t5.5 -18.5t3.5 -11.5q2 -8 4 -24.5t4 -32.5t4 -29.5t2 -15.5v-12.5t1 -24.5t1 -28.5v-22.5v-22.5t-1 -29t-1 -24.5v-12q0 -4 -2 -16.5t-5 -27t-5 -27.5t-2 -17q0 -6 5 -28.5t9 -29.5v-512q-4 -6 -9 -28.5t-5 -30.5q0 -10 -1 -38t-2.5 -58.5t-2.5 -59t-1 -39.5q-4 0 -11 2.5 t-11 2.5q-4 2 -9 7t-5 9v965v0z" />
<glyph unicode="}" horiz-adv-x="452" d="M199 80q-2 6 -7.5 33.5t-7.5 38.5q-2 6 -7 23.5t-9 21.5q-4 8 -14.5 30.5t-14.5 26.5l-8 8t-6 8q-2 4 0 21.5t0 21.5q0 2 -6 14.5t-8 14.5q0 2 -1 7t-1 7v11q0 4 2 6l14 14l-14 14q-4 4 1 33t13 41q2 4 20.5 7t22.5 7q4 0 8 13.5t8 15.5q0 2 12.5 7t16.5 7h14 q2 2 11.5 6.5t18.5 9.5t18.5 9t11.5 4q4 2 20.5 -1t22.5 -3v35q-6 2 -23.5 10t-36 17.5t-35 17.5t-22.5 12q-4 2 -15.5 14.5t-13.5 16.5q-4 2 -15 7t-15 7h-15q-2 0 -7 6.5t-7 8.5q-4 2 -22.5 13t-20.5 15t-1 15.5t1 13.5t-7 8t-9 8v15q0 2 -5.5 7t-9.5 7q4 0 9.5 5t5.5 9 q0 2 -6.5 14.5t-8.5 14.5v14v17l6 6q8 8 9 8q2 2 1 14.5t-1 14.5t7 7t9 7q4 10 11 30.5t13.5 42t12.5 38t6 20.5t1 22.5t1 28.5t-1 30t-1 22q0 6 -4 19t-9.5 26.5t-9.5 26t-6 16.5q-2 2 -18.5 13t-26.5 17q-2 0 -14 5.5t-14 9.5t-5.5 20.5t-3.5 20.5q4 0 15.5 -1t26 -3.5 t25.5 -4.5t15 -4l43 -43q4 -6 15.5 -23.5t13.5 -21.5q4 -4 9 -26.5t7 -30.5v-47v-41q0 -4 -4 -20.5t-9 -35t-10 -36t-7 -25.5q0 -4 -7.5 -15t-7.5 -16q0 -4 -2 -18t-5 -32.5t-5 -37t-2 -28.5v-17v-12q2 -4 15.5 -8t13.5 -6q2 -6 -4.5 -23.5t-10.5 -21.5q2 6 13.5 12t15.5 2 q2 0 9 -6t14.5 -14.5t13.5 -14.5l8 -8t7 -1t7 1l15 -14h14l14 -15q8 -4 26.5 -15t40 -22.5t40 -21.5t26.5 -14l15 -29q0 -2 1 -10.5t1 -12.5t-1 -12t-1 -10q-4 -2 -8 -6t-4 -6l-3 -3q-2 -4 -3 -13t-1 -13q-4 0 -13 -1t-13 -1q-10 -4 -39 -8t-33 -7l-8 -8l-6 -6 q-4 -2 -22.5 -7t-22.5 -9t-13.5 -12.5t-18.5 -17.5t-16.5 -17.5t-9.5 -10.5q-2 -4 -2 -10v-14q0 -8 1 -19.5t1 -15.5t6.5 -28.5t8.5 -28.5q0 -2 -1 -8.5t1 -6.5q2 -4 14 -15t14 -15q2 -2 0 -14.5t0 -14.5q0 -2 6.5 -7t8.5 -7v-9v-6q-2 -4 -8.5 -15t-6.5 -15t5.5 -14.5 t9.5 -14.5l-15 -146l-116 -116q-2 -2 -18.5 -7.5t-26.5 -9.5h-23q0 4 3 15.5t5 15.5l20.5 20.5t24.5 22.5q2 2 10.5 8t18.5 13.5t18.5 14.5t10.5 9q4 2 9 7t5 7q6 8 17.5 31l13.5 27v20v25z" />
<glyph unicode="~" horiz-adv-x="841" d="M389 463q-6 0 -23.5 5t-21.5 9q-2 2 -1 7t1 8q-2 4 -14.5 22t-14.5 23q-2 2 0 13t0 15q0 2 -7 7.5t-7 7.5q-4 4 -9 14t-5 14v15q-6 8 -23.5 24.5t-21.5 20.5q-2 2 -10.5 2h-12.5h-12t-8 -2q-2 -2 -13.5 -24.5t-17.5 -35.5q-6 -12 -15.5 -32.5t-18.5 -41t-16 -38t-7 -19.5 q-2 -4 -4.5 -14t-2.5 -14h-30v-60h-23q0 10 -5 38t-9 36q-2 2 -7 14t-7 15q-2 0 -3 8v6h31q4 10 15.5 37.5t15.5 36.5q0 2 13.5 13t15.5 15t0 30t0 30q2 2 14 7t14 7q4 4 9.5 14.5t5.5 14.5h102q4 -4 15.5 -14.5t15.5 -14.5q2 -2 13 -7t15 -7q2 -2 8.5 -11.5t13.5 -18.5 t13 -18.5t8 -11.5q2 0 8.5 -6t6.5 -8v-14q2 -2 7 -13.5t9 -15.5q2 -4 13.5 -22.5t15.5 -22.5q2 -2 7 -14.5t7 -14.5q4 -6 15.5 -17t13.5 -11t15 -2.5t22 -2.5q6 0 20 2.5t17 2.5q4 0 21 13t22 15q4 2 15 0t15 0t14.5 20.5t14.5 22.5q2 2 7 1t7 -1q4 4 8.5 15.5t6.5 15.5h14 q2 6 7 28.5t9 28.5q2 6 13.5 28.5t15.5 31.5q2 4 7 9t7 5t7.5 1t9.5 1q0 -2 2 -2h4h6q4 -2 9 -13.5t5 -15.5q0 -2 1 -11t1 -13t-1 -11.5t-1 -9.5q0 -4 -7 -16t-14 -26.5t-14.5 -28t-7.5 -17.5q-2 -4 -4 -10t-2 -10q-4 0 -11 -2t-11 -6q-4 -2 -9.5 -13.5t-5.5 -15.5l-16 14 q0 -4 -5 -14t-9 -14q-6 -8 -17.5 -20.5t-23 -24l-20.5 -20.5t-11 -9t-21.5 -1t-29.5 -1q-12 0 -38 1t-30 1q-2 0 -13 5t-16 9q-2 2 -7 8t-7 6q-2 2 -14 1t-15 -1q-10 8 -22 24.5t-8 21.5zM666 520q-10 0 -10.5 -14t10.5 -14q10 0 10 14t-10 14z" />
<glyph unicode="&#xa1;" horiz-adv-x="215" d="M111 1063h-9q-2 4 -7 15.5t-7 15.5t-3 13t-1 13q2 0 9 1t9 1q2 2 14.5 7.5t14.5 7.5q4 0 9 2t10 2q0 -4 -1.5 -10.5t-3.5 -8.5q-4 -6 -14 -28.5t-14 -30.5h-6zM176 801l-14 -15q0 -2 -1 -10t-1 -12t1 -12.5t1 -10.5t5 -7t9 -7v-698q-6 0 -23.5 3t-21.5 7q-6 4 -17.5 21.5 t-11.5 23.5v278l15 15q-2 6 -4 22.5t-4.5 35t-4.5 35.5t-2 24q0 16 -1 57t-1 88t1 89t1 58q-4 2 -9 13.5t-5 15.5t5 9t9 5l-14 15q-2 4 0 15t0 15q-4 2 -8 7q-6 6 -6 8q-2 0 -2 8q0 4 -2 8h16t16 -2l29 -14l15.5 -15.5l15.5 -15.5q0 -2 5 -18.5t9 -24.5v-8v-6z" />
<glyph unicode="&#xa2;" horiz-adv-x="655" d="M330 -166q2 2 8 14.5t6 14.5v12v16q0 10 -6 39t-8 35q0 2 -7.5 14.5t-7.5 14.5v13v23.5v22.5v15q-2 6 -7 28.5t-7 30.5l-14 -16q-4 0 -20.5 -2.5t-24.5 -2.5q-10 0 -33 2.5t-25 2.5t-18 11t-27 19l-14 15h-14q-4 2 -15.5 7t-13.5 7q-4 4 2 14.5t6 14.5h-33q0 4 -2 15 t-2 15q-2 2 -7 7.5t-9 7.5q4 2 15 7t16 7h6q4 0 5 1t5 1q0 -2 2 -2h4h6q4 -2 21.5 -14.5t21.5 -14.5h17q4 -4 8 -15t6 -15l117 -29q2 0 6 7t9 19.5t9 24.5t4 23q2 8 -4 30.5t-10 26.5v293l-14 -14q-4 -4 -15.5 -21.5t-13.5 -21.5q-4 -4 -9 -10.5t-7 -6.5t-13.5 1t-15.5 -1 q-2 0 -7 -5t-7 -9q-2 -2 -7.5 -14.5t-7.5 -14.5q-4 -2 -15 -7t-13 -7q-4 -4 -15.5 -14.5t-15.5 -14.5q-4 -8 -15.5 -30.5t-13.5 -28.5q-2 -2 0 -14.5t0 -14.5l-8 -8l-6 -6q-2 -4 0 -22.5t0 -22.5q-6 -6 -28.5 -17.5t-30.5 -11.5q-4 4 -9.5 21.5t-5.5 21.5t5 9t10 5l-15 17 q-4 4 1 36.5t14 49.5q2 4 12 15t23.5 23.5t24.5 22.5t13 13q2 2 8.5 13t13.5 23.5t13 23.5t8 13q6 4 28.5 15.5t31.5 13.5v-29q-2 4 4 21.5t10 21.5q2 2 10 4t18.5 4t19.5 4.5t11 2.5q4 2 9.5 7t5.5 9v20v23q0 4 -3 19.5t-5.5 32t-4.5 31.5t-2 19t-1 24.5t-1 25.5 q6 0 30 -2.5t30 -4.5q4 0 9 -5t5 -9q2 -4 7 -25.5t9 -31.5v-8v-7q-2 -4 -9 -15t-7 -15t3 -18.5t3 -20.5q6 0 19.5 -1t29 -2t28.5 -1h19q4 0 22.5 6t23.5 8h6h8q2 -2 7 -8t7 -6q4 -2 17.5 -3t17.5 -1q0 -6 -2 -21.5t-4 -19.5q0 -2 -5 -7.5t-9 -7.5l-15 15l-14 -15h-23h-20 q-2 0 -8 7.5t-9 7.5h-6h-8q-2 0 -13 -5.5t-16 -9.5q-6 -4 -22 -14t-21 -14q-4 -2 -10 -7.5t-6 -7.5v-26v-33q0 -4 3 -19.5t6 -32t5 -31.5t2 -20v-204q2 -4 13.5 -9.5t15.5 -5.5q8 0 36 5.5t38 9.5q2 2 14 7t25.5 12t27 14.5t19.5 11.5q2 0 8 6l8 8l29 14h6h8q4 -2 9.5 -7 t5.5 -7t1 -10t1 -12t-1 -12.5t-1 -10.5l-15 -29q-6 -4 -28.5 -15t-30.5 -13q-4 -2 -21.5 0t-21.5 0q-2 0 -7 -7.5t-7 -7.5q-4 -4 -14.5 -9t-14.5 -5l-17 29l-28 -29l-15 14l-14 -45q0 -12 2 -40.5t5 -61.5t5 -61.5t2 -41.5q0 -6 1.5 -23.5t1.5 -35.5v-35.5v-23.5h-8.5 t-8.5 2q-4 2 -15.5 7t-13.5 7q-4 4 -15 15.5t-15 15.5v6v8zM375 141q-10 0 -10 -15t10 -15t10 15t-10 15zM477 170q-10 0 -10 -14.5t10 -14.5t10 14.5t-10 14.5z" />
<glyph unicode="&#xa3;" horiz-adv-x="878" d="M29 20q0 2 6 11.5t15 18.5t19.5 17.5t18.5 12.5q4 2 20.5 6t37 9t38 9.5t21.5 4.5q8 2 24.5 7t18.5 7q4 4 15 14t13 15q2 8 7.5 29.5t9.5 44t8 44t6 29.5v6v8q-4 10 -9 33t-5 27q-2 2 -13.5 18.5t-17.5 24.5q-2 4 -7 9t-7 5t-15.5 1t-21.5 1q-6 0 -20.5 -1t-16.5 -1 t-13 -5t-16 -9q-2 -2 -7 -8.5t-7 -6.5q-4 -2 -26.5 -4t-26.5 -2q0 6 3 32t7 32q2 6 13.5 16t15.5 14h26h31q2 0 8 -7t8 -7q2 -2 7 -2h8q2 0 7 1t7 1q4 0 15.5 5t13.5 9q6 6 17 22.5t11 20.5q0 2 -4 15.5t-9 29t-10 27.5t-5 17q0 4 7 21t7 22q0 4 -5 10t-9 6q6 4 17 26.5 t11 30.5q0 4 -7 15.5t-7 13.5l22.5 22.5l22.5 22.5v29q0 4 5 15t10 13q2 4 18 15.5t25 15.5q6 4 17 9t13 5q4 2 21.5 1t21.5 -1q2 0 13.5 2.5t23.5 5.5t22.5 5t14.5 2h6h8q10 -4 38 -14.5t36 -14.5q-4 -4 -4 -8t4 -6q2 -4 13.5 -8.5t15.5 -8.5v-2q0 -2 2 -4q0 -2 -1 -2 t-1 -2v-4q-2 -4 -7.5 -9t-7.5 -5t-11 -1t-13 -1h-12q-4 0 -9 2q-4 4 -10 14t-4 14q-4 0 -18.5 1t-18.5 1q-6 0 -20.5 -1t-16.5 -1t-13 -5t-15 -9l-29 -29q-4 -2 -15.5 -7t-13.5 -7q-2 -4 -13 -19.5t-17 -25.5q0 -2 -5.5 -14.5t-9.5 -14.5q-4 -4 -21.5 -9t-21.5 -5 q4 -2 9.5 -6t5.5 -8q2 -4 -0.5 -30t0.5 -30l6 -6l8 -8q0 -4 -7 -21.5t-7 -21.5q0 -2 6 -8t8 -6v-9v-8l-14 -43q4 0 21 -1t22 -1q10 0 26.5 1t18.5 1q4 0 21.5 7t21.5 7q4 2 29.5 0t29.5 0l29 15l-15 -43l-14 -29q-4 -4 -20.5 -9t-24.5 -7q-6 0 -22.5 -2t-35 -5t-36 -5.5 t-23.5 -2.5l-14 -14q4 2 15 -4t14 -10v-10q0 -4 1 -8.5t1 -8.5q0 -6 -1 -18.5t-1 -14.5t-7.5 -13t-7.5 -15v-13.5v-23.5v-23.5v-13.5q0 -4 -2 -16.5t-5 -26.5t-5 -27.5t-2 -15.5v-18v-13q2 0 18.5 -5t24.5 -9h16q16 -2 49 -7t37 -7t15.5 -7.5t15.5 -7.5q6 -4 28.5 -9 t28.5 -5h31q2 0 12.5 -3t22.5 -5t23.5 -4t13.5 -2q4 0 31.5 -1.5t39.5 -1.5h27q8 0 18 3l17 28q4 -6 14 -28.5t15 -30.5v-6q0 -4 1 -5t1 -4q0 -2 -1 -7t-1 -7q-6 -2 -29 -7t-31 -7l-29 -15l-14 29l-14 -29l-133 29q4 2 4 7t-4 7q-2 2 -18.5 7.5t-24.5 7.5h-15q-4 2 -16 6 t-27.5 9t-29 10.5t-15.5 5.5h-49h-53q-2 0 -18.5 -6.5t-24.5 -10.5q-4 -2 -20.5 -9t-38 -16.5t-42 -18.5t-32.5 -13q-2 -2 -14.5 -8.5t-14.5 -6.5t-22.5 -2t-30.5 -2q-8 0 -20.5 2t-14.5 2zM276 94q-10 0 -10 -14t10 -14q12 0 12 14t-12 14zM322 766q-10 0 -10.5 -14.5 t10.5 -14.5q10 0 10 14.5t-10 14.5zM350 885q-10 0 -10 -15.5t10 -15.5t10 15.5t-10 15.5z" />
<glyph unicode="&#xa4;" horiz-adv-x="925" d="M121 -8q-2 -6 -7 -6t-8 6q-4 6 6.5 6t8.5 -6zM164 152l-7 7t-7 9q0 2 1 13.5t-1 15.5q0 2 -6.5 7t-8.5 7v14l-14 15q-2 8 -7 35.5t-8 37.5q0 2 -1 16.5t-1 22.5t1 20.5t1 14.5q0 4 5.5 9t9.5 5q-4 0 -9.5 5.5t-5.5 9.5q0 2 -1 15t-1 22q0 4 1 18t1 18q4 0 15.5 5.5 t13.5 9.5q2 2 0 14t0 14q4 4 14.5 9.5t14.5 5.5q0 4 -5 9t-9 5q-2 2 -14.5 1t-14.5 -1l-15.5 15.5t-13.5 15.5q-4 4 1 14t5 15h-20q-4 6 -15.5 28.5t-15.5 30.5q-2 2 -14.5 13.5t-14.5 15.5t-5 23.5t-3 23.5q4 0 25.5 -1t25.5 -3q4 0 15.5 -5.5t15.5 -9.5l14 -14v-4 q0 -2 3 -4l-3 -6q-2 -4 -7 -9.5t-7 -5.5q4 -6 21.5 -23.5l21.5 -21.5l29 -14q2 0 10 -1t12 -1t12.5 1t10.5 1t7 5t7 9t7.5 15.5t7.5 15.5q6 8 23.5 24.5t21.5 18.5q2 2 13 0t15 0q2 0 7.5 6t7.5 8t14 8.5t14 6.5q4 4 22.5 15t22.5 15t15.5 9.5t13.5 5.5h49h53q8 -2 36 -7.5 t38 -7.5q8 -4 36 -15t36 -15q-4 -4 0 -15q4 -2 22.5 -7t22.5 -7q2 -2 7 -13.5t7 -15.5v-14q6 -4 28.5 -9l31.5 -7q4 0 19 2t20 2q0 4 -7.5 20.5t-3.5 20.5q2 4 18.5 21.5t24.5 21.5h4q2 0 2 1t2 1l5 -2h2q4 -2 9 -13.5t7 -15.5v-14v-15q0 -2 -7 -8t-9 -6q0 -2 -2 -11.5 t-4.5 -19.5l-4.5 -18t-4 -10q-2 -4 -21.5 -14.5t-21.5 -14.5t-2 -6v-8q0 -2 1 -8.5t1 -8.5q2 -4 7.5 -21.5t7.5 -21.5v-8v-6q-2 -4 -13.5 -9.5t-15.5 -5.5q4 -4 15.5 -15t13.5 -15t5 -20.5t3 -22.5h-51q-4 -10 -15.5 -38t-15.5 -36t-14.5 -30.5t-14.5 -26.5q-4 -6 -14 -23.5 t-14 -21.5q-4 -2 -16.5 -13.5t-14.5 -15.5v-23v-20q2 -4 14 -15.5t17 -15.5q2 -2 7 -13t7 -15q0 -2 1 -11.5t1 -11.5q-6 0 -29.5 2t-31.5 6q-4 2 -21.5 14.5t-22.5 14.5q-4 2 -22 6t-23 8q-4 8 -10 36t-4 38q0 4 6 9t8 5q4 2 30 0t30 0q2 2 7 14.5t7 14.5q2 6 9.5 17.5 t14.5 23.5t13 21.5t8 11.5l2 2q0 2 4 6t9 6q0 4 -1 15.5t1 15.5q0 2 7 15t14 27.5t14.5 27t7.5 16.5q2 2 3 18.5t1 26.5q0 4 -1 21.5t-3 21.5l-15 -15q-2 -2 -4 -2q0 8 -4 38t-6 38q-2 4 -14.5 15.5t-14.5 13.5t-8 11t-14 19.5t-14.5 18.5t-8.5 10q-2 0 -24.5 5.5t-32.5 9.5 h-17q0 2 -6 8t-8 6h-6q-4 0 -6 1t-4 1t-3 -1t-3 -1h-7q-4 -2 -9 -13.5t-5 -15.5l-29 15q-4 2 -32.5 7t-40.5 7h-8h-7q-2 -2 -8 -7t-6 -7q-2 -4 -7 -16.5t-9 -12.5q-2 -2 -10.5 -7t-17.5 -9.5t-18.5 -8.5t-11.5 -6q-4 -2 -15 -14t-13 -14t-8.5 0t-8.5 0t-7 -14.5t-7 -14.5 l-8 -8l-6 -6q-2 -4 0 -15.5t0 -15.5l-15 -15q-2 -2 -10 1.5t-12 3.5q0 -8 5 -32t3 -30q0 -2 -5 -11t-9.5 -18.5t-9.5 -18.5t-5 -11v-15q0 -2 -3 -11t-6 -18.5t-5 -18.5t-2 -11q0 -4 6 -25.5t10 -31.5q0 -4 5 -15.5t10 -15.5q2 -4 14 -21.5t14 -21.5q2 -2 7.5 -14.5 t7.5 -14.5l14 -14q4 -2 15.5 -4t15.5 -2v-10h28v-29q4 4 14.5 9t14.5 5q4 2 22.5 1t22.5 -1q6 0 20.5 2t31 5t30.5 5.5t20 2.5q4 2 20.5 7t22.5 9q4 0 11.5 5t11.5 9v-69q-4 0 -12.5 -1t-10.5 -3l-14 -15q-4 -4 -15.5 -9t-13.5 -5h-30q-2 -2 -14.5 -8t-14.5 -6 q-4 -4 -12 -5.5t-15 -5.5q-8 -4 -16 -6q-6 2 -12 13.5t-4 17.5l-29 -14v18q-4 0 -14.5 -3t-14.5 -1q-2 0 -8 6q-4 4 -6 8q-4 0 -15.5 -5t-15.5 -9v29l-28 -29v57l-58 -57q-4 -4 -15 -22.5t-15 -22.5q-2 -2 -13.5 -7t-15.5 -8q-4 -2 -17.5 -2h-17.5q0 4 2 22.5t4 25.5l14 14 q2 4 14.5 21.5t14.5 21.5zM778 444q-10 0 -10 -14t10 -14q12 0 12 14t-12 14zM707 680q-10 0 -10.5 -15.5t10.5 -15.5q10 0 10 15.5t-10 15.5z" />
<glyph unicode="&#xa5;" horiz-adv-x="909" d="M410 14q0 6 1 20.5t1 31t-1 31t-1 20.5t-5.5 23.5t-9.5 21.5q-8 -4 -35.5 -9.5t-37.5 -5.5h-29q-2 0 -8 -7t-6 -9q-4 -4 -15.5 -9t-15.5 -5h-13.5h-23.5h-22.5h-12.5q-4 0 -15 -7.5t-16 -7.5q-4 0 -15 5.5t-13 9.5q-2 2 -2 6v8q0 4 1 9t1 7l14 15l29 14h8h8q0 -2 6 -8 t8 -6h7h8q2 0 14 6t14 8q4 2 22.5 7t23.5 7q6 2 22 11.5t34.5 18.5t36 17.5t23.5 12.5q4 2 9.5 13t5.5 16q0 6 -5.5 22t-9.5 21h-6q-4 0 -5 1t-3 1t-8 -1t-8 -1t-13.5 -7.5t-15.5 -7.5q-2 0 -14.5 7.5t-14.5 7.5t-8 -6.5t-6 -8.5q-4 -2 -15.5 -7t-15.5 -7h-14 q-4 -2 -21.5 -7t-21.5 -7q-4 0 -14.5 -3.5t-22.5 -5.5t-23.5 -4t-13.5 -2q-2 -2 -14.5 -8t-14.5 -6t-7 -1t-7 -1h-8q-4 0 -6 2q-2 0 -8.5 7t-8.5 7q-4 0 -16 2t-16 2q0 4 1 12.5t3 12.5q0 2 5 7t9 7q4 4 15.5 9.5t15.5 5.5h15h27.5h27h16.5q2 0 8 7t8 7q4 2 21.5 8t21.5 8 q2 0 14.5 7.5t14.5 7.5h13h23.5h22.5h15q2 0 7 6t7 8q6 4 28.5 14.5t30.5 14.5q-2 6 -13 17t-17 11h-16.5h-27h-27.5h-15t-8.5 7.5t-8.5 9.5q-4 2 -21.5 13t-21.5 15q-2 2 -7 8.5t-7 6.5q-4 2 -12.5 3t-12.5 1q0 6 -2 20.5t-2 18.5q0 2 -7 8t-9 8v6v8q2 2 7 7.5t9 7.5 q-4 2 -15 7t-16 7l-14 14q-8 12 -19.5 35t-9.5 25l15 14q-4 4 -15.5 21.5t-13.5 21.5t-1 15.5t1 15.5q0 2 -3 10t-5 17.5t-4 18.5t-2 11v15q-4 14 -9.5 41.5t-7.5 31.5q-2 6 -13 28.5t-15 31.5q0 4 6 8t8 6h31h28q4 -2 9.5 -7t5.5 -7q0 -4 -7.5 -15.5t-7.5 -15.5l15 -14 q6 -10 17 -32t11 -26q0 -2 1 -10t1 -12t-1 -12.5t-1 -10.5t-5 -7t-9 -7q4 -2 9 -7t5 -7v-15l15 -14v-17q2 -6 8 -22t8 -21q0 -2 5 -7t9 -7l-14 -14q4 -8 10 -17q4 -8 9.5 -16t9.5 -12l14 -15l-14 -14q4 0 15 -5t13 -9q4 -4 4.5 -14.5t-4.5 -14.5q10 -4 38 -15.5t36 -15.5 q2 0 14.5 -6t14.5 -8h8h6q4 2 15.5 8t15.5 6q4 2 20.5 2t22.5 -2l102 103h15q4 8 14 30.5t14 28.5q2 2 15.5 7t15.5 7q2 4 7 21.5t7 21.5t7.5 15.5t7.5 15.5q2 0 7 6t7 9q6 10 16.5 31.5t12.5 25.5t1 15t-1 16q4 2 8 6l8 8q4 4 14.5 26.5t14.5 30.5q0 2 4 12.5t8 22.5 t9 22.5t7 16.5q4 8 9.5 24.5t5.5 20.5v43q0 2 7 7t7 7q2 4 1 30t-1 30q0 2 3 12t5 22.5t5.5 23.5t3.5 13q0 4 -1.5 30t1.5 30q0 2 5 7t9 7l6 2q2 0 4 -1t4 -1q4 -8 15.5 -35.5t13.5 -38.5q0 -2 -1 -13t-4 -23.5t-6 -22.5t-3 -12v-14.5v-22.5v-23.5v-13.5t-5.5 -11 t-9.5 -18.5t-9 -18.5t-5 -11t-3 -10.5t-5 -17.5t-4 -18.5t-2 -11.5q-2 -4 -8.5 -22.5t-8.5 -22.5q0 -2 -2 -13t-4 -23.5t-4 -22.5t-4 -12q-4 -8 -15.5 -33t-24.5 -52.5t-27.5 -53t-20.5 -38.5q0 -2 -6.5 -11t-14.5 -18t-14 -18.5t-8 -11.5q-2 -4 -14.5 -21.5t-14.5 -21.5 l-59 -59q-2 -4 -13.5 -21.5t-15.5 -21.5q-4 -2 -15.5 -7.5t-13.5 -7.5q-6 -4 -17 -15l-13 -13q-2 -6 4 -21.5t6 -19.5q4 0 10 -2t10 -2q2 0 10.5 3t17.5 5t18.5 4t11.5 2q4 0 8 1t6 1v-80q-4 0 -21.5 2t-21.5 4q-4 0 -9 5t-5 10q-4 -4 -15.5 -21.5t-15.5 -23.5q-2 -6 4 -27 t6 -27q6 0 24.5 -3t24.5 -1q4 0 21.5 6t21.5 9q4 0 12.5 1t10.5 1q0 -4 -2 -15.5t-4 -15.5l-15.5 -15.5l-15.5 -15.5q-2 -2 -13.5 -6t-23.5 -8t-22.5 -8t-12.5 -7q-4 -2 -10 -13t-6 -15v-21.5v-38v-37v-20.5t-5 -15.5t-9 -15.5q0 -2 -6.5 -7t-8.5 -7l-6 -2h-4q-2 0 -4 2z M381 233q-12 0 -12 -14t12 -14q10 0 10 14t-10 14zM586 438q57 8 76.5 -3t13.5 -28.5t-32 -35t-58 -19.5q-4 -6 -7.5 7.5t-4.5 30t2.5 32.5t9.5 16z" />
<glyph unicode="&#xa6;" horiz-adv-x="272" d="M113 -180v145q0 6 2 20.5t4 31t5 30.5t5 21l-16 14q2 6 5 23.5t5 36t4 35t2 22.5v250l29 28q2 -6 7 -22.5t7 -20.5t7 -15t7 -16v-364q-4 -8 -9 -30.5t-5 -28.5q0 -16 -1 -56.5t-1 -84.5t1 -84t1 -54q2 -4 -4 -21.5t-10 -21.5q-2 -2 -4 -2h-11h-8q-4 0 -6 2q-4 2 -9 7 l-7 7v148zM104 633v55t-1 86t-1 86v58v73.5t1 91.5t1 80v39q0 6 2.5 27.5t5.5 46t5 46t2 28.5q0 6 1 24.5t2 38t1 37.5v25q4 0 13 -3.5t14 -5.5q10 -6 26.5 -23.5t16.5 -21.5v-336l-15 -14q-2 -4 -2 -6v-6v-10q0 -4 2 -7q2 -4 7 -22.5t8 -22.5v-6v-8l-15 -14v-146 q-4 0 -9 -6t-5 -10t7 -21.5t7 -21.5q0 -2 1 -21.5t1 -29.5q0 -6 -1 -25.5t-1 -25.5q-4 -2 -9 -7.5t-5 -7.5q-2 -4 -3 -17.5t-1 -17.5q-6 0 -20.5 2t-20.5 4q-2 0 -7.5 5.5t-7.5 9.5z" />
<glyph unicode="&#xa7;" horiz-adv-x="636" d="M59 -2q0 8 1 25.5t1 21.5t5.5 14.5t9.5 14.5l6 2q2 0 4 -1t4 -1l14 -74l15 -29q4 -2 26.5 -7t32.5 -7h15h14q2 0 14 6t15 8l45 15l43 28l59 31l14 14q2 2 10.5 8.5t17.5 13.5t17.5 13t12.5 8q4 4 22.5 14.5t22.5 14.5l14 31q2 6 -1 31.5t-3 31.5q-6 0 -26.5 -3t-28.5 -3 l-6 6l-9 8q-2 0 -14 -6t-14 -8h-9h-6q-4 0 -16 3t-27.5 5t-29 4t-15.5 2h-14q-2 0 -11.5 3.5t-18.5 6.5t-18 5t-11 2h-16.5h-27h-27.5h-18q-4 0 -14 13t-14 16q-2 0 -11.5 2t-18.5 4t-17.5 4t-10.5 4q-4 2 -1 11t8.5 19.5t9.5 19.5t4 13q-2 0 -10.5 -1t-16.5 -2t-15 -1h-9 t-7.5 5t-7.5 10l60 28q0 -4 5 -15t9 -13q4 -4 13.5 -7.5t13.5 -3.5q0 -2 2 -4q2 -4 7 -9l7 -7h31q4 0 21.5 -6t21.5 -8q2 0 14 1t15 -1q2 0 8 -6.5t6 -8.5q6 -4 17.5 -9t13.5 -5h219l14 -14q2 -2 14.5 -8.5t14.5 -6.5q6 -4 17 -15t13 -16v-20v-23q0 -2 -6 -18t-10 -25 q-4 -16 -15.5 -43.5t-13.5 -29.5q-2 -4 -20.5 -15.5t-22.5 -13.5l-8 -8t-6 -8q-4 0 -22.5 -6.5t-22.5 -8.5q-2 0 -7 -6t-7 -8l-29 -14h-14l-31 -15q-4 -4 -21.5 -22.5t-21.5 -22.5h-8h-6q-4 2 -9.5 7.5t-5.5 9.5q-6 -4 -28.5 -15.5t-30.5 -15.5h-29h-31l-57 14 q-6 4 -17.5 15.5t-11.5 15.5q-2 8 -2 16v25zM256 586l-35 -15q-2 -2 -7 -8t-7 -6q-2 -2 -14.5 -1t-14.5 1q-2 -2 -9 -8t-14.5 -14.5t-13.5 -14.5l-8 -8l-29 -14q-4 -4 -14 -20.5t-14 -22.5l-15 -45q-6 -4 -28.5 -15.5t-30.5 -13.5q0 4 -1 21.5t-1 21.5q0 10 1 26.5t1 18.5 l29 43l14 14q2 4 4 10.5t2 10.5q4 0 12.5 3t12.5 7q2 0 6 12.5t8 16.5q2 2 7 0t7 0l29 28h4q2 0 2 1t2 1l4 -2h2q4 -2 9.5 -7t7.5 -7q0 8 8 21zM90 557q-10 0 -10 -15.5t10 -15.5t10 15.5t-10 15.5zM270 283l31 10l43 29l59 30l15 15q2 2 10 8t17.5 13t17.5 13.5t12 8.5 q4 4 22.5 14t22.5 14l15 31q2 6 -1.5 31.5t-3.5 31.5q-6 0 -26.5 -3t-28.5 -3l-6 6l-8 9q-2 0 -14.5 -6.5t-14.5 -8.5h-8h-6q-4 0 -16.5 3t-28 5.5t-28.5 4.5t-15 2h-15q-2 0 -11 3t-18.5 6t-18.5 5t-11 2h-16.5h-26.5h-27.5h-17.5t-14.5 13.5t-14.5 15.5q-2 0 -11 2 t-18.5 4t-17.5 4t-10 4q-4 2 -1 11.5t8 19.5t9 19t4 14q-2 0 -10 -1t-16 -2.5t-15.5 -1.5h-9.5t-7 5.5t-7 9.5l59 28q0 -4 5 -15t10 -13q4 -4 13 -7t13 -3q0 -2 2 -5q2 -4 7.5 -9t7.5 -7h30q4 0 21.5 -6t21.5 -8q2 0 14.5 1t14.5 -1q2 0 8 -6.5t6 -8.5q6 -4 17.5 -9t13.5 -5 h219l15 -14q2 -2 14 -8.5t14 -6.5q6 -4 17.5 -15t13.5 -15v-21v-22q0 -2 -6 -18.5t-10 -24.5q-4 -16 -15.5 -44t-13.5 -30q-2 -4 -20.5 -15.5t-22.5 -13.5l-8 -8t-6 -8q-4 0 -22.5 -6t-23.5 -8q-2 0 -7 -6.5t-7 -8.5l-29 -14h-14l-31 -14l-20 -21zM72 854q4 0 12 3t12 7 q2 0 6 12.5t9 16.5q2 2 7 0t7 0l29 29h4q2 0 2 1t2 1l4 -2h2q4 -2 9 -7.5t7 -7.5q0 4 5.5 15.5t9.5 13.5q2 2 11 6t21.5 8t22.5 9.5t16 7.5q4 0 23.5 2t23.5 2q0 -8 -6 -33t-10 -31q-2 -2 -10 -7t-18.5 -9t-19.5 -8t-11 -4q-2 -2 -7.5 -8.5t-7.5 -6.5q-2 -2 -14 -1t-14 1 q-2 -2 -9.5 -8t-14.5 -14t-13 -14.5t-8 -8.5l-29 -14q-4 -4 -14.5 -20.5t-14.5 -22.5l-14 -45q-6 -4 -28.5 -15.5t-30.5 -13.5q0 4 -1.5 21.5t-1.5 21.5q0 10 1.5 26.5t1.5 18.5l28 43l15 15q2 4 4 10t2 10zM111 864q-10 0 -10.5 -15t10.5 -15q10 0 10 15t-10 15zM461 950 q-2 0 -13.5 -2t-23.5 -4t-22.5 -5t-12.5 -3h-16q-4 0 -21.5 -5t-21.5 -9v69q2 0 7 1t7 3q4 2 9 7.5t5 7.5q8 0 31 1t29 1q10 0 32.5 -1t24.5 -1q6 0 19.5 -4.5t27 -9.5t25.5 -9t16 -6v-8v-6q-2 -12 -4 -29.5t-4 -34.5q-4 -20 -6 -39h-14q2 8 -4.5 36t-10.5 36q-2 2 -18.5 7 t-26.5 7h-6h-8z" />
<glyph unicode="&#xa8;" horiz-adv-x="491" d="M137 1511q8 0 20.5 -7t12.5 -11q0 -2 1 -16.5t1 -20.5q0 -4 -1 -10t-1 -12v-15q0 -4 -12.5 -10t-20.5 -10q-6 -4 -20.5 0t-22.5 2q0 6 -11 13t-11 13q0 8 2 27t2 21q2 4 10 10t18.5 12t19.5 10t13 4zM152 1446v2h2q0 -2 1 -7t1 -7t-1 -6.5t-1 -6.5l-2 2q-2 0 -2 2 q-4 0 -7 2q-2 2 -2 5v8v2q0 -2 2 -4q1 8 9 8zM326 1493q4 6 16 12t16 4q2 0 14.5 -7t18.5 -11q4 -4 8 -7t9 -7l12 -9q2 -2 1 -16t-3 -22t-16.5 -16.5t-18.5 -16.5q-4 4 -12.5 -3.5t-14.5 -2.5q-6 4 -20 17t-17 13q-4 8 -1.5 36t8.5 36zM152 1446v2h2q0 -2 1 -7t1 -7t-1 -6.5 t-1 -6.5l-2 2q-2 0 -2 2q-4 0 -7 2q-2 2 -2 5v8v2q0 -2 2 -4q1 8 9 8z" />
<glyph unicode="&#xad;" horiz-adv-x="555" d="M29 588q-2 10 9 32.5t19 26.5h13q4 0 9 1t9 1q8 0 24.5 -1t18.5 -1q6 -2 28.5 -7t30.5 -7l15 20h102q0 2 5 5.5t10 3.5h13h23.5h22.5h14l6 6q8 8 9 8h16q6 0 14.5 1t12.5 1q6 0 23.5 -1t21.5 -1q0 -4 -6.5 -21.5t-10.5 -21.5q-2 -4 -13 -15.5t-15 -15.5h-15 q-4 0 -21.5 -2t-37 -4t-36.5 -5t-21 -3h-9h-6q-4 2 -9 7t-5 7q-4 -4 -15.5 -14t-15.5 -15q-2 -2 -6 -2h-12q-4 0 -13.5 1t-11.5 1q-4 0 -19.5 3.5t-31.5 5.5t-31.5 4t-19.5 2q-6 0 -18.5 1t-27 1t-26.5 -1t-16 -1zM453 647q-10 0 -10.5 -14.5t10.5 -14.5q10 0 10 14.5 t-10 14.5zM438 676q10 0 10.5 -14.5t-10.5 -14.5q-10 0 -10 14.5t10 14.5z" />
<glyph unicode="&#xaf;" horiz-adv-x="669" d="M178 1454q4 -2 21.5 -8t21.5 -6t22.5 7t22.5 7h20.5h37h38h21.5t21.5 2t37 5t37 5t21.5 2h43q4 0 15 7.5t15 7.5h7h8q4 0 9 -5t5 -10q2 -8 4 -38.5t2 -38.5q-2 0 -10 1t-10 5q-4 4 -9.5 14t-5.5 14l-15 -15t-15 -13q0 -2 -2 -2h-4h-5q-2 0 -4 2l-6 6l-8 8h-12h-17 q-6 0 -25.5 -3t-41 -5t-41 -4t-23.5 -2h-133q-2 0 -18.5 -6.5t-24.5 -10.5q-4 0 -15 -7t-13 -7h-68h-66q2 6 7.5 23.5t7.5 21.5q2 2 7 6t9 8t14.5 9.5t14.5 5.5q4 2 21.5 1t21.5 -1q4 2 22.5 7t22.5 7h6h8zM471 1440q-10 0 -10 -14.5t10 -14.5t10 14.5t-10 14.5z" />
<glyph unicode="&#xb0;" horiz-adv-x="358" d="M115 512q-6 -6 -9 -6q-4 -2 -16 -4t-16 -2v43q-4 0 -7.5 -1t-5.5 -1t-5 4t-7 8l-6 12t-4 10q0 4 4 13.5t6 9.5h-26q0 6 1 19.5t3 17.5l12 12q-2 0 -7 4t-5 6t-1 10.5t-1 12.5v14q0 4 2 11q0 2 4 11l8 18t7 17.5t3 10.5q2 4 1 13t-1 11q2 4 6 17.5t6 17.5q6 14 19.5 41 l15.5 31q2 2 16.5 11t16.5 11t7 6.5t7 4.5q2 4 15.5 12t17.5 12l12 -12q6 -4 19.5 -12t15.5 -11q2 -2 11.5 0.5t11.5 -0.5q2 0 6 -6t6 -6q2 -2 9 -2h9q0 -4 2.5 -10t2.5 -10q0 -2 4 -7l6 -6v-2q0 -2 2 -4q0 -2 -1 -2t-1 -2v-2q0 -2 -4 -6l-6 -6q2 0 6 -4t4 -6q2 -2 7 -10.5 t7 -12.5q0 -6 4 -19.5t6 -17.5v-4v-8q-2 0 -6 -4t-4 -6l10 -13l-24 -10q4 0 9 -4t5 -8t-7 -12.5t-7 -12.5t1 -17t-1 -18q0 -2 -4 -11t-6 -11v-25q0 -4 -4.5 -12t-8.5 -10q-2 -2 -5 0t-5 0t-6 -10.5t-6 -12.5q0 -4 1 -13t-1 -11t-6 -6.5t-4 -6.5h-7h-6l-24 13q2 -4 -2 -17.5 t-9 -17.5q-2 -2 -15 -6t-19 -6h-9h-2q-4 2 -12 10l-12 12zM84 635q2 -4 10 -26.5t12 -33.5q2 -2 6.5 -6t6.5 -4q4 -4 13 -8t11 -4t16.5 5t16.5 7h12q0 4 4.5 22.5t6.5 22.5t12 7.5t12 5.5q2 4 6 18t7 16q0 4 4 13.5t6 9.5l12 12q0 4 -6 12.5t-6 12.5q-2 4 -1 22.5t1 22.5 q-2 4 -6 24.5t-4 24.5v6v4q2 4 10 7t12 6q-4 2 -22.5 11t-24.5 11l-4 2q-2 0 -2 -1t-2 -1h-4q-4 -2 -12.5 -10t-10.5 -12q0 2 -4 6t-6 4q-4 0 -12.5 -4t-10.5 -6q-2 0 -7 1t-7 -1q0 -4 -4 -17.5t-6 -17.5l-6 -6q-4 -2 -7 -7v-24q0 -6 -4 -28.5t-6 -28.5q-2 -2 -7 -11.5 t-5 -13.5v-25v-20zM223 610q-10 0 -10 -11t10 -11t10 11t-10 11zM268 623q-8 0 -8 -12.5t8 -12.5q10 0 10 12.5t-10 12.5zM236 705q8 0 8 -12.5t-8 -12.5q-10 0 -10 12.5t10 12.5zM176 903q-8 0 -8 -11t8 -11q10 0 10 11t-10 11z" />
<glyph unicode="&#xb4;" horiz-adv-x="483" d="M74 1384q4 2 14 7.5t21.5 12.5t21.5 13t14 10q4 2 16.5 15.5t28 29t27.5 28.5t16 16q4 4 22.5 8t23.5 6q4 6 15 28.5t13 30.5q2 -2 7 -2t8 2q2 2 10 8.5t18 14.5t18.5 14t12.5 6q4 4 22.5 7t22.5 3q0 -2 -1 -12t-1 -12l-14 -29l-15 -14q-2 -4 -11 -14.5t-18.5 -22.5 t-18.5 -23.5t-11 -13.5t-14.5 -7t-14.5 -7l-28 -29q-2 -2 -11.5 -9t-18.5 -14.5t-18.5 -13.5t-11.5 -8l-43 -43q-4 -2 -15 -8t-16 -6q-2 -2 -7 -7.5t-7 -9.5l-14 -28q-8 2 -36 2t-38 -2q-4 -2 -14.5 -6.5t-14.5 -8.5q-2 2 -2 7.5v7.5v9t2 5q2 2 10.5 6t18.5 8t19.5 9.5 t11.5 7.5q4 4 4 14t-4 14z" />
<glyph unicode="&#xb7;" horiz-adv-x="227" d="M74 596q2 4 12 9t14 3q2 0 12.5 -5t16.5 -9q2 -4 14 -12q6 -4 11 -7q2 -2 1 -14t-3 -18t-14.5 -13.5t-16.5 -13.5q-4 2 -10.5 -3t-12.5 -3q-4 4 -16 15.5t-14 11.5q-4 6 -2 29.5t8 29.5z" />
<glyph unicode="&#xb8;" horiz-adv-x="468" d="M109 84q4 0 13 -1t11 -1q4 -2 9 -7t5 -7v-191q12 4 33 9t25 5t15 -7t16 -7q4 0 21 7t22 7q2 0 16 1.5t20 1.5t20.5 -1.5t16.5 -1.5q6 0 22.5 -5t20.5 -9q10 -4 26.5 -21.5t18.5 -21.5v-88l-8 -8l-6 -6q-2 -2 -6 -11.5t-9 -19.5t-9.5 -18.5t-6.5 -10.5q-4 -4 -17 -16 t-29.5 -26.5t-32 -27t-23.5 -18.5q-2 -2 -13.5 -8t-25.5 -13t-27.5 -13.5t-21.5 -8.5l-86 -28h-17q-8 2 -24.5 7t-18.5 7q-2 0 -2 5v9v7.5t2 7.5l88 14l74 29q4 2 17.5 11t30 21.5t31.5 23.5t24 17l28 29q2 4 8.5 16.5t13.5 25.5t13 26.5t8 19.5v4q0 2 1 2t1 2l-2 4v2 q-4 6 -14 17.5t-14 13.5h-60q-2 0 -10 -5t-17.5 -10t-18.5 -10.5t-11 -5.5q-4 0 -16.5 -1t-28 -2t-28.5 -1h-17l-13 39v-35q-6 0 -23.5 6.5t-21.5 10.5q-2 2 -4 10t-4 17.5t-4 18.5t-2 11q0 4 -6 22.5t-8 22.5q0 2 -2 15.5t-5.5 30t-5.5 31.5t-2 26v14z" />
<glyph unicode="&#xbf;" horiz-adv-x="505" d="M295 918q-4 0 -12.5 1t-10.5 1q4 6 21.5 22t21.5 21q4 4 15.5 9t15.5 7h8q4 0 5 1t3 1v-9t-2 -9q-2 -4 -8 -15.5t-6 -13.5q-4 -2 -15.5 -7t-15.5 -7t-8 -2h-12zM418 686l-8 -8l-7 -6q0 -4 1.5 -15.5t-1.5 -15.5q0 -2 -13 -6t-15 -8t-2 -21.5t2 -21.5l-29 14l-11 -6 t-24.5 -15.5t-29 -19.5t-23.5 -18q-6 -6 -21.5 -18.5t-32 -27t-30.5 -26.5t-18 -16t-14.5 -20.5t-14.5 -22.5l-15.5 -31t-22.5 -48.5t-21.5 -49t-14.5 -33.5v-21v-22q2 -10 7.5 -33t7.5 -27t13 -14t15 -14q6 -4 27.5 -14.5t32.5 -14.5l6 -2h4q2 0 4 2t13.5 14.5t15.5 14.5 t31.5 7t41.5 7h29q4 2 15.5 7t15.5 7q4 4 21.5 22.5t21.5 22.5h6h8q2 0 11.5 -3t18.5 -5l18 -4t12 -2q4 -2 14 -3t14 -1v-51q-4 0 -21.5 -1t-21.5 -3q-4 0 -15 -6.5t-16 -8.5q-4 0 -20 -5t-36.5 -9t-38 -9t-21.5 -5q-6 -4 -22.5 -8.5t-20.5 -6.5q-4 -4 -30 -15t-30 -15h-6 h-8q-2 2 -7 8t-7 6q-4 2 -16.5 4t-28 4t-28.5 4t-15 4q-4 2 -15.5 20.5t-13.5 22.5q-2 2 -8 7.5t-6 7.5q-2 6 -5.5 21.5t-5.5 31.5t-4 30.5t-2 18.5t7.5 15.5t9.5 13.5q0 4 2 17t4 27.5t4 27t4 16.5q0 2 6 14t12 25.5t13.5 28t11.5 20.5l14 14q4 4 15.5 22.5t15.5 22.5 q4 6 16.5 18.5t26.5 27t26.5 26.5t16.5 16q4 0 15.5 6.5t15.5 8.5l28 28q4 2 21.5 13.5t21.5 15.5t9.5 15.5t7.5 15.5v30v27q-2 4 -14.5 15.5t-16.5 13.5v8v8q2 4 7 9t7 5h33h27q4 -4 8 -22t6 -23q2 0 8 -6t6 -8q4 -6 9.5 -22.5t5.5 -20.5zM418 129q12 0 12 15.5t-12 15.5 q-10 0 -10 -15.5t10 -15.5z" />
<glyph unicode="&#xc0;" d="M43 121q4 0 9 5t5 9q2 2 1 14.5t-1 14.5q2 4 7.5 9t7.5 5v133q4 0 9 5.5t7 9.5q4 6 9 22.5t5 20.5t-7 15t-7 13v9v8l6 6l8 8q0 2 2 13.5t4.5 25.5t4.5 27.5t4 21.5v29q2 4 7 21.5t7 21.5q2 8 7 30.5t7 28.5q2 8 8.5 40t13.5 69t14 69.5t9 40.5q0 4 6.5 21.5t8.5 21.5 q0 2 2 13.5t4 23.5t4 23.5t4 13.5q0 2 5 11.5t9.5 18.5t9.5 18t5 11q2 8 2 29v43.5v44t-2 29.5q4 4 14 15t14 14h5q2 0 2 1t2 1l4 -2h4l14 -15h6h9q4 0 19 3t31.5 5t32 4.5t19.5 2.5h22h21q4 0 15.5 -5.5t15.5 -9.5q2 -2 6 -14t8 -14q2 -2 14.5 -7.5t14.5 -7.5t7 -13t7 -16 q2 -4 6 -14l9 -22.5t9.5 -23.5t4.5 -13l8 -8q4 -4 8 -7q0 -4 -8 -22.5t-8 -22.5q4 -2 8 -6l8 -8q0 -2 5 -24.5t9 -32.5q4 -14 9.5 -42t5.5 -32t-1 -29.5t1 -29.5q0 -4 5 -19.5t9 -32t9 -32t5 -19.5q2 -6 4.5 -29.5t4.5 -50t4 -50t2 -30.5q0 -4 7 -22.5t7 -22.5v-23.5v-42 v-42v-23.5t8 -21.5t8 -21.5v-73q0 -4 2.5 -21.5t4.5 -38t5 -37t3 -20.5v-19.5t1 -29t1 -28.5v-17q-4 0 -22.5 2t-24.5 4q-2 0 -7.5 5t-7.5 9q-2 2 -6 12.5t-8 22.5t-8 22.5t-6 16.5v6v8q0 2 2 15.5t5 28t5 27.5t2 17v17v12q-2 2 -8 14.5t-6 14.5v13v23.5v22.5v14 q0 2 -7.5 14.5t-7.5 14.5q0 4 7.5 15.5t7.5 15.5v18q0 8 1 17.5t1 15.5q0 10 -1 28.5t-1 22.5t-7.5 21.5t-7.5 21.5q-2 6 -7 35t-7 39t-7 35.5t-9 53.5t-8.5 52.5t-6.5 32.5v16q0 8 -5 36t-9 36q-2 8 -7 26.5t-9 37t-8.5 34t-4.5 19.5q-2 4 -8 15t-6 15v15l-14 43 q-4 4 -9.5 15l-7.5 15q-4 6 -20.5 22.5t-22.5 21.5h-2q-2 0 -3 1t-3 1l-6 -2q-4 -2 -15.5 -7.5t-13.5 -7.5q-4 -4 -13 -12t-18.5 -17.5t-17.5 -18.5t-10 -11q-2 0 -7 -16.5t-7 -26.5q0 -2 -3.5 -11.5t-5.5 -18.5t-4 -18.5t-2 -11.5q-2 -2 -8 -14t-6 -14v-15q-2 -4 -8 -22.5 t-9 -22.5v-14q0 -4 -7 -21.5t-7 -21.5t1 -29.5t-1 -29.5q-4 -2 -8 -7q-4 -4 -4 -6l-2 -2q-2 -4 -1 -21.5t1 -21.5q-2 -4 -7 -22.5t-8 -22.5v-28q-2 -4 -7 -21.5t-7 -22.5v-30q0 -6 -2 -18.5t-5 -27t-5 -26.5t-2 -16l-15 -43l43 14q4 4 21.5 15.5t21.5 13.5t22.5 8t23.5 8 q2 0 14 6t14 8h15q4 0 17 5.5t27.5 9.5t27 9t16.5 5h28q4 2 15.5 8t15.5 6q8 2 38 4.5t38 2.5q0 -2 -1 -10.5t-3 -10.5q0 -2 -5.5 -7t-9.5 -7q-6 -4 -28.5 -15.5t-28.5 -13.5q-4 -2 -17.5 -6t-27.5 -9t-27.5 -9.5t-15.5 -6.5q-10 -4 -38 -14t-36 -14t-30.5 -14.5 t-26.5 -14.5q-6 -4 -23.5 -15.5t-21.5 -15.5l-15 17q-6 -4 -22 -21.5t-21 -23.5q-2 -2 -7 -24.5t-9 -33.5q-2 -10 -6 -35.5t-8 -53t-8.5 -53.5t-6.5 -34v-29q-2 -4 -7 -22t-7 -23v-43q-2 -4 -7 -29.5t-7 -29.5q-2 -6 -4 -20.5t-4.5 -27.5t-4.5 -25.5t-2 -14.5q0 -6 -1 -21.5 t-2 -33t-1 -31.5v-21q-2 0 -5 2.5t-5 2.5q-10 8 -27.5 24.5t-17.5 20.5v307zM102 4q-10 0 -10 -15.5t10 -15.5t10 15.5t-10 15.5zM102 326q-10 0 -10 -15.5t10 -15.5t10 15.5t-10 15.5zM569 1042q-10 0 -10 -15t10 -15t10 15t-10 15zM389 1442l-88 88q-4 2 -15.5 8t-15.5 6 q-10 8 -26.5 24.5t-16.5 20.5t11.5 20.5t17.5 22.5h4q2 0 2 1t2 1l4 -2h2q4 -2 15.5 -14t15.5 -14q2 -2 13.5 -8.5t23.5 -13.5t22.5 -13t12.5 -8q4 -4 15 -22.5t15 -22.5q2 -2 14.5 -7.5t14.5 -7.5l60 -59q2 -4 13 -21.5t15 -21.5l15 -15q4 -6 11 -15t13 -18.5t12.5 -16.5 t6.5 -9l4 -8q2 -4 2 -8h-17.5t-17.5 2q-2 0 -13.5 5t-15.5 9q-8 6 -25.5 16.5t-19.5 14.5v14z" />
<glyph unicode="&#xc1;" d="M43 121q4 0 9 5t5 9q2 2 1 14.5t-1 14.5q2 4 7.5 9t7.5 5v133q4 0 9 5.5t7 9.5q4 6 9 22.5t5 20.5t-7 15t-7 13v9v8l6 6l8 8q0 2 2 13.5t4.5 25.5t4.5 27.5t4 21.5v29q2 4 7 21.5t7 21.5q2 8 7 30.5t7 28.5q2 8 8.5 40t13.5 69t14 69.5t9 40.5q0 4 6.5 21.5t8.5 21.5 q0 2 2 13.5t4 23.5t4 23.5t4 13.5q0 2 5 11.5t9.5 18.5t9.5 18t5 11q2 8 2 29v43.5v44t-2 29.5q4 4 14 15t14 14h5q2 0 2 1t2 1l4 -2h4l14 -15h6h9q4 0 19 3t31.5 5t32 4.5t19.5 2.5h22h21q4 0 15.5 -5.5t15.5 -9.5q2 -2 6 -14t8 -14q2 -2 14.5 -7.5t14.5 -7.5t7 -13t7 -16 q2 -4 6 -14l9 -22.5t9.5 -23.5t4.5 -13l8 -8q4 -4 8 -7q0 -4 -8 -22.5t-8 -22.5q4 -2 8 -6l8 -8q0 -2 5 -24.5t9 -32.5q4 -14 9.5 -42t5.5 -32t-1 -29.5t1 -29.5q0 -4 5 -19.5t9 -32t9 -32t5 -19.5q2 -6 4.5 -29.5t4.5 -50t4 -50t2 -30.5q0 -4 7 -22.5t7 -22.5v-23.5v-42 v-42v-23.5t8 -21.5t8 -21.5v-73q0 -4 2.5 -21.5t4.5 -38t5 -37t3 -20.5v-19.5t1 -29t1 -28.5v-17q-4 0 -22.5 2t-24.5 4q-2 0 -7.5 5t-7.5 9q-2 2 -6 12.5t-8 22.5t-8 22.5t-6 16.5v6v8q0 2 2 15.5t5 28t5 27.5t2 17v17v12q-2 2 -8 14.5t-6 14.5v13v23.5v22.5v14 q0 2 -7.5 14.5t-7.5 14.5q0 4 7.5 15.5t7.5 15.5v18q0 8 1 17.5t1 15.5q0 10 -1 28.5t-1 22.5t-7.5 21.5t-7.5 21.5q-2 6 -7 35t-7 39t-7 35.5t-9 53.5t-8.5 52.5t-6.5 32.5v16q0 8 -5 36t-9 36q-2 8 -7 26.5t-9 37t-8.5 34t-4.5 19.5q-2 4 -8 15t-6 15v15l-14 43 q-4 4 -9.5 15l-7.5 15q-4 6 -20.5 22.5t-22.5 21.5h-2q-2 0 -3 1t-3 1l-6 -2q-4 -2 -15.5 -7.5t-13.5 -7.5q-4 -4 -13 -12t-18.5 -17.5t-17.5 -18.5t-10 -11q-2 0 -7 -16.5t-7 -26.5q0 -2 -3.5 -11.5t-5.5 -18.5t-4 -18.5t-2 -11.5q-2 -2 -8 -14t-6 -14v-15q-2 -4 -8 -22.5 t-9 -22.5v-14q0 -4 -7 -21.5t-7 -21.5t1 -29.5t-1 -29.5q-4 -2 -8 -7q-4 -4 -4 -6l-2 -2q-2 -4 -1 -21.5t1 -21.5q-2 -4 -7 -22.5t-8 -22.5v-28q-2 -4 -7 -21.5t-7 -22.5v-30q0 -6 -2 -18.5t-5 -27t-5 -26.5t-2 -16l-15 -43l43 14q4 4 21.5 15.5t21.5 13.5t22.5 8t23.5 8 q2 0 14 6t14 8h15q4 0 17 5.5t27.5 9.5t27 9t16.5 5h28q4 2 15.5 8t15.5 6q8 2 38 4.5t38 2.5q0 -2 -1 -10.5t-3 -10.5q0 -2 -5.5 -7t-9.5 -7q-6 -4 -28.5 -15.5t-28.5 -13.5q-4 -2 -17.5 -6t-27.5 -9t-27.5 -9.5t-15.5 -6.5q-10 -4 -38 -14t-36 -14t-30.5 -14.5 t-26.5 -14.5q-6 -4 -23.5 -15.5t-21.5 -15.5l-15 17q-6 -4 -22 -21.5t-21 -23.5q-2 -2 -7 -24.5t-9 -33.5q-2 -10 -6 -35.5t-8 -53t-8.5 -53.5t-6.5 -34v-29q-2 -4 -7 -22t-7 -23v-43q-2 -4 -7 -29.5t-7 -29.5q-2 -6 -4 -20.5t-4.5 -27.5t-4.5 -25.5t-2 -14.5q0 -6 -1 -21.5 t-2 -33t-1 -31.5v-21q-2 0 -5 2.5t-5 2.5q-10 8 -27.5 24.5t-17.5 20.5v307zM102 4q-10 0 -10 -15.5t10 -15.5t10 15.5t-10 15.5zM102 326q-10 0 -10 -15.5t10 -15.5t10 15.5t-10 15.5zM569 1042q-10 0 -10 -15t10 -15t10 15t-10 15zM258 1384q4 2 14.5 7.5t21.5 12.5 t21.5 13t14.5 10q4 2 16 15.5t27.5 29t28 28.5t16.5 16q4 4 22.5 8t22.5 6q4 6 15 28.5t14 30.5q2 -2 7 -2t7 2t10 8.5t18.5 14.5t18.5 14t12 6q4 4 22.5 7t22.5 3q0 -2 -1 -12t-1 -12l-14 -29l-14 -14q-2 -4 -11.5 -14.5t-18.5 -22.5t-18.5 -23.5t-11.5 -13.5t-14 -7 t-14 -7l-29 -29q-2 -2 -11.5 -9t-18.5 -14.5t-18 -13.5l-12 -8l-43 -43q-4 -2 -15 -8t-15 -6l-7.5 -7.5t-7.5 -9.5l-14 -28q-8 2 -35.5 2t-38.5 -2q-4 -2 -14 -6.5t-14 -8.5q-2 2 -2 7.5v7.5v9t2 5q2 2 10 6t18.5 8t19.5 9.5t11 7.5q4 4 4 14t-4 14z" />
<glyph unicode="&#xc2;" d="M43 121q4 0 9 5t5 9q2 2 1 14.5t-1 14.5q2 4 7.5 9t7.5 5v133q4 0 9 5.5t7 9.5q4 6 9 22.5t5 20.5t-7 15t-7 13v9v8l6 6l8 8q0 2 2 13.5t4.5 25.5t4.5 27.5t4 21.5v29q2 4 7 21.5t7 21.5q2 8 7 30.5t7 28.5q2 8 8.5 40t13.5 69t14 69.5t9 40.5q0 4 6.5 21.5t8.5 21.5 q0 2 2 13.5t4 23.5t4 23.5t4 13.5q0 2 5 11.5t9.5 18.5t9.5 18t5 11q2 8 2 29v43.5v44t-2 29.5q4 4 14 15t14 14h5q2 0 2 1t2 1l4 -2h4l14 -15h6h9q4 0 19 3t31.5 5t32 4.5t19.5 2.5h22h21q4 0 15.5 -5.5t15.5 -9.5q2 -2 6 -14t8 -14q2 -2 14.5 -7.5t14.5 -7.5t7 -13t7 -16 q2 -4 6 -14l9 -22.5t9.5 -23.5t4.5 -13l8 -8q4 -4 8 -7q0 -4 -8 -22.5t-8 -22.5q4 -2 8 -6l8 -8q0 -2 5 -24.5t9 -32.5q4 -14 9.5 -42t5.5 -32t-1 -29.5t1 -29.5q0 -4 5 -19.5t9 -32t9 -32t5 -19.5q2 -6 4.5 -29.5t4.5 -50t4 -50t2 -30.5q0 -4 7 -22.5t7 -22.5v-23.5v-42 v-42v-23.5t8 -21.5t8 -21.5v-73q0 -4 2.5 -21.5t4.5 -38t5 -37t3 -20.5v-19.5t1 -29t1 -28.5v-17q-4 0 -22.5 2t-24.5 4q-2 0 -7.5 5t-7.5 9q-2 2 -6 12.5t-8 22.5t-8 22.5t-6 16.5v6v8q0 2 2 15.5t5 28t5 27.5t2 17v17v12q-2 2 -8 14.5t-6 14.5v13v23.5v22.5v14 q0 2 -7.5 14.5t-7.5 14.5q0 4 7.5 15.5t7.5 15.5v18q0 8 1 17.5t1 15.5q0 10 -1 28.5t-1 22.5t-7.5 21.5t-7.5 21.5q-2 6 -7 35t-7 39t-7 35.5t-9 53.5t-8.5 52.5t-6.5 32.5v16q0 8 -5 36t-9 36q-2 8 -7 26.5t-9 37t-8.5 34t-4.5 19.5q-2 4 -8 15t-6 15v15l-14 43 q-4 4 -9.5 15l-7.5 15q-4 6 -20.5 22.5t-22.5 21.5h-2q-2 0 -3 1t-3 1l-6 -2q-4 -2 -15.5 -7.5t-13.5 -7.5q-4 -4 -13 -12t-18.5 -17.5t-17.5 -18.5t-10 -11q-2 0 -7 -16.5t-7 -26.5q0 -2 -3.5 -11.5t-5.5 -18.5t-4 -18.5t-2 -11.5q-2 -2 -8 -14t-6 -14v-15q-2 -4 -8 -22.5 t-9 -22.5v-14q0 -4 -7 -21.5t-7 -21.5t1 -29.5t-1 -29.5q-4 -2 -8 -7q-4 -4 -4 -6l-2 -2q-2 -4 -1 -21.5t1 -21.5q-2 -4 -7 -22.5t-8 -22.5v-28q-2 -4 -7 -21.5t-7 -22.5v-30q0 -6 -2 -18.5t-5 -27t-5 -26.5t-2 -16l-15 -43l43 14q4 4 21.5 15.5t21.5 13.5t22.5 8t23.5 8 q2 0 14 6t14 8h15q4 0 17 5.5t27.5 9.5t27 9t16.5 5h28q4 2 15.5 8t15.5 6q8 2 38 4.5t38 2.5q0 -2 -1 -10.5t-3 -10.5q0 -2 -5.5 -7t-9.5 -7q-6 -4 -28.5 -15.5t-28.5 -13.5q-4 -2 -17.5 -6t-27.5 -9t-27.5 -9.5t-15.5 -6.5q-10 -4 -38 -14t-36 -14t-30.5 -14.5 t-26.5 -14.5q-6 -4 -23.5 -15.5t-21.5 -15.5l-15 17q-6 -4 -22 -21.5t-21 -23.5q-2 -2 -7 -24.5t-9 -33.5q-2 -10 -6 -35.5t-8 -53t-8.5 -53.5t-6.5 -34v-29q-2 -4 -7 -22t-7 -23v-43q-2 -4 -7 -29.5t-7 -29.5q-2 -6 -4 -20.5t-4.5 -27.5t-4.5 -25.5t-2 -14.5q0 -6 -1 -21.5 t-2 -33t-1 -31.5v-21q-2 0 -5 2.5t-5 2.5q-10 8 -27.5 24.5t-17.5 20.5v307zM102 4q-10 0 -10 -15.5t10 -15.5t10 15.5t-10 15.5zM102 326q-10 0 -10 -15.5t10 -15.5t10 15.5t-10 15.5zM569 1042q-10 0 -10 -15t10 -15t10 15t-10 15zM229 1427q2 0 2 3l5 -3h4q4 -2 8 -13 t6 -15q0 10 5 37.5t9 36.5q4 4 15.5 15t15.5 13l14 -28q0 6 5.5 28.5t9.5 28.5q2 4 14 15t14 16q2 2 7.5 13l7.5 15l15 7.5l15 7.5q0 2 6.5 8t8.5 6h6q2 0 4 1t4 1q4 0 8 -1t6 -1q8 -4 22.5 -10t29 -13.5t24.5 -12.5t12 -7t4.5 -13.5t4.5 -23.5t4 -23.5t2 -13.5t6 -7t8 -7 q2 -4 8 -16.5t13.5 -28t14.5 -28.5t9 -15q0 -2 6 -7.5t9 -7.5q4 -8 15 -24.5t13 -20.5t4 -17t2 -17q-6 0 -31.5 2t-33.5 4l-15 14q-2 4 -7 15.5t-7 15.5v14l-14 29l-15 14q-2 4 -10 19.5t-18 32t-19.5 31.5t-11.5 20q-4 6 -20.5 23t-22.5 22q-2 0 -9 -3.5t-9 -3.5 q0 -4 2 -12t2 -12l-15 -29l-59 -59q-2 0 -7 1t-7 -1q-4 -4 -15.5 -21.5t-13.5 -21.5q-4 -2 -15.5 -14.5t-15.5 -14.5q-2 -4 -14 -22.5t-14 -22.5l-15 -14q-4 -4 -15 -9.5t-13 -5.5q-6 -2 -26.5 -3t-25.5 -1q0 4 2.5 16.5t4.5 16.5t14 15.5t14 15.5t9.5 14t14.5 21.5t13 21.5 t8 14h4z" />
</font>
</defs>
</svg>
